<svg width="528" height="643" viewBox="0 0 528 643" fill="none" xmlns="http://www.w3.org/2000/svg">
<g filter="url(#filter0_d_141_6986)">
<rect x="4" width="520" height="635" fill="white"/>
</g>
<path d="M66.6719 71.0781H66.9219L71.1875 86H75.6094L81.5938 63.4531H76.7188L73.2344 79.3438H72.9844L68.7969 63.4531H64.8125L60.7031 79.3438H60.4531L56.9375 63.4531H52.0312L58 86H62.4531L66.6719 71.0781ZM105.297 86V63.4531H100.578V72.5469H90.4219V63.4531H85.7031V86H90.4219V76.5781H100.578V86H105.297ZM120.625 62.875C114 62.875 109.766 67.4062 109.766 74.7188C109.766 82.0312 113.938 86.5781 120.625 86.5781C127.297 86.5781 131.453 82.0312 131.453 74.7188C131.453 67.4219 127.281 62.875 120.625 62.875ZM120.625 67.0156C124.297 67.0156 126.641 70 126.641 74.7188C126.641 79.4219 124.297 82.4375 120.625 82.4375C116.922 82.4375 114.594 79.4219 114.594 74.7188C114.594 70 116.969 67.0156 120.625 67.0156ZM149.156 83.9375C147.203 83.9375 145.75 82.9375 145.75 81.2188C145.75 79.5312 146.875 78.6406 149.438 78.4688L153.969 78.1719V79.7188C153.969 82.125 151.922 83.9375 149.156 83.9375ZM148.656 86.2969C150.906 86.2969 152.75 85.3125 153.844 83.5156H154.094V86H156.656V74.4688C156.656 70.9688 154.359 68.8594 150.25 68.8594C146.656 68.8594 144 70.6406 143.641 73.3438H146.359C146.734 72.0156 148.141 71.25 150.156 71.25C152.672 71.25 153.969 72.3906 153.969 74.4688V76L149.109 76.2969C145.188 76.5312 142.969 78.2656 142.969 81.2812C142.969 84.3594 145.391 86.2969 148.656 86.2969ZM161.625 86H164.312V75.5625C164.312 73.1875 166.172 71.4688 168.734 71.4688C169.266 71.4688 170.234 71.5625 170.453 71.625V68.9375C170.109 68.8906 169.547 68.8594 169.109 68.8594C166.875 68.8594 164.938 70.0156 164.438 71.6562H164.188V69.1562H161.625V86ZM180.062 71.2344C182.734 71.2344 184.516 73.2031 184.578 76.1875H175.297C175.5 73.2031 177.375 71.2344 180.062 71.2344ZM184.5 81.6406C183.797 83.125 182.328 83.9219 180.156 83.9219C177.297 83.9219 175.438 81.8125 175.297 78.4844V78.3594H187.406V77.3281C187.406 72.0938 184.641 68.8594 180.094 68.8594C175.469 68.8594 172.5 72.2969 172.5 77.5938C172.5 82.9219 175.422 86.2969 180.094 86.2969C183.781 86.2969 186.375 84.5312 187.188 81.6406H184.5ZM202.094 92.0938C205.078 92.0938 206.422 90.9375 207.859 87.0312L214.438 69.1562H211.578L206.969 83.0156H206.719L202.094 69.1562H199.188L205.422 86.0156L205.109 87.0156C204.406 89.0469 203.562 89.7812 202.016 89.7812C201.641 89.7812 201.219 89.7656 200.891 89.7031V92C201.266 92.0625 201.734 92.0938 202.094 92.0938ZM224.328 86.2969C229.125 86.2969 232.094 82.9844 232.094 77.5781C232.094 72.1562 229.125 68.8594 224.328 68.8594C219.531 68.8594 216.562 72.1562 216.562 77.5781C216.562 82.9844 219.531 86.2969 224.328 86.2969ZM224.328 83.875C221.141 83.875 219.344 81.5625 219.344 77.5781C219.344 73.5781 221.141 71.2812 224.328 71.2812C227.516 71.2812 229.312 73.5781 229.312 77.5781C229.312 81.5625 227.516 83.875 224.328 83.875ZM249.938 69.1562H247.25V79.125C247.25 82.0781 245.625 83.8438 242.656 83.8438C239.969 83.8438 238.844 82.4375 238.844 79.4062V69.1562H236.156V80.0625C236.156 84.0469 238.125 86.2969 241.906 86.2969C244.484 86.2969 246.281 85.2344 247.125 83.3594H247.375V86H249.938V69.1562ZM270.266 86.2969C272.594 86.2969 274.594 85.1875 275.656 83.3125H275.906V86H278.469V62.4688H275.781V71.8125H275.547C274.594 69.9688 272.609 68.8594 270.266 68.8594C265.984 68.8594 263.188 72.2969 263.188 77.5781C263.188 82.875 265.953 86.2969 270.266 86.2969ZM270.891 71.2812C273.938 71.2812 275.844 73.7188 275.844 77.5781C275.844 81.4688 273.953 83.875 270.891 83.875C267.812 83.875 265.969 81.5156 265.969 77.5781C265.969 73.6562 267.828 71.2812 270.891 71.2812ZM290.406 71.2344C293.078 71.2344 294.859 73.2031 294.922 76.1875H285.641C285.844 73.2031 287.719 71.2344 290.406 71.2344ZM294.844 81.6406C294.141 83.125 292.672 83.9219 290.5 83.9219C287.641 83.9219 285.781 81.8125 285.641 78.4844V78.3594H297.75V77.3281C297.75 72.0938 294.984 68.8594 290.438 68.8594C285.812 68.8594 282.844 72.2969 282.844 77.5938C282.844 82.9219 285.766 86.2969 290.438 86.2969C294.125 86.2969 296.719 84.5312 297.531 81.6406H294.844ZM301.578 73.7656C301.578 76.2031 303.016 77.5625 306.172 78.3281L309.062 79.0312C310.859 79.4688 311.734 80.25 311.734 81.4062C311.734 82.9531 310.109 84.0312 307.844 84.0312C305.688 84.0312 304.344 83.125 303.891 81.7031H301.125C301.422 84.5 304 86.2969 307.75 86.2969C311.578 86.2969 314.5 84.2188 314.5 81.2031C314.5 78.7812 312.969 77.4062 309.797 76.6406L307.203 76.0156C305.219 75.5312 304.281 74.8125 304.281 73.6562C304.281 72.1562 305.844 71.1406 307.844 71.1406C309.875 71.1406 311.188 72.0312 311.547 73.375H314.203C313.844 70.6094 311.391 68.8594 307.859 68.8594C304.281 68.8594 301.578 70.9688 301.578 73.7656ZM318.781 86H321.469V69.1562H318.781V86ZM320.125 65.7344C321.156 65.7344 322 64.8906 322 63.8594C322 62.8281 321.156 61.9844 320.125 61.9844C319.094 61.9844 318.25 62.8281 318.25 63.8594C318.25 64.8906 319.094 65.7344 320.125 65.7344ZM333.406 83.375C330.281 83.375 328.531 81 328.531 77.3281C328.531 73.6562 330.281 71.2812 333.406 71.2812C336.516 71.2812 338.406 73.6562 338.406 77.3281C338.406 81 336.531 83.375 333.406 83.375ZM333.531 92.4688C338.125 92.4688 341.031 90.0625 341.031 86.2969V69.1562H338.469V71.8281H338.219C337.25 70.0156 335.172 68.8594 332.812 68.8594C328.484 68.8594 325.75 72.2812 325.75 77.3281C325.75 82.375 328.453 85.75 332.812 85.75C335.125 85.75 337.031 84.7031 338.094 82.8438H338.344V86.1562C338.344 88.6406 336.547 90.125 333.531 90.125C331.109 90.125 329.609 89.2344 329.312 87.8594H326.469C326.875 90.6406 329.469 92.4688 333.531 92.4688ZM346.094 86H348.781V76.0312C348.781 73.0781 350.516 71.2812 353.203 71.2812C355.891 71.2812 357.172 72.7188 357.172 75.75V86H359.859V75.0938C359.859 71.0938 357.75 68.8594 353.969 68.8594C351.391 68.8594 349.75 69.9531 348.906 71.8125H348.656V69.1562H346.094V86ZM364.844 86H367.531V69.1562H364.844V86ZM366.188 65.7344C367.219 65.7344 368.062 64.8906 368.062 63.8594C368.062 62.8281 367.219 61.9844 366.188 61.9844C365.156 61.9844 364.312 62.8281 364.312 63.8594C364.312 64.8906 365.156 65.7344 366.188 65.7344ZM372.656 86H375.344V76.0312C375.344 73.0781 377.078 71.2812 379.766 71.2812C382.453 71.2812 383.734 72.7188 383.734 75.75V86H386.422V75.0938C386.422 71.0938 384.312 68.8594 380.531 68.8594C377.953 68.8594 376.312 69.9531 375.469 71.8125H375.219V69.1562H372.656V86ZM398.156 83.375C395.031 83.375 393.281 81 393.281 77.3281C393.281 73.6562 395.031 71.2812 398.156 71.2812C401.266 71.2812 403.156 73.6562 403.156 77.3281C403.156 81 401.281 83.375 398.156 83.375ZM398.281 92.4688C402.875 92.4688 405.781 90.0625 405.781 86.2969V69.1562H403.219V71.8281H402.969C402 70.0156 399.922 68.8594 397.562 68.8594C393.234 68.8594 390.5 72.2812 390.5 77.3281C390.5 82.375 393.203 85.75 397.562 85.75C399.875 85.75 401.781 84.7031 402.844 82.8438H403.094V86.1562C403.094 88.6406 401.297 90.125 398.281 90.125C395.859 90.125 394.359 89.2344 394.062 87.8594H391.219C391.625 90.6406 394.219 92.4688 398.281 92.4688ZM421 86H423.688V71.4062H427.547V69.1562H423.688V67.3594C423.688 65.5156 424.5 64.5781 426.438 64.5781C426.922 64.5781 427.375 64.5938 427.703 64.6562V62.4688C427.141 62.3594 426.547 62.3125 425.891 62.3125C422.688 62.3125 421 63.9219 421 67.2812V69.1562H418.203V71.4062H421V86ZM437.672 86.2969C442.469 86.2969 445.438 82.9844 445.438 77.5781C445.438 72.1562 442.469 68.8594 437.672 68.8594C432.875 68.8594 429.906 72.1562 429.906 77.5781C429.906 82.9844 432.875 86.2969 437.672 86.2969ZM437.672 83.875C434.484 83.875 432.688 81.5625 432.688 77.5781C432.688 73.5781 434.484 71.2812 437.672 71.2812C440.859 71.2812 442.656 73.5781 442.656 77.5781C442.656 81.5625 440.859 83.875 437.672 83.875ZM449.656 86H452.344V75.5625C452.344 73.1875 454.203 71.4688 456.766 71.4688C457.297 71.4688 458.266 71.5625 458.484 71.625V68.9375C458.141 68.8906 457.578 68.8594 457.141 68.8594C454.906 68.8594 452.969 70.0156 452.469 71.6562H452.219V69.1562H449.656V86ZM461.188 69.3438H463.859C464.031 67.1094 465.531 65.7188 467.891 65.7188C470.219 65.7188 471.719 67.1406 471.719 69.0781C471.719 70.75 471.016 71.7344 469.203 72.8438C467.062 74.125 466.062 75.5312 466.078 77.5938V79.0312H468.812V78.0156C468.812 76.375 469.375 75.5 471.359 74.3281C473.359 73.125 474.625 71.3906 474.625 68.9375C474.625 65.7188 471.938 63.2812 468 63.2812C463.609 63.2812 461.359 65.9688 461.188 69.3438ZM467.656 86.2812C468.922 86.2812 469.812 85.375 469.812 84.1094C469.812 82.8281 468.922 81.9219 467.656 81.9219C466.391 81.9219 465.484 82.8281 465.484 84.1094C465.484 85.375 466.391 86.2812 467.656 86.2812Z" fill="#58A8A0"/>
<path d="M37.0664 176.271V196H39.5273V188.959H44.4902C48.1953 188.959 50.834 186.348 50.834 182.656C50.834 178.896 48.25 176.271 44.5176 176.271H37.0664ZM39.5273 178.459H43.875C46.7324 178.459 48.3047 179.949 48.3047 182.656C48.3047 185.268 46.6777 186.771 43.875 186.771H39.5273V178.459ZM54.7031 196H57.0547V175.41H54.7031V196ZM66.1602 194.195C64.4512 194.195 63.1797 193.32 63.1797 191.816C63.1797 190.34 64.1641 189.561 66.4062 189.41L70.3711 189.15V190.504C70.3711 192.609 68.5801 194.195 66.1602 194.195ZM65.7227 196.26C67.6914 196.26 69.3047 195.398 70.2617 193.826H70.4805V196H72.7227V185.91C72.7227 182.848 70.7129 181.002 67.1172 181.002C63.9727 181.002 61.6484 182.561 61.334 184.926H63.7129C64.041 183.764 65.2715 183.094 67.0352 183.094C69.2363 183.094 70.3711 184.092 70.3711 185.91V187.25L66.1191 187.51C62.6875 187.715 60.7461 189.232 60.7461 191.871C60.7461 194.564 62.8652 196.26 65.7227 196.26ZM78.0547 177.447V181.262H75.6758V183.23H78.0547V192.172C78.0547 194.988 79.2715 196.109 82.3066 196.109C82.7715 196.109 83.2227 196.055 83.6875 195.973V193.99C83.25 194.031 83.0176 194.045 82.5938 194.045C81.0625 194.045 80.4062 193.307 80.4062 191.57V183.23H83.6875V181.262H80.4062V177.447H78.0547ZM92.9023 183.08C95.2402 183.08 96.7988 184.803 96.8535 187.414H88.7324C88.9102 184.803 90.5508 183.08 92.9023 183.08ZM96.7852 192.186C96.1699 193.484 94.8848 194.182 92.9844 194.182C90.4824 194.182 88.8555 192.336 88.7324 189.424V189.314H99.3281V188.412C99.3281 183.832 96.9082 181.002 92.9297 181.002C88.8828 181.002 86.2852 184.01 86.2852 188.645C86.2852 193.307 88.8418 196.26 92.9297 196.26C96.1562 196.26 98.4258 194.715 99.1367 192.186H96.7852ZM110.977 196H113.328V181.262H110.977V196ZM112.152 178.268C113.055 178.268 113.793 177.529 113.793 176.627C113.793 175.725 113.055 174.986 112.152 174.986C111.25 174.986 110.512 175.725 110.512 176.627C110.512 177.529 111.25 178.268 112.152 178.268ZM117.471 185.295C117.471 187.428 118.729 188.617 121.49 189.287L124.02 189.902C125.592 190.285 126.357 190.969 126.357 191.98C126.357 193.334 124.936 194.277 122.953 194.277C121.066 194.277 119.891 193.484 119.494 192.24H117.074C117.334 194.688 119.59 196.26 122.871 196.26C126.221 196.26 128.777 194.441 128.777 191.803C128.777 189.684 127.438 188.48 124.662 187.811L122.393 187.264C120.656 186.84 119.836 186.211 119.836 185.199C119.836 183.887 121.203 182.998 122.953 182.998C124.73 182.998 125.879 183.777 126.193 184.953H128.518C128.203 182.533 126.057 181.002 122.967 181.002C119.836 181.002 117.471 182.848 117.471 185.295ZM145.826 196.26C147.863 196.26 149.613 195.289 150.543 193.648H150.762V196H153.004V175.41H150.652V183.586H150.447C149.613 181.973 147.877 181.002 145.826 181.002C142.08 181.002 139.633 184.01 139.633 188.631C139.633 193.266 142.053 196.26 145.826 196.26ZM146.373 183.121C149.039 183.121 150.707 185.254 150.707 188.631C150.707 192.035 149.053 194.141 146.373 194.141C143.68 194.141 142.066 192.076 142.066 188.631C142.066 185.199 143.693 183.121 146.373 183.121ZM163.449 183.08C165.787 183.08 167.346 184.803 167.4 187.414H159.279C159.457 184.803 161.098 183.08 163.449 183.08ZM167.332 192.186C166.717 193.484 165.432 194.182 163.531 194.182C161.029 194.182 159.402 192.336 159.279 189.424V189.314H169.875V188.412C169.875 183.832 167.455 181.002 163.477 181.002C159.43 181.002 156.832 184.01 156.832 188.645C156.832 193.307 159.389 196.26 163.477 196.26C166.703 196.26 168.973 194.715 169.684 192.186H167.332ZM173.225 185.295C173.225 187.428 174.482 188.617 177.244 189.287L179.773 189.902C181.346 190.285 182.111 190.969 182.111 191.98C182.111 193.334 180.689 194.277 178.707 194.277C176.82 194.277 175.645 193.484 175.248 192.24H172.828C173.088 194.688 175.344 196.26 178.625 196.26C181.975 196.26 184.531 194.441 184.531 191.803C184.531 189.684 183.191 188.48 180.416 187.811L178.146 187.264C176.41 186.84 175.59 186.211 175.59 185.199C175.59 183.887 176.957 182.998 178.707 182.998C180.484 182.998 181.633 183.777 181.947 184.953H184.271C183.957 182.533 181.811 181.002 178.721 181.002C175.59 181.002 173.225 182.848 173.225 185.295ZM188.277 196H190.629V181.262H188.277V196ZM189.453 178.268C190.355 178.268 191.094 177.529 191.094 176.627C191.094 175.725 190.355 174.986 189.453 174.986C188.551 174.986 187.812 175.725 187.812 176.627C187.812 177.529 188.551 178.268 189.453 178.268ZM201.074 193.703C198.34 193.703 196.809 191.625 196.809 188.412C196.809 185.199 198.34 183.121 201.074 183.121C203.795 183.121 205.449 185.199 205.449 188.412C205.449 191.625 203.809 193.703 201.074 193.703ZM201.184 201.66C205.203 201.66 207.746 199.555 207.746 196.26V181.262H205.504V183.6H205.285C204.438 182.014 202.619 181.002 200.555 181.002C196.768 181.002 194.375 183.996 194.375 188.412C194.375 192.828 196.74 195.781 200.555 195.781C202.578 195.781 204.246 194.865 205.176 193.238H205.395V196.137C205.395 198.311 203.822 199.609 201.184 199.609C199.064 199.609 197.752 198.83 197.492 197.627H195.004C195.359 200.061 197.629 201.66 201.184 201.66ZM212.176 196H214.527V187.277C214.527 184.693 216.045 183.121 218.396 183.121C220.748 183.121 221.869 184.379 221.869 187.031V196H224.221V186.457C224.221 182.957 222.375 181.002 219.066 181.002C216.811 181.002 215.375 181.959 214.637 183.586H214.418V181.262H212.176V196ZM234.406 183.08C236.744 183.08 238.303 184.803 238.357 187.414H230.236C230.414 184.803 232.055 183.08 234.406 183.08ZM238.289 192.186C237.674 193.484 236.389 194.182 234.488 194.182C231.986 194.182 230.359 192.336 230.236 189.424V189.314H240.832V188.412C240.832 183.832 238.412 181.002 234.434 181.002C230.387 181.002 227.789 184.01 227.789 188.645C227.789 193.307 230.346 196.26 234.434 196.26C237.66 196.26 239.93 194.715 240.641 192.186H238.289ZM249.979 196.26C252.016 196.26 253.766 195.289 254.695 193.648H254.914V196H257.156V175.41H254.805V183.586H254.6C253.766 181.973 252.029 181.002 249.979 181.002C246.232 181.002 243.785 184.01 243.785 188.631C243.785 193.266 246.205 196.26 249.979 196.26ZM250.525 183.121C253.191 183.121 254.859 185.254 254.859 188.631C254.859 192.035 253.205 194.141 250.525 194.141C247.832 194.141 246.219 192.076 246.219 188.631C246.219 185.199 247.846 183.121 250.525 183.121ZM270.609 196H272.961V183.23H276.338V181.262H272.961V179.689C272.961 178.076 273.672 177.256 275.367 177.256C275.791 177.256 276.188 177.27 276.475 177.324V175.41C275.982 175.314 275.463 175.273 274.889 175.273C272.086 175.273 270.609 176.682 270.609 179.621V181.262H268.162V183.23H270.609V196ZM285.197 196.26C289.395 196.26 291.992 193.361 291.992 188.631C291.992 183.887 289.395 181.002 285.197 181.002C281 181.002 278.402 183.887 278.402 188.631C278.402 193.361 281 196.26 285.197 196.26ZM285.197 194.141C282.408 194.141 280.836 192.117 280.836 188.631C280.836 185.131 282.408 183.121 285.197 183.121C287.986 183.121 289.559 185.131 289.559 188.631C289.559 192.117 287.986 194.141 285.197 194.141ZM295.684 196H298.035V186.867C298.035 184.789 299.662 183.285 301.904 183.285C302.369 183.285 303.217 183.367 303.408 183.422V181.07C303.107 181.029 302.615 181.002 302.232 181.002C300.277 181.002 298.582 182.014 298.145 183.449H297.926V181.262H295.684V196ZM321.578 196.26C325.311 196.26 327.758 193.238 327.758 188.631C327.758 183.996 325.324 181.002 321.578 181.002C319.555 181.002 317.764 182 316.957 183.586H316.738V175.41H314.387V196H316.629V193.648H316.848C317.777 195.289 319.527 196.26 321.578 196.26ZM321.031 183.121C323.725 183.121 325.324 185.186 325.324 188.631C325.324 192.076 323.725 194.141 321.031 194.141C318.352 194.141 316.684 192.035 316.684 188.631C316.684 185.227 318.352 183.121 321.031 183.121ZM337.328 183.08C339.666 183.08 341.225 184.803 341.279 187.414H333.158C333.336 184.803 334.977 183.08 337.328 183.08ZM341.211 192.186C340.596 193.484 339.311 194.182 337.41 194.182C334.908 194.182 333.281 192.336 333.158 189.424V189.314H343.754V188.412C343.754 183.832 341.334 181.002 337.355 181.002C333.309 181.002 330.711 184.01 330.711 188.645C330.711 193.307 333.268 196.26 337.355 196.26C340.582 196.26 342.852 194.715 343.562 192.186H341.211ZM353.406 193.703C350.672 193.703 349.141 191.625 349.141 188.412C349.141 185.199 350.672 183.121 353.406 183.121C356.127 183.121 357.781 185.199 357.781 188.412C357.781 191.625 356.141 193.703 353.406 193.703ZM353.516 201.66C357.535 201.66 360.078 199.555 360.078 196.26V181.262H357.836V183.6H357.617C356.77 182.014 354.951 181.002 352.887 181.002C349.1 181.002 346.707 183.996 346.707 188.412C346.707 192.828 349.072 195.781 352.887 195.781C354.91 195.781 356.578 194.865 357.508 193.238H357.727V196.137C357.727 198.311 356.154 199.609 353.516 199.609C351.396 199.609 350.084 198.83 349.824 197.627H347.336C347.691 200.061 349.961 201.66 353.516 201.66ZM364.562 196H366.914V181.262H364.562V196ZM365.738 178.268C366.641 178.268 367.379 177.529 367.379 176.627C367.379 175.725 366.641 174.986 365.738 174.986C364.836 174.986 364.098 175.725 364.098 176.627C364.098 177.529 364.836 178.268 365.738 178.268ZM371.398 196H373.75V187.277C373.75 184.693 375.268 183.121 377.619 183.121C379.971 183.121 381.092 184.379 381.092 187.031V196H383.443V186.457C383.443 182.957 381.598 181.002 378.289 181.002C376.033 181.002 374.598 181.959 373.859 183.586H373.641V181.262H371.398V196ZM387.75 196H390.102V187.277C390.102 184.693 391.619 183.121 393.971 183.121C396.322 183.121 397.443 184.379 397.443 187.031V196H399.795V186.457C399.795 182.957 397.949 181.002 394.641 181.002C392.385 181.002 390.949 181.959 390.211 183.586H389.992V181.262H387.75V196ZM409.98 183.08C412.318 183.08 413.877 184.803 413.932 187.414H405.811C405.988 184.803 407.629 183.08 409.98 183.08ZM413.863 192.186C413.248 193.484 411.963 194.182 410.062 194.182C407.561 194.182 405.934 192.336 405.811 189.424V189.314H416.406V188.412C416.406 183.832 413.986 181.002 410.008 181.002C405.961 181.002 403.363 184.01 403.363 188.645C403.363 193.307 405.92 196.26 410.008 196.26C413.234 196.26 415.504 194.715 416.215 192.186H413.863ZM420.098 196H422.449V186.867C422.449 184.789 424.076 183.285 426.318 183.285C426.783 183.285 427.631 183.367 427.822 183.422V181.07C427.521 181.029 427.029 181.002 426.646 181.002C424.691 181.002 422.996 182.014 422.559 183.449H422.34V181.262H420.098V196ZM443.203 194.195C441.494 194.195 440.223 193.32 440.223 191.816C440.223 190.34 441.207 189.561 443.449 189.41L447.414 189.15V190.504C447.414 192.609 445.623 194.195 443.203 194.195ZM442.766 196.26C444.734 196.26 446.348 195.398 447.305 193.826H447.523V196H449.766V185.91C449.766 182.848 447.756 181.002 444.16 181.002C441.016 181.002 438.691 182.561 438.377 184.926H440.756C441.084 183.764 442.314 183.094 444.078 183.094C446.279 183.094 447.414 184.092 447.414 185.91V187.25L443.162 187.51C439.73 187.715 437.789 189.232 437.789 191.871C437.789 194.564 439.908 196.26 442.766 196.26ZM454.113 196H456.465V187.277C456.465 184.693 457.982 183.121 460.334 183.121C462.686 183.121 463.807 184.379 463.807 187.031V196H466.158V186.457C466.158 182.957 464.312 181.002 461.004 181.002C458.748 181.002 457.312 181.959 456.574 183.586H456.355V181.262H454.113V196ZM475.92 196.26C477.957 196.26 479.707 195.289 480.637 193.648H480.855V196H483.098V175.41H480.746V183.586H480.541C479.707 181.973 477.971 181.002 475.92 181.002C472.174 181.002 469.727 184.01 469.727 188.631C469.727 193.266 472.146 196.26 475.92 196.26ZM476.467 183.121C479.133 183.121 480.801 185.254 480.801 188.631C480.801 192.035 479.146 194.141 476.467 194.141C473.773 194.141 472.16 192.076 472.16 188.631C472.16 185.199 473.787 183.121 476.467 183.121ZM44.6543 229H47.0059V220.277C47.0059 217.789 48.4551 216.121 51.0938 216.121C53.3223 216.121 54.498 217.42 54.498 220.031V229H56.8496V219.457C56.8496 215.998 54.8809 214.002 51.7637 214.002C49.5078 214.002 47.9629 214.959 47.2246 216.586H47.0059V208.41H44.6543V229ZM67.1992 229.26C71.3965 229.26 73.9941 226.361 73.9941 221.631C73.9941 216.887 71.3965 214.002 67.1992 214.002C63.002 214.002 60.4043 216.887 60.4043 221.631C60.4043 226.361 63.002 229.26 67.1992 229.26ZM67.1992 227.141C64.4102 227.141 62.8379 225.117 62.8379 221.631C62.8379 218.131 64.4102 216.121 67.1992 216.121C69.9883 216.121 71.5605 218.131 71.5605 221.631C71.5605 225.117 69.9883 227.141 67.1992 227.141ZM77.6855 229H80.0371V219.867C80.0371 217.789 81.5273 216.121 83.4551 216.121C85.3145 216.121 86.5312 217.242 86.5312 218.992V229H88.8828V219.525C88.8828 217.652 90.25 216.121 92.3008 216.121C94.3789 216.121 95.4043 217.188 95.4043 219.361V229H97.7559V218.814C97.7559 215.725 96.0742 214.002 93.0664 214.002C91.0293 214.002 89.3477 215.027 88.5547 216.586H88.3359C87.6523 215.055 86.2578 214.002 84.2617 214.002C82.293 214.002 80.8164 214.945 80.1465 216.586H79.9277V214.262H77.6855V229ZM107.928 216.08C110.266 216.08 111.824 217.803 111.879 220.414H103.758C103.936 217.803 105.576 216.08 107.928 216.08ZM111.811 225.186C111.195 226.484 109.91 227.182 108.01 227.182C105.508 227.182 103.881 225.336 103.758 222.424V222.314H114.354V221.412C114.354 216.832 111.934 214.002 107.955 214.002C103.908 214.002 101.311 217.01 101.311 221.645C101.311 226.307 103.867 229.26 107.955 229.26C111.182 229.26 113.451 227.715 114.162 225.186H111.811ZM138.143 218.773C137.732 216.148 135.545 214.002 131.963 214.002C127.834 214.002 125.209 216.982 125.209 221.576C125.209 226.266 127.848 229.26 131.977 229.26C135.518 229.26 137.719 227.264 138.143 224.557H135.764C135.326 226.225 133.945 227.141 131.963 227.141C129.338 227.141 127.643 224.98 127.643 221.576C127.643 218.24 129.311 216.121 131.963 216.121C134.082 216.121 135.381 217.311 135.764 218.773H138.143ZM147.672 229.26C151.869 229.26 154.467 226.361 154.467 221.631C154.467 216.887 151.869 214.002 147.672 214.002C143.475 214.002 140.877 216.887 140.877 221.631C140.877 226.361 143.475 229.26 147.672 229.26ZM147.672 227.141C144.883 227.141 143.311 225.117 143.311 221.631C143.311 218.131 144.883 216.121 147.672 216.121C150.461 216.121 152.033 218.131 152.033 221.631C152.033 225.117 150.461 227.141 147.672 227.141ZM164.215 229.26C168.412 229.26 171.01 226.361 171.01 221.631C171.01 216.887 168.412 214.002 164.215 214.002C160.018 214.002 157.42 216.887 157.42 221.631C157.42 226.361 160.018 229.26 164.215 229.26ZM164.215 227.141C161.426 227.141 159.854 225.117 159.854 221.631C159.854 218.131 161.426 216.121 164.215 216.121C167.004 216.121 168.576 218.131 168.576 221.631C168.576 225.117 167.004 227.141 164.215 227.141ZM177.408 220.701H177.189V208.41H174.838V229H177.189V223.408L178.598 222.096L184.121 229H187.115L180.348 220.578L186.691 214.262H183.807L177.408 220.701ZM189.016 218.295C189.016 220.428 190.273 221.617 193.035 222.287L195.564 222.902C197.137 223.285 197.902 223.969 197.902 224.98C197.902 226.334 196.48 227.277 194.498 227.277C192.611 227.277 191.436 226.484 191.039 225.24H188.619C188.879 227.688 191.135 229.26 194.416 229.26C197.766 229.26 200.322 227.441 200.322 224.803C200.322 222.684 198.982 221.48 196.207 220.811L193.938 220.264C192.201 219.84 191.381 219.211 191.381 218.199C191.381 216.887 192.748 215.998 194.498 215.998C196.275 215.998 197.424 216.777 197.738 217.953H200.062C199.748 215.533 197.602 214.002 194.512 214.002C191.381 214.002 189.016 215.848 189.016 218.295ZM230.455 214.262H228.09L225.191 226.047H224.973L221.678 214.262H219.422L216.127 226.047H215.908L213.01 214.262H210.631L214.76 229H217.139L220.42 217.598H220.639L223.934 229H226.326L230.455 214.262ZM233.736 229H236.088V220.277C236.088 217.789 237.537 216.121 240.176 216.121C242.404 216.121 243.58 217.42 243.58 220.031V229H245.932V219.457C245.932 215.998 243.963 214.002 240.846 214.002C238.59 214.002 237.045 214.959 236.307 216.586H236.088V208.41H233.736V229ZM256.281 229.26C260.479 229.26 263.076 226.361 263.076 221.631C263.076 216.887 260.479 214.002 256.281 214.002C252.084 214.002 249.486 216.887 249.486 221.631C249.486 226.361 252.084 229.26 256.281 229.26ZM256.281 227.141C253.492 227.141 251.92 225.117 251.92 221.631C251.92 218.131 253.492 216.121 256.281 216.121C259.07 216.121 260.643 218.131 260.643 221.631C260.643 225.117 259.07 227.141 256.281 227.141ZM274.67 229H277.021V220.277C277.021 217.693 278.539 216.121 280.891 216.121C283.242 216.121 284.363 217.379 284.363 220.031V229H286.715V219.457C286.715 215.957 284.869 214.002 281.561 214.002C279.305 214.002 277.869 214.959 277.131 216.586H276.912V214.262H274.67V229ZM296.9 216.08C299.238 216.08 300.797 217.803 300.852 220.414H292.73C292.908 217.803 294.549 216.08 296.9 216.08ZM300.783 225.186C300.168 226.484 298.883 227.182 296.982 227.182C294.48 227.182 292.854 225.336 292.73 222.424V222.314H303.326V221.412C303.326 216.832 300.906 214.002 296.928 214.002C292.881 214.002 290.283 217.01 290.283 221.645C290.283 226.307 292.84 229.26 296.928 229.26C300.154 229.26 302.424 227.715 303.135 225.186H300.783ZM312.896 216.08C315.234 216.08 316.793 217.803 316.848 220.414H308.727C308.904 217.803 310.545 216.08 312.896 216.08ZM316.779 225.186C316.164 226.484 314.879 227.182 312.979 227.182C310.477 227.182 308.85 225.336 308.727 222.424V222.314H319.322V221.412C319.322 216.832 316.902 214.002 312.924 214.002C308.877 214.002 306.279 217.01 306.279 221.645C306.279 226.307 308.836 229.26 312.924 229.26C316.15 229.26 318.42 227.715 319.131 225.186H316.779ZM328.469 229.26C330.506 229.26 332.256 228.289 333.186 226.648H333.404V229H335.646V208.41H333.295V216.586H333.09C332.256 214.973 330.52 214.002 328.469 214.002C324.723 214.002 322.275 217.01 322.275 221.631C322.275 226.266 324.695 229.26 328.469 229.26ZM329.016 216.121C331.682 216.121 333.35 218.254 333.35 221.631C333.35 225.035 331.695 227.141 329.016 227.141C326.322 227.141 324.709 225.076 324.709 221.631C324.709 218.199 326.336 216.121 329.016 216.121ZM339.871 218.295C339.871 220.428 341.129 221.617 343.891 222.287L346.42 222.902C347.992 223.285 348.758 223.969 348.758 224.98C348.758 226.334 347.336 227.277 345.354 227.277C343.467 227.277 342.291 226.484 341.895 225.24H339.475C339.734 227.688 341.99 229.26 345.271 229.26C348.621 229.26 351.178 227.441 351.178 224.803C351.178 222.684 349.838 221.48 347.062 220.811L344.793 220.264C343.057 219.84 342.236 219.211 342.236 218.199C342.236 216.887 343.604 215.998 345.354 215.998C347.131 215.998 348.279 216.777 348.594 217.953H350.918C350.604 215.533 348.457 214.002 345.367 214.002C342.236 214.002 339.871 215.848 339.871 218.295ZM363.756 210.447V214.262H361.377V216.23H363.756V225.172C363.756 227.988 364.973 229.109 368.008 229.109C368.473 229.109 368.924 229.055 369.389 228.973V226.99C368.951 227.031 368.719 227.045 368.295 227.045C366.764 227.045 366.107 226.307 366.107 224.57V216.23H369.389V214.262H366.107V210.447H363.756ZM373.08 229H375.432V220.277C375.432 217.789 376.881 216.121 379.52 216.121C381.748 216.121 382.924 217.42 382.924 220.031V229H385.275V219.457C385.275 215.998 383.307 214.002 380.189 214.002C377.934 214.002 376.389 214.959 375.65 216.586H375.432V208.41H373.08V229ZM395.447 216.08C397.785 216.08 399.344 217.803 399.398 220.414H391.277C391.455 217.803 393.096 216.08 395.447 216.08ZM399.33 225.186C398.715 226.484 397.43 227.182 395.529 227.182C393.027 227.182 391.4 225.336 391.277 222.424V222.314H401.873V221.412C401.873 216.832 399.453 214.002 395.475 214.002C391.428 214.002 388.83 217.01 388.83 221.645C388.83 226.307 391.387 229.26 395.475 229.26C398.701 229.26 400.971 227.715 401.682 225.186H399.33ZM419.346 216.08C421.684 216.08 423.242 217.803 423.297 220.414H415.176C415.354 217.803 416.994 216.08 419.346 216.08ZM423.229 225.186C422.613 226.484 421.328 227.182 419.428 227.182C416.926 227.182 415.299 225.336 415.176 222.424V222.314H425.771V221.412C425.771 216.832 423.352 214.002 419.373 214.002C415.326 214.002 412.729 217.01 412.729 221.645C412.729 226.307 415.285 229.26 419.373 229.26C422.6 229.26 424.869 227.715 425.58 225.186H423.229ZM434.139 223.436L437.625 229H440.414L435.342 221.535L440.346 214.262H437.68L434.221 219.744H434.002L430.502 214.262H427.699L432.799 221.631L427.754 229H430.42L433.92 223.436H434.139ZM444.611 210.447V214.262H442.232V216.23H444.611V225.172C444.611 227.988 445.828 229.109 448.863 229.109C449.328 229.109 449.779 229.055 450.244 228.973V226.99C449.807 227.031 449.574 227.045 449.15 227.045C447.619 227.045 446.963 226.307 446.963 224.57V216.23H450.244V214.262H446.963V210.447H444.611ZM453.799 229H456.15V219.867C456.15 217.789 457.777 216.285 460.02 216.285C460.484 216.285 461.332 216.367 461.523 216.422V214.07C461.223 214.029 460.73 214.002 460.348 214.002C458.393 214.002 456.697 215.014 456.26 216.449H456.041V214.262H453.799V229ZM469.002 227.195C467.293 227.195 466.021 226.32 466.021 224.816C466.021 223.34 467.006 222.561 469.248 222.41L473.213 222.15V223.504C473.213 225.609 471.422 227.195 469.002 227.195ZM468.564 229.26C470.533 229.26 472.146 228.398 473.104 226.826H473.322V229H475.564V218.91C475.564 215.848 473.555 214.002 469.959 214.002C466.814 214.002 464.49 215.561 464.176 217.926H466.555C466.883 216.764 468.113 216.094 469.877 216.094C472.078 216.094 473.213 217.092 473.213 218.91V220.25L468.961 220.51C465.529 220.715 463.588 222.232 463.588 224.871C463.588 227.564 465.707 229.26 468.564 229.26ZM36.2598 262H38.6113V253.277C38.6113 250.789 40.0605 249.121 42.6992 249.121C44.9277 249.121 46.1035 250.42 46.1035 253.031V262H48.4551V252.457C48.4551 248.998 46.4863 247.002 43.3691 247.002C41.1133 247.002 39.5684 247.959 38.8301 249.586H38.6113V241.41H36.2598V262ZM58.627 249.08C60.9648 249.08 62.5234 250.803 62.5781 253.414H54.457C54.6348 250.803 56.2754 249.08 58.627 249.08ZM62.5098 258.186C61.8945 259.484 60.6094 260.182 58.709 260.182C56.207 260.182 54.5801 258.336 54.457 255.424V255.314H65.0527V254.412C65.0527 249.832 62.6328 247.002 58.6543 247.002C54.6074 247.002 52.0098 250.01 52.0098 254.645C52.0098 259.307 54.5664 262.26 58.6543 262.26C61.8809 262.26 64.1504 260.715 64.8613 258.186H62.5098ZM68.8809 262H71.2324V241.41H68.8809V262ZM82.9766 247.002C80.9668 247.002 79.2031 248.027 78.2598 249.723H78.041V247.262H75.7988V266.922H78.1504V259.785H78.3691C79.1758 261.344 80.8711 262.26 82.9766 262.26C86.7227 262.26 89.1699 259.238 89.1699 254.631C89.1699 249.996 86.7363 247.002 82.9766 247.002ZM82.416 260.141C79.7637 260.141 78.082 258.008 78.082 254.631C78.082 251.24 79.7637 249.121 82.4297 249.121C85.123 249.121 86.7363 251.186 86.7363 254.631C86.7363 258.076 85.123 260.141 82.416 260.141ZM106.82 262.26C111.018 262.26 113.615 259.361 113.615 254.631C113.615 249.887 111.018 247.002 106.82 247.002C102.623 247.002 100.025 249.887 100.025 254.631C100.025 259.361 102.623 262.26 106.82 262.26ZM106.82 260.141C104.031 260.141 102.459 258.117 102.459 254.631C102.459 251.131 104.031 249.121 106.82 249.121C109.609 249.121 111.182 251.131 111.182 254.631C111.182 258.117 109.609 260.141 106.82 260.141ZM118.291 262H120.643V249.23H124.02V247.262H120.643V245.689C120.643 244.076 121.354 243.256 123.049 243.256C123.473 243.256 123.869 243.27 124.156 243.324V241.41C123.664 241.314 123.145 241.273 122.57 241.273C119.768 241.273 118.291 242.682 118.291 245.621V247.262H115.844V249.23H118.291V262ZM135.012 251.295C135.012 253.428 136.27 254.617 139.031 255.287L141.561 255.902C143.133 256.285 143.898 256.969 143.898 257.98C143.898 259.334 142.477 260.277 140.494 260.277C138.607 260.277 137.432 259.484 137.035 258.24H134.615C134.875 260.688 137.131 262.26 140.412 262.26C143.762 262.26 146.318 260.441 146.318 257.803C146.318 255.684 144.979 254.48 142.203 253.811L139.934 253.264C138.197 252.84 137.377 252.211 137.377 251.199C137.377 249.887 138.744 248.998 140.494 248.998C142.271 248.998 143.42 249.777 143.734 250.953H146.059C145.744 248.533 143.598 247.002 140.508 247.002C137.377 247.002 135.012 248.848 135.012 251.295ZM161.932 247.262H159.58V255.984C159.58 258.568 158.158 260.113 155.561 260.113C153.209 260.113 152.225 258.883 152.225 256.23V247.262H149.873V256.805C149.873 260.291 151.596 262.26 154.904 262.26C157.16 262.26 158.732 261.33 159.471 259.689H159.689V262H161.932V247.262ZM172.322 259.703C169.588 259.703 168.057 257.625 168.057 254.412C168.057 251.199 169.588 249.121 172.322 249.121C175.043 249.121 176.697 251.199 176.697 254.412C176.697 257.625 175.057 259.703 172.322 259.703ZM172.432 267.66C176.451 267.66 178.994 265.555 178.994 262.26V247.262H176.752V249.6H176.533C175.686 248.014 173.867 247.002 171.803 247.002C168.016 247.002 165.623 249.996 165.623 254.412C165.623 258.828 167.988 261.781 171.803 261.781C173.826 261.781 175.494 260.865 176.424 259.238H176.643V262.137C176.643 264.311 175.07 265.609 172.432 265.609C170.312 265.609 169 264.83 168.74 263.627H166.252C166.607 266.061 168.877 267.66 172.432 267.66ZM189.385 259.703C186.65 259.703 185.119 257.625 185.119 254.412C185.119 251.199 186.65 249.121 189.385 249.121C192.105 249.121 193.76 251.199 193.76 254.412C193.76 257.625 192.119 259.703 189.385 259.703ZM189.494 267.66C193.514 267.66 196.057 265.555 196.057 262.26V247.262H193.814V249.6H193.596C192.748 248.014 190.93 247.002 188.865 247.002C185.078 247.002 182.686 249.996 182.686 254.412C182.686 258.828 185.051 261.781 188.865 261.781C190.889 261.781 192.557 260.865 193.486 259.238H193.705V262.137C193.705 264.311 192.133 265.609 189.494 265.609C187.375 265.609 186.062 264.83 185.803 263.627H183.314C183.67 266.061 185.939 267.66 189.494 267.66ZM206.365 249.08C208.703 249.08 210.262 250.803 210.316 253.414H202.195C202.373 250.803 204.014 249.08 206.365 249.08ZM210.248 258.186C209.633 259.484 208.348 260.182 206.447 260.182C203.945 260.182 202.318 258.336 202.195 255.424V255.314H212.791V254.412C212.791 249.832 210.371 247.002 206.393 247.002C202.346 247.002 199.748 250.01 199.748 254.645C199.748 259.307 202.305 262.26 206.393 262.26C209.619 262.26 211.889 260.715 212.6 258.186H210.248ZM216.141 251.295C216.141 253.428 217.398 254.617 220.16 255.287L222.689 255.902C224.262 256.285 225.027 256.969 225.027 257.98C225.027 259.334 223.605 260.277 221.623 260.277C219.736 260.277 218.561 259.484 218.164 258.24H215.744C216.004 260.688 218.26 262.26 221.541 262.26C224.891 262.26 227.447 260.441 227.447 257.803C227.447 255.684 226.107 254.48 223.332 253.811L221.062 253.264C219.326 252.84 218.506 252.211 218.506 251.199C218.506 249.887 219.873 248.998 221.623 248.998C223.4 248.998 224.549 249.777 224.863 250.953H227.188C226.873 248.533 224.727 247.002 221.637 247.002C218.506 247.002 216.141 248.848 216.141 251.295ZM231.986 243.447V247.262H229.607V249.23H231.986V258.172C231.986 260.988 233.203 262.109 236.238 262.109C236.703 262.109 237.154 262.055 237.619 261.973V259.99C237.182 260.031 236.949 260.045 236.525 260.045C234.994 260.045 234.338 259.307 234.338 257.57V249.23H237.619V247.262H234.338V243.447H231.986ZM241.229 262H243.58V247.262H241.229V262ZM242.404 244.268C243.307 244.268 244.045 243.529 244.045 242.627C244.045 241.725 243.307 240.986 242.404 240.986C241.502 240.986 240.764 241.725 240.764 242.627C240.764 243.529 241.502 244.268 242.404 244.268ZM254.121 262.26C258.318 262.26 260.916 259.361 260.916 254.631C260.916 249.887 258.318 247.002 254.121 247.002C249.924 247.002 247.326 249.887 247.326 254.631C247.326 259.361 249.924 262.26 254.121 262.26ZM254.121 260.141C251.332 260.141 249.76 258.117 249.76 254.631C249.76 251.131 251.332 249.121 254.121 249.121C256.91 249.121 258.482 251.131 258.482 254.631C258.482 258.117 256.91 260.141 254.121 260.141ZM264.607 262H266.959V253.277C266.959 250.693 268.477 249.121 270.828 249.121C273.18 249.121 274.301 250.379 274.301 253.031V262H276.652V252.457C276.652 248.957 274.807 247.002 271.498 247.002C269.242 247.002 267.807 247.959 267.068 249.586H266.85V247.262H264.607V262ZM293.4 260.195C291.691 260.195 290.42 259.32 290.42 257.816C290.42 256.34 291.404 255.561 293.646 255.41L297.611 255.15V256.504C297.611 258.609 295.82 260.195 293.4 260.195ZM292.963 262.26C294.932 262.26 296.545 261.398 297.502 259.826H297.721V262H299.963V251.91C299.963 248.848 297.953 247.002 294.357 247.002C291.213 247.002 288.889 248.561 288.574 250.926H290.953C291.281 249.764 292.512 249.094 294.275 249.094C296.477 249.094 297.611 250.092 297.611 251.91V253.25L293.359 253.51C289.928 253.715 287.986 255.232 287.986 257.871C287.986 260.564 290.105 262.26 292.963 262.26ZM304.311 262H306.662V253.277C306.662 250.693 308.18 249.121 310.531 249.121C312.883 249.121 314.004 250.379 314.004 253.031V262H316.355V252.457C316.355 248.957 314.51 247.002 311.201 247.002C308.945 247.002 307.51 247.959 306.771 249.586H306.553V247.262H304.311V262ZM326.117 262.26C328.154 262.26 329.904 261.289 330.834 259.648H331.053V262H333.295V241.41H330.943V249.586H330.738C329.904 247.973 328.168 247.002 326.117 247.002C322.371 247.002 319.924 250.01 319.924 254.631C319.924 259.266 322.344 262.26 326.117 262.26ZM326.664 249.121C329.33 249.121 330.998 251.254 330.998 254.631C330.998 258.035 329.344 260.141 326.664 260.141C323.971 260.141 322.357 258.076 322.357 254.631C322.357 251.199 323.984 249.121 326.664 249.121ZM348.471 253.701H348.252V241.41H345.9V262H348.252V256.408L349.66 255.096L355.184 262H358.178L351.41 253.578L357.754 247.262H354.869L348.471 253.701ZM360.967 262H363.318V253.277C363.318 250.693 364.836 249.121 367.188 249.121C369.539 249.121 370.66 250.379 370.66 253.031V262H373.012V252.457C373.012 248.957 371.166 247.002 367.857 247.002C365.602 247.002 364.166 247.959 363.428 249.586H363.209V247.262H360.967V262ZM383.375 262.26C387.572 262.26 390.17 259.361 390.17 254.631C390.17 249.887 387.572 247.002 383.375 247.002C379.178 247.002 376.58 249.887 376.58 254.631C376.58 259.361 379.178 262.26 383.375 262.26ZM383.375 260.141C380.586 260.141 379.014 258.117 379.014 254.631C379.014 251.131 380.586 249.121 383.375 249.121C386.164 249.121 387.736 251.131 387.736 254.631C387.736 258.117 386.164 260.141 383.375 260.141ZM411.854 247.262H409.488L406.59 259.047H406.371L403.076 247.262H400.82L397.525 259.047H397.307L394.408 247.262H392.029L396.158 262H398.537L401.818 250.598H402.037L405.332 262H407.725L411.854 247.262ZM415.135 262H417.486V241.41H415.135V262ZM427.932 249.08C430.27 249.08 431.828 250.803 431.883 253.414H423.762C423.939 250.803 425.58 249.08 427.932 249.08ZM431.814 258.186C431.199 259.484 429.914 260.182 428.014 260.182C425.512 260.182 423.885 258.336 423.762 255.424V255.314H434.357V254.412C434.357 249.832 431.938 247.002 427.959 247.002C423.912 247.002 421.314 250.01 421.314 254.645C421.314 259.307 423.871 262.26 427.959 262.26C431.186 262.26 433.455 260.715 434.166 258.186H431.814ZM443.504 262.26C445.541 262.26 447.291 261.289 448.221 259.648H448.439V262H450.682V241.41H448.33V249.586H448.125C447.291 247.973 445.555 247.002 443.504 247.002C439.758 247.002 437.311 250.01 437.311 254.631C437.311 259.266 439.73 262.26 443.504 262.26ZM444.051 249.121C446.717 249.121 448.385 251.254 448.385 254.631C448.385 258.035 446.73 260.141 444.051 260.141C441.357 260.141 439.744 258.076 439.744 254.631C439.744 251.199 441.371 249.121 444.051 249.121ZM461.209 259.703C458.475 259.703 456.943 257.625 456.943 254.412C456.943 251.199 458.475 249.121 461.209 249.121C463.93 249.121 465.584 251.199 465.584 254.412C465.584 257.625 463.943 259.703 461.209 259.703ZM461.318 267.66C465.338 267.66 467.881 265.555 467.881 262.26V247.262H465.639V249.6H465.42C464.572 248.014 462.754 247.002 460.689 247.002C456.902 247.002 454.51 249.996 454.51 254.412C454.51 258.828 456.875 261.781 460.689 261.781C462.713 261.781 464.381 260.865 465.311 259.238H465.529V262.137C465.529 264.311 463.957 265.609 461.318 265.609C459.199 265.609 457.887 264.83 457.627 263.627H455.139C455.494 266.061 457.764 267.66 461.318 267.66ZM478.189 249.08C480.527 249.08 482.086 250.803 482.141 253.414H474.02C474.197 250.803 475.838 249.08 478.189 249.08ZM482.072 258.186C481.457 259.484 480.172 260.182 478.271 260.182C475.77 260.182 474.143 258.336 474.02 255.424V255.314H484.615V254.412C484.615 249.832 482.195 247.002 478.217 247.002C474.17 247.002 471.572 250.01 471.572 254.645C471.572 259.307 474.129 262.26 478.217 262.26C481.443 262.26 483.713 260.715 484.424 258.186H482.072ZM54.4844 295.26C58.6816 295.26 61.2793 292.361 61.2793 287.631C61.2793 282.887 58.6816 280.002 54.4844 280.002C50.2871 280.002 47.6895 282.887 47.6895 287.631C47.6895 292.361 50.2871 295.26 54.4844 295.26ZM54.4844 293.141C51.6953 293.141 50.123 291.117 50.123 287.631C50.123 284.131 51.6953 282.121 54.4844 282.121C57.2734 282.121 58.8457 284.131 58.8457 287.631C58.8457 291.117 57.2734 293.141 54.4844 293.141ZM65.9551 295H68.3066V282.23H71.6836V280.262H68.3066V278.689C68.3066 277.076 69.0176 276.256 70.7129 276.256C71.1367 276.256 71.5332 276.27 71.8203 276.324V274.41C71.3281 274.314 70.8086 274.273 70.2344 274.273C67.4316 274.273 65.9551 275.682 65.9551 278.621V280.262H63.5078V282.23H65.9551V295ZM83.0176 295H85.3691V285.867C85.3691 283.789 86.9961 282.285 89.2383 282.285C89.7031 282.285 90.5508 282.367 90.7422 282.422V280.07C90.4414 280.029 89.9492 280.002 89.5664 280.002C87.6113 280.002 85.916 281.014 85.4785 282.449H85.2598V280.262H83.0176V295ZM99.1504 282.08C101.488 282.08 103.047 283.803 103.102 286.414H94.9805C95.1582 283.803 96.7988 282.08 99.1504 282.08ZM103.033 291.186C102.418 292.484 101.133 293.182 99.2324 293.182C96.7305 293.182 95.1035 291.336 94.9805 288.424V288.314H105.576V287.412C105.576 282.832 103.156 280.002 99.1777 280.002C95.1309 280.002 92.5332 283.01 92.5332 287.645C92.5332 292.307 95.0898 295.26 99.1777 295.26C102.404 295.26 104.674 293.715 105.385 291.186H103.033ZM121.463 284.773C121.053 282.148 118.865 280.002 115.283 280.002C111.154 280.002 108.529 282.982 108.529 287.576C108.529 292.266 111.168 295.26 115.297 295.26C118.838 295.26 121.039 293.264 121.463 290.557H119.084C118.646 292.225 117.266 293.141 115.283 293.141C112.658 293.141 110.963 290.98 110.963 287.576C110.963 284.24 112.631 282.121 115.283 282.121C117.402 282.121 118.701 283.311 119.084 284.773H121.463ZM124.99 295H127.342V280.262H124.99V295ZM126.166 277.268C127.068 277.268 127.807 276.529 127.807 275.627C127.807 274.725 127.068 273.986 126.166 273.986C125.264 273.986 124.525 274.725 124.525 275.627C124.525 276.529 125.264 277.268 126.166 277.268ZM139.004 280.002C136.994 280.002 135.23 281.027 134.287 282.723H134.068V280.262H131.826V299.922H134.178V292.785H134.396C135.203 294.344 136.898 295.26 139.004 295.26C142.75 295.26 145.197 292.238 145.197 287.631C145.197 282.996 142.764 280.002 139.004 280.002ZM138.443 293.141C135.791 293.141 134.109 291.008 134.109 287.631C134.109 284.24 135.791 282.121 138.457 282.121C141.15 282.121 142.764 284.186 142.764 287.631C142.764 291.076 141.15 293.141 138.443 293.141ZM154.768 282.08C157.105 282.08 158.664 283.803 158.719 286.414H150.598C150.775 283.803 152.416 282.08 154.768 282.08ZM158.65 291.186C158.035 292.484 156.75 293.182 154.85 293.182C152.348 293.182 150.721 291.336 150.598 288.424V288.314H161.193V287.412C161.193 282.832 158.773 280.002 154.795 280.002C150.748 280.002 148.15 283.01 148.15 287.645C148.15 292.307 150.707 295.26 154.795 295.26C158.021 295.26 160.291 293.715 161.002 291.186H158.65ZM164.543 284.295C164.543 286.428 165.801 287.617 168.562 288.287L171.092 288.902C172.664 289.285 173.43 289.969 173.43 290.98C173.43 292.334 172.008 293.277 170.025 293.277C168.139 293.277 166.963 292.484 166.566 291.24H164.146C164.406 293.688 166.662 295.26 169.943 295.26C173.293 295.26 175.85 293.441 175.85 290.803C175.85 288.684 174.51 287.48 171.734 286.811L169.465 286.264C167.729 285.84 166.908 285.211 166.908 284.199C166.908 282.887 168.275 281.998 170.025 281.998C171.803 281.998 172.951 282.777 173.266 283.953H175.59C175.275 281.533 173.129 280.002 170.039 280.002C166.908 280.002 164.543 281.848 164.543 284.295ZM181.482 295.137C182.467 295.137 183.26 294.33 183.26 293.359C183.26 292.375 182.467 291.582 181.482 291.582C180.512 291.582 179.705 292.375 179.705 293.359C179.705 294.33 180.512 295.137 181.482 295.137ZM207.008 279.428H207.172L211.711 295H214.035L219.408 275.271H216.838L212.914 291.309H212.75L208.334 275.271H205.846L201.43 291.309H201.266L197.342 275.271H194.771L200.145 295H202.469L207.008 279.428ZM227.365 282.08C229.703 282.08 231.262 283.803 231.316 286.414H223.195C223.373 283.803 225.014 282.08 227.365 282.08ZM231.248 291.186C230.633 292.484 229.348 293.182 227.447 293.182C224.945 293.182 223.318 291.336 223.195 288.424V288.314H233.791V287.412C233.791 282.832 231.371 280.002 227.393 280.002C223.346 280.002 220.748 283.01 220.748 287.645C220.748 292.307 223.305 295.26 227.393 295.26C230.619 295.26 232.889 293.715 233.6 291.186H231.248ZM249.924 293.195C248.215 293.195 246.943 292.32 246.943 290.816C246.943 289.34 247.928 288.561 250.17 288.41L254.135 288.15V289.504C254.135 291.609 252.344 293.195 249.924 293.195ZM249.486 295.26C251.455 295.26 253.068 294.398 254.025 292.826H254.244V295H256.486V284.91C256.486 281.848 254.477 280.002 250.881 280.002C247.736 280.002 245.412 281.561 245.098 283.926H247.477C247.805 282.764 249.035 282.094 250.799 282.094C253 282.094 254.135 283.092 254.135 284.91V286.25L249.883 286.51C246.451 286.715 244.51 288.232 244.51 290.871C244.51 293.564 246.629 295.26 249.486 295.26ZM260.834 295H263.186V285.867C263.186 283.789 264.812 282.285 267.055 282.285C267.52 282.285 268.367 282.367 268.559 282.422V280.07C268.258 280.029 267.766 280.002 267.383 280.002C265.428 280.002 263.732 281.014 263.295 282.449H263.076V280.262H260.834V295ZM276.967 282.08C279.305 282.08 280.863 283.803 280.918 286.414H272.797C272.975 283.803 274.615 282.08 276.967 282.08ZM280.85 291.186C280.234 292.484 278.949 293.182 277.049 293.182C274.547 293.182 272.92 291.336 272.797 288.424V288.314H283.393V287.412C283.393 282.832 280.973 280.002 276.994 280.002C272.947 280.002 270.35 283.01 270.35 287.645C270.35 292.307 272.906 295.26 276.994 295.26C280.221 295.26 282.49 293.715 283.201 291.186H280.85ZM299.525 293.195C297.816 293.195 296.545 292.32 296.545 290.816C296.545 289.34 297.529 288.561 299.771 288.41L303.736 288.15V289.504C303.736 291.609 301.945 293.195 299.525 293.195ZM299.088 295.26C301.057 295.26 302.67 294.398 303.627 292.826H303.846V295H306.088V284.91C306.088 281.848 304.078 280.002 300.482 280.002C297.338 280.002 295.014 281.561 294.699 283.926H297.078C297.406 282.764 298.637 282.094 300.4 282.094C302.602 282.094 303.736 283.092 303.736 284.91V286.25L299.484 286.51C296.053 286.715 294.111 288.232 294.111 290.871C294.111 293.564 296.23 295.26 299.088 295.26ZM310.572 295H312.924V274.41H310.572V295ZM317.148 284.295C317.148 286.428 318.406 287.617 321.168 288.287L323.697 288.902C325.27 289.285 326.035 289.969 326.035 290.98C326.035 292.334 324.613 293.277 322.631 293.277C320.744 293.277 319.568 292.484 319.172 291.24H316.752C317.012 293.688 319.268 295.26 322.549 295.26C325.898 295.26 328.455 293.441 328.455 290.803C328.455 288.684 327.115 287.48 324.34 286.811L322.07 286.264C320.334 285.84 319.514 285.211 319.514 284.199C319.514 282.887 320.881 281.998 322.631 281.998C324.408 281.998 325.557 282.777 325.871 283.953H328.195C327.881 281.533 325.734 280.002 322.645 280.002C319.514 280.002 317.148 281.848 317.148 284.295ZM338.203 295.26C342.4 295.26 344.998 292.361 344.998 287.631C344.998 282.887 342.4 280.002 338.203 280.002C334.006 280.002 331.408 282.887 331.408 287.631C331.408 292.361 334.006 295.26 338.203 295.26ZM338.203 293.141C335.414 293.141 333.842 291.117 333.842 287.631C333.842 284.131 335.414 282.121 338.203 282.121C340.992 282.121 342.564 284.131 342.564 287.631C342.564 291.117 340.992 293.141 338.203 293.141ZM357.576 276.447V280.262H355.197V282.23H357.576V291.172C357.576 293.988 358.793 295.109 361.828 295.109C362.293 295.109 362.744 295.055 363.209 294.973V292.99C362.771 293.031 362.539 293.045 362.115 293.045C360.584 293.045 359.928 292.307 359.928 290.57V282.23H363.209V280.262H359.928V276.447H357.576ZM371.303 293.195C369.594 293.195 368.322 292.32 368.322 290.816C368.322 289.34 369.307 288.561 371.549 288.41L375.514 288.15V289.504C375.514 291.609 373.723 293.195 371.303 293.195ZM370.865 295.26C372.834 295.26 374.447 294.398 375.404 292.826H375.623V295H377.865V284.91C377.865 281.848 375.855 280.002 372.26 280.002C369.115 280.002 366.791 281.561 366.477 283.926H368.855C369.184 282.764 370.414 282.094 372.178 282.094C374.379 282.094 375.514 283.092 375.514 284.91V286.25L371.262 286.51C367.83 286.715 365.889 288.232 365.889 290.871C365.889 293.564 368.008 295.26 370.865 295.26ZM382.213 295H384.564V285.867C384.564 283.789 386.191 282.285 388.434 282.285C388.898 282.285 389.746 282.367 389.938 282.422V280.07C389.637 280.029 389.145 280.002 388.762 280.002C386.807 280.002 385.111 281.014 384.674 282.449H384.455V280.262H382.213V295ZM398.428 292.703C395.693 292.703 394.162 290.625 394.162 287.412C394.162 284.199 395.693 282.121 398.428 282.121C401.148 282.121 402.803 284.199 402.803 287.412C402.803 290.625 401.162 292.703 398.428 292.703ZM398.537 300.66C402.557 300.66 405.1 298.555 405.1 295.26V280.262H402.857V282.6H402.639C401.791 281.014 399.973 280.002 397.908 280.002C394.121 280.002 391.729 282.996 391.729 287.412C391.729 291.828 394.094 294.781 397.908 294.781C399.932 294.781 401.6 293.865 402.529 292.238H402.748V295.137C402.748 297.311 401.176 298.609 398.537 298.609C396.418 298.609 395.105 297.83 394.846 296.627H392.357C392.713 299.061 394.982 300.66 398.537 300.66ZM415.408 282.08C417.746 282.08 419.305 283.803 419.359 286.414H411.238C411.416 283.803 413.057 282.08 415.408 282.08ZM419.291 291.186C418.676 292.484 417.391 293.182 415.49 293.182C412.988 293.182 411.361 291.336 411.238 288.424V288.314H421.834V287.412C421.834 282.832 419.414 280.002 415.436 280.002C411.389 280.002 408.791 283.01 408.791 287.645C408.791 292.307 411.348 295.26 415.436 295.26C418.662 295.26 420.932 293.715 421.643 291.186H419.291ZM426.51 276.447V280.262H424.131V282.23H426.51V291.172C426.51 293.988 427.727 295.109 430.762 295.109C431.227 295.109 431.678 295.055 432.143 294.973V292.99C431.705 293.031 431.473 293.045 431.049 293.045C429.518 293.045 428.861 292.307 428.861 290.57V282.23H432.143V280.262H428.861V276.447H426.51ZM435.752 295H438.104V280.262H435.752V295ZM436.928 277.268C437.83 277.268 438.568 276.529 438.568 275.627C438.568 274.725 437.83 273.986 436.928 273.986C436.025 273.986 435.287 274.725 435.287 275.627C435.287 276.529 436.025 277.268 436.928 277.268ZM442.588 295H444.939V286.277C444.939 283.693 446.457 282.121 448.809 282.121C451.16 282.121 452.281 283.379 452.281 286.031V295H454.633V285.457C454.633 281.957 452.787 280.002 449.479 280.002C447.223 280.002 445.787 280.959 445.049 282.586H444.83V280.262H442.588V295ZM464.9 292.703C462.166 292.703 460.635 290.625 460.635 287.412C460.635 284.199 462.166 282.121 464.9 282.121C467.621 282.121 469.275 284.199 469.275 287.412C469.275 290.625 467.635 292.703 464.9 292.703ZM465.01 300.66C469.029 300.66 471.572 298.555 471.572 295.26V280.262H469.33V282.6H469.111C468.264 281.014 466.445 280.002 464.381 280.002C460.594 280.002 458.201 282.996 458.201 287.412C458.201 291.828 460.566 294.781 464.381 294.781C466.404 294.781 468.072 293.865 469.002 292.238H469.221V295.137C469.221 297.311 467.648 298.609 465.01 298.609C462.891 298.609 461.578 297.83 461.318 296.627H458.83C459.186 299.061 461.455 300.66 465.01 300.66ZM62.9473 313.262H60.5957V321.984C60.5957 324.568 59.1738 326.113 56.5762 326.113C54.2246 326.113 53.2402 324.883 53.2402 322.23V313.262H50.8887V322.805C50.8887 326.291 52.6113 328.26 55.9199 328.26C58.1758 328.26 59.748 327.33 60.4863 325.689H60.7051V328H62.9473V313.262ZM67.0352 317.295C67.0352 319.428 68.293 320.617 71.0547 321.287L73.584 321.902C75.1562 322.285 75.9219 322.969 75.9219 323.98C75.9219 325.334 74.5 326.277 72.5176 326.277C70.6309 326.277 69.4551 325.484 69.0586 324.24H66.6387C66.8984 326.688 69.1543 328.26 72.4355 328.26C75.7852 328.26 78.3418 326.441 78.3418 323.803C78.3418 321.684 77.002 320.48 74.2266 319.811L71.957 319.264C70.2207 318.84 69.4004 318.211 69.4004 317.199C69.4004 315.887 70.7676 314.998 72.5176 314.998C74.2949 314.998 75.4434 315.777 75.7578 316.953H78.082C77.7676 314.533 75.6211 313.002 72.5312 313.002C69.4004 313.002 67.0352 314.848 67.0352 317.295ZM87.9121 315.08C90.25 315.08 91.8086 316.803 91.8633 319.414H83.7422C83.9199 316.803 85.5605 315.08 87.9121 315.08ZM91.7949 324.186C91.1797 325.484 89.8945 326.182 87.9941 326.182C85.4922 326.182 83.8652 324.336 83.7422 321.424V321.314H94.3379V320.412C94.3379 315.832 91.918 313.002 87.9395 313.002C83.8926 313.002 81.2949 316.01 81.2949 320.645C81.2949 325.307 83.8516 328.26 87.9395 328.26C91.166 328.26 93.4355 326.715 94.1465 324.186H91.7949ZM98.0293 328H100.381V318.867C100.381 316.789 102.008 315.285 104.25 315.285C104.715 315.285 105.562 315.367 105.754 315.422V313.07C105.453 313.029 104.961 313.002 104.578 313.002C102.623 313.002 100.928 314.014 100.49 315.449H100.271V313.262H98.0293V328ZM108.078 317.295C108.078 319.428 109.336 320.617 112.098 321.287L114.627 321.902C116.199 322.285 116.965 322.969 116.965 323.98C116.965 325.334 115.543 326.277 113.561 326.277C111.674 326.277 110.498 325.484 110.102 324.24H107.682C107.941 326.688 110.197 328.26 113.479 328.26C116.828 328.26 119.385 326.441 119.385 323.803C119.385 321.684 118.045 320.48 115.27 319.811L113 319.264C111.264 318.84 110.443 318.211 110.443 317.199C110.443 315.887 111.811 314.998 113.561 314.998C115.338 314.998 116.486 315.777 116.801 316.953H119.125C118.811 314.533 116.664 313.002 113.574 313.002C110.443 313.002 108.078 314.848 108.078 317.295ZM149.518 313.262H147.152L144.254 325.047H144.035L140.74 313.262H138.484L135.189 325.047H134.971L132.072 313.262H129.693L133.822 328H136.201L139.482 316.598H139.701L142.996 328H145.389L149.518 313.262ZM152.799 328H155.15V319.277C155.15 316.789 156.6 315.121 159.238 315.121C161.467 315.121 162.643 316.42 162.643 319.031V328H164.994V318.457C164.994 314.998 163.025 313.002 159.908 313.002C157.652 313.002 156.107 313.959 155.369 315.586H155.15V307.41H152.799V328ZM175.344 328.26C179.541 328.26 182.139 325.361 182.139 320.631C182.139 315.887 179.541 313.002 175.344 313.002C171.146 313.002 168.549 315.887 168.549 320.631C168.549 325.361 171.146 328.26 175.344 328.26ZM175.344 326.141C172.555 326.141 170.982 324.117 170.982 320.631C170.982 317.131 172.555 315.121 175.344 315.121C178.133 315.121 179.705 317.131 179.705 320.631C179.705 324.117 178.133 326.141 175.344 326.141ZM198.271 326.195C196.562 326.195 195.291 325.32 195.291 323.816C195.291 322.34 196.275 321.561 198.518 321.41L202.482 321.15V322.504C202.482 324.609 200.691 326.195 198.271 326.195ZM197.834 328.26C199.803 328.26 201.416 327.398 202.373 325.826H202.592V328H204.834V317.91C204.834 314.848 202.824 313.002 199.229 313.002C196.084 313.002 193.76 314.561 193.445 316.926H195.824C196.152 315.764 197.383 315.094 199.146 315.094C201.348 315.094 202.482 316.092 202.482 317.91V319.25L198.23 319.51C194.799 319.715 192.857 321.232 192.857 323.871C192.857 326.564 194.977 328.26 197.834 328.26ZM209.182 328H211.533V318.867C211.533 316.789 213.16 315.285 215.402 315.285C215.867 315.285 216.715 315.367 216.906 315.422V313.07C216.605 313.029 216.113 313.002 215.73 313.002C213.775 313.002 212.08 314.014 211.643 315.449H211.424V313.262H209.182V328ZM225.314 315.08C227.652 315.08 229.211 316.803 229.266 319.414H221.145C221.322 316.803 222.963 315.08 225.314 315.08ZM229.197 324.186C228.582 325.484 227.297 326.182 225.396 326.182C222.895 326.182 221.268 324.336 221.145 321.424V321.314H231.74V320.412C231.74 315.832 229.32 313.002 225.342 313.002C221.295 313.002 218.697 316.01 218.697 320.645C218.697 325.307 221.254 328.26 225.342 328.26C228.568 328.26 230.838 326.715 231.549 324.186H229.197ZM255.365 313.262H252.85L248.816 325.402H248.598L244.564 313.262H242.049L247.504 328H249.91L255.365 313.262ZM258.564 328H260.916V313.262H258.564V328ZM259.74 310.268C260.643 310.268 261.381 309.529 261.381 308.627C261.381 307.725 260.643 306.986 259.74 306.986C258.838 306.986 258.1 307.725 258.1 308.627C258.1 309.529 258.838 310.268 259.74 310.268ZM265.059 317.295C265.059 319.428 266.316 320.617 269.078 321.287L271.607 321.902C273.18 322.285 273.945 322.969 273.945 323.98C273.945 325.334 272.523 326.277 270.541 326.277C268.654 326.277 267.479 325.484 267.082 324.24H264.662C264.922 326.688 267.178 328.26 270.459 328.26C273.809 328.26 276.365 326.441 276.365 323.803C276.365 321.684 275.025 320.48 272.25 319.811L269.98 319.264C268.244 318.84 267.424 318.211 267.424 317.199C267.424 315.887 268.791 314.998 270.541 314.998C272.318 314.998 273.467 315.777 273.781 316.953H276.105C275.791 314.533 273.645 313.002 270.555 313.002C267.424 313.002 265.059 314.848 265.059 317.295ZM291.979 313.262H289.627V321.984C289.627 324.568 288.205 326.113 285.607 326.113C283.256 326.113 282.271 324.883 282.271 322.23V313.262H279.92V322.805C279.92 326.291 281.643 328.26 284.951 328.26C287.207 328.26 288.779 327.33 289.518 325.689H289.736V328H291.979V313.262ZM300.947 326.195C299.238 326.195 297.967 325.32 297.967 323.816C297.967 322.34 298.951 321.561 301.193 321.41L305.158 321.15V322.504C305.158 324.609 303.367 326.195 300.947 326.195ZM300.51 328.26C302.479 328.26 304.092 327.398 305.049 325.826H305.268V328H307.51V317.91C307.51 314.848 305.5 313.002 301.904 313.002C298.76 313.002 296.436 314.561 296.121 316.926H298.5C298.828 315.764 300.059 315.094 301.822 315.094C304.023 315.094 305.158 316.092 305.158 317.91V319.25L300.906 319.51C297.475 319.715 295.533 321.232 295.533 323.871C295.533 326.564 297.652 328.26 300.51 328.26ZM311.994 328H314.346V307.41H311.994V328ZM326.951 328H329.303V307.41H326.951V328ZM339.748 315.08C342.086 315.08 343.645 316.803 343.699 319.414H335.578C335.756 316.803 337.396 315.08 339.748 315.08ZM343.631 324.186C343.016 325.484 341.73 326.182 339.83 326.182C337.328 326.182 335.701 324.336 335.578 321.424V321.314H346.174V320.412C346.174 315.832 343.754 313.002 339.775 313.002C335.729 313.002 333.131 316.01 333.131 320.645C333.131 325.307 335.688 328.26 339.775 328.26C343.002 328.26 345.271 326.715 345.982 324.186H343.631ZM354.404 326.195C352.695 326.195 351.424 325.32 351.424 323.816C351.424 322.34 352.408 321.561 354.65 321.41L358.615 321.15V322.504C358.615 324.609 356.824 326.195 354.404 326.195ZM353.967 328.26C355.936 328.26 357.549 327.398 358.506 325.826H358.725V328H360.967V317.91C360.967 314.848 358.957 313.002 355.361 313.002C352.217 313.002 349.893 314.561 349.578 316.926H351.957C352.285 315.764 353.516 315.094 355.279 315.094C357.48 315.094 358.615 316.092 358.615 317.91V319.25L354.363 319.51C350.932 319.715 348.99 321.232 348.99 323.871C348.99 326.564 351.109 328.26 353.967 328.26ZM365.314 328H367.666V318.867C367.666 316.789 369.293 315.285 371.535 315.285C372 315.285 372.848 315.367 373.039 315.422V313.07C372.738 313.029 372.246 313.002 371.863 313.002C369.908 313.002 368.213 314.014 367.775 315.449H367.557V313.262H365.314V328ZM376.252 328H378.604V319.277C378.604 316.693 380.121 315.121 382.473 315.121C384.824 315.121 385.945 316.379 385.945 319.031V328H388.297V318.457C388.297 314.957 386.451 313.002 383.143 313.002C380.887 313.002 379.451 313.959 378.713 315.586H378.494V313.262H376.252V328ZM398.482 315.08C400.82 315.08 402.379 316.803 402.434 319.414H394.312C394.49 316.803 396.131 315.08 398.482 315.08ZM402.365 324.186C401.75 325.484 400.465 326.182 398.564 326.182C396.062 326.182 394.436 324.336 394.312 321.424V321.314H404.908V320.412C404.908 315.832 402.488 313.002 398.51 313.002C394.463 313.002 391.865 316.01 391.865 320.645C391.865 325.307 394.422 328.26 398.51 328.26C401.736 328.26 404.006 326.715 404.717 324.186H402.365ZM408.6 328H410.951V318.867C410.951 316.789 412.578 315.285 414.82 315.285C415.285 315.285 416.133 315.367 416.324 315.422V313.07C416.023 313.029 415.531 313.002 415.148 313.002C413.193 313.002 411.498 314.014 411.061 315.449H410.842V313.262H408.6V328ZM418.648 317.295C418.648 319.428 419.906 320.617 422.668 321.287L425.197 321.902C426.77 322.285 427.535 322.969 427.535 323.98C427.535 325.334 426.113 326.277 424.131 326.277C422.244 326.277 421.068 325.484 420.672 324.24H418.252C418.512 326.688 420.768 328.26 424.049 328.26C427.398 328.26 429.955 326.441 429.955 323.803C429.955 321.684 428.615 320.48 425.84 319.811L423.57 319.264C421.834 318.84 421.014 318.211 421.014 317.199C421.014 315.887 422.381 314.998 424.131 314.998C425.908 314.998 427.057 315.777 427.371 316.953H429.695C429.381 314.533 427.234 313.002 424.145 313.002C421.014 313.002 418.648 314.848 418.648 317.295ZM448.877 328.26C452.609 328.26 455.057 325.238 455.057 320.631C455.057 315.996 452.623 313.002 448.877 313.002C446.854 313.002 445.062 314 444.256 315.586H444.037V307.41H441.686V328H443.928V325.648H444.146C445.076 327.289 446.826 328.26 448.877 328.26ZM448.33 315.121C451.023 315.121 452.623 317.186 452.623 320.631C452.623 324.076 451.023 326.141 448.33 326.141C445.65 326.141 443.982 324.035 443.982 320.631C443.982 317.227 445.65 315.121 448.33 315.121ZM459.459 333.332C462.07 333.332 463.246 332.32 464.504 328.902L470.26 313.262H467.758L463.725 325.389H463.506L459.459 313.262H456.916L462.371 328.014L462.098 328.889C461.482 330.666 460.744 331.309 459.391 331.309C459.062 331.309 458.693 331.295 458.406 331.24V333.25C458.734 333.305 459.145 333.332 459.459 333.332ZM75.4297 361H77.7812V352.277C77.7812 349.789 79.2305 348.121 81.8691 348.121C84.0977 348.121 85.2734 349.42 85.2734 352.031V361H87.625V351.457C87.625 347.998 85.6562 346.002 82.5391 346.002C80.2832 346.002 78.7383 346.959 78 348.586H77.7812V340.41H75.4297V361ZM96.457 359.195C94.748 359.195 93.4766 358.32 93.4766 356.816C93.4766 355.34 94.4609 354.561 96.7031 354.41L100.668 354.15V355.504C100.668 357.609 98.877 359.195 96.457 359.195ZM96.0195 361.26C97.9883 361.26 99.6016 360.398 100.559 358.826H100.777V361H103.02V350.91C103.02 347.848 101.01 346.002 97.4141 346.002C94.2695 346.002 91.9453 347.561 91.6309 349.926H94.0098C94.3379 348.764 95.5684 348.094 97.332 348.094C99.5332 348.094 100.668 349.092 100.668 350.91V352.25L96.416 352.51C92.9844 352.715 91.043 354.232 91.043 356.871C91.043 359.564 93.1621 361.26 96.0195 361.26ZM118.852 346.262H116.336L112.303 358.402H112.084L108.051 346.262H105.535L110.99 361H113.396L118.852 346.262ZM122.051 361H124.402V346.262H122.051V361ZM123.227 343.268C124.129 343.268 124.867 342.529 124.867 341.627C124.867 340.725 124.129 339.986 123.227 339.986C122.324 339.986 121.586 340.725 121.586 341.627C121.586 342.529 122.324 343.268 123.227 343.268ZM128.887 361H131.238V352.277C131.238 349.693 132.756 348.121 135.107 348.121C137.459 348.121 138.58 349.379 138.58 352.031V361H140.932V351.457C140.932 347.957 139.086 346.002 135.777 346.002C133.521 346.002 132.086 346.959 131.348 348.586H131.129V346.262H128.887V361ZM151.199 358.703C148.465 358.703 146.934 356.625 146.934 353.412C146.934 350.199 148.465 348.121 151.199 348.121C153.92 348.121 155.574 350.199 155.574 353.412C155.574 356.625 153.934 358.703 151.199 358.703ZM151.309 366.66C155.328 366.66 157.871 364.555 157.871 361.26V346.262H155.629V348.6H155.41C154.562 347.014 152.744 346.002 150.68 346.002C146.893 346.002 144.5 348.996 144.5 353.412C144.5 357.828 146.865 360.781 150.68 360.781C152.703 360.781 154.371 359.865 155.301 358.238H155.52V361.137C155.52 363.311 153.947 364.609 151.309 364.609C149.189 364.609 147.877 363.83 147.617 362.627H145.129C145.484 365.061 147.754 366.66 151.309 366.66ZM171.188 342.447V346.262H168.809V348.23H171.188V357.172C171.188 359.988 172.404 361.109 175.439 361.109C175.904 361.109 176.355 361.055 176.82 360.973V358.99C176.383 359.031 176.15 359.045 175.727 359.045C174.195 359.045 173.539 358.307 173.539 356.57V348.23H176.82V346.262H173.539V342.447H171.188ZM192.297 346.262H189.945V354.984C189.945 357.568 188.523 359.113 185.926 359.113C183.574 359.113 182.59 357.883 182.59 355.23V346.262H180.238V355.805C180.238 359.291 181.961 361.26 185.27 361.26C187.525 361.26 189.098 360.33 189.836 358.689H190.055V361H192.297V346.262ZM197.711 342.447V346.262H195.332V348.23H197.711V357.172C197.711 359.988 198.928 361.109 201.963 361.109C202.428 361.109 202.879 361.055 203.344 360.973V358.99C202.906 359.031 202.674 359.045 202.25 359.045C200.719 359.045 200.062 358.307 200.062 356.57V348.23H203.344V346.262H200.062V342.447H197.711ZM212.736 361.26C216.934 361.26 219.531 358.361 219.531 353.631C219.531 348.887 216.934 346.002 212.736 346.002C208.539 346.002 205.941 348.887 205.941 353.631C205.941 358.361 208.539 361.26 212.736 361.26ZM212.736 359.141C209.947 359.141 208.375 357.117 208.375 353.631C208.375 350.131 209.947 348.121 212.736 348.121C215.525 348.121 217.098 350.131 217.098 353.631C217.098 357.117 215.525 359.141 212.736 359.141ZM223.223 361H225.574V351.867C225.574 349.789 227.201 348.285 229.443 348.285C229.908 348.285 230.756 348.367 230.947 348.422V346.07C230.646 346.029 230.154 346.002 229.771 346.002C227.816 346.002 226.121 347.014 225.684 348.449H225.465V346.262H223.223V361ZM233.941 361H236.293V346.262H233.941V361ZM235.117 343.268C236.02 343.268 236.758 342.529 236.758 341.627C236.758 340.725 236.02 339.986 235.117 339.986C234.215 339.986 233.477 340.725 233.477 341.627C233.477 342.529 234.215 343.268 235.117 343.268ZM245.316 359.195C243.607 359.195 242.336 358.32 242.336 356.816C242.336 355.34 243.32 354.561 245.562 354.41L249.527 354.15V355.504C249.527 357.609 247.736 359.195 245.316 359.195ZM244.879 361.26C246.848 361.26 248.461 360.398 249.418 358.826H249.637V361H251.879V350.91C251.879 347.848 249.869 346.002 246.273 346.002C243.129 346.002 240.805 347.561 240.49 349.926H242.869C243.197 348.764 244.428 348.094 246.191 348.094C248.393 348.094 249.527 349.092 249.527 350.91V352.25L245.275 352.51C241.844 352.715 239.902 354.232 239.902 356.871C239.902 359.564 242.021 361.26 244.879 361.26ZM256.363 361H258.715V340.41H256.363V361ZM283.215 346.262H280.699L276.666 358.402H276.447L272.414 346.262H269.898L275.354 361H277.76L283.215 346.262ZM286.414 361H288.766V346.262H286.414V361ZM287.59 343.268C288.492 343.268 289.23 342.529 289.23 341.627C289.23 340.725 288.492 339.986 287.59 339.986C286.688 339.986 285.949 340.725 285.949 341.627C285.949 342.529 286.688 343.268 287.59 343.268ZM298.705 361.26C300.742 361.26 302.492 360.289 303.422 358.648H303.641V361H305.883V340.41H303.531V348.586H303.326C302.492 346.973 300.756 346.002 298.705 346.002C294.959 346.002 292.512 349.01 292.512 353.631C292.512 358.266 294.932 361.26 298.705 361.26ZM299.252 348.121C301.918 348.121 303.586 350.254 303.586 353.631C303.586 357.035 301.932 359.141 299.252 359.141C296.559 359.141 294.945 357.076 294.945 353.631C294.945 350.199 296.572 348.121 299.252 348.121ZM316.328 348.08C318.666 348.08 320.225 349.803 320.279 352.414H312.158C312.336 349.803 313.977 348.08 316.328 348.08ZM320.211 357.186C319.596 358.484 318.311 359.182 316.41 359.182C313.908 359.182 312.281 357.336 312.158 354.424V354.314H322.754V353.412C322.754 348.832 320.334 346.002 316.355 346.002C312.309 346.002 309.711 349.01 309.711 353.645C309.711 358.307 312.268 361.26 316.355 361.26C319.582 361.26 321.852 359.715 322.562 357.186H320.211ZM332.502 361.26C336.699 361.26 339.297 358.361 339.297 353.631C339.297 348.887 336.699 346.002 332.502 346.002C328.305 346.002 325.707 348.887 325.707 353.631C325.707 358.361 328.305 361.26 332.502 361.26ZM332.502 359.141C329.713 359.141 328.141 357.117 328.141 353.631C328.141 350.131 329.713 348.121 332.502 348.121C335.291 348.121 336.863 350.131 336.863 353.631C336.863 357.117 335.291 359.141 332.502 359.141ZM342.646 350.295C342.646 352.428 343.904 353.617 346.666 354.287L349.195 354.902C350.768 355.285 351.533 355.969 351.533 356.98C351.533 358.334 350.111 359.277 348.129 359.277C346.242 359.277 345.066 358.484 344.67 357.24H342.25C342.51 359.688 344.766 361.26 348.047 361.26C351.396 361.26 353.953 359.441 353.953 356.803C353.953 354.684 352.613 353.48 349.838 352.811L347.568 352.264C345.832 351.84 345.012 351.211 345.012 350.199C345.012 348.887 346.379 347.998 348.129 347.998C349.906 347.998 351.055 348.777 351.369 349.953H353.693C353.379 347.533 351.232 346.002 348.143 346.002C345.012 346.002 342.646 347.848 342.646 350.295ZM371.604 361.26C375.801 361.26 378.398 358.361 378.398 353.631C378.398 348.887 375.801 346.002 371.604 346.002C367.406 346.002 364.809 348.887 364.809 353.631C364.809 358.361 367.406 361.26 371.604 361.26ZM371.604 359.141C368.814 359.141 367.242 357.117 367.242 353.631C367.242 350.131 368.814 348.121 371.604 348.121C374.393 348.121 375.965 350.131 375.965 353.631C375.965 357.117 374.393 359.141 371.604 359.141ZM382.09 361H384.441V352.277C384.441 349.693 385.959 348.121 388.311 348.121C390.662 348.121 391.783 349.379 391.783 352.031V361H394.135V351.457C394.135 347.957 392.289 346.002 388.98 346.002C386.725 346.002 385.289 346.959 384.551 348.586H384.332V346.262H382.09V361ZM407.328 342.447V346.262H404.949V348.23H407.328V357.172C407.328 359.988 408.545 361.109 411.58 361.109C412.045 361.109 412.496 361.055 412.961 360.973V358.99C412.523 359.031 412.291 359.045 411.867 359.045C410.336 359.045 409.68 358.307 409.68 356.57V348.23H412.961V346.262H409.68V342.447H407.328ZM416.652 361H419.004V352.277C419.004 349.789 420.453 348.121 423.092 348.121C425.32 348.121 426.496 349.42 426.496 352.031V361H428.848V351.457C428.848 347.998 426.879 346.002 423.762 346.002C421.506 346.002 419.961 346.959 419.223 348.586H419.004V340.41H416.652V361ZM439.02 348.08C441.357 348.08 442.916 349.803 442.971 352.414H434.85C435.027 349.803 436.668 348.08 439.02 348.08ZM442.902 357.186C442.287 358.484 441.002 359.182 439.102 359.182C436.6 359.182 434.973 357.336 434.85 354.424V354.314H445.445V353.412C445.445 348.832 443.025 346.002 439.047 346.002C435 346.002 432.402 349.01 432.402 353.645C432.402 358.307 434.959 361.26 439.047 361.26C442.273 361.26 444.543 359.715 445.254 357.186H442.902ZM225.684 379.262H223.318L220.42 391.047H220.201L216.906 379.262H214.65L211.355 391.047H211.137L208.238 379.262H205.859L209.988 394H212.367L215.648 382.598H215.867L219.162 394H221.555L225.684 379.262ZM234.16 381.08C236.498 381.08 238.057 382.803 238.111 385.414H229.99C230.168 382.803 231.809 381.08 234.16 381.08ZM238.043 390.186C237.428 391.484 236.143 392.182 234.242 392.182C231.74 392.182 230.113 390.336 229.99 387.424V387.314H240.586V386.412C240.586 381.832 238.166 379.002 234.188 379.002C230.141 379.002 227.543 382.01 227.543 386.645C227.543 391.307 230.1 394.26 234.188 394.26C237.414 394.26 239.684 392.715 240.395 390.186H238.043ZM251.605 394.26C255.338 394.26 257.785 391.238 257.785 386.631C257.785 381.996 255.352 379.002 251.605 379.002C249.582 379.002 247.791 380 246.984 381.586H246.766V373.41H244.414V394H246.656V391.648H246.875C247.805 393.289 249.555 394.26 251.605 394.26ZM251.059 381.121C253.752 381.121 255.352 383.186 255.352 386.631C255.352 390.076 253.752 392.141 251.059 392.141C248.379 392.141 246.711 390.035 246.711 386.631C246.711 383.227 248.379 381.121 251.059 381.121ZM261.135 383.295C261.135 385.428 262.393 386.617 265.154 387.287L267.684 387.902C269.256 388.285 270.021 388.969 270.021 389.98C270.021 391.334 268.6 392.277 266.617 392.277C264.73 392.277 263.555 391.484 263.158 390.24H260.738C260.998 392.688 263.254 394.26 266.535 394.26C269.885 394.26 272.441 392.441 272.441 389.803C272.441 387.684 271.102 386.48 268.326 385.811L266.057 385.264C264.32 384.84 263.5 384.211 263.5 383.199C263.5 381.887 264.867 380.998 266.617 380.998C268.395 380.998 269.543 381.777 269.857 382.953H272.182C271.867 380.533 269.721 379.002 266.631 379.002C263.5 379.002 261.135 380.848 261.135 383.295ZM276.188 394H278.539V379.262H276.188V394ZM277.363 376.268C278.266 376.268 279.004 375.529 279.004 374.627C279.004 373.725 278.266 372.986 277.363 372.986C276.461 372.986 275.723 373.725 275.723 374.627C275.723 375.529 276.461 376.268 277.363 376.268ZM284.008 375.447V379.262H281.629V381.23H284.008V390.172C284.008 392.988 285.225 394.109 288.26 394.109C288.725 394.109 289.176 394.055 289.641 393.973V391.99C289.203 392.031 288.971 392.045 288.547 392.045C287.016 392.045 286.359 391.307 286.359 389.57V381.23H289.641V379.262H286.359V375.447H284.008ZM298.855 381.08C301.193 381.08 302.752 382.803 302.807 385.414H294.686C294.863 382.803 296.504 381.08 298.855 381.08ZM302.738 390.186C302.123 391.484 300.838 392.182 298.938 392.182C296.436 392.182 294.809 390.336 294.686 387.424V387.314H305.281V386.412C305.281 381.832 302.861 379.002 298.883 379.002C294.836 379.002 292.238 382.01 292.238 386.645C292.238 391.307 294.795 394.26 298.883 394.26C302.109 394.26 304.379 392.715 305.09 390.186H302.738ZM310.914 394.137C311.898 394.137 312.691 393.33 312.691 392.359C312.691 391.375 311.898 390.582 310.914 390.582C309.943 390.582 309.137 391.375 309.137 392.359C309.137 393.33 309.943 394.137 310.914 394.137Z" fill="#636F73"/>
<defs>
<filter id="filter0_d_141_6986" x="0" y="0" width="528" height="643" filterUnits="userSpaceOnUse" color-interpolation-filters="sRGB">
<feFlood flood-opacity="0" result="BackgroundImageFix"/>
<feColorMatrix in="SourceAlpha" type="matrix" values="0 0 0 0 0 0 0 0 0 0 0 0 0 0 0 0 0 0 127 0" result="hardAlpha"/>
<feOffset dy="4"/>
<feGaussianBlur stdDeviation="2"/>
<feComposite in2="hardAlpha" operator="out"/>
<feColorMatrix type="matrix" values="0 0 0 0 0 0 0 0 0 0 0 0 0 0 0 0 0 0 0.25 0"/>
<feBlend mode="normal" in2="BackgroundImageFix" result="effect1_dropShadow_141_6986"/>
<feBlend mode="normal" in="SourceGraphic" in2="effect1_dropShadow_141_6986" result="shape"/>
</filter>
</defs>
</svg>
