<svg width="528" height="643" viewBox="0 0 528 643" fill="none" xmlns="http://www.w3.org/2000/svg">
<g filter="url(#filter0_d_141_6994)">
<rect x="4" width="520" height="635" fill="white"/>
</g>
<path d="M66.1562 71.0781H66.4062L70.6719 86H75.0938L81.0781 63.4531H76.2031L72.7188 79.3438H72.4688L68.2812 63.4531H64.2969L60.1875 79.3438H59.9375L56.4219 63.4531H51.5156L57.4844 86H61.9375L66.1562 71.0781ZM84.8906 86H89.4375V76.1094C89.4375 73.875 90.75 72.3594 93.0312 72.3594C95.0938 72.3594 96.2031 73.5938 96.2031 75.9844V86H100.75V74.9062C100.75 70.7656 98.5469 68.4375 94.8438 68.4375C92.3125 68.4375 90.4375 69.625 89.6406 71.5938H89.3594V62.1875H84.8906V86ZM112.625 71.875C114.75 71.875 116.125 73.2969 116.219 75.5781H108.875C109.031 73.3438 110.516 71.875 112.625 71.875ZM116.312 81.0938C115.828 82.2344 114.594 82.875 112.797 82.875C110.422 82.875 108.922 81.2812 108.859 78.7188V78.4844H120.688V77.0938C120.688 71.625 117.688 68.3906 112.609 68.3906C107.484 68.3906 104.328 71.8594 104.328 77.4688C104.328 83.0625 107.422 86.375 112.672 86.375C116.891 86.375 119.859 84.3438 120.547 81.0938H116.312ZM124.422 86H128.969V76.0625C128.969 73.7969 130.266 72.3125 132.375 72.3125C134.531 72.3125 135.547 73.5625 135.547 75.9375V86H140.094V74.8594C140.094 70.7344 138.031 68.3906 134.203 68.3906C131.656 68.3906 129.906 69.5938 129.109 71.5312H128.828V68.7656H124.422V86ZM174.203 69.1562H171.5L168.188 82.625H167.938L164.172 69.1562H161.594L157.828 82.625H157.578L154.266 69.1562H151.547L156.266 86H158.984L162.734 72.9688H162.984L166.75 86H169.484L174.203 69.1562ZM177.859 86H180.547V69.1562H177.859V86ZM179.203 65.7344C180.234 65.7344 181.078 64.8906 181.078 63.8594C181.078 62.8281 180.234 61.9844 179.203 61.9844C178.172 61.9844 177.328 62.8281 177.328 63.8594C177.328 64.8906 178.172 65.7344 179.203 65.7344ZM185.828 86H188.516V62.4688H185.828V86ZM193.891 86H196.578V62.4688H193.891V86ZM212.266 92.0938C215.25 92.0938 216.594 90.9375 218.031 87.0312L224.609 69.1562H221.75L217.141 83.0156H216.891L212.266 69.1562H209.359L215.594 86.0156L215.281 87.0156C214.578 89.0469 213.734 89.7812 212.188 89.7812C211.812 89.7812 211.391 89.7656 211.062 89.7031V92C211.438 92.0625 211.906 92.0938 212.266 92.0938ZM234.5 86.2969C239.297 86.2969 242.266 82.9844 242.266 77.5781C242.266 72.1562 239.297 68.8594 234.5 68.8594C229.703 68.8594 226.734 72.1562 226.734 77.5781C226.734 82.9844 229.703 86.2969 234.5 86.2969ZM234.5 83.875C231.312 83.875 229.516 81.5625 229.516 77.5781C229.516 73.5781 231.312 71.2812 234.5 71.2812C237.688 71.2812 239.484 73.5781 239.484 77.5781C239.484 81.5625 237.688 83.875 234.5 83.875ZM260.109 69.1562H257.422V79.125C257.422 82.0781 255.797 83.8438 252.828 83.8438C250.141 83.8438 249.016 82.4375 249.016 79.4062V69.1562H246.328V80.0625C246.328 84.0469 248.297 86.2969 252.078 86.2969C254.656 86.2969 256.453 85.2344 257.297 83.3594H257.547V86H260.109V69.1562ZM265.172 86H267.859V75.5625C267.859 73.1875 269.719 71.4688 272.281 71.4688C272.812 71.4688 273.781 71.5625 274 71.625V68.9375C273.656 68.8906 273.094 68.8594 272.656 68.8594C270.422 68.8594 268.484 70.0156 267.984 71.6562H267.734V69.1562H265.172V86ZM291.578 83.9375C289.625 83.9375 288.172 82.9375 288.172 81.2188C288.172 79.5312 289.297 78.6406 291.859 78.4688L296.391 78.1719V79.7188C296.391 82.125 294.344 83.9375 291.578 83.9375ZM291.078 86.2969C293.328 86.2969 295.172 85.3125 296.266 83.5156H296.516V86H299.078V74.4688C299.078 70.9688 296.781 68.8594 292.672 68.8594C289.078 68.8594 286.422 70.6406 286.062 73.3438H288.781C289.156 72.0156 290.562 71.25 292.578 71.25C295.094 71.25 296.391 72.3906 296.391 74.4688V76L291.531 76.2969C287.609 76.5312 285.391 78.2656 285.391 81.2812C285.391 84.3594 287.812 86.2969 291.078 86.2969ZM317.672 69.1562H314.984V79.125C314.984 82.0781 313.359 83.8438 310.391 83.8438C307.703 83.8438 306.578 82.4375 306.578 79.4062V69.1562H303.891V80.0625C303.891 84.0469 305.859 86.2969 309.641 86.2969C312.219 86.2969 314.016 85.2344 314.859 83.3594H315.109V86H317.672V69.1562ZM328.969 86.2969C331.297 86.2969 333.297 85.1875 334.359 83.3125H334.609V86H337.172V62.4688H334.484V71.8125H334.25C333.297 69.9688 331.312 68.8594 328.969 68.8594C324.688 68.8594 321.891 72.2969 321.891 77.5781C321.891 82.875 324.656 86.2969 328.969 86.2969ZM329.594 71.2812C332.641 71.2812 334.547 73.7188 334.547 77.5781C334.547 81.4688 332.656 83.875 329.594 83.875C326.516 83.875 324.672 81.5156 324.672 77.5781C324.672 73.6562 326.531 71.2812 329.594 71.2812ZM342.453 86H345.141V69.1562H342.453V86ZM343.797 65.7344C344.828 65.7344 345.672 64.8906 345.672 63.8594C345.672 62.8281 344.828 61.9844 343.797 61.9844C342.766 61.9844 341.922 62.8281 341.922 63.8594C341.922 64.8906 342.766 65.7344 343.797 65.7344ZM356.984 71.2344C359.656 71.2344 361.438 73.2031 361.5 76.1875H352.219C352.422 73.2031 354.297 71.2344 356.984 71.2344ZM361.422 81.6406C360.719 83.125 359.25 83.9219 357.078 83.9219C354.219 83.9219 352.359 81.8125 352.219 78.4844V78.3594H364.328V77.3281C364.328 72.0938 361.562 68.8594 357.016 68.8594C352.391 68.8594 349.422 72.2969 349.422 77.5938C349.422 82.9219 352.344 86.2969 357.016 86.2969C360.703 86.2969 363.297 84.5312 364.109 81.6406H361.422ZM368.547 86H371.234V76.0312C371.234 73.0781 372.969 71.2812 375.656 71.2812C378.344 71.2812 379.625 72.7188 379.625 75.75V86H382.312V75.0938C382.312 71.0938 380.203 68.8594 376.422 68.8594C373.844 68.8594 372.203 69.9531 371.359 71.8125H371.109V69.1562H368.547V86ZM401.172 74.3125C400.703 71.3125 398.203 68.8594 394.109 68.8594C389.391 68.8594 386.391 72.2656 386.391 77.5156C386.391 82.875 389.406 86.2969 394.125 86.2969C398.172 86.2969 400.688 84.0156 401.172 80.9219H398.453C397.953 82.8281 396.375 83.875 394.109 83.875C391.109 83.875 389.172 81.4062 389.172 77.5156C389.172 73.7031 391.078 71.2812 394.109 71.2812C396.531 71.2812 398.016 72.6406 398.453 74.3125H401.172ZM411.859 71.2344C414.531 71.2344 416.312 73.2031 416.375 76.1875H407.094C407.297 73.2031 409.172 71.2344 411.859 71.2344ZM416.297 81.6406C415.594 83.125 414.125 83.9219 411.953 83.9219C409.094 83.9219 407.234 81.8125 407.094 78.4844V78.3594H419.203V77.3281C419.203 72.0938 416.438 68.8594 411.891 68.8594C407.266 68.8594 404.297 72.2969 404.297 77.5938C404.297 82.9219 407.219 86.2969 411.891 86.2969C415.578 86.2969 418.172 84.5312 418.984 81.6406H416.297ZM440.828 86.2969C445.094 86.2969 447.891 82.8438 447.891 77.5781C447.891 72.2812 445.109 68.8594 440.828 68.8594C438.516 68.8594 436.469 70 435.547 71.8125H435.297V62.4688H432.609V86H435.172V83.3125H435.422C436.484 85.1875 438.484 86.2969 440.828 86.2969ZM440.203 71.2812C443.281 71.2812 445.109 73.6406 445.109 77.5781C445.109 81.5156 443.281 83.875 440.203 83.875C437.141 83.875 435.234 81.4688 435.234 77.5781C435.234 73.6875 437.141 71.2812 440.203 71.2812ZM458.828 71.2344C461.5 71.2344 463.281 73.2031 463.344 76.1875H454.062C454.266 73.2031 456.141 71.2344 458.828 71.2344ZM463.266 81.6406C462.562 83.125 461.094 83.9219 458.922 83.9219C456.062 83.9219 454.203 81.8125 454.062 78.4844V78.3594H466.172V77.3281C466.172 72.0938 463.406 68.8594 458.859 68.8594C454.234 68.8594 451.266 72.2969 451.266 77.5938C451.266 82.9219 454.188 86.2969 458.859 86.2969C462.547 86.2969 465.141 84.5312 465.953 81.6406H463.266ZM52.5938 109.234C55.2656 109.234 57.0469 111.203 57.1094 114.188H47.8281C48.0312 111.203 49.9062 109.234 52.5938 109.234ZM57.0312 119.641C56.3281 121.125 54.8594 121.922 52.6875 121.922C49.8281 121.922 47.9688 119.812 47.8281 116.484V116.359H59.9375V115.328C59.9375 110.094 57.1719 106.859 52.625 106.859C48 106.859 45.0312 110.297 45.0312 115.594C45.0312 120.922 47.9531 124.297 52.625 124.297C56.3125 124.297 58.9062 122.531 59.7188 119.641H57.0312ZM64.1562 124H66.8438V114.031C66.8438 111.078 68.5781 109.281 71.2656 109.281C73.9531 109.281 75.2344 110.719 75.2344 113.75V124H77.9219V113.094C77.9219 109.094 75.8125 106.859 72.0312 106.859C69.4531 106.859 67.8125 107.953 66.9688 109.812H66.7188V107.156H64.1562V124ZM89.6562 121.375C86.5312 121.375 84.7812 119 84.7812 115.328C84.7812 111.656 86.5312 109.281 89.6562 109.281C92.7656 109.281 94.6562 111.656 94.6562 115.328C94.6562 119 92.7812 121.375 89.6562 121.375ZM89.7812 130.469C94.375 130.469 97.2812 128.062 97.2812 124.297V107.156H94.7188V109.828H94.4688C93.5 108.016 91.4219 106.859 89.0625 106.859C84.7344 106.859 82 110.281 82 115.328C82 120.375 84.7031 123.75 89.0625 123.75C91.375 123.75 93.2812 122.703 94.3438 120.844H94.5938V124.156C94.5938 126.641 92.7969 128.125 89.7812 128.125C87.3594 128.125 85.8594 127.234 85.5625 125.859H82.7188C83.125 128.641 85.7188 130.469 89.7812 130.469ZM107.531 121.938C105.578 121.938 104.125 120.938 104.125 119.219C104.125 117.531 105.25 116.641 107.812 116.469L112.344 116.172V117.719C112.344 120.125 110.297 121.938 107.531 121.938ZM107.031 124.297C109.281 124.297 111.125 123.312 112.219 121.516H112.469V124H115.031V112.469C115.031 108.969 112.734 106.859 108.625 106.859C105.031 106.859 102.375 108.641 102.016 111.344H104.734C105.109 110.016 106.516 109.25 108.531 109.25C111.047 109.25 112.344 110.391 112.344 112.469V114L107.484 114.297C103.562 114.531 101.344 116.266 101.344 119.281C101.344 122.359 103.766 124.297 107.031 124.297ZM126.812 121.375C123.688 121.375 121.938 119 121.938 115.328C121.938 111.656 123.688 109.281 126.812 109.281C129.922 109.281 131.812 111.656 131.812 115.328C131.812 119 129.938 121.375 126.812 121.375ZM126.938 130.469C131.531 130.469 134.438 128.062 134.438 124.297V107.156H131.875V109.828H131.625C130.656 108.016 128.578 106.859 126.219 106.859C121.891 106.859 119.156 110.281 119.156 115.328C119.156 120.375 121.859 123.75 126.219 123.75C128.531 123.75 130.438 122.703 131.5 120.844H131.75V124.156C131.75 126.641 129.953 128.125 126.938 128.125C124.516 128.125 123.016 127.234 122.719 125.859H119.875C120.281 128.641 122.875 130.469 126.938 130.469ZM139.562 124H142.25V107.156H139.562V124ZM140.906 103.734C141.938 103.734 142.781 102.891 142.781 101.859C142.781 100.828 141.938 99.9844 140.906 99.9844C139.875 99.9844 139.031 100.828 139.031 101.859C139.031 102.891 139.875 103.734 140.906 103.734ZM147.375 124H150.062V114.031C150.062 111.078 151.797 109.281 154.484 109.281C157.172 109.281 158.453 110.719 158.453 113.75V124H161.141V113.094C161.141 109.094 159.031 106.859 155.25 106.859C152.672 106.859 151.031 107.953 150.188 109.812H149.938V107.156H147.375V124ZM172.875 121.375C169.75 121.375 168 119 168 115.328C168 111.656 169.75 109.281 172.875 109.281C175.984 109.281 177.875 111.656 177.875 115.328C177.875 119 176 121.375 172.875 121.375ZM173 130.469C177.594 130.469 180.5 128.062 180.5 124.297V107.156H177.938V109.828H177.688C176.719 108.016 174.641 106.859 172.281 106.859C167.953 106.859 165.219 110.281 165.219 115.328C165.219 120.375 167.922 123.75 172.281 123.75C174.594 123.75 176.5 122.703 177.562 120.844H177.812V124.156C177.812 126.641 176.016 128.125 173 128.125C170.578 128.125 169.078 127.234 168.781 125.859H165.938C166.344 128.641 168.938 130.469 173 130.469ZM215.781 107.156H213.078L209.766 120.625H209.516L205.75 107.156H203.172L199.406 120.625H199.156L195.844 107.156H193.125L197.844 124H200.562L204.312 110.969H204.562L208.328 124H211.062L215.781 107.156ZM219.438 124H222.125V107.156H219.438V124ZM220.781 103.734C221.812 103.734 222.656 102.891 222.656 101.859C222.656 100.828 221.812 99.9844 220.781 99.9844C219.75 99.9844 218.906 100.828 218.906 101.859C218.906 102.891 219.75 103.734 220.781 103.734ZM228.375 102.797V107.156H225.656V109.406H228.375V119.625C228.375 122.844 229.766 124.125 233.234 124.125C233.766 124.125 234.281 124.062 234.812 123.969V121.703C234.312 121.75 234.047 121.766 233.562 121.766C231.812 121.766 231.062 120.922 231.062 118.938V109.406H234.812V107.156H231.062V102.797H228.375ZM239.031 124H241.719V114.031C241.719 111.188 243.375 109.281 246.391 109.281C248.938 109.281 250.281 110.766 250.281 113.75V124H252.969V113.094C252.969 109.141 250.719 106.859 247.156 106.859C244.578 106.859 242.812 107.953 241.969 109.812H241.719V100.469H239.031V124ZM268.344 130.094C271.328 130.094 272.672 128.938 274.109 125.031L280.688 107.156H277.828L273.219 121.016H272.969L268.344 107.156H265.438L271.672 124.016L271.359 125.016C270.656 127.047 269.812 127.781 268.266 127.781C267.891 127.781 267.469 127.766 267.141 127.703V130C267.516 130.062 267.984 130.094 268.344 130.094ZM290.578 124.297C295.375 124.297 298.344 120.984 298.344 115.578C298.344 110.156 295.375 106.859 290.578 106.859C285.781 106.859 282.812 110.156 282.812 115.578C282.812 120.984 285.781 124.297 290.578 124.297ZM290.578 121.875C287.391 121.875 285.594 119.562 285.594 115.578C285.594 111.578 287.391 109.281 290.578 109.281C293.766 109.281 295.562 111.578 295.562 115.578C295.562 119.562 293.766 121.875 290.578 121.875ZM316.188 107.156H313.5V117.125C313.5 120.078 311.875 121.844 308.906 121.844C306.219 121.844 305.094 120.438 305.094 117.406V107.156H302.406V118.062C302.406 122.047 304.375 124.297 308.156 124.297C310.734 124.297 312.531 123.234 313.375 121.359H313.625V124H316.188V107.156ZM321.25 124H323.938V113.562C323.938 111.188 325.797 109.469 328.359 109.469C328.891 109.469 329.859 109.562 330.078 109.625V106.938C329.734 106.891 329.172 106.859 328.734 106.859C326.5 106.859 324.562 108.016 324.062 109.656H323.812V107.156H321.25V124ZM350.672 106.859C348.375 106.859 346.359 108.031 345.281 109.969H345.031V107.156H342.469V129.625H345.156V121.469H345.406C346.328 123.25 348.266 124.297 350.672 124.297C354.953 124.297 357.75 120.844 357.75 115.578C357.75 110.281 354.969 106.859 350.672 106.859ZM350.031 121.875C347 121.875 345.078 119.438 345.078 115.578C345.078 111.703 347 109.281 350.047 109.281C353.125 109.281 354.969 111.641 354.969 115.578C354.969 119.516 353.125 121.875 350.031 121.875ZM361.969 124H364.656V113.562C364.656 111.188 366.516 109.469 369.078 109.469C369.609 109.469 370.578 109.562 370.797 109.625V106.938C370.453 106.891 369.891 106.859 369.453 106.859C367.219 106.859 365.281 108.016 364.781 109.656H364.531V107.156H361.969V124ZM380.609 124.297C385.406 124.297 388.375 120.984 388.375 115.578C388.375 110.156 385.406 106.859 380.609 106.859C375.812 106.859 372.844 110.156 372.844 115.578C372.844 120.984 375.812 124.297 380.609 124.297ZM380.609 121.875C377.422 121.875 375.625 119.562 375.625 115.578C375.625 111.578 377.422 109.281 380.609 109.281C383.797 109.281 385.594 111.578 385.594 115.578C385.594 119.562 383.797 121.875 380.609 121.875ZM398.828 124.297C401.156 124.297 403.156 123.188 404.219 121.312H404.469V124H407.031V100.469H404.344V109.812H404.109C403.156 107.969 401.172 106.859 398.828 106.859C394.547 106.859 391.75 110.297 391.75 115.578C391.75 120.875 394.516 124.297 398.828 124.297ZM399.453 109.281C402.5 109.281 404.406 111.719 404.406 115.578C404.406 119.469 402.516 121.875 399.453 121.875C396.375 121.875 394.531 119.516 394.531 115.578C394.531 111.656 396.391 109.281 399.453 109.281ZM425.875 107.156H423.188V117.125C423.188 120.078 421.562 121.844 418.594 121.844C415.906 121.844 414.781 120.438 414.781 117.406V107.156H412.094V118.062C412.094 122.047 414.062 124.297 417.844 124.297C420.422 124.297 422.219 123.234 423.062 121.359H423.312V124H425.875V107.156ZM444.875 112.312C444.406 109.312 441.906 106.859 437.812 106.859C433.094 106.859 430.094 110.266 430.094 115.516C430.094 120.875 433.109 124.297 437.828 124.297C441.875 124.297 444.391 122.016 444.875 118.922H442.156C441.656 120.828 440.078 121.875 437.812 121.875C434.812 121.875 432.875 119.406 432.875 115.516C432.875 111.703 434.781 109.281 437.812 109.281C440.234 109.281 441.719 110.641 442.156 112.312H444.875ZM450.281 102.797V107.156H447.562V109.406H450.281V119.625C450.281 122.844 451.672 124.125 455.141 124.125C455.672 124.125 456.188 124.062 456.719 123.969V121.703C456.219 121.75 455.953 121.766 455.469 121.766C453.719 121.766 452.969 120.922 452.969 118.938V109.406H456.719V107.156H452.969V102.797H450.281ZM459.5 107.344H462.172C462.344 105.109 463.844 103.719 466.203 103.719C468.531 103.719 470.031 105.141 470.031 107.078C470.031 108.75 469.328 109.734 467.516 110.844C465.375 112.125 464.375 113.531 464.391 115.594V117.031H467.125V116.016C467.125 114.375 467.688 113.5 469.672 112.328C471.672 111.125 472.938 109.391 472.938 106.938C472.938 103.719 470.25 101.281 466.312 101.281C461.922 101.281 459.672 103.969 459.5 107.344ZM465.969 124.281C467.234 124.281 468.125 123.375 468.125 122.109C468.125 120.828 467.234 119.922 465.969 119.922C464.703 119.922 463.797 120.828 463.797 122.109C463.797 123.375 464.703 124.281 465.969 124.281Z" fill="#58A8A0"/>
<path d="M67.4941 198H70.0781L62.8047 178.271H60.3711L53.0977 198H55.6816L57.6641 192.354H65.5117L67.4941 198ZM61.4785 181.457H61.6973L64.7871 190.262H58.3887L61.4785 181.457ZM73.4004 179.447V183.262H71.0215V185.23H73.4004V194.172C73.4004 196.988 74.6172 198.109 77.6523 198.109C78.1172 198.109 78.5684 198.055 79.0332 197.973V195.99C78.5957 196.031 78.3633 196.045 77.9395 196.045C76.4082 196.045 75.752 195.307 75.752 193.57V185.23H79.0332V183.262H75.752V179.447H73.4004ZM95.0293 196.195C93.3203 196.195 92.0488 195.32 92.0488 193.816C92.0488 192.34 93.0332 191.561 95.2754 191.41L99.2402 191.15V192.504C99.2402 194.609 97.4492 196.195 95.0293 196.195ZM94.5918 198.26C96.5605 198.26 98.1738 197.398 99.1309 195.826H99.3496V198H101.592V187.91C101.592 184.848 99.582 183.002 95.9863 183.002C92.8418 183.002 90.5176 184.561 90.2031 186.926H92.582C92.9102 185.764 94.1406 185.094 95.9043 185.094C98.1055 185.094 99.2402 186.092 99.2402 187.91V189.25L94.9883 189.51C91.5566 189.715 89.6152 191.232 89.6152 193.871C89.6152 196.564 91.7344 198.26 94.5918 198.26ZM105.939 198H108.291V189.277C108.291 186.693 109.809 185.121 112.16 185.121C114.512 185.121 115.633 186.379 115.633 189.031V198H117.984V188.457C117.984 184.957 116.139 183.002 112.83 183.002C110.574 183.002 109.139 183.959 108.4 185.586H108.182V183.262H105.939V198ZM123.002 203.332C125.613 203.332 126.789 202.32 128.047 198.902L133.803 183.262H131.301L127.268 195.389H127.049L123.002 183.262H120.459L125.914 198.014L125.641 198.889C125.025 200.666 124.287 201.309 122.934 201.309C122.605 201.309 122.236 201.295 121.949 201.24V203.25C122.277 203.305 122.688 203.332 123.002 203.332ZM145.834 179.447V183.262H143.455V185.23H145.834V194.172C145.834 196.988 147.051 198.109 150.086 198.109C150.551 198.109 151.002 198.055 151.467 197.973V195.99C151.029 196.031 150.797 196.045 150.373 196.045C148.842 196.045 148.186 195.307 148.186 193.57V185.23H151.467V183.262H148.186V179.447H145.834ZM155.076 198H157.428V183.262H155.076V198ZM156.252 180.268C157.154 180.268 157.893 179.529 157.893 178.627C157.893 177.725 157.154 176.986 156.252 176.986C155.35 176.986 154.611 177.725 154.611 178.627C154.611 179.529 155.35 180.268 156.252 180.268ZM161.912 198H164.264V188.867C164.264 186.789 165.754 185.121 167.682 185.121C169.541 185.121 170.758 186.242 170.758 187.992V198H173.109V188.525C173.109 186.652 174.477 185.121 176.527 185.121C178.605 185.121 179.631 186.188 179.631 188.361V198H181.982V187.814C181.982 184.725 180.301 183.002 177.293 183.002C175.256 183.002 173.574 184.027 172.781 185.586H172.562C171.879 184.055 170.484 183.002 168.488 183.002C166.52 183.002 165.043 183.945 164.373 185.586H164.154V183.262H161.912V198ZM192.154 185.08C194.492 185.08 196.051 186.803 196.105 189.414H187.984C188.162 186.803 189.803 185.08 192.154 185.08ZM196.037 194.186C195.422 195.484 194.137 196.182 192.236 196.182C189.734 196.182 188.107 194.336 187.984 191.424V191.314H198.58V190.412C198.58 185.832 196.16 183.002 192.182 183.002C188.135 183.002 185.537 186.01 185.537 190.645C185.537 195.307 188.094 198.26 192.182 198.26C195.408 198.26 197.678 196.715 198.389 194.186H196.037ZM204.213 198.137C205.197 198.137 205.99 197.33 205.99 196.359C205.99 195.375 205.197 194.582 204.213 194.582C203.242 194.582 202.436 195.375 202.436 196.359C202.436 197.33 203.242 198.137 204.213 198.137ZM226.375 198V180.486H232.732V178.271H217.557V180.486H223.914V198H226.375ZM236.369 198H238.721V189.277C238.721 186.789 240.17 185.121 242.809 185.121C245.037 185.121 246.213 186.42 246.213 189.031V198H248.564V188.457C248.564 184.998 246.596 183.002 243.479 183.002C241.223 183.002 239.678 183.959 238.939 185.586H238.721V177.41H236.369V198ZM252.912 198H255.264V183.262H252.912V198ZM254.088 180.268C254.99 180.268 255.729 179.529 255.729 178.627C255.729 177.725 254.99 176.986 254.088 176.986C253.186 176.986 252.447 177.725 252.447 178.627C252.447 179.529 253.186 180.268 254.088 180.268ZM259.406 187.295C259.406 189.428 260.664 190.617 263.426 191.287L265.955 191.902C267.527 192.285 268.293 192.969 268.293 193.98C268.293 195.334 266.871 196.277 264.889 196.277C263.002 196.277 261.826 195.484 261.43 194.24H259.01C259.27 196.688 261.525 198.26 264.807 198.26C268.156 198.26 270.713 196.441 270.713 193.803C270.713 191.684 269.373 190.48 266.598 189.811L264.328 189.264C262.592 188.84 261.771 188.211 261.771 187.199C261.771 185.887 263.139 184.998 264.889 184.998C266.666 184.998 267.814 185.777 268.129 186.953H270.453C270.139 184.533 267.992 183.002 264.902 183.002C261.771 183.002 259.406 184.848 259.406 187.295ZM294.502 187.773C294.092 185.148 291.904 183.002 288.322 183.002C284.193 183.002 281.568 185.982 281.568 190.576C281.568 195.266 284.207 198.26 288.336 198.26C291.877 198.26 294.078 196.264 294.502 193.557H292.123C291.686 195.225 290.305 196.141 288.322 196.141C285.697 196.141 284.002 193.98 284.002 190.576C284.002 187.24 285.67 185.121 288.322 185.121C290.441 185.121 291.74 186.311 292.123 187.773H294.502ZM304.031 198.26C308.229 198.26 310.826 195.361 310.826 190.631C310.826 185.887 308.229 183.002 304.031 183.002C299.834 183.002 297.236 185.887 297.236 190.631C297.236 195.361 299.834 198.26 304.031 198.26ZM304.031 196.141C301.242 196.141 299.67 194.117 299.67 190.631C299.67 187.131 301.242 185.121 304.031 185.121C306.82 185.121 308.393 187.131 308.393 190.631C308.393 194.117 306.82 196.141 304.031 196.141ZM326.439 183.262H324.088V191.984C324.088 194.568 322.666 196.113 320.068 196.113C317.717 196.113 316.732 194.883 316.732 192.23V183.262H314.381V192.805C314.381 196.291 316.104 198.26 319.412 198.26C321.668 198.26 323.24 197.33 323.979 195.689H324.197V198H326.439V183.262ZM331.006 198H333.357V177.41H331.006V198ZM343.379 198.26C345.416 198.26 347.166 197.289 348.096 195.648H348.314V198H350.557V177.41H348.205V185.586H348C347.166 183.973 345.43 183.002 343.379 183.002C339.633 183.002 337.186 186.01 337.186 190.631C337.186 195.266 339.605 198.26 343.379 198.26ZM343.926 185.121C346.592 185.121 348.26 187.254 348.26 190.631C348.26 194.035 346.605 196.141 343.926 196.141C341.232 196.141 339.619 194.076 339.619 190.631C339.619 187.199 341.246 185.121 343.926 185.121ZM370.354 198.26C374.086 198.26 376.533 195.238 376.533 190.631C376.533 185.996 374.1 183.002 370.354 183.002C368.33 183.002 366.539 184 365.732 185.586H365.514V177.41H363.162V198H365.404V195.648H365.623C366.553 197.289 368.303 198.26 370.354 198.26ZM369.807 185.121C372.5 185.121 374.1 187.186 374.1 190.631C374.1 194.076 372.5 196.141 369.807 196.141C367.127 196.141 365.459 194.035 365.459 190.631C365.459 187.227 367.127 185.121 369.807 185.121ZM386.104 185.08C388.441 185.08 390 186.803 390.055 189.414H381.934C382.111 186.803 383.752 185.08 386.104 185.08ZM389.986 194.186C389.371 195.484 388.086 196.182 386.186 196.182C383.684 196.182 382.057 194.336 381.934 191.424V191.314H392.529V190.412C392.529 185.832 390.109 183.002 386.131 183.002C382.084 183.002 379.486 186.01 379.486 190.645C379.486 195.307 382.043 198.26 386.131 198.26C389.357 198.26 391.627 196.715 392.338 194.186H389.986ZM404.178 198H406.529V183.262H404.178V198ZM405.354 180.268C406.256 180.268 406.994 179.529 406.994 178.627C406.994 177.725 406.256 176.986 405.354 176.986C404.451 176.986 403.713 177.725 403.713 178.627C403.713 179.529 404.451 180.268 405.354 180.268ZM411.014 198H413.365V189.277C413.365 186.693 414.883 185.121 417.234 185.121C419.586 185.121 420.707 186.379 420.707 189.031V198H423.059V188.457C423.059 184.957 421.213 183.002 417.904 183.002C415.648 183.002 414.213 183.959 413.475 185.586H413.256V183.262H411.014V198ZM436.252 179.447V183.262H433.873V185.23H436.252V194.172C436.252 196.988 437.469 198.109 440.504 198.109C440.969 198.109 441.42 198.055 441.885 197.973V195.99C441.447 196.031 441.215 196.045 440.791 196.045C439.26 196.045 438.604 195.307 438.604 193.57V185.23H441.885V183.262H438.604V179.447H436.252ZM445.576 198H447.928V189.277C447.928 186.789 449.377 185.121 452.016 185.121C454.244 185.121 455.42 186.42 455.42 189.031V198H457.771V188.457C457.771 184.998 455.803 183.002 452.686 183.002C450.43 183.002 448.885 183.959 448.146 185.586H447.928V177.41H445.576V198ZM467.943 185.08C470.281 185.08 471.84 186.803 471.895 189.414H463.773C463.951 186.803 465.592 185.08 467.943 185.08ZM471.826 194.186C471.211 195.484 469.926 196.182 468.025 196.182C465.523 196.182 463.896 194.336 463.773 191.424V191.314H474.369V190.412C474.369 185.832 471.949 183.002 467.971 183.002C463.924 183.002 461.326 186.01 461.326 190.645C461.326 195.307 463.883 198.26 467.971 198.26C471.197 198.26 473.467 196.715 474.178 194.186H471.826ZM37.7168 220.295C37.7168 222.428 38.9746 223.617 41.7363 224.287L44.2656 224.902C45.8379 225.285 46.6035 225.969 46.6035 226.98C46.6035 228.334 45.1816 229.277 43.1992 229.277C41.3125 229.277 40.1367 228.484 39.7402 227.24H37.3203C37.5801 229.688 39.8359 231.26 43.1172 231.26C46.4668 231.26 49.0234 229.441 49.0234 226.803C49.0234 224.684 47.6836 223.48 44.9082 222.811L42.6387 222.264C40.9023 221.84 40.082 221.211 40.082 220.199C40.082 218.887 41.4492 217.998 43.1992 217.998C44.9766 217.998 46.125 218.777 46.4395 219.953H48.7637C48.4492 217.533 46.3027 216.002 43.2129 216.002C40.082 216.002 37.7168 217.848 37.7168 220.295ZM64.6367 216.262H62.2852V224.984C62.2852 227.568 60.8633 229.113 58.2656 229.113C55.9141 229.113 54.9297 227.883 54.9297 225.23V216.262H52.5781V225.805C52.5781 229.291 54.3008 231.26 57.6094 231.26C59.8652 231.26 61.4375 230.33 62.1758 228.689H62.3945V231H64.6367V216.262ZM76.2441 216.002C74.2344 216.002 72.4707 217.027 71.5273 218.723H71.3086V216.262H69.0664V235.922H71.418V228.785H71.6367C72.4434 230.344 74.1387 231.26 76.2441 231.26C79.9902 231.26 82.4375 228.238 82.4375 223.631C82.4375 218.996 80.0039 216.002 76.2441 216.002ZM75.6836 229.141C73.0312 229.141 71.3496 227.008 71.3496 223.631C71.3496 220.24 73.0312 218.121 75.6973 218.121C78.3906 218.121 80.0039 220.186 80.0039 223.631C80.0039 227.076 78.3906 229.141 75.6836 229.141ZM92.0078 218.08C94.3457 218.08 95.9043 219.803 95.959 222.414H87.8379C88.0156 219.803 89.6562 218.08 92.0078 218.08ZM95.8906 227.186C95.2754 228.484 93.9902 229.182 92.0898 229.182C89.5879 229.182 87.9609 227.336 87.8379 224.424V224.314H98.4336V223.412C98.4336 218.832 96.0137 216.002 92.0352 216.002C87.9883 216.002 85.3906 219.01 85.3906 223.645C85.3906 228.307 87.9473 231.26 92.0352 231.26C95.2617 231.26 97.5312 229.715 98.2422 227.186H95.8906ZM102.125 231H104.477V221.867C104.477 219.789 106.104 218.285 108.346 218.285C108.811 218.285 109.658 218.367 109.85 218.422V216.07C109.549 216.029 109.057 216.002 108.674 216.002C106.719 216.002 105.023 217.014 104.586 218.449H104.367V216.262H102.125V231ZM113.062 231H115.414V221.867C115.414 219.789 116.904 218.121 118.832 218.121C120.691 218.121 121.908 219.242 121.908 220.992V231H124.26V221.525C124.26 219.652 125.627 218.121 127.678 218.121C129.756 218.121 130.781 219.188 130.781 221.361V231H133.133V220.814C133.133 217.725 131.451 216.002 128.443 216.002C126.406 216.002 124.725 217.027 123.932 218.586H123.713C123.029 217.055 121.635 216.002 119.639 216.002C117.67 216.002 116.193 216.945 115.523 218.586H115.305V216.262H113.062V231ZM141.965 229.195C140.256 229.195 138.984 228.32 138.984 226.816C138.984 225.34 139.969 224.561 142.211 224.41L146.176 224.15V225.504C146.176 227.609 144.385 229.195 141.965 229.195ZM141.527 231.26C143.496 231.26 145.109 230.398 146.066 228.826H146.285V231H148.527V220.91C148.527 217.848 146.518 216.002 142.922 216.002C139.777 216.002 137.453 217.561 137.139 219.926H139.518C139.846 218.764 141.076 218.094 142.84 218.094C145.041 218.094 146.176 219.092 146.176 220.91V222.25L141.924 222.51C138.492 222.715 136.551 224.232 136.551 226.871C136.551 229.564 138.67 231.26 141.527 231.26ZM152.875 231H155.227V221.867C155.227 219.789 156.854 218.285 159.096 218.285C159.561 218.285 160.408 218.367 160.6 218.422V216.07C160.299 216.029 159.807 216.002 159.424 216.002C157.469 216.002 155.773 217.014 155.336 218.449H155.117V216.262H152.875V231ZM166.246 222.701H166.027V210.41H163.676V231H166.027V225.408L167.436 224.096L172.959 231H175.953L169.186 222.578L175.529 216.262H172.645L166.246 222.701ZM183.938 218.08C186.275 218.08 187.834 219.803 187.889 222.414H179.768C179.945 219.803 181.586 218.08 183.938 218.08ZM187.82 227.186C187.205 228.484 185.92 229.182 184.02 229.182C181.518 229.182 179.891 227.336 179.768 224.424V224.314H190.363V223.412C190.363 218.832 187.943 216.002 183.965 216.002C179.918 216.002 177.32 219.01 177.32 223.645C177.32 228.307 179.877 231.26 183.965 231.26C187.191 231.26 189.461 229.715 190.172 227.186H187.82ZM195.039 212.447V216.262H192.66V218.23H195.039V227.172C195.039 229.988 196.256 231.109 199.291 231.109C199.756 231.109 200.207 231.055 200.672 230.973V228.99C200.234 229.031 200.002 229.045 199.578 229.045C198.047 229.045 197.391 228.307 197.391 226.57V218.23H200.672V216.262H197.391V212.447H195.039ZM216.668 229.195C214.959 229.195 213.688 228.32 213.688 226.816C213.688 225.34 214.672 224.561 216.914 224.41L220.879 224.15V225.504C220.879 227.609 219.088 229.195 216.668 229.195ZM216.23 231.26C218.199 231.26 219.812 230.398 220.77 228.826H220.988V231H223.23V220.91C223.23 217.848 221.221 216.002 217.625 216.002C214.48 216.002 212.156 217.561 211.842 219.926H214.221C214.549 218.764 215.779 218.094 217.543 218.094C219.744 218.094 220.879 219.092 220.879 220.91V222.25L216.627 222.51C213.195 222.715 211.254 224.232 211.254 226.871C211.254 229.564 213.373 231.26 216.23 231.26ZM227.236 220.295C227.236 222.428 228.494 223.617 231.256 224.287L233.785 224.902C235.357 225.285 236.123 225.969 236.123 226.98C236.123 228.334 234.701 229.277 232.719 229.277C230.832 229.277 229.656 228.484 229.26 227.24H226.84C227.1 229.688 229.355 231.26 232.637 231.26C235.986 231.26 238.543 229.441 238.543 226.803C238.543 224.684 237.203 223.48 234.428 222.811L232.158 222.264C230.422 221.84 229.602 221.211 229.602 220.199C229.602 218.887 230.969 217.998 232.719 217.998C234.496 217.998 235.645 218.777 235.959 219.953H238.283C237.969 217.533 235.822 216.002 232.732 216.002C229.602 216.002 227.236 217.848 227.236 220.295ZM250.438 211.271V231H252.898V223.959H257.861C261.566 223.959 264.205 221.348 264.205 217.656C264.205 213.896 261.621 211.271 257.889 211.271H250.438ZM252.898 213.459H257.246C260.104 213.459 261.676 214.949 261.676 217.656C261.676 220.268 260.049 221.771 257.246 221.771H252.898V213.459ZM268.074 231H270.426V210.41H268.074V231ZM279.531 229.195C277.822 229.195 276.551 228.32 276.551 226.816C276.551 225.34 277.535 224.561 279.777 224.41L283.742 224.15V225.504C283.742 227.609 281.951 229.195 279.531 229.195ZM279.094 231.26C281.062 231.26 282.676 230.398 283.633 228.826H283.852V231H286.094V220.91C286.094 217.848 284.084 216.002 280.488 216.002C277.344 216.002 275.02 217.561 274.705 219.926H277.084C277.412 218.764 278.643 218.094 280.406 218.094C282.607 218.094 283.742 219.092 283.742 220.91V222.25L279.49 222.51C276.059 222.715 274.117 224.232 274.117 226.871C274.117 229.564 276.236 231.26 279.094 231.26ZM291.426 212.447V216.262H289.047V218.23H291.426V227.172C291.426 229.988 292.643 231.109 295.678 231.109C296.143 231.109 296.594 231.055 297.059 230.973V228.99C296.621 229.031 296.389 229.045 295.965 229.045C294.434 229.045 293.777 228.307 293.777 226.57V218.23H297.059V216.262H293.777V212.447H291.426ZM306.273 218.08C308.611 218.08 310.17 219.803 310.225 222.414H302.104C302.281 219.803 303.922 218.08 306.273 218.08ZM310.156 227.186C309.541 228.484 308.256 229.182 306.355 229.182C303.854 229.182 302.227 227.336 302.104 224.424V224.314H312.699V223.412C312.699 218.832 310.279 216.002 306.301 216.002C302.254 216.002 299.656 219.01 299.656 223.645C299.656 228.307 302.213 231.26 306.301 231.26C309.527 231.26 311.797 229.715 312.508 227.186H310.156ZM324.43 231H326.781V222.277C326.781 219.789 328.23 218.121 330.869 218.121C333.098 218.121 334.273 219.42 334.273 222.031V231H336.625V221.457C336.625 217.998 334.656 216.002 331.539 216.002C329.283 216.002 327.738 216.959 327 218.586H326.781V210.41H324.43V231ZM345.457 229.195C343.748 229.195 342.477 228.32 342.477 226.816C342.477 225.34 343.461 224.561 345.703 224.41L349.668 224.15V225.504C349.668 227.609 347.877 229.195 345.457 229.195ZM345.02 231.26C346.988 231.26 348.602 230.398 349.559 228.826H349.777V231H352.02V220.91C352.02 217.848 350.01 216.002 346.414 216.002C343.27 216.002 340.945 217.561 340.631 219.926H343.01C343.338 218.764 344.568 218.094 346.332 218.094C348.533 218.094 349.668 219.092 349.668 220.91V222.25L345.416 222.51C341.984 222.715 340.043 224.232 340.043 226.871C340.043 229.564 342.162 231.26 345.02 231.26ZM356.025 220.295C356.025 222.428 357.283 223.617 360.045 224.287L362.574 224.902C364.146 225.285 364.912 225.969 364.912 226.98C364.912 228.334 363.49 229.277 361.508 229.277C359.621 229.277 358.445 228.484 358.049 227.24H355.629C355.889 229.688 358.145 231.26 361.426 231.26C364.775 231.26 367.332 229.441 367.332 226.803C367.332 224.684 365.992 223.48 363.217 222.811L360.947 222.264C359.211 221.84 358.391 221.211 358.391 220.199C358.391 218.887 359.758 217.998 361.508 217.998C363.285 217.998 364.434 218.777 364.748 219.953H367.072C366.758 217.533 364.611 216.002 361.521 216.002C358.391 216.002 356.025 217.848 356.025 220.295ZM379.91 212.447V216.262H377.531V218.23H379.91V227.172C379.91 229.988 381.127 231.109 384.162 231.109C384.627 231.109 385.078 231.055 385.543 230.973V228.99C385.105 229.031 384.873 229.045 384.449 229.045C382.918 229.045 382.262 228.307 382.262 226.57V218.23H385.543V216.262H382.262V212.447H379.91ZM389.234 231H391.586V222.277C391.586 219.789 393.035 218.121 395.674 218.121C397.902 218.121 399.078 219.42 399.078 222.031V231H401.43V221.457C401.43 217.998 399.461 216.002 396.344 216.002C394.088 216.002 392.543 216.959 391.805 218.586H391.586V210.41H389.234V231ZM411.602 218.08C413.939 218.08 415.498 219.803 415.553 222.414H407.432C407.609 219.803 409.25 218.08 411.602 218.08ZM415.484 227.186C414.869 228.484 413.584 229.182 411.684 229.182C409.182 229.182 407.555 227.336 407.432 224.424V224.314H418.027V223.412C418.027 218.832 415.607 216.002 411.629 216.002C407.582 216.002 404.984 219.01 404.984 223.645C404.984 228.307 407.541 231.26 411.629 231.26C414.855 231.26 417.125 229.715 417.836 227.186H415.484ZM430.605 212.447V216.262H428.227V218.23H430.605V227.172C430.605 229.988 431.822 231.109 434.857 231.109C435.322 231.109 435.773 231.055 436.238 230.973V228.99C435.801 229.031 435.568 229.045 435.145 229.045C433.613 229.045 432.957 228.307 432.957 226.57V218.23H436.238V216.262H432.957V212.447H430.605ZM445.631 231.26C449.828 231.26 452.426 228.361 452.426 223.631C452.426 218.887 449.828 216.002 445.631 216.002C441.434 216.002 438.836 218.887 438.836 223.631C438.836 228.361 441.434 231.26 445.631 231.26ZM445.631 229.141C442.842 229.141 441.27 227.117 441.27 223.631C441.27 220.131 442.842 218.121 445.631 218.121C448.42 218.121 449.992 220.131 449.992 223.631C449.992 227.117 448.42 229.141 445.631 229.141ZM462.174 231.26C466.371 231.26 468.969 228.361 468.969 223.631C468.969 218.887 466.371 216.002 462.174 216.002C457.977 216.002 455.379 218.887 455.379 223.631C455.379 228.361 457.977 231.26 462.174 231.26ZM462.174 229.141C459.385 229.141 457.812 227.117 457.812 223.631C457.812 220.131 459.385 218.121 462.174 218.121C464.963 218.121 466.535 220.131 466.535 223.631C466.535 227.117 464.963 229.141 462.174 229.141ZM472.797 231H475.148V210.41H472.797V231ZM479.373 220.295C479.373 222.428 480.631 223.617 483.393 224.287L485.922 224.902C487.494 225.285 488.26 225.969 488.26 226.98C488.26 228.334 486.838 229.277 484.855 229.277C482.969 229.277 481.793 228.484 481.396 227.24H478.977C479.236 229.688 481.492 231.26 484.773 231.26C488.123 231.26 490.68 229.441 490.68 226.803C490.68 224.684 489.34 223.48 486.564 222.811L484.295 222.264C482.559 221.84 481.738 221.211 481.738 220.199C481.738 218.887 483.105 217.998 484.855 217.998C486.633 217.998 487.781 218.777 488.096 219.953H490.42C490.105 217.533 487.959 216.002 484.869 216.002C481.738 216.002 479.373 217.848 479.373 220.295ZM74.0156 264H76.3672V251.23H79.7441V249.262H76.3672V247.689C76.3672 246.076 77.0781 245.256 78.7734 245.256C79.1973 245.256 79.5938 245.27 79.8809 245.324V243.41C79.3887 243.314 78.8691 243.273 78.2949 243.273C75.4922 243.273 74.0156 244.682 74.0156 247.621V249.262H71.5684V251.23H74.0156V264ZM88.6035 264.26C92.8008 264.26 95.3984 261.361 95.3984 256.631C95.3984 251.887 92.8008 249.002 88.6035 249.002C84.4062 249.002 81.8086 251.887 81.8086 256.631C81.8086 261.361 84.4062 264.26 88.6035 264.26ZM88.6035 262.141C85.8145 262.141 84.2422 260.117 84.2422 256.631C84.2422 253.131 85.8145 251.121 88.6035 251.121C91.3926 251.121 92.9648 253.131 92.9648 256.631C92.9648 260.117 91.3926 262.141 88.6035 262.141ZM99.0898 264H101.441V254.867C101.441 252.789 103.068 251.285 105.311 251.285C105.775 251.285 106.623 251.367 106.814 251.422V249.07C106.514 249.029 106.021 249.002 105.639 249.002C103.684 249.002 101.988 250.014 101.551 251.449H101.332V249.262H99.0898V264ZM129.578 249.262H127.227V257.984C127.227 260.568 125.805 262.113 123.207 262.113C120.855 262.113 119.871 260.883 119.871 258.23V249.262H117.52V258.805C117.52 262.291 119.242 264.26 122.551 264.26C124.807 264.26 126.379 263.33 127.117 261.689H127.336V264H129.578V249.262ZM133.666 253.295C133.666 255.428 134.924 256.617 137.686 257.287L140.215 257.902C141.787 258.285 142.553 258.969 142.553 259.98C142.553 261.334 141.131 262.277 139.148 262.277C137.262 262.277 136.086 261.484 135.689 260.24H133.27C133.529 262.688 135.785 264.26 139.066 264.26C142.416 264.26 144.973 262.441 144.973 259.803C144.973 257.684 143.633 256.48 140.857 255.811L138.588 255.264C136.852 254.84 136.031 254.211 136.031 253.199C136.031 251.887 137.398 250.998 139.148 250.998C140.926 250.998 142.074 251.777 142.389 252.953H144.713C144.398 250.533 142.252 249.002 139.162 249.002C136.031 249.002 133.666 250.848 133.666 253.295ZM154.543 251.08C156.881 251.08 158.439 252.803 158.494 255.414H150.373C150.551 252.803 152.191 251.08 154.543 251.08ZM158.426 260.186C157.811 261.484 156.525 262.182 154.625 262.182C152.123 262.182 150.496 260.336 150.373 257.424V257.314H160.969V256.412C160.969 251.832 158.549 249.002 154.57 249.002C150.523 249.002 147.926 252.01 147.926 256.645C147.926 261.307 150.482 264.26 154.57 264.26C157.797 264.26 160.066 262.715 160.777 260.186H158.426ZM164.66 264H167.012V254.867C167.012 252.789 168.639 251.285 170.881 251.285C171.346 251.285 172.193 251.367 172.385 251.422V249.07C172.084 249.029 171.592 249.002 171.209 249.002C169.254 249.002 167.559 250.014 167.121 251.449H166.902V249.262H164.66V264ZM174.709 253.295C174.709 255.428 175.967 256.617 178.729 257.287L181.258 257.902C182.83 258.285 183.596 258.969 183.596 259.98C183.596 261.334 182.174 262.277 180.191 262.277C178.305 262.277 177.129 261.484 176.732 260.24H174.312C174.572 262.688 176.828 264.26 180.109 264.26C183.459 264.26 186.016 262.441 186.016 259.803C186.016 257.684 184.676 256.48 181.9 255.811L179.631 255.264C177.895 254.84 177.074 254.211 177.074 253.199C177.074 251.887 178.441 250.998 180.191 250.998C181.969 250.998 183.117 251.777 183.432 252.953H185.756C185.441 250.533 183.295 249.002 180.205 249.002C177.074 249.002 174.709 250.848 174.709 253.295ZM198.594 245.447V249.262H196.215V251.23H198.594V260.172C198.594 262.988 199.811 264.109 202.846 264.109C203.311 264.109 203.762 264.055 204.227 263.973V261.99C203.789 262.031 203.557 262.045 203.133 262.045C201.602 262.045 200.945 261.307 200.945 259.57V251.23H204.227V249.262H200.945V245.447H198.594ZM213.619 264.26C217.816 264.26 220.414 261.361 220.414 256.631C220.414 251.887 217.816 249.002 213.619 249.002C209.422 249.002 206.824 251.887 206.824 256.631C206.824 261.361 209.422 264.26 213.619 264.26ZM213.619 262.141C210.83 262.141 209.258 260.117 209.258 256.631C209.258 253.131 210.83 251.121 213.619 251.121C216.408 251.121 217.98 253.131 217.98 256.631C217.98 260.117 216.408 262.141 213.619 262.141ZM239.186 249.002C237.176 249.002 235.412 250.027 234.469 251.723H234.25V249.262H232.008V268.922H234.359V261.785H234.578C235.385 263.344 237.08 264.26 239.186 264.26C242.932 264.26 245.379 261.238 245.379 256.631C245.379 251.996 242.945 249.002 239.186 249.002ZM238.625 262.141C235.973 262.141 234.291 260.008 234.291 256.631C234.291 253.24 235.973 251.121 238.639 251.121C241.332 251.121 242.945 253.186 242.945 256.631C242.945 260.076 241.332 262.141 238.625 262.141ZM249.207 264H251.559V243.41H249.207V264ZM260.664 262.195C258.955 262.195 257.684 261.32 257.684 259.816C257.684 258.34 258.668 257.561 260.91 257.41L264.875 257.15V258.504C264.875 260.609 263.084 262.195 260.664 262.195ZM260.227 264.26C262.195 264.26 263.809 263.398 264.766 261.826H264.984V264H267.227V253.91C267.227 250.848 265.217 249.002 261.621 249.002C258.477 249.002 256.152 250.561 255.838 252.926H258.217C258.545 251.764 259.775 251.094 261.539 251.094C263.74 251.094 264.875 252.092 264.875 253.91V255.25L260.623 255.51C257.191 255.715 255.25 257.232 255.25 259.871C255.25 262.564 257.369 264.26 260.227 264.26ZM271.574 264H273.926V255.277C273.926 252.693 275.443 251.121 277.795 251.121C280.146 251.121 281.268 252.379 281.268 255.031V264H283.619V254.457C283.619 250.957 281.773 249.002 278.465 249.002C276.209 249.002 274.773 249.959 274.035 251.586H273.816V249.262H271.574V264ZM300.367 262.195C298.658 262.195 297.387 261.32 297.387 259.816C297.387 258.34 298.371 257.561 300.613 257.41L304.578 257.15V258.504C304.578 260.609 302.787 262.195 300.367 262.195ZM299.93 264.26C301.898 264.26 303.512 263.398 304.469 261.826H304.688V264H306.93V253.91C306.93 250.848 304.92 249.002 301.324 249.002C298.18 249.002 295.855 250.561 295.541 252.926H297.92C298.248 251.764 299.479 251.094 301.242 251.094C303.443 251.094 304.578 252.092 304.578 253.91V255.25L300.326 255.51C296.895 255.715 294.953 257.232 294.953 259.871C294.953 262.564 297.072 264.26 299.93 264.26ZM311.277 264H313.629V255.277C313.629 252.693 315.146 251.121 317.498 251.121C319.85 251.121 320.971 252.379 320.971 255.031V264H323.322V254.457C323.322 250.957 321.477 249.002 318.168 249.002C315.912 249.002 314.477 249.959 313.738 251.586H313.52V249.262H311.277V264ZM333.084 264.26C335.121 264.26 336.871 263.289 337.801 261.648H338.02V264H340.262V243.41H337.91V251.586H337.705C336.871 249.973 335.135 249.002 333.084 249.002C329.338 249.002 326.891 252.01 326.891 256.631C326.891 261.266 329.311 264.26 333.084 264.26ZM333.631 251.121C336.297 251.121 337.965 253.254 337.965 256.631C337.965 260.035 336.311 262.141 333.631 262.141C330.938 262.141 329.324 260.076 329.324 256.631C329.324 253.199 330.951 251.121 333.631 251.121ZM364.926 253.773C364.516 251.148 362.328 249.002 358.746 249.002C354.617 249.002 351.992 251.982 351.992 256.576C351.992 261.266 354.631 264.26 358.76 264.26C362.301 264.26 364.502 262.264 364.926 259.557H362.547C362.109 261.225 360.729 262.141 358.746 262.141C356.121 262.141 354.426 259.98 354.426 256.576C354.426 253.24 356.094 251.121 358.746 251.121C360.865 251.121 362.164 252.311 362.547 253.773H364.926ZM368.398 264H370.75V254.867C370.75 252.789 372.377 251.285 374.619 251.285C375.084 251.285 375.932 251.367 376.123 251.422V249.07C375.822 249.029 375.33 249.002 374.947 249.002C372.992 249.002 371.297 250.014 370.859 251.449H370.641V249.262H368.398V264ZM384.531 251.08C386.869 251.08 388.428 252.803 388.482 255.414H380.361C380.539 252.803 382.18 251.08 384.531 251.08ZM388.414 260.186C387.799 261.484 386.514 262.182 384.613 262.182C382.111 262.182 380.484 260.336 380.361 257.424V257.314H390.957V256.412C390.957 251.832 388.537 249.002 384.559 249.002C380.512 249.002 377.914 252.01 377.914 256.645C377.914 261.307 380.471 264.26 384.559 264.26C387.785 264.26 390.055 262.715 390.766 260.186H388.414ZM399.188 262.195C397.479 262.195 396.207 261.32 396.207 259.816C396.207 258.34 397.191 257.561 399.434 257.41L403.398 257.15V258.504C403.398 260.609 401.607 262.195 399.188 262.195ZM398.75 264.26C400.719 264.26 402.332 263.398 403.289 261.826H403.508V264H405.75V253.91C405.75 250.848 403.74 249.002 400.145 249.002C397 249.002 394.676 250.561 394.361 252.926H396.74C397.068 251.764 398.299 251.094 400.062 251.094C402.264 251.094 403.398 252.092 403.398 253.91V255.25L399.146 255.51C395.715 255.715 393.773 257.232 393.773 259.871C393.773 262.564 395.893 264.26 398.75 264.26ZM411.082 245.447V249.262H408.703V251.23H411.082V260.172C411.082 262.988 412.299 264.109 415.334 264.109C415.799 264.109 416.25 264.055 416.715 263.973V261.99C416.277 262.031 416.045 262.045 415.621 262.045C414.09 262.045 413.434 261.307 413.434 259.57V251.23H416.715V249.262H413.434V245.447H411.082ZM425.93 251.08C428.268 251.08 429.826 252.803 429.881 255.414H421.76C421.938 252.803 423.578 251.08 425.93 251.08ZM429.812 260.186C429.197 261.484 427.912 262.182 426.012 262.182C423.51 262.182 421.883 260.336 421.76 257.424V257.314H432.355V256.412C432.355 251.832 429.936 249.002 425.957 249.002C421.91 249.002 419.312 252.01 419.312 256.645C419.312 261.307 421.869 264.26 425.957 264.26C429.184 264.26 431.453 262.715 432.164 260.186H429.812ZM448.488 262.195C446.779 262.195 445.508 261.32 445.508 259.816C445.508 258.34 446.492 257.561 448.734 257.41L452.699 257.15V258.504C452.699 260.609 450.908 262.195 448.488 262.195ZM448.051 264.26C450.02 264.26 451.633 263.398 452.59 261.826H452.809V264H455.051V253.91C455.051 250.848 453.041 249.002 449.445 249.002C446.301 249.002 443.977 250.561 443.662 252.926H446.041C446.369 251.764 447.6 251.094 449.363 251.094C451.564 251.094 452.699 252.092 452.699 253.91V255.25L448.447 255.51C445.016 255.715 443.074 257.232 443.074 259.871C443.074 262.564 445.193 264.26 448.051 264.26ZM41.5449 286.295C41.5449 288.428 42.8027 289.617 45.5645 290.287L48.0938 290.902C49.666 291.285 50.4316 291.969 50.4316 292.98C50.4316 294.334 49.0098 295.277 47.0273 295.277C45.1406 295.277 43.9648 294.484 43.5684 293.24H41.1484C41.4082 295.688 43.6641 297.26 46.9453 297.26C50.2949 297.26 52.8516 295.441 52.8516 292.803C52.8516 290.684 51.5117 289.48 48.7363 288.811L46.4668 288.264C44.7305 287.84 43.9102 287.211 43.9102 286.199C43.9102 284.887 45.2773 283.998 47.0273 283.998C48.8047 283.998 49.9531 284.777 50.2676 285.953H52.5918C52.2773 283.533 50.1309 282.002 47.041 282.002C43.9102 282.002 41.5449 283.848 41.5449 286.295ZM56.6797 297H59.0312V288.277C59.0312 285.789 60.4805 284.121 63.1191 284.121C65.3477 284.121 66.5234 285.42 66.5234 288.031V297H68.875V287.457C68.875 283.998 66.9062 282.002 63.7891 282.002C61.5332 282.002 59.9883 282.959 59.25 284.586H59.0312V276.41H56.6797V297ZM79.2246 297.26C83.4219 297.26 86.0195 294.361 86.0195 289.631C86.0195 284.887 83.4219 282.002 79.2246 282.002C75.0273 282.002 72.4297 284.887 72.4297 289.631C72.4297 294.361 75.0273 297.26 79.2246 297.26ZM79.2246 295.141C76.4355 295.141 74.8633 293.117 74.8633 289.631C74.8633 286.131 76.4355 284.121 79.2246 284.121C82.0137 284.121 83.5859 286.131 83.5859 289.631C83.5859 293.117 82.0137 295.141 79.2246 295.141ZM96.8887 282.002C94.8789 282.002 93.1152 283.027 92.1719 284.723H91.9531V282.262H89.7109V301.922H92.0625V294.785H92.2812C93.0879 296.344 94.7832 297.26 96.8887 297.26C100.635 297.26 103.082 294.238 103.082 289.631C103.082 284.996 100.648 282.002 96.8887 282.002ZM96.3281 295.141C93.6758 295.141 91.9941 293.008 91.9941 289.631C91.9941 286.24 93.6758 284.121 96.3418 284.121C99.0352 284.121 100.648 286.186 100.648 289.631C100.648 293.076 99.0352 295.141 96.3281 295.141ZM113.951 282.002C111.941 282.002 110.178 283.027 109.234 284.723H109.016V282.262H106.773V301.922H109.125V294.785H109.344C110.15 296.344 111.846 297.26 113.951 297.26C117.697 297.26 120.145 294.238 120.145 289.631C120.145 284.996 117.711 282.002 113.951 282.002ZM113.391 295.141C110.738 295.141 109.057 293.008 109.057 289.631C109.057 286.24 110.738 284.121 113.404 284.121C116.098 284.121 117.711 286.186 117.711 289.631C117.711 293.076 116.098 295.141 113.391 295.141ZM123.891 297H126.242V282.262H123.891V297ZM125.066 279.268C125.969 279.268 126.707 278.529 126.707 277.627C126.707 276.725 125.969 275.986 125.066 275.986C124.164 275.986 123.426 276.725 123.426 277.627C123.426 278.529 124.164 279.268 125.066 279.268ZM130.727 297H133.078V288.277C133.078 285.693 134.596 284.121 136.947 284.121C139.299 284.121 140.42 285.379 140.42 288.031V297H142.771V287.457C142.771 283.957 140.926 282.002 137.617 282.002C135.361 282.002 133.926 282.959 133.188 284.586H132.969V282.262H130.727V297ZM153.039 294.703C150.305 294.703 148.773 292.625 148.773 289.412C148.773 286.199 150.305 284.121 153.039 284.121C155.76 284.121 157.414 286.199 157.414 289.412C157.414 292.625 155.773 294.703 153.039 294.703ZM153.148 302.66C157.168 302.66 159.711 300.555 159.711 297.26V282.262H157.469V284.6H157.25C156.402 283.014 154.584 282.002 152.52 282.002C148.732 282.002 146.34 284.996 146.34 289.412C146.34 293.828 148.705 296.781 152.52 296.781C154.543 296.781 156.211 295.865 157.141 294.238H157.359V297.137C157.359 299.311 155.787 300.609 153.148 300.609C151.029 300.609 149.717 299.83 149.457 298.627H146.969C147.324 301.061 149.594 302.66 153.148 302.66ZM172.18 297H174.531V276.41H172.18V297ZM179.152 297H181.504V282.262H179.152V297ZM180.328 279.268C181.23 279.268 181.969 278.529 181.969 277.627C181.969 276.725 181.23 275.986 180.328 275.986C179.426 275.986 178.688 276.725 178.688 277.627C178.688 278.529 179.426 279.268 180.328 279.268ZM185.646 286.295C185.646 288.428 186.904 289.617 189.666 290.287L192.195 290.902C193.768 291.285 194.533 291.969 194.533 292.98C194.533 294.334 193.111 295.277 191.129 295.277C189.242 295.277 188.066 294.484 187.67 293.24H185.25C185.51 295.688 187.766 297.26 191.047 297.26C194.396 297.26 196.953 295.441 196.953 292.803C196.953 290.684 195.613 289.48 192.838 288.811L190.568 288.264C188.832 287.84 188.012 287.211 188.012 286.199C188.012 284.887 189.379 283.998 191.129 283.998C192.906 283.998 194.055 284.777 194.369 285.953H196.693C196.379 283.533 194.232 282.002 191.143 282.002C188.012 282.002 185.646 283.848 185.646 286.295ZM201.492 278.447V282.262H199.113V284.23H201.492V293.172C201.492 295.988 202.709 297.109 205.744 297.109C206.209 297.109 206.66 297.055 207.125 296.973V294.99C206.688 295.031 206.455 295.045 206.031 295.045C204.5 295.045 203.844 294.307 203.844 292.57V284.23H207.125V282.262H203.844V278.447H201.492ZM224.639 297.26C228.836 297.26 231.434 294.361 231.434 289.631C231.434 284.887 228.836 282.002 224.639 282.002C220.441 282.002 217.844 284.887 217.844 289.631C217.844 294.361 220.441 297.26 224.639 297.26ZM224.639 295.141C221.85 295.141 220.277 293.117 220.277 289.631C220.277 286.131 221.85 284.121 224.639 284.121C227.428 284.121 229 286.131 229 289.631C229 293.117 227.428 295.141 224.639 295.141ZM235.125 297H237.477V287.867C237.477 285.789 239.104 284.285 241.346 284.285C241.811 284.285 242.658 284.367 242.85 284.422V282.07C242.549 282.029 242.057 282.002 241.674 282.002C239.719 282.002 238.023 283.014 237.586 284.449H237.367V282.262H235.125V297ZM258.23 295.195C256.521 295.195 255.25 294.32 255.25 292.816C255.25 291.34 256.234 290.561 258.477 290.41L262.441 290.15V291.504C262.441 293.609 260.65 295.195 258.23 295.195ZM257.793 297.26C259.762 297.26 261.375 296.398 262.332 294.826H262.551V297H264.793V286.91C264.793 283.848 262.783 282.002 259.188 282.002C256.043 282.002 253.719 283.561 253.404 285.926H255.783C256.111 284.764 257.342 284.094 259.105 284.094C261.307 284.094 262.441 285.092 262.441 286.91V288.25L258.189 288.51C254.758 288.715 252.816 290.232 252.816 292.871C252.816 295.564 254.936 297.26 257.793 297.26ZM270.125 278.447V282.262H267.746V284.23H270.125V293.172C270.125 295.988 271.342 297.109 274.377 297.109C274.842 297.109 275.293 297.055 275.758 296.973V294.99C275.32 295.031 275.088 295.045 274.664 295.045C273.133 295.045 272.477 294.307 272.477 292.57V284.23H275.758V282.262H272.477V278.447H270.125ZM291.754 295.195C290.045 295.195 288.773 294.32 288.773 292.816C288.773 291.34 289.758 290.561 292 290.41L295.965 290.15V291.504C295.965 293.609 294.174 295.195 291.754 295.195ZM291.316 297.26C293.285 297.26 294.898 296.398 295.855 294.826H296.074V297H298.316V286.91C298.316 283.848 296.307 282.002 292.711 282.002C289.566 282.002 287.242 283.561 286.928 285.926H289.307C289.635 284.764 290.865 284.094 292.629 284.094C294.83 284.094 295.965 285.092 295.965 286.91V288.25L291.713 288.51C288.281 288.715 286.34 290.232 286.34 292.871C286.34 295.564 288.459 297.26 291.316 297.26ZM311.551 297H313.902V284.23H317.279V282.262H313.902V280.689C313.902 279.076 314.613 278.256 316.309 278.256C316.732 278.256 317.129 278.27 317.416 278.324V276.41C316.924 276.314 316.404 276.273 315.83 276.273C313.027 276.273 311.551 277.682 311.551 280.621V282.262H309.104V284.23H311.551V297ZM320.711 297H323.062V287.867C323.062 285.789 324.689 284.285 326.932 284.285C327.396 284.285 328.244 284.367 328.436 284.422V282.07C328.135 282.029 327.643 282.002 327.26 282.002C325.305 282.002 323.609 283.014 323.172 284.449H322.953V282.262H320.711V297ZM331.43 297H333.781V282.262H331.43V297ZM332.605 279.268C333.508 279.268 334.246 278.529 334.246 277.627C334.246 276.725 333.508 275.986 332.605 275.986C331.703 275.986 330.965 276.725 330.965 277.627C330.965 278.529 331.703 279.268 332.605 279.268ZM344.145 284.08C346.482 284.08 348.041 285.803 348.096 288.414H339.975C340.152 285.803 341.793 284.08 344.145 284.08ZM348.027 293.186C347.412 294.484 346.127 295.182 344.227 295.182C341.725 295.182 340.098 293.336 339.975 290.424V290.314H350.57V289.412C350.57 284.832 348.15 282.002 344.172 282.002C340.125 282.002 337.527 285.01 337.527 289.645C337.527 294.307 340.084 297.26 344.172 297.26C347.398 297.26 349.668 295.715 350.379 293.186H348.027ZM354.262 297H356.613V288.277C356.613 285.693 358.131 284.121 360.482 284.121C362.834 284.121 363.955 285.379 363.955 288.031V297H366.307V287.457C366.307 283.957 364.461 282.002 361.152 282.002C358.896 282.002 357.461 282.959 356.723 284.586H356.504V282.262H354.262V297ZM376.068 297.26C378.105 297.26 379.855 296.289 380.785 294.648H381.004V297H383.246V276.41H380.895V284.586H380.689C379.855 282.973 378.119 282.002 376.068 282.002C372.322 282.002 369.875 285.01 369.875 289.631C369.875 294.266 372.295 297.26 376.068 297.26ZM376.615 284.121C379.281 284.121 380.949 286.254 380.949 289.631C380.949 293.035 379.295 295.141 376.615 295.141C373.922 295.141 372.309 293.076 372.309 289.631C372.309 286.199 373.936 284.121 376.615 284.121ZM387.471 286.295C387.471 288.428 388.729 289.617 391.49 290.287L394.02 290.902C395.592 291.285 396.357 291.969 396.357 292.98C396.357 294.334 394.936 295.277 392.953 295.277C391.066 295.277 389.891 294.484 389.494 293.24H387.074C387.334 295.688 389.59 297.26 392.871 297.26C396.221 297.26 398.777 295.441 398.777 292.803C398.777 290.684 397.438 289.48 394.662 288.811L392.393 288.264C390.656 287.84 389.836 287.211 389.836 286.199C389.836 284.887 391.203 283.998 392.953 283.998C394.73 283.998 395.879 284.777 396.193 285.953H398.518C398.203 283.533 396.057 282.002 392.967 282.002C389.836 282.002 387.471 283.848 387.471 286.295ZM410.508 297H412.859V288.277C412.859 285.789 414.309 284.121 416.947 284.121C419.176 284.121 420.352 285.42 420.352 288.031V297H422.703V287.457C422.703 283.998 420.734 282.002 417.617 282.002C415.361 282.002 413.816 282.959 413.078 284.586H412.859V276.41H410.508V297ZM433.053 297.26C437.25 297.26 439.848 294.361 439.848 289.631C439.848 284.887 437.25 282.002 433.053 282.002C428.855 282.002 426.258 284.887 426.258 289.631C426.258 294.361 428.855 297.26 433.053 297.26ZM433.053 295.141C430.264 295.141 428.691 293.117 428.691 289.631C428.691 286.131 430.264 284.121 433.053 284.121C435.842 284.121 437.414 286.131 437.414 289.631C437.414 293.117 435.842 295.141 433.053 295.141ZM455.461 282.262H453.109V290.984C453.109 293.568 451.688 295.113 449.09 295.113C446.738 295.113 445.754 293.883 445.754 291.23V282.262H443.402V291.805C443.402 295.291 445.125 297.26 448.434 297.26C450.689 297.26 452.262 296.33 453 294.689H453.219V297H455.461V282.262ZM459.549 286.295C459.549 288.428 460.807 289.617 463.568 290.287L466.098 290.902C467.67 291.285 468.436 291.969 468.436 292.98C468.436 294.334 467.014 295.277 465.031 295.277C463.145 295.277 461.969 294.484 461.572 293.24H459.152C459.412 295.688 461.668 297.26 464.949 297.26C468.299 297.26 470.855 295.441 470.855 292.803C470.855 290.684 469.516 289.48 466.74 288.811L464.471 288.264C462.734 287.84 461.914 287.211 461.914 286.199C461.914 284.887 463.281 283.998 465.031 283.998C466.809 283.998 467.957 284.777 468.271 285.953H470.596C470.281 283.533 468.135 282.002 465.045 282.002C461.914 282.002 459.549 283.848 459.549 286.295ZM480.426 284.08C482.764 284.08 484.322 285.803 484.377 288.414H476.256C476.434 285.803 478.074 284.08 480.426 284.08ZM484.309 293.186C483.693 294.484 482.408 295.182 480.508 295.182C478.006 295.182 476.379 293.336 476.256 290.424V290.314H486.852V289.412C486.852 284.832 484.432 282.002 480.453 282.002C476.406 282.002 473.809 285.01 473.809 289.645C473.809 294.307 476.365 297.26 480.453 297.26C483.68 297.26 485.949 295.715 486.66 293.186H484.309ZM86.5391 328.195C84.8301 328.195 83.5586 327.32 83.5586 325.816C83.5586 324.34 84.543 323.561 86.7852 323.41L90.75 323.15V324.504C90.75 326.609 88.959 328.195 86.5391 328.195ZM86.1016 330.26C88.0703 330.26 89.6836 329.398 90.6406 327.826H90.8594V330H93.1016V319.91C93.1016 316.848 91.0918 315.002 87.4961 315.002C84.3516 315.002 82.0273 316.561 81.7129 318.926H84.0918C84.4199 317.764 85.6504 317.094 87.4141 317.094C89.6152 317.094 90.75 318.092 90.75 319.91V321.25L86.498 321.51C83.0664 321.715 81.125 323.232 81.125 325.871C81.125 328.564 83.2441 330.26 86.1016 330.26ZM97.1074 319.295C97.1074 321.428 98.3652 322.617 101.127 323.287L103.656 323.902C105.229 324.285 105.994 324.969 105.994 325.98C105.994 327.334 104.572 328.277 102.59 328.277C100.703 328.277 99.5273 327.484 99.1309 326.24H96.7109C96.9707 328.688 99.2266 330.26 102.508 330.26C105.857 330.26 108.414 328.441 108.414 325.803C108.414 323.684 107.074 322.48 104.299 321.811L102.029 321.264C100.293 320.84 99.4727 320.211 99.4727 319.199C99.4727 317.887 100.84 316.998 102.59 316.998C104.367 316.998 105.516 317.777 105.83 318.953H108.154C107.84 316.533 105.693 315.002 102.604 315.002C99.4727 315.002 97.1074 316.848 97.1074 319.295ZM120.992 311.447V315.262H118.613V317.23H120.992V326.172C120.992 328.988 122.209 330.109 125.244 330.109C125.709 330.109 126.16 330.055 126.625 329.973V327.99C126.188 328.031 125.955 328.045 125.531 328.045C124 328.045 123.344 327.307 123.344 325.57V317.23H126.625V315.262H123.344V311.447H120.992ZM130.316 330H132.668V321.277C132.668 318.789 134.117 317.121 136.756 317.121C138.984 317.121 140.16 318.42 140.16 321.031V330H142.512V320.457C142.512 316.998 140.543 315.002 137.426 315.002C135.17 315.002 133.625 315.959 132.887 317.586H132.668V309.41H130.316V330ZM152.684 317.08C155.021 317.08 156.58 318.803 156.635 321.414H148.514C148.691 318.803 150.332 317.08 152.684 317.08ZM156.566 326.186C155.951 327.484 154.666 328.182 152.766 328.182C150.264 328.182 148.637 326.336 148.514 323.424V323.314H159.109V322.412C159.109 317.832 156.689 315.002 152.711 315.002C148.664 315.002 146.066 318.01 146.066 322.645C146.066 327.307 148.623 330.26 152.711 330.26C155.938 330.26 158.207 328.715 158.918 326.186H156.566ZM163.785 335.332C166.396 335.332 167.572 334.32 168.83 330.902L174.586 315.262H172.084L168.051 327.389H167.832L163.785 315.262H161.242L166.697 330.014L166.424 330.889C165.809 332.666 165.07 333.309 163.717 333.309C163.389 333.309 163.02 333.295 162.732 333.24V335.25C163.061 335.305 163.471 335.332 163.785 335.332ZM185.291 319.295C185.291 321.428 186.549 322.617 189.311 323.287L191.84 323.902C193.412 324.285 194.178 324.969 194.178 325.98C194.178 327.334 192.756 328.277 190.773 328.277C188.887 328.277 187.711 327.484 187.314 326.24H184.895C185.154 328.688 187.41 330.26 190.691 330.26C194.041 330.26 196.598 328.441 196.598 325.803C196.598 323.684 195.258 322.48 192.482 321.811L190.213 321.264C188.477 320.84 187.656 320.211 187.656 319.199C187.656 317.887 189.023 316.998 190.773 316.998C192.551 316.998 193.699 317.777 194.014 318.953H196.338C196.023 316.533 193.877 315.002 190.787 315.002C187.656 315.002 185.291 316.848 185.291 319.295ZM200.426 330H202.777V321.277C202.777 318.789 204.227 317.121 206.865 317.121C209.094 317.121 210.27 318.42 210.27 321.031V330H212.621V320.457C212.621 316.998 210.652 315.002 207.535 315.002C205.279 315.002 203.734 315.959 202.996 317.586H202.777V309.41H200.426V330ZM221.453 328.195C219.744 328.195 218.473 327.32 218.473 325.816C218.473 324.34 219.457 323.561 221.699 323.41L225.664 323.15V324.504C225.664 326.609 223.873 328.195 221.453 328.195ZM221.016 330.26C222.984 330.26 224.598 329.398 225.555 327.826H225.773V330H228.016V319.91C228.016 316.848 226.006 315.002 222.41 315.002C219.266 315.002 216.941 316.561 216.627 318.926H219.006C219.334 317.764 220.564 317.094 222.328 317.094C224.529 317.094 225.664 318.092 225.664 319.91V321.25L221.412 321.51C217.98 321.715 216.039 323.232 216.039 325.871C216.039 328.564 218.158 330.26 221.016 330.26ZM232.363 330H234.715V320.867C234.715 318.789 236.342 317.285 238.584 317.285C239.049 317.285 239.896 317.367 240.088 317.422V315.07C239.787 315.029 239.295 315.002 238.912 315.002C236.957 315.002 235.262 316.014 234.824 317.449H234.605V315.262H232.363V330ZM248.496 317.08C250.834 317.08 252.393 318.803 252.447 321.414H244.326C244.504 318.803 246.145 317.08 248.496 317.08ZM252.379 326.186C251.764 327.484 250.479 328.182 248.578 328.182C246.076 328.182 244.449 326.336 244.326 323.424V323.314H254.922V322.412C254.922 317.832 252.502 315.002 248.523 315.002C244.477 315.002 241.879 318.01 241.879 322.645C241.879 327.307 244.436 330.26 248.523 330.26C251.75 330.26 254.02 328.715 254.73 326.186H252.379ZM267.5 311.447V315.262H265.121V317.23H267.5V326.172C267.5 328.988 268.717 330.109 271.752 330.109C272.217 330.109 272.668 330.055 273.133 329.973V327.99C272.695 328.031 272.463 328.045 272.039 328.045C270.508 328.045 269.852 327.307 269.852 325.57V317.23H273.133V315.262H269.852V311.447H267.5ZM276.824 330H279.176V321.277C279.176 318.789 280.625 317.121 283.264 317.121C285.492 317.121 286.668 318.42 286.668 321.031V330H289.02V320.457C289.02 316.998 287.051 315.002 283.934 315.002C281.678 315.002 280.133 315.959 279.395 317.586H279.176V309.41H276.824V330ZM299.191 317.08C301.529 317.08 303.088 318.803 303.143 321.414H295.021C295.199 318.803 296.84 317.08 299.191 317.08ZM303.074 326.186C302.459 327.484 301.174 328.182 299.273 328.182C296.771 328.182 295.145 326.336 295.021 323.424V323.314H305.617V322.412C305.617 317.832 303.197 315.002 299.219 315.002C295.172 315.002 292.574 318.01 292.574 322.645C292.574 327.307 295.131 330.26 299.219 330.26C302.445 330.26 304.715 328.715 305.426 326.186H303.074ZM309.363 330H311.715V315.262H309.363V330ZM310.539 312.268C311.441 312.268 312.18 311.529 312.18 310.627C312.18 309.725 311.441 308.986 310.539 308.986C309.637 308.986 308.898 309.725 308.898 310.627C308.898 311.529 309.637 312.268 310.539 312.268ZM316.199 330H318.551V320.867C318.551 318.789 320.178 317.285 322.42 317.285C322.885 317.285 323.732 317.367 323.924 317.422V315.07C323.623 315.029 323.131 315.002 322.748 315.002C320.793 315.002 319.098 316.014 318.66 317.449H318.441V315.262H316.199V330ZM335.75 330H338.102V317.23H341.479V315.262H338.102V313.689C338.102 312.076 338.812 311.256 340.508 311.256C340.932 311.256 341.328 311.27 341.615 311.324V309.41C341.123 309.314 340.604 309.273 340.029 309.273C337.227 309.273 335.75 310.682 335.75 313.621V315.262H333.303V317.23H335.75V330ZM349.039 328.195C347.33 328.195 346.059 327.32 346.059 325.816C346.059 324.34 347.043 323.561 349.285 323.41L353.25 323.15V324.504C353.25 326.609 351.459 328.195 349.039 328.195ZM348.602 330.26C350.57 330.26 352.184 329.398 353.141 327.826H353.359V330H355.602V319.91C355.602 316.848 353.592 315.002 349.996 315.002C346.852 315.002 344.527 316.561 344.213 318.926H346.592C346.92 317.764 348.15 317.094 349.914 317.094C352.115 317.094 353.25 318.092 353.25 319.91V321.25L348.998 321.51C345.566 321.715 343.625 323.232 343.625 325.871C343.625 328.564 345.744 330.26 348.602 330.26ZM371.434 315.262H368.918L364.885 327.402H364.666L360.633 315.262H358.117L363.572 330H365.979L371.434 315.262ZM380.088 330.26C384.285 330.26 386.883 327.361 386.883 322.631C386.883 317.887 384.285 315.002 380.088 315.002C375.891 315.002 373.293 317.887 373.293 322.631C373.293 327.361 375.891 330.26 380.088 330.26ZM380.088 328.141C377.299 328.141 375.727 326.117 375.727 322.631C375.727 319.131 377.299 317.121 380.088 317.121C382.877 317.121 384.449 319.131 384.449 322.631C384.449 326.117 382.877 328.141 380.088 328.141ZM402.496 315.262H400.145V323.984C400.145 326.568 398.723 328.113 396.125 328.113C393.773 328.113 392.789 326.883 392.789 324.23V315.262H390.438V324.805C390.438 328.291 392.16 330.26 395.469 330.26C397.725 330.26 399.297 329.33 400.035 327.689H400.254V330H402.496V315.262ZM406.926 330H409.277V320.867C409.277 318.789 410.904 317.285 413.146 317.285C413.611 317.285 414.459 317.367 414.65 317.422V315.07C414.35 315.029 413.857 315.002 413.475 315.002C411.52 315.002 409.824 316.014 409.387 317.449H409.168V315.262H406.926V330ZM417.645 330H419.996V315.262H417.645V330ZM418.82 312.268C419.723 312.268 420.461 311.529 420.461 310.627C420.461 309.725 419.723 308.986 418.82 308.986C417.918 308.986 417.18 309.725 417.18 310.627C417.18 311.529 417.918 312.268 418.82 312.268ZM425.465 311.447V315.262H423.086V317.23H425.465V326.172C425.465 328.988 426.682 330.109 429.717 330.109C430.182 330.109 430.633 330.055 431.098 329.973V327.99C430.66 328.031 430.428 328.045 430.004 328.045C428.473 328.045 427.816 327.307 427.816 325.57V317.23H431.098V315.262H427.816V311.447H425.465ZM440.312 317.08C442.65 317.08 444.209 318.803 444.264 321.414H436.143C436.32 318.803 437.961 317.08 440.312 317.08ZM444.195 326.186C443.58 327.484 442.295 328.182 440.395 328.182C437.893 328.182 436.266 326.336 436.143 323.424V323.314H446.738V322.412C446.738 317.832 444.318 315.002 440.34 315.002C436.293 315.002 433.695 318.01 433.695 322.645C433.695 327.307 436.252 330.26 440.34 330.26C443.566 330.26 445.836 328.715 446.547 326.186H444.195ZM61.5332 363H63.8848V353.867C63.8848 351.789 65.5117 350.285 67.7539 350.285C68.2188 350.285 69.0664 350.367 69.2578 350.422V348.07C68.957 348.029 68.4648 348.002 68.082 348.002C66.127 348.002 64.4316 349.014 63.9941 350.449H63.7754V348.262H61.5332V363ZM77.666 350.08C80.0039 350.08 81.5625 351.803 81.6172 354.414H73.4961C73.6738 351.803 75.3145 350.08 77.666 350.08ZM81.5488 359.186C80.9336 360.484 79.6484 361.182 77.748 361.182C75.2461 361.182 73.6191 359.336 73.4961 356.424V356.314H84.0918V355.412C84.0918 350.832 81.6719 348.002 77.6934 348.002C73.6465 348.002 71.0488 351.01 71.0488 355.645C71.0488 360.307 73.6055 363.26 77.6934 363.26C80.9199 363.26 83.1895 361.715 83.9004 359.186H81.5488ZM99.9785 352.773C99.5684 350.148 97.3809 348.002 93.7988 348.002C89.6699 348.002 87.0449 350.982 87.0449 355.576C87.0449 360.266 89.6836 363.26 93.8125 363.26C97.3535 363.26 99.5547 361.264 99.9785 358.557H97.5996C97.1621 360.225 95.7812 361.141 93.7988 361.141C91.1738 361.141 89.4785 358.98 89.4785 355.576C89.4785 352.24 91.1465 350.121 93.7988 350.121C95.918 350.121 97.2168 351.311 97.5996 352.773H99.9785ZM103.506 363H105.857V348.262H103.506V363ZM104.682 345.268C105.584 345.268 106.322 344.529 106.322 343.627C106.322 342.725 105.584 341.986 104.682 341.986C103.779 341.986 103.041 342.725 103.041 343.627C103.041 344.529 103.779 345.268 104.682 345.268ZM117.52 348.002C115.51 348.002 113.746 349.027 112.803 350.723H112.584V348.262H110.342V367.922H112.693V360.785H112.912C113.719 362.344 115.414 363.26 117.52 363.26C121.266 363.26 123.713 360.238 123.713 355.631C123.713 350.996 121.279 348.002 117.52 348.002ZM116.959 361.141C114.307 361.141 112.625 359.008 112.625 355.631C112.625 352.24 114.307 350.121 116.973 350.121C119.666 350.121 121.279 352.186 121.279 355.631C121.279 359.076 119.666 361.141 116.959 361.141ZM133.283 350.08C135.621 350.08 137.18 351.803 137.234 354.414H129.113C129.291 351.803 130.932 350.08 133.283 350.08ZM137.166 359.186C136.551 360.484 135.266 361.182 133.365 361.182C130.863 361.182 129.236 359.336 129.113 356.424V356.314H139.709V355.412C139.709 350.832 137.289 348.002 133.311 348.002C129.264 348.002 126.666 351.01 126.666 355.645C126.666 360.307 129.223 363.26 133.311 363.26C136.537 363.26 138.807 361.715 139.518 359.186H137.166ZM143.059 352.295C143.059 354.428 144.316 355.617 147.078 356.287L149.607 356.902C151.18 357.285 151.945 357.969 151.945 358.98C151.945 360.334 150.523 361.277 148.541 361.277C146.654 361.277 145.479 360.484 145.082 359.24H142.662C142.922 361.688 145.178 363.26 148.459 363.26C151.809 363.26 154.365 361.441 154.365 358.803C154.365 356.684 153.025 355.48 150.25 354.811L147.98 354.264C146.244 353.84 145.424 353.211 145.424 352.199C145.424 350.887 146.791 349.998 148.541 349.998C150.318 349.998 151.467 350.777 151.781 351.953H154.105C153.791 349.533 151.645 348.002 148.555 348.002C145.424 348.002 143.059 349.848 143.059 352.295ZM184.498 348.262H182.133L179.234 360.047H179.016L175.721 348.262H173.465L170.17 360.047H169.951L167.053 348.262H164.674L168.803 363H171.182L174.463 351.598H174.682L177.977 363H180.369L184.498 348.262ZM187.697 363H190.049V348.262H187.697V363ZM188.873 345.268C189.775 345.268 190.514 344.529 190.514 343.627C190.514 342.725 189.775 341.986 188.873 341.986C187.971 341.986 187.232 342.725 187.232 343.627C187.232 344.529 187.971 345.268 188.873 345.268ZM195.518 344.447V348.262H193.139V350.23H195.518V359.172C195.518 361.988 196.734 363.109 199.77 363.109C200.234 363.109 200.686 363.055 201.15 362.973V360.99C200.713 361.031 200.48 361.045 200.057 361.045C198.525 361.045 197.869 360.307 197.869 358.57V350.23H201.15V348.262H197.869V344.447H195.518ZM204.842 363H207.193V354.277C207.193 351.789 208.643 350.121 211.281 350.121C213.51 350.121 214.686 351.42 214.686 354.031V363H217.037V353.457C217.037 349.998 215.068 348.002 211.951 348.002C209.695 348.002 208.15 348.959 207.412 350.586H207.193V342.41H204.842V363ZM230.217 363H232.568V350.23H235.945V348.262H232.568V346.689C232.568 345.076 233.279 344.256 234.975 344.256C235.398 344.256 235.795 344.27 236.082 344.324V342.41C235.59 342.314 235.07 342.273 234.496 342.273C231.693 342.273 230.217 343.682 230.217 346.621V348.262H227.77V350.23H230.217V363ZM239.377 363H241.729V353.867C241.729 351.789 243.355 350.285 245.598 350.285C246.062 350.285 246.91 350.367 247.102 350.422V348.07C246.801 348.029 246.309 348.002 245.926 348.002C243.971 348.002 242.275 349.014 241.838 350.449H241.619V348.262H239.377V363ZM250.096 363H252.447V348.262H250.096V363ZM251.271 345.268C252.174 345.268 252.912 344.529 252.912 343.627C252.912 342.725 252.174 341.986 251.271 341.986C250.369 341.986 249.631 342.725 249.631 343.627C249.631 344.529 250.369 345.268 251.271 345.268ZM262.811 350.08C265.148 350.08 266.707 351.803 266.762 354.414H258.641C258.818 351.803 260.459 350.08 262.811 350.08ZM266.693 359.186C266.078 360.484 264.793 361.182 262.893 361.182C260.391 361.182 258.764 359.336 258.641 356.424V356.314H269.236V355.412C269.236 350.832 266.816 348.002 262.838 348.002C258.791 348.002 256.193 351.01 256.193 355.645C256.193 360.307 258.75 363.26 262.838 363.26C266.064 363.26 268.334 361.715 269.045 359.186H266.693ZM272.928 363H275.279V354.277C275.279 351.693 276.797 350.121 279.148 350.121C281.5 350.121 282.621 351.379 282.621 354.031V363H284.973V353.457C284.973 349.957 283.127 348.002 279.818 348.002C277.562 348.002 276.127 348.959 275.389 350.586H275.17V348.262H272.928V363ZM294.734 363.26C296.771 363.26 298.521 362.289 299.451 360.648H299.67V363H301.912V342.41H299.561V350.586H299.355C298.521 348.973 296.785 348.002 294.734 348.002C290.988 348.002 288.541 351.01 288.541 355.631C288.541 360.266 290.961 363.26 294.734 363.26ZM295.281 350.121C297.947 350.121 299.615 352.254 299.615 355.631C299.615 359.035 297.961 361.141 295.281 361.141C292.588 361.141 290.975 359.076 290.975 355.631C290.975 352.199 292.602 350.121 295.281 350.121ZM306.137 352.295C306.137 354.428 307.395 355.617 310.156 356.287L312.686 356.902C314.258 357.285 315.023 357.969 315.023 358.98C315.023 360.334 313.602 361.277 311.619 361.277C309.732 361.277 308.557 360.484 308.16 359.24H305.74C306 361.688 308.256 363.26 311.537 363.26C314.887 363.26 317.443 361.441 317.443 358.803C317.443 356.684 316.104 355.48 313.328 354.811L311.059 354.264C309.322 353.84 308.502 353.211 308.502 352.199C308.502 350.887 309.869 349.998 311.619 349.998C313.396 349.998 314.545 350.777 314.859 351.953H317.184C316.869 349.533 314.723 348.002 311.633 348.002C308.502 348.002 306.137 349.848 306.137 352.295ZM333.576 361.195C331.867 361.195 330.596 360.32 330.596 358.816C330.596 357.34 331.58 356.561 333.822 356.41L337.787 356.15V357.504C337.787 359.609 335.996 361.195 333.576 361.195ZM333.139 363.26C335.107 363.26 336.721 362.398 337.678 360.826H337.896V363H340.139V352.91C340.139 349.848 338.129 348.002 334.533 348.002C331.389 348.002 329.064 349.561 328.75 351.926H331.129C331.457 350.764 332.688 350.094 334.451 350.094C336.652 350.094 337.787 351.092 337.787 352.91V354.25L333.535 354.51C330.104 354.715 328.162 356.232 328.162 358.871C328.162 361.564 330.281 363.26 333.139 363.26ZM344.486 363H346.838V354.277C346.838 351.693 348.355 350.121 350.707 350.121C353.059 350.121 354.18 351.379 354.18 354.031V363H356.531V353.457C356.531 349.957 354.686 348.002 351.377 348.002C349.121 348.002 347.686 348.959 346.947 350.586H346.729V348.262H344.486V363ZM366.293 363.26C368.33 363.26 370.08 362.289 371.01 360.648H371.229V363H373.471V342.41H371.119V350.586H370.914C370.08 348.973 368.344 348.002 366.293 348.002C362.547 348.002 360.1 351.01 360.1 355.631C360.1 360.266 362.52 363.26 366.293 363.26ZM366.84 350.121C369.506 350.121 371.174 352.254 371.174 355.631C371.174 359.035 369.52 361.141 366.84 361.141C364.146 361.141 362.533 359.076 362.533 355.631C362.533 352.199 364.16 350.121 366.84 350.121ZM386.924 363H389.275V350.23H392.652V348.262H389.275V346.689C389.275 345.076 389.986 344.256 391.682 344.256C392.105 344.256 392.502 344.27 392.789 344.324V342.41C392.297 342.314 391.777 342.273 391.203 342.273C388.4 342.273 386.924 343.682 386.924 346.621V348.262H384.477V350.23H386.924V363ZM400.213 361.195C398.504 361.195 397.232 360.32 397.232 358.816C397.232 357.34 398.217 356.561 400.459 356.41L404.424 356.15V357.504C404.424 359.609 402.633 361.195 400.213 361.195ZM399.775 363.26C401.744 363.26 403.357 362.398 404.314 360.826H404.533V363H406.775V352.91C406.775 349.848 404.766 348.002 401.17 348.002C398.025 348.002 395.701 349.561 395.387 351.926H397.766C398.094 350.764 399.324 350.094 401.088 350.094C403.289 350.094 404.424 351.092 404.424 352.91V354.25L400.172 354.51C396.74 354.715 394.799 356.232 394.799 358.871C394.799 361.564 396.918 363.26 399.775 363.26ZM411.123 363H413.475V353.867C413.475 351.789 414.965 350.121 416.893 350.121C418.752 350.121 419.969 351.242 419.969 352.992V363H422.32V353.525C422.32 351.652 423.688 350.121 425.738 350.121C427.816 350.121 428.842 351.188 428.842 353.361V363H431.193V352.814C431.193 349.725 429.512 348.002 426.504 348.002C424.467 348.002 422.785 349.027 421.992 350.586H421.773C421.09 349.055 419.695 348.002 417.699 348.002C415.73 348.002 414.254 348.945 413.584 350.586H413.365V348.262H411.123V363ZM435.541 363H437.893V348.262H435.541V363ZM436.717 345.268C437.619 345.268 438.357 344.529 438.357 343.627C438.357 342.725 437.619 341.986 436.717 341.986C435.814 341.986 435.076 342.725 435.076 343.627C435.076 344.529 435.814 345.268 436.717 345.268ZM442.514 363H444.865V342.41H442.514V363ZM450.689 368.332C453.301 368.332 454.477 367.32 455.734 363.902L461.49 348.262H458.988L454.955 360.389H454.736L450.689 348.262H448.146L453.602 363.014L453.328 363.889C452.713 365.666 451.975 366.309 450.621 366.309C450.293 366.309 449.924 366.295 449.637 366.24V368.25C449.965 368.305 450.375 368.332 450.689 368.332ZM464.525 363.137C465.51 363.137 466.303 362.33 466.303 361.359C466.303 360.375 465.51 359.582 464.525 359.582C463.555 359.582 462.748 360.375 462.748 361.359C462.748 362.33 463.555 363.137 464.525 363.137Z" fill="#636F73"/>
<defs>
<filter id="filter0_d_141_6994" x="0" y="0" width="528" height="643" filterUnits="userSpaceOnUse" color-interpolation-filters="sRGB">
<feFlood flood-opacity="0" result="BackgroundImageFix"/>
<feColorMatrix in="SourceAlpha" type="matrix" values="0 0 0 0 0 0 0 0 0 0 0 0 0 0 0 0 0 0 127 0" result="hardAlpha"/>
<feOffset dy="4"/>
<feGaussianBlur stdDeviation="2"/>
<feComposite in2="hardAlpha" operator="out"/>
<feColorMatrix type="matrix" values="0 0 0 0 0 0 0 0 0 0 0 0 0 0 0 0 0 0 0.25 0"/>
<feBlend mode="normal" in2="BackgroundImageFix" result="effect1_dropShadow_141_6994"/>
<feBlend mode="normal" in="SourceGraphic" in2="effect1_dropShadow_141_6994" result="shape"/>
</filter>
</defs>
</svg>
