<svg width="528" height="643" viewBox="0 0 528 643" fill="none" xmlns="http://www.w3.org/2000/svg">
<g filter="url(#filter0_d_141_6998)">
<rect x="4" width="520" height="635" fill="white"/>
</g>
<path d="M69.4219 69.0781H69.6719L73.9375 84H78.3594L84.3438 61.4531H79.4688L75.9844 77.3438H75.7344L71.5469 61.4531H67.5625L63.4531 77.3438H63.2031L59.6875 61.4531H54.7812L60.75 84H65.2031L69.4219 69.0781ZM88.1562 84H92.7031V74.1094C92.7031 71.875 94.0156 70.3594 96.2969 70.3594C98.3594 70.3594 99.4688 71.5938 99.4688 73.9844V84H104.016V72.9062C104.016 68.7656 101.812 66.4375 98.1094 66.4375C95.5781 66.4375 93.7031 67.625 92.9062 69.5938H92.625V60.1875H88.1562V84ZM115.891 69.875C118.016 69.875 119.391 71.2969 119.484 73.5781H112.141C112.297 71.3438 113.781 69.875 115.891 69.875ZM119.578 79.0938C119.094 80.2344 117.859 80.875 116.062 80.875C113.688 80.875 112.188 79.2812 112.125 76.7188V76.4844H123.953V75.0938C123.953 69.625 120.953 66.3906 115.875 66.3906C110.75 66.3906 107.594 69.8594 107.594 75.4688C107.594 81.0625 110.688 84.375 115.938 84.375C120.156 84.375 123.125 82.3438 123.812 79.0938H119.578ZM127.688 84H132.234V74.4531C132.234 72.0312 133.938 70.5625 136.422 70.5625C137.156 70.5625 138.219 70.7031 138.578 70.8438V66.7031C138.188 66.5625 137.422 66.4844 136.797 66.4844C134.609 66.4844 132.828 67.7969 132.375 69.5156H132.094V66.7656H127.688V84ZM148.672 69.875C150.797 69.875 152.172 71.2969 152.266 73.5781H144.922C145.078 71.3438 146.562 69.875 148.672 69.875ZM152.359 79.0938C151.875 80.2344 150.641 80.875 148.844 80.875C146.469 80.875 144.969 79.2812 144.906 76.7188V76.4844H156.734V75.0938C156.734 69.625 153.734 66.3906 148.656 66.3906C143.531 66.3906 140.375 69.8594 140.375 75.4688C140.375 81.0625 143.469 84.375 148.719 84.375C152.938 84.375 155.906 82.3438 156.594 79.0938H152.359ZM190.938 67.1562H188.234L184.922 80.625H184.672L180.906 67.1562H178.328L174.562 80.625H174.312L171 67.1562H168.281L173 84H175.719L179.469 70.9688H179.719L183.484 84H186.219L190.938 67.1562ZM194.594 84H197.281V67.1562H194.594V84ZM195.938 63.7344C196.969 63.7344 197.812 62.8906 197.812 61.8594C197.812 60.8281 196.969 59.9844 195.938 59.9844C194.906 59.9844 194.062 60.8281 194.062 61.8594C194.062 62.8906 194.906 63.7344 195.938 63.7344ZM202.562 84H205.25V60.4688H202.562V84ZM210.625 84H213.312V60.4688H210.625V84ZM229 90.0938C231.984 90.0938 233.328 88.9375 234.766 85.0312L241.344 67.1562H238.484L233.875 81.0156H233.625L229 67.1562H226.094L232.328 84.0156L232.016 85.0156C231.312 87.0469 230.469 87.7812 228.922 87.7812C228.547 87.7812 228.125 87.7656 227.797 87.7031V90C228.172 90.0625 228.641 90.0938 229 90.0938ZM251.234 84.2969C256.031 84.2969 259 80.9844 259 75.5781C259 70.1562 256.031 66.8594 251.234 66.8594C246.438 66.8594 243.469 70.1562 243.469 75.5781C243.469 80.9844 246.438 84.2969 251.234 84.2969ZM251.234 81.875C248.047 81.875 246.25 79.5625 246.25 75.5781C246.25 71.5781 248.047 69.2812 251.234 69.2812C254.422 69.2812 256.219 71.5781 256.219 75.5781C256.219 79.5625 254.422 81.875 251.234 81.875ZM276.844 67.1562H274.156V77.125C274.156 80.0781 272.531 81.8438 269.562 81.8438C266.875 81.8438 265.75 80.4375 265.75 77.4062V67.1562H263.062V78.0625C263.062 82.0469 265.031 84.2969 268.812 84.2969C271.391 84.2969 273.188 83.2344 274.031 81.3594H274.281V84H276.844V67.1562ZM281.906 84H284.594V73.5625C284.594 71.1875 286.453 69.4688 289.016 69.4688C289.547 69.4688 290.516 69.5625 290.734 69.625V66.9375C290.391 66.8906 289.828 66.8594 289.391 66.8594C287.156 66.8594 285.219 68.0156 284.719 69.6562H284.469V67.1562H281.906V84ZM308.312 81.9375C306.359 81.9375 304.906 80.9375 304.906 79.2188C304.906 77.5312 306.031 76.6406 308.594 76.4688L313.125 76.1719V77.7188C313.125 80.125 311.078 81.9375 308.312 81.9375ZM307.812 84.2969C310.062 84.2969 311.906 83.3125 313 81.5156H313.25V84H315.812V72.4688C315.812 68.9688 313.516 66.8594 309.406 66.8594C305.812 66.8594 303.156 68.6406 302.797 71.3438H305.516C305.891 70.0156 307.297 69.25 309.312 69.25C311.828 69.25 313.125 70.3906 313.125 72.4688V74L308.266 74.2969C304.344 74.5312 302.125 76.2656 302.125 79.2812C302.125 82.3594 304.547 84.2969 307.812 84.2969ZM334.406 67.1562H331.719V77.125C331.719 80.0781 330.094 81.8438 327.125 81.8438C324.438 81.8438 323.312 80.4375 323.312 77.4062V67.1562H320.625V78.0625C320.625 82.0469 322.594 84.2969 326.375 84.2969C328.953 84.2969 330.75 83.2344 331.594 81.3594H331.844V84H334.406V67.1562ZM345.703 84.2969C348.031 84.2969 350.031 83.1875 351.094 81.3125H351.344V84H353.906V60.4688H351.219V69.8125H350.984C350.031 67.9688 348.047 66.8594 345.703 66.8594C341.422 66.8594 338.625 70.2969 338.625 75.5781C338.625 80.875 341.391 84.2969 345.703 84.2969ZM346.328 69.2812C349.375 69.2812 351.281 71.7188 351.281 75.5781C351.281 79.4688 349.391 81.875 346.328 81.875C343.25 81.875 341.406 79.5156 341.406 75.5781C341.406 71.6562 343.266 69.2812 346.328 69.2812ZM359.188 84H361.875V67.1562H359.188V84ZM360.531 63.7344C361.562 63.7344 362.406 62.8906 362.406 61.8594C362.406 60.8281 361.562 59.9844 360.531 59.9844C359.5 59.9844 358.656 60.8281 358.656 61.8594C358.656 62.8906 359.5 63.7344 360.531 63.7344ZM373.719 69.2344C376.391 69.2344 378.172 71.2031 378.234 74.1875H368.953C369.156 71.2031 371.031 69.2344 373.719 69.2344ZM378.156 79.6406C377.453 81.125 375.984 81.9219 373.812 81.9219C370.953 81.9219 369.094 79.8125 368.953 76.4844V76.3594H381.062V75.3281C381.062 70.0938 378.297 66.8594 373.75 66.8594C369.125 66.8594 366.156 70.2969 366.156 75.5938C366.156 80.9219 369.078 84.2969 373.75 84.2969C377.438 84.2969 380.031 82.5312 380.844 79.6406H378.156ZM385.281 84H387.969V74.0312C387.969 71.0781 389.703 69.2812 392.391 69.2812C395.078 69.2812 396.359 70.7188 396.359 73.75V84H399.047V73.0938C399.047 69.0938 396.938 66.8594 393.156 66.8594C390.578 66.8594 388.938 67.9531 388.094 69.8125H387.844V67.1562H385.281V84ZM417.906 72.3125C417.438 69.3125 414.938 66.8594 410.844 66.8594C406.125 66.8594 403.125 70.2656 403.125 75.5156C403.125 80.875 406.141 84.2969 410.859 84.2969C414.906 84.2969 417.422 82.0156 417.906 78.9219H415.188C414.688 80.8281 413.109 81.875 410.844 81.875C407.844 81.875 405.906 79.4062 405.906 75.5156C405.906 71.7031 407.812 69.2812 410.844 69.2812C413.266 69.2812 414.75 70.6406 415.188 72.3125H417.906ZM428.594 69.2344C431.266 69.2344 433.047 71.2031 433.109 74.1875H423.828C424.031 71.2031 425.906 69.2344 428.594 69.2344ZM433.031 79.6406C432.328 81.125 430.859 81.9219 428.688 81.9219C425.828 81.9219 423.969 79.8125 423.828 76.4844V76.3594H435.938V75.3281C435.938 70.0938 433.172 66.8594 428.625 66.8594C424 66.8594 421.031 70.2969 421.031 75.5938C421.031 80.9219 423.953 84.2969 428.625 84.2969C432.312 84.2969 434.906 82.5312 435.719 79.6406H433.031ZM457.562 84.2969C461.828 84.2969 464.625 80.8438 464.625 75.5781C464.625 70.2812 461.844 66.8594 457.562 66.8594C455.25 66.8594 453.203 68 452.281 69.8125H452.031V60.4688H449.344V84H451.906V81.3125H452.156C453.219 83.1875 455.219 84.2969 457.562 84.2969ZM456.938 69.2812C460.016 69.2812 461.844 71.6406 461.844 75.5781C461.844 79.5156 460.016 81.875 456.938 81.875C453.875 81.875 451.969 79.4688 451.969 75.5781C451.969 71.6875 453.875 69.2812 456.938 69.2812ZM475.562 69.2344C478.234 69.2344 480.016 71.2031 480.078 74.1875H470.797C471 71.2031 472.875 69.2344 475.562 69.2344ZM480 79.6406C479.297 81.125 477.828 81.9219 475.656 81.9219C472.797 81.9219 470.938 79.8125 470.797 76.4844V76.3594H482.906V75.3281C482.906 70.0938 480.141 66.8594 475.594 66.8594C470.969 66.8594 468 70.2969 468 75.5938C468 80.9219 470.922 84.2969 475.594 84.2969C479.281 84.2969 481.875 82.5312 482.688 79.6406H480ZM65.8125 105.156H63.125V115.125C63.125 118.078 61.5 119.844 58.5312 119.844C55.8438 119.844 54.7188 118.438 54.7188 115.406V105.156H52.0312V116.062C52.0312 120.047 54 122.297 57.7812 122.297C60.3594 122.297 62.1562 121.234 63 119.359H63.25V122H65.8125V105.156ZM70.4844 109.766C70.4844 112.203 71.9219 113.562 75.0781 114.328L77.9688 115.031C79.7656 115.469 80.6406 116.25 80.6406 117.406C80.6406 118.953 79.0156 120.031 76.75 120.031C74.5938 120.031 73.25 119.125 72.7969 117.703H70.0312C70.3281 120.5 72.9062 122.297 76.6562 122.297C80.4844 122.297 83.4062 120.219 83.4062 117.203C83.4062 114.781 81.875 113.406 78.7031 112.641L76.1094 112.016C74.125 111.531 73.1875 110.812 73.1875 109.656C73.1875 108.156 74.75 107.141 76.75 107.141C78.7812 107.141 80.0938 108.031 80.4531 109.375H83.1094C82.75 106.609 80.2969 104.859 76.7656 104.859C73.1875 104.859 70.4844 106.969 70.4844 109.766ZM87.6875 122H90.375V105.156H87.6875V122ZM89.0312 101.734C90.0625 101.734 90.9062 100.891 90.9062 99.8594C90.9062 98.8281 90.0625 97.9844 89.0312 97.9844C88 97.9844 87.1562 98.8281 87.1562 99.8594C87.1562 100.891 88 101.734 89.0312 101.734ZM95.5 122H98.1875V112.031C98.1875 109.078 99.9219 107.281 102.609 107.281C105.297 107.281 106.578 108.719 106.578 111.75V122H109.266V111.094C109.266 107.094 107.156 104.859 103.375 104.859C100.797 104.859 99.1562 105.953 98.3125 107.812H98.0625V105.156H95.5V122ZM121 119.375C117.875 119.375 116.125 117 116.125 113.328C116.125 109.656 117.875 107.281 121 107.281C124.109 107.281 126 109.656 126 113.328C126 117 124.125 119.375 121 119.375ZM121.125 128.469C125.719 128.469 128.625 126.062 128.625 122.297V105.156H126.062V107.828H125.812C124.844 106.016 122.766 104.859 120.406 104.859C116.078 104.859 113.344 108.281 113.344 113.328C113.344 118.375 116.047 121.75 120.406 121.75C122.719 121.75 124.625 120.703 125.688 118.844H125.938V122.156C125.938 124.641 124.141 126.125 121.125 126.125C118.703 126.125 117.203 125.234 116.906 123.859H114.062C114.469 126.641 117.062 128.469 121.125 128.469ZM163.906 105.156H161.203L157.891 118.625H157.641L153.875 105.156H151.297L147.531 118.625H147.281L143.969 105.156H141.25L145.969 122H148.688L152.438 108.969H152.688L156.453 122H159.188L163.906 105.156ZM167.656 122H170.344V112.031C170.344 109.188 172 107.281 175.016 107.281C177.562 107.281 178.906 108.766 178.906 111.75V122H181.594V111.094C181.594 107.141 179.344 104.859 175.781 104.859C173.203 104.859 171.438 105.953 170.594 107.812H170.344V98.4688H167.656V122ZM191.688 119.938C189.734 119.938 188.281 118.938 188.281 117.219C188.281 115.531 189.406 114.641 191.969 114.469L196.5 114.172V115.719C196.5 118.125 194.453 119.938 191.688 119.938ZM191.188 122.297C193.438 122.297 195.281 121.312 196.375 119.516H196.625V122H199.188V110.469C199.188 106.969 196.891 104.859 192.781 104.859C189.188 104.859 186.531 106.641 186.172 109.344H188.891C189.266 108.016 190.672 107.25 192.688 107.25C195.203 107.25 196.5 108.391 196.5 110.469V112L191.641 112.297C187.719 112.531 185.5 114.266 185.5 117.281C185.5 120.359 187.922 122.297 191.188 122.297ZM205.281 100.797V105.156H202.562V107.406H205.281V117.625C205.281 120.844 206.672 122.125 210.141 122.125C210.672 122.125 211.188 122.062 211.719 121.969V119.703C211.219 119.75 210.953 119.766 210.469 119.766C208.719 119.766 207.969 118.922 207.969 116.938V107.406H211.719V105.156H207.969V100.797H205.281ZM226.25 128.094C229.234 128.094 230.578 126.938 232.016 123.031L238.594 105.156H235.734L231.125 119.016H230.875L226.25 105.156H223.344L229.578 122.016L229.266 123.016C228.562 125.047 227.719 125.781 226.172 125.781C225.797 125.781 225.375 125.766 225.047 125.703V128C225.422 128.062 225.891 128.094 226.25 128.094ZM248.484 122.297C253.281 122.297 256.25 118.984 256.25 113.578C256.25 108.156 253.281 104.859 248.484 104.859C243.688 104.859 240.719 108.156 240.719 113.578C240.719 118.984 243.688 122.297 248.484 122.297ZM248.484 119.875C245.297 119.875 243.5 117.562 243.5 113.578C243.5 109.578 245.297 107.281 248.484 107.281C251.672 107.281 253.469 109.578 253.469 113.578C253.469 117.562 251.672 119.875 248.484 119.875ZM274.094 105.156H271.406V115.125C271.406 118.078 269.781 119.844 266.812 119.844C264.125 119.844 263 118.438 263 115.406V105.156H260.312V116.062C260.312 120.047 262.281 122.297 266.062 122.297C268.641 122.297 270.438 121.234 271.281 119.359H271.531V122H274.094V105.156ZM281.391 107.875L283.906 99.4531H280.859L279.438 107.875H281.391ZM288.625 122H291.312V111.562C291.312 109.188 293.172 107.469 295.734 107.469C296.266 107.469 297.234 107.562 297.453 107.625V104.938C297.109 104.891 296.547 104.859 296.109 104.859C293.875 104.859 291.938 106.016 291.438 107.656H291.188V105.156H288.625V122ZM307.062 107.234C309.734 107.234 311.516 109.203 311.578 112.188H302.297C302.5 109.203 304.375 107.234 307.062 107.234ZM311.5 117.641C310.797 119.125 309.328 119.922 307.156 119.922C304.297 119.922 302.438 117.812 302.297 114.484V114.359H314.406V113.328C314.406 108.094 311.641 104.859 307.094 104.859C302.469 104.859 299.5 108.297 299.5 113.594C299.5 118.922 302.422 122.297 307.094 122.297C310.781 122.297 313.375 120.531 314.188 117.641H311.5ZM333.891 122.297C336.219 122.297 338.219 121.188 339.281 119.312H339.531V122H342.094V98.4688H339.406V107.812H339.172C338.219 105.969 336.234 104.859 333.891 104.859C329.609 104.859 326.812 108.297 326.812 113.578C326.812 118.875 329.578 122.297 333.891 122.297ZM334.516 107.281C337.562 107.281 339.469 109.719 339.469 113.578C339.469 117.469 337.578 119.875 334.516 119.875C331.438 119.875 329.594 117.516 329.594 113.578C329.594 109.656 331.453 107.281 334.516 107.281ZM354.031 107.234C356.703 107.234 358.484 109.203 358.547 112.188H349.266C349.469 109.203 351.344 107.234 354.031 107.234ZM358.469 117.641C357.766 119.125 356.297 119.922 354.125 119.922C351.266 119.922 349.406 117.812 349.266 114.484V114.359H361.375V113.328C361.375 108.094 358.609 104.859 354.062 104.859C349.438 104.859 346.469 108.297 346.469 113.594C346.469 118.922 349.391 122.297 354.062 122.297C357.75 122.297 360.344 120.531 361.156 117.641H358.469ZM365.203 109.766C365.203 112.203 366.641 113.562 369.797 114.328L372.688 115.031C374.484 115.469 375.359 116.25 375.359 117.406C375.359 118.953 373.734 120.031 371.469 120.031C369.312 120.031 367.969 119.125 367.516 117.703H364.75C365.047 120.5 367.625 122.297 371.375 122.297C375.203 122.297 378.125 120.219 378.125 117.203C378.125 114.781 376.594 113.406 373.422 112.641L370.828 112.016C368.844 111.531 367.906 110.812 367.906 109.656C367.906 108.156 369.469 107.141 371.469 107.141C373.5 107.141 374.812 108.031 375.172 109.375H377.828C377.469 106.609 375.016 104.859 371.484 104.859C367.906 104.859 365.203 106.969 365.203 109.766ZM382.406 122H385.094V105.156H382.406V122ZM383.75 101.734C384.781 101.734 385.625 100.891 385.625 99.8594C385.625 98.8281 384.781 97.9844 383.75 97.9844C382.719 97.9844 381.875 98.8281 381.875 99.8594C381.875 100.891 382.719 101.734 383.75 101.734ZM397.031 119.375C393.906 119.375 392.156 117 392.156 113.328C392.156 109.656 393.906 107.281 397.031 107.281C400.141 107.281 402.031 109.656 402.031 113.328C402.031 117 400.156 119.375 397.031 119.375ZM397.156 128.469C401.75 128.469 404.656 126.062 404.656 122.297V105.156H402.094V107.828H401.844C400.875 106.016 398.797 104.859 396.438 104.859C392.109 104.859 389.375 108.281 389.375 113.328C389.375 118.375 392.078 121.75 396.438 121.75C398.75 121.75 400.656 120.703 401.719 118.844H401.969V122.156C401.969 124.641 400.172 126.125 397.156 126.125C394.734 126.125 393.234 125.234 392.938 123.859H390.094C390.5 126.641 393.094 128.469 397.156 128.469ZM409.719 122H412.406V112.031C412.406 109.078 414.141 107.281 416.828 107.281C419.516 107.281 420.797 108.719 420.797 111.75V122H423.484V111.094C423.484 107.094 421.375 104.859 417.594 104.859C415.016 104.859 413.375 105.953 412.531 107.812H412.281V105.156H409.719V122ZM428.469 122H431.156V105.156H428.469V122ZM429.812 101.734C430.844 101.734 431.688 100.891 431.688 99.8594C431.688 98.8281 430.844 97.9844 429.812 97.9844C428.781 97.9844 427.938 98.8281 427.938 99.8594C427.938 100.891 428.781 101.734 429.812 101.734ZM436.281 122H438.969V112.031C438.969 109.078 440.703 107.281 443.391 107.281C446.078 107.281 447.359 108.719 447.359 111.75V122H450.047V111.094C450.047 107.094 447.938 104.859 444.156 104.859C441.578 104.859 439.938 105.953 439.094 107.812H438.844V105.156H436.281V122ZM461.781 119.375C458.656 119.375 456.906 117 456.906 113.328C456.906 109.656 458.656 107.281 461.781 107.281C464.891 107.281 466.781 109.656 466.781 113.328C466.781 117 464.906 119.375 461.781 119.375ZM461.906 128.469C466.5 128.469 469.406 126.062 469.406 122.297V105.156H466.844V107.828H466.594C465.625 106.016 463.547 104.859 461.188 104.859C456.859 104.859 454.125 108.281 454.125 113.328C454.125 118.375 456.828 121.75 461.188 121.75C463.5 121.75 465.406 120.703 466.469 118.844H466.719V122.156C466.719 124.641 464.922 126.125 461.906 126.125C459.484 126.125 457.984 125.234 457.688 123.859H454.844C455.25 126.641 457.844 128.469 461.906 128.469ZM473.188 105.344H475.859C476.031 103.109 477.531 101.719 479.891 101.719C482.219 101.719 483.719 103.141 483.719 105.078C483.719 106.75 483.016 107.734 481.203 108.844C479.062 110.125 478.062 111.531 478.078 113.594V115.031H480.812V114.016C480.812 112.375 481.375 111.5 483.359 110.328C485.359 109.125 486.625 107.391 486.625 104.938C486.625 101.719 483.938 99.2812 480 99.2812C475.609 99.2812 473.359 101.969 473.188 105.344ZM479.656 122.281C480.922 122.281 481.812 121.375 481.812 120.109C481.812 118.828 480.922 117.922 479.656 117.922C478.391 117.922 477.484 118.828 477.484 120.109C477.484 121.375 478.391 122.281 479.656 122.281Z" fill="#58A8A0"/>
<path d="M48.1543 208H50.7383L43.4648 188.271H41.0312L33.7578 208H36.3418L38.3242 202.354H46.1719L48.1543 208ZM42.1387 191.457H42.3574L45.4473 200.262H39.0488L42.1387 191.457ZM53.2812 197.295C53.2812 199.428 54.5391 200.617 57.3008 201.287L59.8301 201.902C61.4023 202.285 62.168 202.969 62.168 203.98C62.168 205.334 60.7461 206.277 58.7637 206.277C56.877 206.277 55.7012 205.484 55.3047 204.24H52.8848C53.1445 206.688 55.4004 208.26 58.6816 208.26C62.0312 208.26 64.5879 206.441 64.5879 203.803C64.5879 201.684 63.248 200.48 60.4727 199.811L58.2031 199.264C56.4668 198.84 55.6465 198.211 55.6465 197.199C55.6465 195.887 57.0137 194.998 58.7637 194.998C60.541 194.998 61.6895 195.777 62.0039 196.953H64.3281C64.0137 194.533 61.8672 193.002 58.7773 193.002C55.6465 193.002 53.2812 194.848 53.2812 197.295ZM76.4824 188.271V208H78.9434V200.959H83.9062C87.6113 200.959 90.25 198.348 90.25 194.656C90.25 190.896 87.666 188.271 83.9336 188.271H76.4824ZM78.9434 190.459H83.291C86.1484 190.459 87.7207 191.949 87.7207 194.656C87.7207 197.268 86.0938 198.771 83.291 198.771H78.9434V190.459ZM94.1191 208H96.4707V187.41H94.1191V208ZM105.576 206.195C103.867 206.195 102.596 205.32 102.596 203.816C102.596 202.34 103.58 201.561 105.822 201.41L109.787 201.15V202.504C109.787 204.609 107.996 206.195 105.576 206.195ZM105.139 208.26C107.107 208.26 108.721 207.398 109.678 205.826H109.896V208H112.139V197.91C112.139 194.848 110.129 193.002 106.533 193.002C103.389 193.002 101.064 194.561 100.75 196.926H103.129C103.457 195.764 104.688 195.094 106.451 195.094C108.652 195.094 109.787 196.092 109.787 197.91V199.25L105.535 199.51C102.104 199.715 100.162 201.232 100.162 203.871C100.162 206.564 102.281 208.26 105.139 208.26ZM117.471 189.447V193.262H115.092V195.23H117.471V204.172C117.471 206.988 118.688 208.109 121.723 208.109C122.188 208.109 122.639 208.055 123.104 207.973V205.99C122.666 206.031 122.434 206.045 122.01 206.045C120.479 206.045 119.822 205.307 119.822 203.57V195.23H123.104V193.262H119.822V189.447H117.471ZM132.318 195.08C134.656 195.08 136.215 196.803 136.27 199.414H128.148C128.326 196.803 129.967 195.08 132.318 195.08ZM136.201 204.186C135.586 205.484 134.301 206.182 132.4 206.182C129.898 206.182 128.271 204.336 128.148 201.424V201.314H138.744V200.412C138.744 195.832 136.324 193.002 132.346 193.002C128.299 193.002 125.701 196.01 125.701 200.645C125.701 205.307 128.258 208.26 132.346 208.26C135.572 208.26 137.842 206.715 138.553 204.186H136.201ZM150.393 208H152.744V193.262H150.393V208ZM151.568 190.268C152.471 190.268 153.209 189.529 153.209 188.627C153.209 187.725 152.471 186.986 151.568 186.986C150.666 186.986 149.928 187.725 149.928 188.627C149.928 189.529 150.666 190.268 151.568 190.268ZM156.887 197.295C156.887 199.428 158.145 200.617 160.906 201.287L163.436 201.902C165.008 202.285 165.773 202.969 165.773 203.98C165.773 205.334 164.352 206.277 162.369 206.277C160.482 206.277 159.307 205.484 158.91 204.24H156.49C156.75 206.688 159.006 208.26 162.287 208.26C165.637 208.26 168.193 206.441 168.193 203.803C168.193 201.684 166.854 200.48 164.078 199.811L161.809 199.264C160.072 198.84 159.252 198.211 159.252 197.199C159.252 195.887 160.619 194.998 162.369 194.998C164.146 194.998 165.295 195.777 165.609 196.953H167.934C167.619 194.533 165.473 193.002 162.383 193.002C159.252 193.002 156.887 194.848 156.887 197.295ZM184.326 206.195C182.617 206.195 181.346 205.32 181.346 203.816C181.346 202.34 182.33 201.561 184.572 201.41L188.537 201.15V202.504C188.537 204.609 186.746 206.195 184.326 206.195ZM183.889 208.26C185.857 208.26 187.471 207.398 188.428 205.826H188.646V208H190.889V197.91C190.889 194.848 188.879 193.002 185.283 193.002C182.139 193.002 179.814 194.561 179.5 196.926H181.879C182.207 195.764 183.438 195.094 185.201 195.094C187.402 195.094 188.537 196.092 188.537 197.91V199.25L184.285 199.51C180.854 199.715 178.912 201.232 178.912 203.871C178.912 206.564 181.031 208.26 183.889 208.26ZM203.139 208H205.49V198.867C205.49 196.789 207.117 195.285 209.359 195.285C209.824 195.285 210.672 195.367 210.863 195.422V193.07C210.562 193.029 210.07 193.002 209.688 193.002C207.732 193.002 206.037 194.014 205.6 195.449H205.381V193.262H203.139V208ZM219.271 195.08C221.609 195.08 223.168 196.803 223.223 199.414H215.102C215.279 196.803 216.92 195.08 219.271 195.08ZM223.154 204.186C222.539 205.484 221.254 206.182 219.354 206.182C216.852 206.182 215.225 204.336 215.102 201.424V201.314H225.697V200.412C225.697 195.832 223.277 193.002 219.299 193.002C215.252 193.002 212.654 196.01 212.654 200.645C212.654 205.307 215.211 208.26 219.299 208.26C222.525 208.26 224.795 206.715 225.506 204.186H223.154ZM229.047 197.295C229.047 199.428 230.305 200.617 233.066 201.287L235.596 201.902C237.168 202.285 237.934 202.969 237.934 203.98C237.934 205.334 236.512 206.277 234.529 206.277C232.643 206.277 231.467 205.484 231.07 204.24H228.65C228.91 206.688 231.166 208.26 234.447 208.26C237.797 208.26 240.354 206.441 240.354 203.803C240.354 201.684 239.014 200.48 236.238 199.811L233.969 199.264C232.232 198.84 231.412 198.211 231.412 197.199C231.412 195.887 232.779 194.998 234.529 194.998C236.307 194.998 237.455 195.777 237.77 196.953H240.094C239.779 194.533 237.633 193.002 234.543 193.002C231.412 193.002 229.047 194.848 229.047 197.295ZM251.223 193.002C249.213 193.002 247.449 194.027 246.506 195.723H246.287V193.262H244.045V212.922H246.396V205.785H246.615C247.422 207.344 249.117 208.26 251.223 208.26C254.969 208.26 257.416 205.238 257.416 200.631C257.416 195.996 254.982 193.002 251.223 193.002ZM250.662 206.141C248.01 206.141 246.328 204.008 246.328 200.631C246.328 197.24 248.01 195.121 250.676 195.121C253.369 195.121 254.982 197.186 254.982 200.631C254.982 204.076 253.369 206.141 250.662 206.141ZM267.164 208.26C271.361 208.26 273.959 205.361 273.959 200.631C273.959 195.887 271.361 193.002 267.164 193.002C262.967 193.002 260.369 195.887 260.369 200.631C260.369 205.361 262.967 208.26 267.164 208.26ZM267.164 206.141C264.375 206.141 262.803 204.117 262.803 200.631C262.803 197.131 264.375 195.121 267.164 195.121C269.953 195.121 271.525 197.131 271.525 200.631C271.525 204.117 269.953 206.141 267.164 206.141ZM277.65 208H280.002V199.277C280.002 196.693 281.52 195.121 283.871 195.121C286.223 195.121 287.344 196.379 287.344 199.031V208H289.695V198.457C289.695 194.957 287.85 193.002 284.541 193.002C282.285 193.002 280.85 193.959 280.111 195.586H279.893V193.262H277.65V208ZM293.66 197.295C293.66 199.428 294.918 200.617 297.68 201.287L300.209 201.902C301.781 202.285 302.547 202.969 302.547 203.98C302.547 205.334 301.125 206.277 299.143 206.277C297.256 206.277 296.08 205.484 295.684 204.24H293.264C293.523 206.688 295.779 208.26 299.061 208.26C302.41 208.26 304.967 206.441 304.967 203.803C304.967 201.684 303.627 200.48 300.852 199.811L298.582 199.264C296.846 198.84 296.025 198.211 296.025 197.199C296.025 195.887 297.393 194.998 299.143 194.998C300.92 194.998 302.068 195.777 302.383 196.953H304.707C304.393 194.533 302.246 193.002 299.156 193.002C296.025 193.002 293.66 194.848 293.66 197.295ZM308.713 208H311.064V193.262H308.713V208ZM309.889 190.268C310.791 190.268 311.529 189.529 311.529 188.627C311.529 187.725 310.791 186.986 309.889 186.986C308.986 186.986 308.248 187.725 308.248 188.627C308.248 189.529 308.986 190.268 309.889 190.268ZM327.58 193.262H325.064L321.031 205.402H320.812L316.779 193.262H314.264L319.719 208H322.125L327.58 193.262ZM336.057 195.08C338.395 195.08 339.953 196.803 340.008 199.414H331.887C332.064 196.803 333.705 195.08 336.057 195.08ZM339.939 204.186C339.324 205.484 338.039 206.182 336.139 206.182C333.637 206.182 332.01 204.336 331.887 201.424V201.314H342.482V200.412C342.482 195.832 340.062 193.002 336.084 193.002C332.037 193.002 329.439 196.01 329.439 200.645C329.439 205.307 331.996 208.26 336.084 208.26C339.311 208.26 341.58 206.715 342.291 204.186H339.939ZM372.615 193.262H370.25L367.352 205.047H367.133L363.838 193.262H361.582L358.287 205.047H358.068L355.17 193.262H352.791L356.92 208H359.299L362.58 196.598H362.799L366.094 208H368.486L372.615 193.262ZM381.092 195.08C383.43 195.08 384.988 196.803 385.043 199.414H376.922C377.1 196.803 378.74 195.08 381.092 195.08ZM384.975 204.186C384.359 205.484 383.074 206.182 381.174 206.182C378.672 206.182 377.045 204.336 376.922 201.424V201.314H387.518V200.412C387.518 195.832 385.098 193.002 381.119 193.002C377.072 193.002 374.475 196.01 374.475 200.645C374.475 205.307 377.031 208.26 381.119 208.26C384.346 208.26 386.615 206.715 387.326 204.186H384.975ZM398.537 208.26C402.27 208.26 404.717 205.238 404.717 200.631C404.717 195.996 402.283 193.002 398.537 193.002C396.514 193.002 394.723 194 393.916 195.586H393.697V187.41H391.346V208H393.588V205.648H393.807C394.736 207.289 396.486 208.26 398.537 208.26ZM397.99 195.121C400.684 195.121 402.283 197.186 402.283 200.631C402.283 204.076 400.684 206.141 397.99 206.141C395.311 206.141 393.643 204.035 393.643 200.631C393.643 197.227 395.311 195.121 397.99 195.121ZM409.625 213.018L411.771 205.238H409.16L407.861 213.018H409.625ZM436.271 193.262H433.92V201.984C433.92 204.568 432.498 206.113 429.9 206.113C427.549 206.113 426.564 204.883 426.564 202.23V193.262H424.213V202.805C424.213 206.291 425.936 208.26 429.244 208.26C431.5 208.26 433.072 207.33 433.811 205.689H434.029V208H436.271V193.262ZM440.359 197.295C440.359 199.428 441.617 200.617 444.379 201.287L446.908 201.902C448.48 202.285 449.246 202.969 449.246 203.98C449.246 205.334 447.824 206.277 445.842 206.277C443.955 206.277 442.779 205.484 442.383 204.24H439.963C440.223 206.688 442.479 208.26 445.76 208.26C449.109 208.26 451.666 206.441 451.666 203.803C451.666 201.684 450.326 200.48 447.551 199.811L445.281 199.264C443.545 198.84 442.725 198.211 442.725 197.199C442.725 195.887 444.092 194.998 445.842 194.998C447.619 194.998 448.768 195.777 449.082 196.953H451.406C451.092 194.533 448.945 193.002 445.855 193.002C442.725 193.002 440.359 194.848 440.359 197.295ZM461.236 195.08C463.574 195.08 465.133 196.803 465.188 199.414H457.066C457.244 196.803 458.885 195.08 461.236 195.08ZM465.119 204.186C464.504 205.484 463.219 206.182 461.318 206.182C458.816 206.182 457.189 204.336 457.066 201.424V201.314H467.662V200.412C467.662 195.832 465.242 193.002 461.264 193.002C457.217 193.002 454.619 196.01 454.619 200.645C454.619 205.307 457.176 208.26 461.264 208.26C464.49 208.26 466.76 206.715 467.471 204.186H465.119ZM471.354 208H473.705V198.867C473.705 196.789 475.332 195.285 477.574 195.285C478.039 195.285 478.887 195.367 479.078 195.422V193.07C478.777 193.029 478.285 193.002 477.902 193.002C475.947 193.002 474.252 194.014 473.814 195.449H473.596V193.262H471.354V208ZM481.402 197.295C481.402 199.428 482.66 200.617 485.422 201.287L487.951 201.902C489.523 202.285 490.289 202.969 490.289 203.98C490.289 205.334 488.867 206.277 486.885 206.277C484.998 206.277 483.822 205.484 483.426 204.24H481.006C481.266 206.688 483.521 208.26 486.803 208.26C490.152 208.26 492.709 206.441 492.709 203.803C492.709 201.684 491.369 200.48 488.594 199.811L486.324 199.264C484.588 198.84 483.768 198.211 483.768 197.199C483.768 195.887 485.135 194.998 486.885 194.998C488.662 194.998 489.811 195.777 490.125 196.953H492.449C492.135 194.533 489.988 193.002 486.898 193.002C483.768 193.002 481.402 194.848 481.402 197.295ZM47.5527 230.773C47.1426 228.148 44.9551 226.002 41.373 226.002C37.2441 226.002 34.6191 228.982 34.6191 233.576C34.6191 238.266 37.2578 241.26 41.3867 241.26C44.9277 241.26 47.1289 239.264 47.5527 236.557H45.1738C44.7363 238.225 43.3555 239.141 41.373 239.141C38.748 239.141 37.0527 236.98 37.0527 233.576C37.0527 230.24 38.7207 228.121 41.373 228.121C43.4922 228.121 44.791 229.311 45.1738 230.773H47.5527ZM55.5645 239.195C53.8555 239.195 52.584 238.32 52.584 236.816C52.584 235.34 53.5684 234.561 55.8105 234.41L59.7754 234.15V235.504C59.7754 237.609 57.9844 239.195 55.5645 239.195ZM55.127 241.26C57.0957 241.26 58.709 240.398 59.666 238.826H59.8848V241H62.127V230.91C62.127 227.848 60.1172 226.002 56.5215 226.002C53.377 226.002 51.0527 227.561 50.7383 229.926H53.1172C53.4453 228.764 54.6758 228.094 56.4395 228.094C58.6406 228.094 59.7754 229.092 59.7754 230.91V232.25L55.5234 232.51C52.0918 232.715 50.1504 234.232 50.1504 236.871C50.1504 239.564 52.2695 241.26 55.127 241.26ZM66.4746 241H68.8262V232.277C68.8262 229.693 70.3438 228.121 72.6953 228.121C75.0469 228.121 76.168 229.379 76.168 232.031V241H78.5195V231.457C78.5195 227.957 76.6738 226.002 73.3652 226.002C71.1094 226.002 69.6738 226.959 68.9355 228.586H68.7168V226.262H66.4746V241ZM95.2676 239.195C93.5586 239.195 92.2871 238.32 92.2871 236.816C92.2871 235.34 93.2715 234.561 95.5137 234.41L99.4785 234.15V235.504C99.4785 237.609 97.6875 239.195 95.2676 239.195ZM94.8301 241.26C96.7988 241.26 98.4121 240.398 99.3691 238.826H99.5879V241H101.83V230.91C101.83 227.848 99.8203 226.002 96.2246 226.002C93.0801 226.002 90.7559 227.561 90.4414 229.926H92.8203C93.1484 228.764 94.3789 228.094 96.1426 228.094C98.3438 228.094 99.4785 229.092 99.4785 230.91V232.25L95.2266 232.51C91.7949 232.715 89.8535 234.232 89.8535 236.871C89.8535 239.564 91.9727 241.26 94.8301 241.26ZM118.373 230.773C117.963 228.148 115.775 226.002 112.193 226.002C108.064 226.002 105.439 228.982 105.439 233.576C105.439 238.266 108.078 241.26 112.207 241.26C115.748 241.26 117.949 239.264 118.373 236.557H115.994C115.557 238.225 114.176 239.141 112.193 239.141C109.568 239.141 107.873 236.98 107.873 233.576C107.873 230.24 109.541 228.121 112.193 228.121C114.312 228.121 115.611 229.311 115.994 230.773H118.373ZM134.041 230.773C133.631 228.148 131.443 226.002 127.861 226.002C123.732 226.002 121.107 228.982 121.107 233.576C121.107 238.266 123.746 241.26 127.875 241.26C131.416 241.26 133.617 239.264 134.041 236.557H131.662C131.225 238.225 129.844 239.141 127.861 239.141C125.236 239.141 123.541 236.98 123.541 233.576C123.541 230.24 125.209 228.121 127.861 228.121C129.98 228.121 131.279 229.311 131.662 230.773H134.041ZM143.393 228.08C145.73 228.08 147.289 229.803 147.344 232.414H139.223C139.4 229.803 141.041 228.08 143.393 228.08ZM147.275 237.186C146.66 238.484 145.375 239.182 143.475 239.182C140.973 239.182 139.346 237.336 139.223 234.424V234.314H149.818V233.412C149.818 228.832 147.398 226.002 143.42 226.002C139.373 226.002 136.775 229.01 136.775 233.645C136.775 238.307 139.332 241.26 143.42 241.26C146.646 241.26 148.916 239.715 149.627 237.186H147.275ZM153.168 230.295C153.168 232.428 154.426 233.617 157.188 234.287L159.717 234.902C161.289 235.285 162.055 235.969 162.055 236.98C162.055 238.334 160.633 239.277 158.65 239.277C156.764 239.277 155.588 238.484 155.191 237.24H152.771C153.031 239.688 155.287 241.26 158.568 241.26C161.918 241.26 164.475 239.441 164.475 236.803C164.475 234.684 163.135 233.48 160.359 232.811L158.09 232.264C156.354 231.84 155.533 231.211 155.533 230.199C155.533 228.887 156.9 227.998 158.65 227.998C160.428 227.998 161.576 228.777 161.891 229.953H164.215C163.9 227.533 161.754 226.002 158.664 226.002C155.533 226.002 153.168 227.848 153.168 230.295ZM167.551 230.295C167.551 232.428 168.809 233.617 171.57 234.287L174.1 234.902C175.672 235.285 176.438 235.969 176.438 236.98C176.438 238.334 175.016 239.277 173.033 239.277C171.146 239.277 169.971 238.484 169.574 237.24H167.154C167.414 239.688 169.67 241.26 172.951 241.26C176.301 241.26 178.857 239.441 178.857 236.803C178.857 234.684 177.518 233.48 174.742 232.811L172.473 232.264C170.736 231.84 169.916 231.211 169.916 230.199C169.916 228.887 171.283 227.998 173.033 227.998C174.811 227.998 175.959 228.777 176.273 229.953H178.598C178.283 227.533 176.137 226.002 173.047 226.002C169.916 226.002 167.551 227.848 167.551 230.295ZM190.506 241H192.857V226.262H190.506V241ZM191.682 223.268C192.584 223.268 193.322 222.529 193.322 221.627C193.322 220.725 192.584 219.986 191.682 219.986C190.779 219.986 190.041 220.725 190.041 221.627C190.041 222.529 190.779 223.268 191.682 223.268ZM198.326 222.447V226.262H195.947V228.23H198.326V237.172C198.326 239.988 199.543 241.109 202.578 241.109C203.043 241.109 203.494 241.055 203.959 240.973V238.99C203.521 239.031 203.289 239.045 202.865 239.045C201.334 239.045 200.678 238.307 200.678 236.57V228.23H203.959V226.262H200.678V222.447H198.326ZM219.955 239.195C218.246 239.195 216.975 238.32 216.975 236.816C216.975 235.34 217.959 234.561 220.201 234.41L224.166 234.15V235.504C224.166 237.609 222.375 239.195 219.955 239.195ZM219.518 241.26C221.486 241.26 223.1 240.398 224.057 238.826H224.275V241H226.518V230.91C226.518 227.848 224.508 226.002 220.912 226.002C217.768 226.002 215.443 227.561 215.129 229.926H217.508C217.836 228.764 219.066 228.094 220.83 228.094C223.031 228.094 224.166 229.092 224.166 230.91V232.25L219.914 232.51C216.482 232.715 214.541 234.232 214.541 236.871C214.541 239.564 216.66 241.26 219.518 241.26ZM230.865 241H233.217V232.277C233.217 229.693 234.734 228.121 237.086 228.121C239.438 228.121 240.559 229.379 240.559 232.031V241H242.91V231.457C242.91 227.957 241.064 226.002 237.756 226.002C235.5 226.002 234.064 226.959 233.326 228.586H233.107V226.262H230.865V241ZM247.928 246.332C250.539 246.332 251.715 245.32 252.973 241.902L258.729 226.262H256.227L252.193 238.389H251.975L247.928 226.262H245.385L250.84 241.014L250.566 241.889C249.951 243.666 249.213 244.309 247.859 244.309C247.531 244.309 247.162 244.295 246.875 244.24V246.25C247.203 246.305 247.613 246.332 247.928 246.332ZM280.412 226.262H278.047L275.148 238.047H274.93L271.635 226.262H269.379L266.084 238.047H265.865L262.967 226.262H260.588L264.717 241H267.096L270.377 229.598H270.596L273.891 241H276.283L280.412 226.262ZM283.693 241H286.045V232.277C286.045 229.789 287.494 228.121 290.133 228.121C292.361 228.121 293.537 229.42 293.537 232.031V241H295.889V231.457C295.889 227.998 293.92 226.002 290.803 226.002C288.547 226.002 287.002 226.959 286.264 228.586H286.045V220.41H283.693V241ZM306.061 228.08C308.398 228.08 309.957 229.803 310.012 232.414H301.891C302.068 229.803 303.709 228.08 306.061 228.08ZM309.943 237.186C309.328 238.484 308.043 239.182 306.143 239.182C303.641 239.182 302.014 237.336 301.891 234.424V234.314H312.486V233.412C312.486 228.832 310.066 226.002 306.088 226.002C302.041 226.002 299.443 229.01 299.443 233.645C299.443 238.307 302 241.26 306.088 241.26C309.314 241.26 311.584 239.715 312.295 237.186H309.943ZM316.178 241H318.529V231.867C318.529 229.789 320.156 228.285 322.398 228.285C322.863 228.285 323.711 228.367 323.902 228.422V226.07C323.602 226.029 323.109 226.002 322.727 226.002C320.771 226.002 319.076 227.014 318.639 228.449H318.42V226.262H316.178V241ZM332.311 228.08C334.648 228.08 336.207 229.803 336.262 232.414H328.141C328.318 229.803 329.959 228.08 332.311 228.08ZM336.193 237.186C335.578 238.484 334.293 239.182 332.393 239.182C329.891 239.182 328.264 237.336 328.141 234.424V234.314H338.736V233.412C338.736 228.832 336.316 226.002 332.338 226.002C328.291 226.002 325.693 229.01 325.693 233.645C325.693 238.307 328.25 241.26 332.338 241.26C335.564 241.26 337.834 239.715 338.545 237.186H336.193ZM356.387 241.26C360.584 241.26 363.182 238.361 363.182 233.631C363.182 228.887 360.584 226.002 356.387 226.002C352.189 226.002 349.592 228.887 349.592 233.631C349.592 238.361 352.189 241.26 356.387 241.26ZM356.387 239.141C353.598 239.141 352.025 237.117 352.025 233.631C352.025 230.131 353.598 228.121 356.387 228.121C359.176 228.121 360.748 230.131 360.748 233.631C360.748 237.117 359.176 239.141 356.387 239.141ZM366.873 241H369.225V232.277C369.225 229.693 370.742 228.121 373.094 228.121C375.445 228.121 376.566 229.379 376.566 232.031V241H378.918V231.457C378.918 227.957 377.072 226.002 373.764 226.002C371.508 226.002 370.072 226.959 369.334 228.586H369.115V226.262H366.873V241ZM391.127 241H393.479V231.867C393.479 229.789 394.969 228.121 396.896 228.121C398.756 228.121 399.973 229.242 399.973 230.992V241H402.324V231.525C402.324 229.652 403.691 228.121 405.742 228.121C407.82 228.121 408.846 229.188 408.846 231.361V241H411.197V230.814C411.197 227.725 409.516 226.002 406.508 226.002C404.471 226.002 402.789 227.027 401.996 228.586H401.777C401.094 227.055 399.699 226.002 397.703 226.002C395.734 226.002 394.258 226.945 393.588 228.586H393.369V226.262H391.127V241ZM427.412 226.262H425.061V234.984C425.061 237.568 423.639 239.113 421.041 239.113C418.689 239.113 417.705 237.883 417.705 235.23V226.262H415.354V235.805C415.354 239.291 417.076 241.26 420.385 241.26C422.641 241.26 424.213 240.33 424.951 238.689H425.17V241H427.412V226.262ZM431.979 241H434.33V220.41H431.979V241ZM439.881 222.447V226.262H437.502V228.23H439.881V237.172C439.881 239.988 441.098 241.109 444.133 241.109C444.598 241.109 445.049 241.055 445.514 240.973V238.99C445.076 239.031 444.844 239.045 444.42 239.045C442.889 239.045 442.232 238.307 442.232 236.57V228.23H445.514V226.262H442.232V222.447H439.881ZM449.123 241H451.475V226.262H449.123V241ZM450.299 223.268C451.201 223.268 451.939 222.529 451.939 221.627C451.939 220.725 451.201 219.986 450.299 219.986C449.396 219.986 448.658 220.725 448.658 221.627C448.658 222.529 449.396 223.268 450.299 223.268ZM463.137 226.002C461.127 226.002 459.363 227.027 458.42 228.723H458.201V226.262H455.959V245.922H458.311V238.785H458.529C459.336 240.344 461.031 241.26 463.137 241.26C466.883 241.26 469.33 238.238 469.33 233.631C469.33 228.996 466.896 226.002 463.137 226.002ZM462.576 239.141C459.924 239.141 458.242 237.008 458.242 233.631C458.242 230.24 459.924 228.121 462.59 228.121C465.283 228.121 466.896 230.186 466.896 233.631C466.896 237.076 465.283 239.141 462.576 239.141ZM473.158 241H475.51V220.41H473.158V241ZM485.955 228.08C488.293 228.08 489.852 229.803 489.906 232.414H481.785C481.963 229.803 483.604 228.08 485.955 228.08ZM489.838 237.186C489.223 238.484 487.938 239.182 486.037 239.182C483.535 239.182 481.908 237.336 481.785 234.424V234.314H492.381V233.412C492.381 228.832 489.961 226.002 485.982 226.002C481.936 226.002 479.338 229.01 479.338 233.645C479.338 238.307 481.895 241.26 485.982 241.26C489.209 241.26 491.479 239.715 492.189 237.186H489.838ZM216.359 274.26C218.396 274.26 220.146 273.289 221.076 271.648H221.295V274H223.537V253.41H221.186V261.586H220.98C220.146 259.973 218.41 259.002 216.359 259.002C212.613 259.002 210.166 262.01 210.166 266.631C210.166 271.266 212.586 274.26 216.359 274.26ZM216.906 261.121C219.572 261.121 221.24 263.254 221.24 266.631C221.24 270.035 219.586 272.141 216.906 272.141C214.213 272.141 212.6 270.076 212.6 266.631C212.6 263.199 214.227 261.121 216.906 261.121ZM233.982 261.08C236.32 261.08 237.879 262.803 237.934 265.414H229.812C229.99 262.803 231.631 261.08 233.982 261.08ZM237.865 270.186C237.25 271.484 235.965 272.182 234.064 272.182C231.562 272.182 229.936 270.336 229.812 267.424V267.314H240.408V266.412C240.408 261.832 237.988 259.002 234.01 259.002C229.963 259.002 227.365 262.01 227.365 266.645C227.365 271.307 229.922 274.26 234.01 274.26C237.236 274.26 239.506 272.715 240.217 270.186H237.865ZM255.857 259.262H253.342L249.309 271.402H249.09L245.057 259.262H242.541L247.996 274H250.402L255.857 259.262ZM259.057 274H261.408V259.262H259.057V274ZM260.232 256.268C261.135 256.268 261.873 255.529 261.873 254.627C261.873 253.725 261.135 252.986 260.232 252.986C259.33 252.986 258.592 253.725 258.592 254.627C258.592 255.529 259.33 256.268 260.232 256.268ZM278.088 263.773C277.678 261.148 275.49 259.002 271.908 259.002C267.779 259.002 265.154 261.982 265.154 266.576C265.154 271.266 267.793 274.26 271.922 274.26C275.463 274.26 277.664 272.264 278.088 269.557H275.709C275.271 271.225 273.891 272.141 271.908 272.141C269.283 272.141 267.588 269.98 267.588 266.576C267.588 263.24 269.256 261.121 271.908 261.121C274.027 261.121 275.326 262.311 275.709 263.773H278.088ZM287.439 261.08C289.777 261.08 291.336 262.803 291.391 265.414H283.27C283.447 262.803 285.088 261.08 287.439 261.08ZM291.322 270.186C290.707 271.484 289.422 272.182 287.521 272.182C285.02 272.182 283.393 270.336 283.27 267.424V267.314H293.865V266.412C293.865 261.832 291.445 259.002 287.467 259.002C283.42 259.002 280.822 262.01 280.822 266.645C280.822 271.307 283.379 274.26 287.467 274.26C290.693 274.26 292.963 272.715 293.674 270.186H291.322ZM297.215 263.295C297.215 265.428 298.473 266.617 301.234 267.287L303.764 267.902C305.336 268.285 306.102 268.969 306.102 269.98C306.102 271.334 304.68 272.277 302.697 272.277C300.811 272.277 299.635 271.484 299.238 270.24H296.818C297.078 272.688 299.334 274.26 302.615 274.26C305.965 274.26 308.521 272.441 308.521 269.803C308.521 267.684 307.182 266.48 304.406 265.811L302.137 265.264C300.4 264.84 299.58 264.211 299.58 263.199C299.58 261.887 300.947 260.998 302.697 260.998C304.475 260.998 305.623 261.777 305.938 262.953H308.262C307.947 260.533 305.801 259.002 302.711 259.002C299.58 259.002 297.215 260.848 297.215 263.295ZM314.154 274.137C315.139 274.137 315.932 273.33 315.932 272.359C315.932 271.375 315.139 270.582 314.154 270.582C313.184 270.582 312.377 271.375 312.377 272.359C312.377 273.33 313.184 274.137 314.154 274.137Z" fill="#636F73"/>
<defs>
<filter id="filter0_d_141_6998" x="0" y="0" width="528" height="643" filterUnits="userSpaceOnUse" color-interpolation-filters="sRGB">
<feFlood flood-opacity="0" result="BackgroundImageFix"/>
<feColorMatrix in="SourceAlpha" type="matrix" values="0 0 0 0 0 0 0 0 0 0 0 0 0 0 0 0 0 0 127 0" result="hardAlpha"/>
<feOffset dy="4"/>
<feGaussianBlur stdDeviation="2"/>
<feComposite in2="hardAlpha" operator="out"/>
<feColorMatrix type="matrix" values="0 0 0 0 0 0 0 0 0 0 0 0 0 0 0 0 0 0 0.25 0"/>
<feBlend mode="normal" in2="BackgroundImageFix" result="effect1_dropShadow_141_6998"/>
<feBlend mode="normal" in="SourceGraphic" in2="effect1_dropShadow_141_6998" result="shape"/>
</filter>
</defs>
</svg>
