<svg width="528" height="643" viewBox="0 0 528 643" fill="none" xmlns="http://www.w3.org/2000/svg">
<g filter="url(#filter0_d_141_7002)">
<rect x="4" width="520" height="635" fill="white"/>
</g>
<path d="M43.2812 69.0781H43.5312L47.7969 84H52.2188L58.2031 61.4531H53.3281L49.8438 77.3438H49.5938L45.4062 61.4531H41.4219L37.3125 77.3438H37.0625L33.5469 61.4531H28.6406L34.6094 84H39.0625L43.2812 69.0781ZM62.0156 84H66.5625V74.1094C66.5625 71.875 67.875 70.3594 70.1562 70.3594C72.2188 70.3594 73.3281 71.5938 73.3281 73.9844V84H77.875V72.9062C77.875 68.7656 75.6719 66.4375 71.9688 66.4375C69.4375 66.4375 67.5625 67.625 66.7656 69.5938H66.4844V60.1875H62.0156V84ZM83.9688 90.2656C88.2656 90.2656 90.375 88.7031 91.8438 84.2656L97.7812 66.7656H92.9688L89.3438 79.8281H89.0625L85.4375 66.7656H80.4219L86.4688 84.1094L86.3125 84.7344C85.9375 86.0469 84.9688 86.5938 83.2656 86.5938C83.0781 86.5938 82.3906 86.5938 82.2344 86.5625V90.2188C82.4219 90.25 83.7969 90.2656 83.9688 90.2656ZM109.516 84H112.203V67.1562H109.516V84ZM110.859 63.7344C111.891 63.7344 112.734 62.8906 112.734 61.8594C112.734 60.8281 111.891 59.9844 110.859 59.9844C109.828 59.9844 108.984 60.8281 108.984 61.8594C108.984 62.8906 109.828 63.7344 110.859 63.7344ZM116.938 71.7656C116.938 74.2031 118.375 75.5625 121.531 76.3281L124.422 77.0312C126.219 77.4688 127.094 78.25 127.094 79.4062C127.094 80.9531 125.469 82.0312 123.203 82.0312C121.047 82.0312 119.703 81.125 119.25 79.7031H116.484C116.781 82.5 119.359 84.2969 123.109 84.2969C126.938 84.2969 129.859 82.2188 129.859 79.2031C129.859 76.7812 128.328 75.4062 125.156 74.6406L122.562 74.0156C120.578 73.5312 119.641 72.8125 119.641 71.6562C119.641 70.1562 121.203 69.1406 123.203 69.1406C125.234 69.1406 126.547 70.0312 126.906 71.375H129.562C129.203 68.6094 126.75 66.8594 123.219 66.8594C119.641 66.8594 116.938 68.9688 116.938 71.7656ZM144.547 90.0938C147.531 90.0938 148.875 88.9375 150.312 85.0312L156.891 67.1562H154.031L149.422 81.0156H149.172L144.547 67.1562H141.641L147.875 84.0156L147.562 85.0156C146.859 87.0469 146.016 87.7812 144.469 87.7812C144.094 87.7812 143.672 87.7656 143.344 87.7031V90C143.719 90.0625 144.188 90.0938 144.547 90.0938ZM166.781 84.2969C171.578 84.2969 174.547 80.9844 174.547 75.5781C174.547 70.1562 171.578 66.8594 166.781 66.8594C161.984 66.8594 159.016 70.1562 159.016 75.5781C159.016 80.9844 161.984 84.2969 166.781 84.2969ZM166.781 81.875C163.594 81.875 161.797 79.5625 161.797 75.5781C161.797 71.5781 163.594 69.2812 166.781 69.2812C169.969 69.2812 171.766 71.5781 171.766 75.5781C171.766 79.5625 169.969 81.875 166.781 81.875ZM192.391 67.1562H189.703V77.125C189.703 80.0781 188.078 81.8438 185.109 81.8438C182.422 81.8438 181.297 80.4375 181.297 77.4062V67.1562H178.609V78.0625C178.609 82.0469 180.578 84.2969 184.359 84.2969C186.938 84.2969 188.734 83.2344 189.578 81.3594H189.828V84H192.391V67.1562ZM197.453 84H200.141V73.5625C200.141 71.1875 202 69.4688 204.562 69.4688C205.094 69.4688 206.062 69.5625 206.281 69.625V66.9375C205.938 66.8906 205.375 66.8594 204.938 66.8594C202.703 66.8594 200.766 68.0156 200.266 69.6562H200.016V67.1562H197.453V84ZM223.859 81.9375C221.906 81.9375 220.453 80.9375 220.453 79.2188C220.453 77.5312 221.578 76.6406 224.141 76.4688L228.672 76.1719V77.7188C228.672 80.125 226.625 81.9375 223.859 81.9375ZM223.359 84.2969C225.609 84.2969 227.453 83.3125 228.547 81.5156H228.797V84H231.359V72.4688C231.359 68.9688 229.062 66.8594 224.953 66.8594C221.359 66.8594 218.703 68.6406 218.344 71.3438H221.062C221.438 70.0156 222.844 69.25 224.859 69.25C227.375 69.25 228.672 70.3906 228.672 72.4688V74L223.812 74.2969C219.891 74.5312 217.672 76.2656 217.672 79.2812C217.672 82.3594 220.094 84.2969 223.359 84.2969ZM249.953 67.1562H247.266V77.125C247.266 80.0781 245.641 81.8438 242.672 81.8438C239.984 81.8438 238.859 80.4375 238.859 77.4062V67.1562H236.172V78.0625C236.172 82.0469 238.141 84.2969 241.922 84.2969C244.5 84.2969 246.297 83.2344 247.141 81.3594H247.391V84H249.953V67.1562ZM261.25 84.2969C263.578 84.2969 265.578 83.1875 266.641 81.3125H266.891V84H269.453V60.4688H266.766V69.8125H266.531C265.578 67.9688 263.594 66.8594 261.25 66.8594C256.969 66.8594 254.172 70.2969 254.172 75.5781C254.172 80.875 256.938 84.2969 261.25 84.2969ZM261.875 69.2812C264.922 69.2812 266.828 71.7188 266.828 75.5781C266.828 79.4688 264.938 81.875 261.875 81.875C258.797 81.875 256.953 79.5156 256.953 75.5781C256.953 71.6562 258.812 69.2812 261.875 69.2812ZM274.734 84H277.422V67.1562H274.734V84ZM276.078 63.7344C277.109 63.7344 277.953 62.8906 277.953 61.8594C277.953 60.8281 277.109 59.9844 276.078 59.9844C275.047 59.9844 274.203 60.8281 274.203 61.8594C274.203 62.8906 275.047 63.7344 276.078 63.7344ZM289.266 69.2344C291.938 69.2344 293.719 71.2031 293.781 74.1875H284.5C284.703 71.2031 286.578 69.2344 289.266 69.2344ZM293.703 79.6406C293 81.125 291.531 81.9219 289.359 81.9219C286.5 81.9219 284.641 79.8125 284.5 76.4844V76.3594H296.609V75.3281C296.609 70.0938 293.844 66.8594 289.297 66.8594C284.672 66.8594 281.703 70.2969 281.703 75.5938C281.703 80.9219 284.625 84.2969 289.297 84.2969C292.984 84.2969 295.578 82.5312 296.391 79.6406H293.703ZM300.828 84H303.516V74.0312C303.516 71.0781 305.25 69.2812 307.938 69.2812C310.625 69.2812 311.906 70.7188 311.906 73.75V84H314.594V73.0938C314.594 69.0938 312.484 66.8594 308.703 66.8594C306.125 66.8594 304.484 67.9531 303.641 69.8125H303.391V67.1562H300.828V84ZM333.453 72.3125C332.984 69.3125 330.484 66.8594 326.391 66.8594C321.672 66.8594 318.672 70.2656 318.672 75.5156C318.672 80.875 321.688 84.2969 326.406 84.2969C330.453 84.2969 332.969 82.0156 333.453 78.9219H330.734C330.234 80.8281 328.656 81.875 326.391 81.875C323.391 81.875 321.453 79.4062 321.453 75.5156C321.453 71.7031 323.359 69.2812 326.391 69.2812C328.812 69.2812 330.297 70.6406 330.734 72.3125H333.453ZM344.141 69.2344C346.812 69.2344 348.594 71.2031 348.656 74.1875H339.375C339.578 71.2031 341.453 69.2344 344.141 69.2344ZM348.578 79.6406C347.875 81.125 346.406 81.9219 344.234 81.9219C341.375 81.9219 339.516 79.8125 339.375 76.4844V76.3594H351.484V75.3281C351.484 70.0938 348.719 66.8594 344.172 66.8594C339.547 66.8594 336.578 70.2969 336.578 75.5938C336.578 80.9219 339.5 84.2969 344.172 84.2969C347.859 84.2969 350.453 82.5312 351.266 79.6406H348.578ZM378.672 72.3125C378.203 69.3125 375.703 66.8594 371.609 66.8594C366.891 66.8594 363.891 70.2656 363.891 75.5156C363.891 80.875 366.906 84.2969 371.625 84.2969C375.672 84.2969 378.188 82.0156 378.672 78.9219H375.953C375.453 80.8281 373.875 81.875 371.609 81.875C368.609 81.875 366.672 79.4062 366.672 75.5156C366.672 71.7031 368.578 69.2812 371.609 69.2812C374.031 69.2812 375.516 70.6406 375.953 72.3125H378.672ZM382.797 84H385.484V74.0312C385.484 71.1875 387.141 69.2812 390.156 69.2812C392.703 69.2812 394.047 70.7656 394.047 73.75V84H396.734V73.0938C396.734 69.1406 394.484 66.8594 390.922 66.8594C388.344 66.8594 386.578 67.9531 385.734 69.8125H385.484V60.4688H382.797V84ZM408.562 84.2969C413.359 84.2969 416.328 80.9844 416.328 75.5781C416.328 70.1562 413.359 66.8594 408.562 66.8594C403.766 66.8594 400.797 70.1562 400.797 75.5781C400.797 80.9844 403.766 84.2969 408.562 84.2969ZM408.562 81.875C405.375 81.875 403.578 79.5625 403.578 75.5781C403.578 71.5781 405.375 69.2812 408.562 69.2812C411.75 69.2812 413.547 71.5781 413.547 75.5781C413.547 79.5625 411.75 81.875 408.562 81.875ZM427.469 84.2969C432.266 84.2969 435.234 80.9844 435.234 75.5781C435.234 70.1562 432.266 66.8594 427.469 66.8594C422.672 66.8594 419.703 70.1562 419.703 75.5781C419.703 80.9844 422.672 84.2969 427.469 84.2969ZM427.469 81.875C424.281 81.875 422.484 79.5625 422.484 75.5781C422.484 71.5781 424.281 69.2812 427.469 69.2812C430.656 69.2812 432.453 71.5781 432.453 75.5781C432.453 79.5625 430.656 81.875 427.469 81.875ZM439.062 71.7656C439.062 74.2031 440.5 75.5625 443.656 76.3281L446.547 77.0312C448.344 77.4688 449.219 78.25 449.219 79.4062C449.219 80.9531 447.594 82.0312 445.328 82.0312C443.172 82.0312 441.828 81.125 441.375 79.7031H438.609C438.906 82.5 441.484 84.2969 445.234 84.2969C449.062 84.2969 451.984 82.2188 451.984 79.2031C451.984 76.7812 450.453 75.4062 447.281 74.6406L444.688 74.0156C442.703 73.5312 441.766 72.8125 441.766 71.6562C441.766 70.1562 443.328 69.1406 445.328 69.1406C447.359 69.1406 448.672 70.0312 449.031 71.375H451.688C451.328 68.6094 448.875 66.8594 445.344 66.8594C441.766 66.8594 439.062 68.9688 439.062 71.7656ZM456.266 84H458.953V67.1562H456.266V84ZM457.609 63.7344C458.641 63.7344 459.484 62.8906 459.484 61.8594C459.484 60.8281 458.641 59.9844 457.609 59.9844C456.578 59.9844 455.734 60.8281 455.734 61.8594C455.734 62.8906 456.578 63.7344 457.609 63.7344ZM464.078 84H466.766V74.0312C466.766 71.0781 468.5 69.2812 471.188 69.2812C473.875 69.2812 475.156 70.7188 475.156 73.75V84H477.844V73.0938C477.844 69.0938 475.734 66.8594 471.953 66.8594C469.375 66.8594 467.734 67.9531 466.891 69.8125H466.641V67.1562H464.078V84ZM489.578 81.375C486.453 81.375 484.703 79 484.703 75.3281C484.703 71.6562 486.453 69.2812 489.578 69.2812C492.688 69.2812 494.578 71.6562 494.578 75.3281C494.578 79 492.703 81.375 489.578 81.375ZM489.703 90.4688C494.297 90.4688 497.203 88.0625 497.203 84.2969V67.1562H494.641V69.8281H494.391C493.422 68.0156 491.344 66.8594 488.984 66.8594C484.656 66.8594 481.922 70.2812 481.922 75.3281C481.922 80.375 484.625 83.75 488.984 83.75C491.297 83.75 493.203 82.7031 494.266 80.8438H494.516V84.1562C494.516 86.6406 492.719 88.125 489.703 88.125C487.281 88.125 485.781 87.2344 485.484 85.8594H482.641C483.047 88.6406 485.641 90.4688 489.703 90.4688ZM52.2031 100.797V105.156H49.4844V107.406H52.2031V117.625C52.2031 120.844 53.5938 122.125 57.0625 122.125C57.5938 122.125 58.1094 122.062 58.6406 121.969V119.703C58.1406 119.75 57.875 119.766 57.3906 119.766C55.6406 119.766 54.8906 118.922 54.8906 116.938V107.406H58.6406V105.156H54.8906V100.797H52.2031ZM69.375 122.297C74.1719 122.297 77.1406 118.984 77.1406 113.578C77.1406 108.156 74.1719 104.859 69.375 104.859C64.5781 104.859 61.6094 108.156 61.6094 113.578C61.6094 118.984 64.5781 122.297 69.375 122.297ZM69.375 119.875C66.1875 119.875 64.3906 117.562 64.3906 113.578C64.3906 109.578 66.1875 107.281 69.375 107.281C72.5625 107.281 74.3594 109.578 74.3594 113.578C74.3594 117.562 72.5625 119.875 69.375 119.875ZM104.016 105.156H101.328V115.125C101.328 118.078 99.7031 119.844 96.7344 119.844C94.0469 119.844 92.9219 118.438 92.9219 115.406V105.156H90.2344V116.062C90.2344 120.047 92.2031 122.297 95.9844 122.297C98.5625 122.297 100.359 121.234 101.203 119.359H101.453V122H104.016V105.156ZM108.688 109.766C108.688 112.203 110.125 113.562 113.281 114.328L116.172 115.031C117.969 115.469 118.844 116.25 118.844 117.406C118.844 118.953 117.219 120.031 114.953 120.031C112.797 120.031 111.453 119.125 111 117.703H108.234C108.531 120.5 111.109 122.297 114.859 122.297C118.688 122.297 121.609 120.219 121.609 117.203C121.609 114.781 120.078 113.406 116.906 112.641L114.312 112.016C112.328 111.531 111.391 110.812 111.391 109.656C111.391 108.156 112.953 107.141 114.953 107.141C116.984 107.141 118.297 108.031 118.656 109.375H121.312C120.953 106.609 118.5 104.859 114.969 104.859C111.391 104.859 108.688 106.969 108.688 109.766ZM132.547 107.234C135.219 107.234 137 109.203 137.062 112.188H127.781C127.984 109.203 129.859 107.234 132.547 107.234ZM136.984 117.641C136.281 119.125 134.812 119.922 132.641 119.922C129.781 119.922 127.922 117.812 127.781 114.484V114.359H139.891V113.328C139.891 108.094 137.125 104.859 132.578 104.859C127.953 104.859 124.984 108.297 124.984 113.594C124.984 118.922 127.906 122.297 132.578 122.297C136.266 122.297 138.859 120.531 139.672 117.641H136.984ZM174.328 105.156H171.625L168.312 118.625H168.062L164.297 105.156H161.719L157.953 118.625H157.703L154.391 105.156H151.672L156.391 122H159.109L162.859 108.969H163.109L166.875 122H169.609L174.328 105.156ZM178.078 122H180.766V112.031C180.766 109.188 182.422 107.281 185.438 107.281C187.984 107.281 189.328 108.766 189.328 111.75V122H192.016V111.094C192.016 107.141 189.766 104.859 186.203 104.859C183.625 104.859 181.859 105.953 181.016 107.812H180.766V98.4688H178.078V122ZM202.109 119.938C200.156 119.938 198.703 118.938 198.703 117.219C198.703 115.531 199.828 114.641 202.391 114.469L206.922 114.172V115.719C206.922 118.125 204.875 119.938 202.109 119.938ZM201.609 122.297C203.859 122.297 205.703 121.312 206.797 119.516H207.047V122H209.609V110.469C209.609 106.969 207.312 104.859 203.203 104.859C199.609 104.859 196.953 106.641 196.594 109.344H199.312C199.688 108.016 201.094 107.25 203.109 107.25C205.625 107.25 206.922 108.391 206.922 110.469V112L202.062 112.297C198.141 112.531 195.922 114.266 195.922 117.281C195.922 120.359 198.344 122.297 201.609 122.297ZM215.703 100.797V105.156H212.984V107.406H215.703V117.625C215.703 120.844 217.094 122.125 220.562 122.125C221.094 122.125 221.609 122.062 222.141 121.969V119.703C221.641 119.75 221.375 119.766 220.891 119.766C219.141 119.766 218.391 118.922 218.391 116.938V107.406H222.141V105.156H218.391V100.797H215.703ZM236.672 128.094C239.656 128.094 241 126.938 242.438 123.031L249.016 105.156H246.156L241.547 119.016H241.297L236.672 105.156H233.766L240 122.016L239.688 123.016C238.984 125.047 238.141 125.781 236.594 125.781C236.219 125.781 235.797 125.766 235.469 125.703V128C235.844 128.062 236.312 128.094 236.672 128.094ZM258.906 122.297C263.703 122.297 266.672 118.984 266.672 113.578C266.672 108.156 263.703 104.859 258.906 104.859C254.109 104.859 251.141 108.156 251.141 113.578C251.141 118.984 254.109 122.297 258.906 122.297ZM258.906 119.875C255.719 119.875 253.922 117.562 253.922 113.578C253.922 109.578 255.719 107.281 258.906 107.281C262.094 107.281 263.891 109.578 263.891 113.578C263.891 117.562 262.094 119.875 258.906 119.875ZM284.516 105.156H281.828V115.125C281.828 118.078 280.203 119.844 277.234 119.844C274.547 119.844 273.422 118.438 273.422 115.406V105.156H270.734V116.062C270.734 120.047 272.703 122.297 276.484 122.297C279.062 122.297 280.859 121.234 281.703 119.359H281.953V122H284.516V105.156ZM291.812 107.875L294.328 99.4531H291.281L289.859 107.875H291.812ZM312.016 105.156H309.141L304.531 119.031H304.281L299.672 105.156H296.797L303.031 122H305.781L312.016 105.156ZM321.703 107.234C324.375 107.234 326.156 109.203 326.219 112.188H316.938C317.141 109.203 319.016 107.234 321.703 107.234ZM326.141 117.641C325.438 119.125 323.969 119.922 321.797 119.922C318.938 119.922 317.078 117.812 316.938 114.484V114.359H329.047V113.328C329.047 108.094 326.281 104.859 321.734 104.859C317.109 104.859 314.141 108.297 314.141 113.594C314.141 118.922 317.062 122.297 321.734 122.297C325.422 122.297 328.016 120.531 328.828 117.641H326.141ZM348.531 122.297C350.859 122.297 352.859 121.188 353.922 119.312H354.172V122H356.734V98.4688H354.047V107.812H353.812C352.859 105.969 350.875 104.859 348.531 104.859C344.25 104.859 341.453 108.297 341.453 113.578C341.453 118.875 344.219 122.297 348.531 122.297ZM349.156 107.281C352.203 107.281 354.109 109.719 354.109 113.578C354.109 117.469 352.219 119.875 349.156 119.875C346.078 119.875 344.234 117.516 344.234 113.578C344.234 109.656 346.094 107.281 349.156 107.281ZM368.672 107.234C371.344 107.234 373.125 109.203 373.188 112.188H363.906C364.109 109.203 365.984 107.234 368.672 107.234ZM373.109 117.641C372.406 119.125 370.938 119.922 368.766 119.922C365.906 119.922 364.047 117.812 363.906 114.484V114.359H376.016V113.328C376.016 108.094 373.25 104.859 368.703 104.859C364.078 104.859 361.109 108.297 361.109 113.594C361.109 118.922 364.031 122.297 368.703 122.297C372.391 122.297 374.984 120.531 375.797 117.641H373.109ZM379.844 109.766C379.844 112.203 381.281 113.562 384.438 114.328L387.328 115.031C389.125 115.469 390 116.25 390 117.406C390 118.953 388.375 120.031 386.109 120.031C383.953 120.031 382.609 119.125 382.156 117.703H379.391C379.688 120.5 382.266 122.297 386.016 122.297C389.844 122.297 392.766 120.219 392.766 117.203C392.766 114.781 391.234 113.406 388.062 112.641L385.469 112.016C383.484 111.531 382.547 110.812 382.547 109.656C382.547 108.156 384.109 107.141 386.109 107.141C388.141 107.141 389.453 108.031 389.812 109.375H392.469C392.109 106.609 389.656 104.859 386.125 104.859C382.547 104.859 379.844 106.969 379.844 109.766ZM397.047 122H399.734V105.156H397.047V122ZM398.391 101.734C399.422 101.734 400.266 100.891 400.266 99.8594C400.266 98.8281 399.422 97.9844 398.391 97.9844C397.359 97.9844 396.516 98.8281 396.516 99.8594C396.516 100.891 397.359 101.734 398.391 101.734ZM411.672 119.375C408.547 119.375 406.797 117 406.797 113.328C406.797 109.656 408.547 107.281 411.672 107.281C414.781 107.281 416.672 109.656 416.672 113.328C416.672 117 414.797 119.375 411.672 119.375ZM411.797 128.469C416.391 128.469 419.297 126.062 419.297 122.297V105.156H416.734V107.828H416.484C415.516 106.016 413.438 104.859 411.078 104.859C406.75 104.859 404.016 108.281 404.016 113.328C404.016 118.375 406.719 121.75 411.078 121.75C413.391 121.75 415.297 120.703 416.359 118.844H416.609V122.156C416.609 124.641 414.812 126.125 411.797 126.125C409.375 126.125 407.875 125.234 407.578 123.859H404.734C405.141 126.641 407.734 128.469 411.797 128.469ZM424.359 122H427.047V112.031C427.047 109.078 428.781 107.281 431.469 107.281C434.156 107.281 435.438 108.719 435.438 111.75V122H438.125V111.094C438.125 107.094 436.016 104.859 432.234 104.859C429.656 104.859 428.016 105.953 427.172 107.812H426.922V105.156H424.359V122ZM449.766 107.234C452.438 107.234 454.219 109.203 454.281 112.188H445C445.203 109.203 447.078 107.234 449.766 107.234ZM454.203 117.641C453.5 119.125 452.031 119.922 449.859 119.922C447 119.922 445.141 117.812 445 114.484V114.359H457.109V113.328C457.109 108.094 454.344 104.859 449.797 104.859C445.172 104.859 442.203 108.297 442.203 113.594C442.203 118.922 445.125 122.297 449.797 122.297C453.484 122.297 456.078 120.531 456.891 117.641H454.203ZM467.562 122.297C469.891 122.297 471.891 121.188 472.953 119.312H473.203V122H475.766V98.4688H473.078V107.812H472.844C471.891 105.969 469.906 104.859 467.562 104.859C463.281 104.859 460.484 108.297 460.484 113.578C460.484 118.875 463.25 122.297 467.562 122.297ZM468.188 107.281C471.234 107.281 473.141 109.719 473.141 113.578C473.141 117.469 471.25 119.875 468.188 119.875C465.109 119.875 463.266 117.516 463.266 113.578C463.266 109.656 465.125 107.281 468.188 107.281ZM119.781 157.938C117.828 157.938 116.375 156.938 116.375 155.219C116.375 153.531 117.5 152.641 120.062 152.469L124.594 152.172V153.719C124.594 156.125 122.547 157.938 119.781 157.938ZM119.281 160.297C121.531 160.297 123.375 159.312 124.469 157.516H124.719V160H127.281V148.469C127.281 144.969 124.984 142.859 120.875 142.859C117.281 142.859 114.625 144.641 114.266 147.344H116.984C117.359 146.016 118.766 145.25 120.781 145.25C123.297 145.25 124.594 146.391 124.594 148.469V150L119.734 150.297C115.812 150.531 113.594 152.266 113.594 155.281C113.594 158.359 116.016 160.297 119.281 160.297ZM132.25 160H134.938V150.031C134.938 147.078 136.672 145.281 139.359 145.281C142.047 145.281 143.328 146.719 143.328 149.75V160H146.016V149.094C146.016 145.094 143.906 142.859 140.125 142.859C137.547 142.859 135.906 143.953 135.062 145.812H134.812V143.156H132.25V160ZM157.172 160.297C159.5 160.297 161.5 159.188 162.562 157.312H162.812V160H165.375V136.469H162.688V145.812H162.453C161.5 143.969 159.516 142.859 157.172 142.859C152.891 142.859 150.094 146.297 150.094 151.578C150.094 156.875 152.859 160.297 157.172 160.297ZM157.797 145.281C160.844 145.281 162.75 147.719 162.75 151.578C162.75 155.469 160.859 157.875 157.797 157.875C154.719 157.875 152.875 155.516 152.875 151.578C152.875 147.656 154.734 145.281 157.797 145.281ZM200.812 143.156H198.109L194.797 156.625H194.547L190.781 143.156H188.203L184.438 156.625H184.188L180.875 143.156H178.156L182.875 160H185.594L189.344 146.969H189.594L193.359 160H196.094L200.812 143.156ZM204.562 160H207.25V150.031C207.25 147.188 208.906 145.281 211.922 145.281C214.469 145.281 215.812 146.766 215.812 149.75V160H218.5V149.094C218.5 145.141 216.25 142.859 212.688 142.859C210.109 142.859 208.344 143.953 207.5 145.812H207.25V136.469H204.562V160ZM228.594 157.938C226.641 157.938 225.188 156.938 225.188 155.219C225.188 153.531 226.312 152.641 228.875 152.469L233.406 152.172V153.719C233.406 156.125 231.359 157.938 228.594 157.938ZM228.094 160.297C230.344 160.297 232.188 159.312 233.281 157.516H233.531V160H236.094V148.469C236.094 144.969 233.797 142.859 229.688 142.859C226.094 142.859 223.438 144.641 223.078 147.344H225.797C226.172 146.016 227.578 145.25 229.594 145.25C232.109 145.25 233.406 146.391 233.406 148.469V150L228.547 150.297C224.625 150.531 222.406 152.266 222.406 155.281C222.406 158.359 224.828 160.297 228.094 160.297ZM242.188 138.797V143.156H239.469V145.406H242.188V155.625C242.188 158.844 243.578 160.125 247.047 160.125C247.578 160.125 248.094 160.062 248.625 159.969V157.703C248.125 157.75 247.859 157.766 247.375 157.766C245.625 157.766 244.875 156.922 244.875 154.938V145.406H248.625V143.156H244.875V138.797H242.188ZM267.953 160.297C270.281 160.297 272.281 159.188 273.344 157.312H273.594V160H276.156V136.469H273.469V145.812H273.234C272.281 143.969 270.297 142.859 267.953 142.859C263.672 142.859 260.875 146.297 260.875 151.578C260.875 156.875 263.641 160.297 267.953 160.297ZM268.578 145.281C271.625 145.281 273.531 147.719 273.531 151.578C273.531 155.469 271.641 157.875 268.578 157.875C265.5 157.875 263.656 155.516 263.656 151.578C263.656 147.656 265.516 145.281 268.578 145.281ZM281.375 160H284.062V149.562C284.062 147.188 285.922 145.469 288.484 145.469C289.016 145.469 289.984 145.562 290.203 145.625V142.938C289.859 142.891 289.297 142.859 288.859 142.859C286.625 142.859 284.688 144.016 284.188 145.656H283.938V143.156H281.375V160ZM293.625 160H296.312V143.156H293.625V160ZM294.969 139.734C296 139.734 296.844 138.891 296.844 137.859C296.844 136.828 296 135.984 294.969 135.984C293.938 135.984 293.094 136.828 293.094 137.859C293.094 138.891 293.938 139.734 294.969 139.734ZM315.188 143.156H312.312L307.703 157.031H307.453L302.844 143.156H299.969L306.203 160H308.953L315.188 143.156ZM324.875 145.234C327.547 145.234 329.328 147.203 329.391 150.188H320.109C320.312 147.203 322.188 145.234 324.875 145.234ZM329.312 155.641C328.609 157.125 327.141 157.922 324.969 157.922C322.109 157.922 320.25 155.812 320.109 152.484V152.359H332.219V151.328C332.219 146.094 329.453 142.859 324.906 142.859C320.281 142.859 317.312 146.297 317.312 151.594C317.312 156.922 320.234 160.297 324.906 160.297C328.594 160.297 331.188 158.531 332 155.641H329.312ZM336.047 147.766C336.047 150.203 337.484 151.562 340.641 152.328L343.531 153.031C345.328 153.469 346.203 154.25 346.203 155.406C346.203 156.953 344.578 158.031 342.312 158.031C340.156 158.031 338.812 157.125 338.359 155.703H335.594C335.891 158.5 338.469 160.297 342.219 160.297C346.047 160.297 348.969 158.219 348.969 155.203C348.969 152.781 347.438 151.406 344.266 150.641L341.672 150.016C339.688 149.531 338.75 148.812 338.75 147.656C338.75 146.156 340.312 145.141 342.312 145.141C344.344 145.141 345.656 146.031 346.016 147.375H348.672C348.312 144.609 345.859 142.859 342.328 142.859C338.75 142.859 336.047 144.969 336.047 147.766ZM363.344 138.797V143.156H360.625V145.406H363.344V155.625C363.344 158.844 364.734 160.125 368.203 160.125C368.734 160.125 369.25 160.062 369.781 159.969V157.703C369.281 157.75 369.016 157.766 368.531 157.766C366.781 157.766 366.031 156.922 366.031 154.938V145.406H369.781V143.156H366.031V138.797H363.344ZM374 160H376.688V150.031C376.688 147.188 378.344 145.281 381.359 145.281C383.906 145.281 385.25 146.766 385.25 149.75V160H387.938V149.094C387.938 145.141 385.688 142.859 382.125 142.859C379.547 142.859 377.781 143.953 376.938 145.812H376.688V136.469H374V160ZM392.906 160H395.594V143.156H392.906V160ZM394.25 139.734C395.281 139.734 396.125 138.891 396.125 137.859C396.125 136.828 395.281 135.984 394.25 135.984C393.219 135.984 392.375 136.828 392.375 137.859C392.375 138.891 393.219 139.734 394.25 139.734ZM400.328 147.766C400.328 150.203 401.766 151.562 404.922 152.328L407.812 153.031C409.609 153.469 410.484 154.25 410.484 155.406C410.484 156.953 408.859 158.031 406.594 158.031C404.438 158.031 403.094 157.125 402.641 155.703H399.875C400.172 158.5 402.75 160.297 406.5 160.297C410.328 160.297 413.25 158.219 413.25 155.203C413.25 152.781 411.719 151.406 408.547 150.641L405.953 150.016C403.969 149.531 403.031 148.812 403.031 147.656C403.031 146.156 404.594 145.141 406.594 145.141C408.625 145.141 409.938 146.031 410.297 147.375H412.953C412.594 144.609 410.141 142.859 406.609 142.859C403.031 142.859 400.328 144.969 400.328 147.766ZM191.406 198.297C195.672 198.297 198.469 194.844 198.469 189.578C198.469 184.281 195.688 180.859 191.406 180.859C189.094 180.859 187.047 182 186.125 183.812H185.875V174.469H183.188V198H185.75V195.312H186C187.062 197.188 189.062 198.297 191.406 198.297ZM190.781 183.281C193.859 183.281 195.688 185.641 195.688 189.578C195.688 193.516 193.859 195.875 190.781 195.875C187.719 195.875 185.812 193.469 185.812 189.578C185.812 185.688 187.719 183.281 190.781 183.281ZM209.406 183.234C212.078 183.234 213.859 185.203 213.922 188.188H204.641C204.844 185.203 206.719 183.234 209.406 183.234ZM213.844 193.641C213.141 195.125 211.672 195.922 209.5 195.922C206.641 195.922 204.781 193.812 204.641 190.484V190.359H216.75V189.328C216.75 184.094 213.984 180.859 209.438 180.859C204.812 180.859 201.844 184.297 201.844 189.594C201.844 194.922 204.766 198.297 209.438 198.297C213.125 198.297 215.719 196.531 216.531 193.641H213.844ZM221.125 198H223.812V188.031C223.812 185.188 225.469 183.281 228.484 183.281C231.031 183.281 232.375 184.766 232.375 187.75V198H235.062V187.094C235.062 183.141 232.812 180.859 229.25 180.859C226.672 180.859 224.906 181.953 224.062 183.812H223.812V174.469H221.125V198ZM245.156 195.938C243.203 195.938 241.75 194.938 241.75 193.219C241.75 191.531 242.875 190.641 245.438 190.469L249.969 190.172V191.719C249.969 194.125 247.922 195.938 245.156 195.938ZM244.656 198.297C246.906 198.297 248.75 197.312 249.844 195.516H250.094V198H252.656V186.469C252.656 182.969 250.359 180.859 246.25 180.859C242.656 180.859 240 182.641 239.641 185.344H242.359C242.734 184.016 244.141 183.25 246.156 183.25C248.672 183.25 249.969 184.391 249.969 186.469V188L245.109 188.297C241.188 188.531 238.969 190.266 238.969 193.281C238.969 196.359 241.391 198.297 244.656 198.297ZM270.75 181.156H267.875L263.266 195.031H263.016L258.406 181.156H255.531L261.766 198H264.516L270.75 181.156ZM274.406 198H277.094V181.156H274.406V198ZM275.75 177.734C276.781 177.734 277.625 176.891 277.625 175.859C277.625 174.828 276.781 173.984 275.75 173.984C274.719 173.984 273.875 174.828 273.875 175.859C273.875 176.891 274.719 177.734 275.75 177.734ZM289.141 198.297C293.938 198.297 296.906 194.984 296.906 189.578C296.906 184.156 293.938 180.859 289.141 180.859C284.344 180.859 281.375 184.156 281.375 189.578C281.375 194.984 284.344 198.297 289.141 198.297ZM289.141 195.875C285.953 195.875 284.156 193.562 284.156 189.578C284.156 185.578 285.953 183.281 289.141 183.281C292.328 183.281 294.125 185.578 294.125 189.578C294.125 193.562 292.328 195.875 289.141 195.875ZM314.75 181.156H312.062V191.125C312.062 194.078 310.438 195.844 307.469 195.844C304.781 195.844 303.656 194.438 303.656 191.406V181.156H300.969V192.062C300.969 196.047 302.938 198.297 306.719 198.297C309.297 198.297 311.094 197.234 311.938 195.359H312.188V198H314.75V181.156ZM319.812 198H322.5V187.562C322.5 185.188 324.359 183.469 326.922 183.469C327.453 183.469 328.422 183.562 328.641 183.625V180.938C328.297 180.891 327.734 180.859 327.297 180.859C325.062 180.859 323.125 182.016 322.625 183.656H322.375V181.156H319.812V198ZM331.344 181.344H334.016C334.188 179.109 335.688 177.719 338.047 177.719C340.375 177.719 341.875 179.141 341.875 181.078C341.875 182.75 341.172 183.734 339.359 184.844C337.219 186.125 336.219 187.531 336.234 189.594V191.031H338.969V190.016C338.969 188.375 339.531 187.5 341.516 186.328C343.516 185.125 344.781 183.391 344.781 180.938C344.781 177.719 342.094 175.281 338.156 175.281C333.766 175.281 331.516 177.969 331.344 181.344ZM337.812 198.281C339.078 198.281 339.969 197.375 339.969 196.109C339.969 194.828 339.078 193.922 337.812 193.922C336.547 193.922 335.641 194.828 335.641 196.109C335.641 197.375 336.547 198.281 337.812 198.281Z" fill="#58A8A0"/>
<path d="M27.0391 252V234.486H33.3965V232.271H18.2207V234.486H24.5781V252H27.0391ZM37.0332 252H39.3848V243.277C39.3848 240.789 40.834 239.121 43.4727 239.121C45.7012 239.121 46.877 240.42 46.877 243.031V252H49.2285V242.457C49.2285 238.998 47.2598 237.002 44.1426 237.002C41.8867 237.002 40.3418 237.959 39.6035 239.586H39.3848V231.41H37.0332V252ZM59.4004 239.08C61.7383 239.08 63.2969 240.803 63.3516 243.414H55.2305C55.4082 240.803 57.0488 239.08 59.4004 239.08ZM63.2832 248.186C62.668 249.484 61.3828 250.182 59.4824 250.182C56.9805 250.182 55.3535 248.336 55.2305 245.424V245.314H65.8262V244.412C65.8262 239.832 63.4062 237.002 59.4277 237.002C55.3809 237.002 52.7832 240.01 52.7832 244.645C52.7832 249.307 55.3398 252.26 59.4277 252.26C62.6543 252.26 64.9238 250.715 65.6348 248.186H63.2832ZM70.502 257.332C73.1133 257.332 74.2891 256.32 75.5469 252.902L81.3027 237.262H78.8008L74.7676 249.389H74.5488L70.502 237.262H67.959L73.4141 252.014L73.1406 252.889C72.5254 254.666 71.7871 255.309 70.4336 255.309C70.1055 255.309 69.7363 255.295 69.4492 255.24V257.25C69.7773 257.305 70.1875 257.332 70.502 257.332ZM110.889 237.262H108.523L105.625 249.047H105.406L102.111 237.262H99.8555L96.5605 249.047H96.3418L93.4434 237.262H91.0645L95.1934 252H97.5723L100.854 240.598H101.072L104.367 252H106.76L110.889 237.262ZM118.162 250.195C116.453 250.195 115.182 249.32 115.182 247.816C115.182 246.34 116.166 245.561 118.408 245.41L122.373 245.15V246.504C122.373 248.609 120.582 250.195 118.162 250.195ZM117.725 252.26C119.693 252.26 121.307 251.398 122.264 249.826H122.482V252H124.725V241.91C124.725 238.848 122.715 237.002 119.119 237.002C115.975 237.002 113.65 238.561 113.336 240.926H115.715C116.043 239.764 117.273 239.094 119.037 239.094C121.238 239.094 122.373 240.092 122.373 241.91V243.25L118.121 243.51C114.689 243.715 112.748 245.232 112.748 247.871C112.748 250.564 114.867 252.26 117.725 252.26ZM129.072 252H131.424V243.277C131.424 240.693 132.941 239.121 135.293 239.121C137.645 239.121 138.766 240.379 138.766 243.031V252H141.117V242.457C141.117 238.957 139.271 237.002 135.963 237.002C133.707 237.002 132.271 237.959 131.533 239.586H131.314V237.262H129.072V252ZM146.408 233.447V237.262H144.029V239.23H146.408V248.172C146.408 250.988 147.625 252.109 150.66 252.109C151.125 252.109 151.576 252.055 152.041 251.973V249.99C151.604 250.031 151.371 250.045 150.947 250.045C149.416 250.045 148.76 249.307 148.76 247.57V239.23H152.041V237.262H148.76V233.447H146.408ZM168.037 250.195C166.328 250.195 165.057 249.32 165.057 247.816C165.057 246.34 166.041 245.561 168.283 245.41L172.248 245.15V246.504C172.248 248.609 170.457 250.195 168.037 250.195ZM167.6 252.26C169.568 252.26 171.182 251.398 172.139 249.826H172.357V252H174.6V241.91C174.6 238.848 172.59 237.002 168.994 237.002C165.85 237.002 163.525 238.561 163.211 240.926H165.59C165.918 239.764 167.148 239.094 168.912 239.094C171.113 239.094 172.248 240.092 172.248 241.91V243.25L167.996 243.51C164.564 243.715 162.623 245.232 162.623 247.871C162.623 250.564 164.742 252.26 167.6 252.26ZM192.906 252.26C197.104 252.26 199.701 249.361 199.701 244.631C199.701 239.887 197.104 237.002 192.906 237.002C188.709 237.002 186.111 239.887 186.111 244.631C186.111 249.361 188.709 252.26 192.906 252.26ZM192.906 250.141C190.117 250.141 188.545 248.117 188.545 244.631C188.545 241.131 190.117 239.121 192.906 239.121C195.695 239.121 197.268 241.131 197.268 244.631C197.268 248.117 195.695 250.141 192.906 250.141ZM203.393 252H205.744V243.277C205.744 240.693 207.262 239.121 209.613 239.121C211.965 239.121 213.086 240.379 213.086 243.031V252H215.438V242.457C215.438 238.957 213.592 237.002 210.283 237.002C208.027 237.002 206.592 237.959 205.854 239.586H205.635V237.262H203.393V252ZM225.623 239.08C227.961 239.08 229.52 240.803 229.574 243.414H221.453C221.631 240.803 223.271 239.08 225.623 239.08ZM229.506 248.186C228.891 249.484 227.605 250.182 225.705 250.182C223.203 250.182 221.576 248.336 221.453 245.424V245.314H232.049V244.412C232.049 239.832 229.629 237.002 225.65 237.002C221.604 237.002 219.006 240.01 219.006 244.645C219.006 249.307 221.562 252.26 225.65 252.26C228.877 252.26 231.146 250.715 231.857 248.186H229.506ZM243.301 241.295C243.301 243.428 244.559 244.617 247.32 245.287L249.85 245.902C251.422 246.285 252.188 246.969 252.188 247.98C252.188 249.334 250.766 250.277 248.783 250.277C246.896 250.277 245.721 249.484 245.324 248.24H242.904C243.164 250.688 245.42 252.26 248.701 252.26C252.051 252.26 254.607 250.441 254.607 247.803C254.607 245.684 253.268 244.48 250.492 243.811L248.223 243.264C246.486 242.84 245.666 242.211 245.666 241.199C245.666 239.887 247.033 238.998 248.783 238.998C250.561 238.998 251.709 239.777 252.023 240.953H254.348C254.033 238.533 251.887 237.002 248.797 237.002C245.666 237.002 243.301 238.848 243.301 241.295ZM259.146 233.447V237.262H256.768V239.23H259.146V248.172C259.146 250.988 260.363 252.109 263.398 252.109C263.863 252.109 264.314 252.055 264.779 251.973V249.99C264.342 250.031 264.109 250.045 263.686 250.045C262.154 250.045 261.498 249.307 261.498 247.57V239.23H264.779V237.262H261.498V233.447H259.146ZM274.172 252.26C278.369 252.26 280.967 249.361 280.967 244.631C280.967 239.887 278.369 237.002 274.172 237.002C269.975 237.002 267.377 239.887 267.377 244.631C267.377 249.361 269.975 252.26 274.172 252.26ZM274.172 250.141C271.383 250.141 269.811 248.117 269.811 244.631C269.811 241.131 271.383 239.121 274.172 239.121C276.961 239.121 278.533 241.131 278.533 244.631C278.533 248.117 276.961 250.141 274.172 250.141ZM291.836 237.002C289.826 237.002 288.062 238.027 287.119 239.723H286.9V237.262H284.658V256.922H287.01V249.785H287.229C288.035 251.344 289.73 252.26 291.836 252.26C295.582 252.26 298.029 249.238 298.029 244.631C298.029 239.996 295.596 237.002 291.836 237.002ZM291.275 250.141C288.623 250.141 286.941 248.008 286.941 244.631C286.941 241.24 288.623 239.121 291.289 239.121C293.982 239.121 295.596 241.186 295.596 244.631C295.596 248.076 293.982 250.141 291.275 250.141ZM314.162 250.195C312.453 250.195 311.182 249.32 311.182 247.816C311.182 246.34 312.166 245.561 314.408 245.41L318.373 245.15V246.504C318.373 248.609 316.582 250.195 314.162 250.195ZM313.725 252.26C315.693 252.26 317.307 251.398 318.264 249.826H318.482V252H320.725V241.91C320.725 238.848 318.715 237.002 315.119 237.002C311.975 237.002 309.65 238.561 309.336 240.926H311.715C312.043 239.764 313.273 239.094 315.037 239.094C317.238 239.094 318.373 240.092 318.373 241.91V243.25L314.121 243.51C310.689 243.715 308.748 245.232 308.748 247.871C308.748 250.564 310.867 252.26 313.725 252.26ZM332.25 237.002C330.24 237.002 328.477 238.027 327.533 239.723H327.314V237.262H325.072V256.922H327.424V249.785H327.643C328.449 251.344 330.145 252.26 332.25 252.26C335.996 252.26 338.443 249.238 338.443 244.631C338.443 239.996 336.01 237.002 332.25 237.002ZM331.689 250.141C329.037 250.141 327.355 248.008 327.355 244.631C327.355 241.24 329.037 239.121 331.703 239.121C334.396 239.121 336.01 241.186 336.01 244.631C336.01 248.076 334.396 250.141 331.689 250.141ZM349.312 237.002C347.303 237.002 345.539 238.027 344.596 239.723H344.377V237.262H342.135V256.922H344.486V249.785H344.705C345.512 251.344 347.207 252.26 349.312 252.26C353.059 252.26 355.506 249.238 355.506 244.631C355.506 239.996 353.072 237.002 349.312 237.002ZM348.752 250.141C346.1 250.141 344.418 248.008 344.418 244.631C344.418 241.24 346.1 239.121 348.766 239.121C351.459 239.121 353.072 241.186 353.072 244.631C353.072 248.076 351.459 250.141 348.752 250.141ZM385.639 237.262H383.273L380.375 249.047H380.156L376.861 237.262H374.605L371.311 249.047H371.092L368.193 237.262H365.814L369.943 252H372.322L375.604 240.598H375.822L379.117 252H381.51L385.639 237.262ZM388.92 252H391.271V243.277C391.271 240.789 392.721 239.121 395.359 239.121C397.588 239.121 398.764 240.42 398.764 243.031V252H401.115V242.457C401.115 238.998 399.146 237.002 396.029 237.002C393.773 237.002 392.229 237.959 391.49 239.586H391.271V231.41H388.92V252ZM411.287 239.08C413.625 239.08 415.184 240.803 415.238 243.414H407.117C407.295 240.803 408.936 239.08 411.287 239.08ZM415.17 248.186C414.555 249.484 413.27 250.182 411.369 250.182C408.867 250.182 407.24 248.336 407.117 245.424V245.314H417.713V244.412C417.713 239.832 415.293 237.002 411.314 237.002C407.268 237.002 404.67 240.01 404.67 244.645C404.67 249.307 407.227 252.26 411.314 252.26C414.541 252.26 416.811 250.715 417.521 248.186H415.17ZM421.404 252H423.756V242.867C423.756 240.789 425.383 239.285 427.625 239.285C428.09 239.285 428.938 239.367 429.129 239.422V237.07C428.828 237.029 428.336 237.002 427.953 237.002C425.998 237.002 424.303 238.014 423.865 239.449H423.646V237.262H421.404V252ZM437.537 239.08C439.875 239.08 441.434 240.803 441.488 243.414H433.367C433.545 240.803 435.186 239.08 437.537 239.08ZM441.42 248.186C440.805 249.484 439.52 250.182 437.619 250.182C435.117 250.182 433.49 248.336 433.367 245.424V245.314H443.963V244.412C443.963 239.832 441.543 237.002 437.564 237.002C433.518 237.002 430.92 240.01 430.92 244.645C430.92 249.307 433.477 252.26 437.564 252.26C440.791 252.26 443.061 250.715 443.771 248.186H441.42ZM456.541 233.447V237.262H454.162V239.23H456.541V248.172C456.541 250.988 457.758 252.109 460.793 252.109C461.258 252.109 461.709 252.055 462.174 251.973V249.99C461.736 250.031 461.504 250.045 461.08 250.045C459.549 250.045 458.893 249.307 458.893 247.57V239.23H462.174V237.262H458.893V233.447H456.541ZM465.865 252H468.217V243.277C468.217 240.789 469.666 239.121 472.305 239.121C474.533 239.121 475.709 240.42 475.709 243.031V252H478.061V242.457C478.061 238.998 476.092 237.002 472.975 237.002C470.719 237.002 469.174 237.959 468.436 239.586H468.217V231.41H465.865V252ZM488.232 239.08C490.57 239.08 492.129 240.803 492.184 243.414H484.062C484.24 240.803 485.881 239.08 488.232 239.08ZM492.115 248.186C491.5 249.484 490.215 250.182 488.314 250.182C485.812 250.182 484.186 248.336 484.062 245.424V245.314H494.658V244.412C494.658 239.832 492.238 237.002 488.26 237.002C484.213 237.002 481.615 240.01 481.615 244.645C481.615 249.307 484.172 252.26 488.26 252.26C491.486 252.26 493.756 250.715 494.467 248.186H492.115ZM499.334 257.332C501.945 257.332 503.121 256.32 504.379 252.902L510.135 237.262H507.633L503.6 249.389H503.381L499.334 237.262H496.791L502.246 252.014L501.973 252.889C501.357 254.666 500.619 255.309 499.266 255.309C498.938 255.309 498.568 255.295 498.281 255.24V257.25C498.609 257.305 499.02 257.332 499.334 257.332ZM32.9043 274.773C32.4941 272.148 30.3066 270.002 26.7246 270.002C22.5957 270.002 19.9707 272.982 19.9707 277.576C19.9707 282.266 22.6094 285.26 26.7383 285.26C30.2793 285.26 32.4805 283.264 32.9043 280.557H30.5254C30.0879 282.225 28.707 283.141 26.7246 283.141C24.0996 283.141 22.4043 280.98 22.4043 277.576C22.4043 274.24 24.0723 272.121 26.7246 272.121C28.8438 272.121 30.1426 273.311 30.5254 274.773H32.9043ZM40.916 283.195C39.207 283.195 37.9355 282.32 37.9355 280.816C37.9355 279.34 38.9199 278.561 41.1621 278.41L45.127 278.15V279.504C45.127 281.609 43.3359 283.195 40.916 283.195ZM40.4785 285.26C42.4473 285.26 44.0605 284.398 45.0176 282.826H45.2363V285H47.4785V274.91C47.4785 271.848 45.4688 270.002 41.873 270.002C38.7285 270.002 36.4043 271.561 36.0898 273.926H38.4688C38.7969 272.764 40.0273 272.094 41.791 272.094C43.9922 272.094 45.127 273.092 45.127 274.91V276.25L40.875 276.51C37.4434 276.715 35.502 278.232 35.502 280.871C35.502 283.564 37.6211 285.26 40.4785 285.26ZM51.8262 285H54.1777V276.277C54.1777 273.693 55.6953 272.121 58.0469 272.121C60.3984 272.121 61.5195 273.379 61.5195 276.031V285H63.8711V275.457C63.8711 271.957 62.0254 270.002 58.7168 270.002C56.4609 270.002 55.0254 270.959 54.2871 272.586H54.0684V270.262H51.8262V285ZM77.0645 285H79.416V272.23H82.793V270.262H79.416V268.689C79.416 267.076 80.127 266.256 81.8223 266.256C82.2461 266.256 82.6426 266.27 82.9297 266.324V264.41C82.4375 264.314 81.918 264.273 81.3438 264.273C78.541 264.273 77.0645 265.682 77.0645 268.621V270.262H74.6172V272.23H77.0645V285ZM86.2793 285H88.6309V270.262H86.2793V285ZM87.4551 267.268C88.3574 267.268 89.0957 266.529 89.0957 265.627C89.0957 264.725 88.3574 263.986 87.4551 263.986C86.5527 263.986 85.8145 264.725 85.8145 265.627C85.8145 266.529 86.5527 267.268 87.4551 267.268ZM93.1152 285H95.4668V276.277C95.4668 273.693 96.9844 272.121 99.3359 272.121C101.688 272.121 102.809 273.379 102.809 276.031V285H105.16V275.457C105.16 271.957 103.314 270.002 100.006 270.002C97.75 270.002 96.3145 270.959 95.5762 272.586H95.3574V270.262H93.1152V285ZM114.922 285.26C116.959 285.26 118.709 284.289 119.639 282.648H119.857V285H122.1V264.41H119.748V272.586H119.543C118.709 270.973 116.973 270.002 114.922 270.002C111.176 270.002 108.729 273.01 108.729 277.631C108.729 282.266 111.148 285.26 114.922 285.26ZM115.469 272.121C118.135 272.121 119.803 274.254 119.803 277.631C119.803 281.035 118.148 283.141 115.469 283.141C112.775 283.141 111.162 281.076 111.162 277.631C111.162 274.199 112.789 272.121 115.469 272.121ZM139.107 283.195C137.398 283.195 136.127 282.32 136.127 280.816C136.127 279.34 137.111 278.561 139.354 278.41L143.318 278.15V279.504C143.318 281.609 141.527 283.195 139.107 283.195ZM138.67 285.26C140.639 285.26 142.252 284.398 143.209 282.826H143.428V285H145.67V274.91C145.67 271.848 143.66 270.002 140.064 270.002C136.92 270.002 134.596 271.561 134.281 273.926H136.66C136.988 272.764 138.219 272.094 139.982 272.094C142.184 272.094 143.318 273.092 143.318 274.91V276.25L139.066 276.51C135.635 276.715 133.693 278.232 133.693 280.871C133.693 283.564 135.812 285.26 138.67 285.26ZM157.92 285H160.271V275.867C160.271 273.789 161.898 272.285 164.141 272.285C164.605 272.285 165.453 272.367 165.645 272.422V270.07C165.344 270.029 164.852 270.002 164.469 270.002C162.514 270.002 160.818 271.014 160.381 272.449H160.162V270.262H157.92V285ZM173.123 283.195C171.414 283.195 170.143 282.32 170.143 280.816C170.143 279.34 171.127 278.561 173.369 278.41L177.334 278.15V279.504C177.334 281.609 175.543 283.195 173.123 283.195ZM172.686 285.26C174.654 285.26 176.268 284.398 177.225 282.826H177.443V285H179.686V274.91C179.686 271.848 177.676 270.002 174.08 270.002C170.936 270.002 168.611 271.561 168.297 273.926H170.676C171.004 272.764 172.234 272.094 173.998 272.094C176.199 272.094 177.334 273.092 177.334 274.91V276.25L173.082 276.51C169.65 276.715 167.709 278.232 167.709 280.871C167.709 283.564 169.828 285.26 172.686 285.26ZM184.033 285H186.385V276.277C186.385 273.693 187.902 272.121 190.254 272.121C192.605 272.121 193.727 273.379 193.727 276.031V285H196.078V275.457C196.078 271.957 194.232 270.002 190.924 270.002C188.668 270.002 187.232 270.959 186.494 272.586H186.275V270.262H184.033V285ZM206.346 282.703C203.611 282.703 202.08 280.625 202.08 277.412C202.08 274.199 203.611 272.121 206.346 272.121C209.066 272.121 210.721 274.199 210.721 277.412C210.721 280.625 209.08 282.703 206.346 282.703ZM206.455 290.66C210.475 290.66 213.018 288.555 213.018 285.26V270.262H210.775V272.6H210.557C209.709 271.014 207.891 270.002 205.826 270.002C202.039 270.002 199.646 272.996 199.646 277.412C199.646 281.828 202.012 284.781 205.826 284.781C207.85 284.781 209.518 283.865 210.447 282.238H210.666V285.137C210.666 287.311 209.094 288.609 206.455 288.609C204.336 288.609 203.023 287.83 202.764 286.627H200.275C200.631 289.061 202.9 290.66 206.455 290.66ZM223.326 272.08C225.664 272.08 227.223 273.803 227.277 276.414H219.156C219.334 273.803 220.975 272.08 223.326 272.08ZM227.209 281.186C226.594 282.484 225.309 283.182 223.408 283.182C220.906 283.182 219.279 281.336 219.156 278.424V278.314H229.752V277.412C229.752 272.832 227.332 270.002 223.354 270.002C219.307 270.002 216.709 273.01 216.709 277.645C216.709 282.307 219.266 285.26 223.354 285.26C226.58 285.26 228.85 283.715 229.561 281.186H227.209ZM247.402 285.26C251.6 285.26 254.197 282.361 254.197 277.631C254.197 272.887 251.6 270.002 247.402 270.002C243.205 270.002 240.607 272.887 240.607 277.631C240.607 282.361 243.205 285.26 247.402 285.26ZM247.402 283.141C244.613 283.141 243.041 281.117 243.041 277.631C243.041 274.131 244.613 272.121 247.402 272.121C250.191 272.121 251.764 274.131 251.764 277.631C251.764 281.117 250.191 283.141 247.402 283.141ZM258.873 285H261.225V272.23H264.602V270.262H261.225V268.689C261.225 267.076 261.936 266.256 263.631 266.256C264.055 266.256 264.451 266.27 264.738 266.324V264.41C264.246 264.314 263.727 264.273 263.152 264.273C260.35 264.273 258.873 265.682 258.873 268.621V270.262H256.426V272.23H258.873V285ZM276.072 285H278.424V276.277C278.424 273.789 279.873 272.121 282.512 272.121C284.74 272.121 285.916 273.42 285.916 276.031V285H288.268V275.457C288.268 271.998 286.299 270.002 283.182 270.002C280.926 270.002 279.381 270.959 278.643 272.586H278.424V264.41H276.072V285ZM298.439 272.08C300.777 272.08 302.336 273.803 302.391 276.414H294.27C294.447 273.803 296.088 272.08 298.439 272.08ZM302.322 281.186C301.707 282.484 300.422 283.182 298.521 283.182C296.02 283.182 294.393 281.336 294.27 278.424V278.314H304.865V277.412C304.865 272.832 302.445 270.002 298.467 270.002C294.42 270.002 291.822 273.01 291.822 277.645C291.822 282.307 294.379 285.26 298.467 285.26C301.693 285.26 303.963 283.715 304.674 281.186H302.322ZM313.096 283.195C311.387 283.195 310.115 282.32 310.115 280.816C310.115 279.34 311.1 278.561 313.342 278.41L317.307 278.15V279.504C317.307 281.609 315.516 283.195 313.096 283.195ZM312.658 285.26C314.627 285.26 316.24 284.398 317.197 282.826H317.416V285H319.658V274.91C319.658 271.848 317.648 270.002 314.053 270.002C310.908 270.002 308.584 271.561 308.27 273.926H310.648C310.977 272.764 312.207 272.094 313.971 272.094C316.172 272.094 317.307 273.092 317.307 274.91V276.25L313.055 276.51C309.623 276.715 307.682 278.232 307.682 280.871C307.682 283.564 309.801 285.26 312.658 285.26ZM324.143 285H326.494V264.41H324.143V285ZM332.045 266.447V270.262H329.666V272.23H332.045V281.172C332.045 283.988 333.262 285.109 336.297 285.109C336.762 285.109 337.213 285.055 337.678 284.973V282.99C337.24 283.031 337.008 283.045 336.584 283.045C335.053 283.045 334.396 282.307 334.396 280.57V272.23H337.678V270.262H334.396V266.447H332.045ZM341.369 285H343.721V276.277C343.721 273.789 345.17 272.121 347.809 272.121C350.037 272.121 351.213 273.42 351.213 276.031V285H353.564V275.457C353.564 271.998 351.596 270.002 348.479 270.002C346.223 270.002 344.678 270.959 343.939 272.586H343.721V264.41H341.369V285ZM358.568 290.332C361.18 290.332 362.355 289.32 363.613 285.902L369.369 270.262H366.867L362.834 282.389H362.615L358.568 270.262H356.025L361.48 285.014L361.207 285.889C360.592 287.666 359.854 288.309 358.5 288.309C358.172 288.309 357.803 288.295 357.516 288.24V290.25C357.844 290.305 358.254 290.332 358.568 290.332ZM371.953 290.018L374.1 282.238H371.488L370.189 290.018H371.953ZM386.678 285H389.029V276.277C389.029 273.693 390.547 272.121 392.898 272.121C395.25 272.121 396.371 273.379 396.371 276.031V285H398.723V275.457C398.723 271.957 396.877 270.002 393.568 270.002C391.312 270.002 389.877 270.959 389.139 272.586H388.92V270.262H386.678V285ZM414.951 270.262H412.6V278.984C412.6 281.568 411.178 283.113 408.58 283.113C406.229 283.113 405.244 281.883 405.244 279.23V270.262H402.893V279.805C402.893 283.291 404.615 285.26 407.924 285.26C410.18 285.26 411.752 284.33 412.49 282.689H412.709V285H414.951V270.262ZM420.365 266.447V270.262H417.986V272.23H420.365V281.172C420.365 283.988 421.582 285.109 424.617 285.109C425.082 285.109 425.533 285.055 425.998 284.973V282.99C425.561 283.031 425.328 283.045 424.904 283.045C423.373 283.045 422.717 282.307 422.717 280.57V272.23H425.998V270.262H422.717V266.447H420.365ZM429.553 285H431.904V275.867C431.904 273.789 433.531 272.285 435.773 272.285C436.238 272.285 437.086 272.367 437.277 272.422V270.07C436.977 270.029 436.484 270.002 436.102 270.002C434.146 270.002 432.451 271.014 432.014 272.449H431.795V270.262H429.553V285ZM440.271 285H442.623V270.262H440.271V285ZM441.447 267.268C442.35 267.268 443.088 266.529 443.088 265.627C443.088 264.725 442.35 263.986 441.447 263.986C440.545 263.986 439.807 264.725 439.807 265.627C439.807 266.529 440.545 267.268 441.447 267.268ZM448.092 266.447V270.262H445.713V272.23H448.092V281.172C448.092 283.988 449.309 285.109 452.344 285.109C452.809 285.109 453.26 285.055 453.725 284.973V282.99C453.287 283.031 453.055 283.045 452.631 283.045C451.1 283.045 450.443 282.307 450.443 280.57V272.23H453.725V270.262H450.443V266.447H448.092ZM457.334 285H459.686V270.262H457.334V285ZM458.51 267.268C459.412 267.268 460.15 266.529 460.15 265.627C460.15 264.725 459.412 263.986 458.51 263.986C457.607 263.986 456.869 264.725 456.869 265.627C456.869 266.529 457.607 267.268 458.51 267.268ZM470.227 285.26C474.424 285.26 477.021 282.361 477.021 277.631C477.021 272.887 474.424 270.002 470.227 270.002C466.029 270.002 463.432 272.887 463.432 277.631C463.432 282.361 466.029 285.26 470.227 285.26ZM470.227 283.141C467.438 283.141 465.865 281.117 465.865 277.631C465.865 274.131 467.438 272.121 470.227 272.121C473.016 272.121 474.588 274.131 474.588 277.631C474.588 281.117 473.016 283.141 470.227 283.141ZM492.635 270.262H490.283V278.984C490.283 281.568 488.861 283.113 486.264 283.113C483.912 283.113 482.928 281.883 482.928 279.23V270.262H480.576V279.805C480.576 283.291 482.299 285.26 485.607 285.26C487.863 285.26 489.436 284.33 490.174 282.689H490.393V285H492.635V270.262ZM496.723 274.295C496.723 276.428 497.98 277.617 500.742 278.287L503.271 278.902C504.844 279.285 505.609 279.969 505.609 280.98C505.609 282.334 504.188 283.277 502.205 283.277C500.318 283.277 499.143 282.484 498.746 281.24H496.326C496.586 283.688 498.842 285.26 502.123 285.26C505.473 285.26 508.029 283.441 508.029 280.803C508.029 278.684 506.689 277.48 503.914 276.811L501.645 276.264C499.908 275.84 499.088 275.211 499.088 274.199C499.088 272.887 500.455 271.998 502.205 271.998C503.982 271.998 505.131 272.777 505.445 273.953H507.77C507.455 271.533 505.309 270.002 502.219 270.002C499.088 270.002 496.723 271.848 496.723 274.295ZM12.3008 318H14.6523V308.867C14.6523 306.789 16.1426 305.121 18.0703 305.121C19.9297 305.121 21.1465 306.242 21.1465 307.992V318H23.498V308.525C23.498 306.652 24.8652 305.121 26.916 305.121C28.9941 305.121 30.0195 306.188 30.0195 308.361V318H32.3711V307.814C32.3711 304.725 30.6895 303.002 27.6816 303.002C25.6445 303.002 23.9629 304.027 23.1699 305.586H22.9512C22.2676 304.055 20.873 303.002 18.877 303.002C16.9082 303.002 15.4316 303.945 14.7617 305.586H14.543V303.262H12.3008V318ZM42.543 305.08C44.8809 305.08 46.4395 306.803 46.4941 309.414H38.373C38.5508 306.803 40.1914 305.08 42.543 305.08ZM46.4258 314.186C45.8105 315.484 44.5254 316.182 42.625 316.182C40.123 316.182 38.4961 314.336 38.373 311.424V311.314H48.9688V310.412C48.9688 305.832 46.5488 303.002 42.5703 303.002C38.5234 303.002 35.9258 306.01 35.9258 310.645C35.9258 315.307 38.4824 318.26 42.5703 318.26C45.7969 318.26 48.0664 316.715 48.7773 314.186H46.4258ZM57.1992 316.195C55.4902 316.195 54.2188 315.32 54.2188 313.816C54.2188 312.34 55.2031 311.561 57.4453 311.41L61.4102 311.15V312.504C61.4102 314.609 59.6191 316.195 57.1992 316.195ZM56.7617 318.26C58.7305 318.26 60.3438 317.398 61.3008 315.826H61.5195V318H63.7617V307.91C63.7617 304.848 61.752 303.002 58.1562 303.002C55.0117 303.002 52.6875 304.561 52.373 306.926H54.752C55.0801 305.764 56.3105 305.094 58.0742 305.094C60.2754 305.094 61.4102 306.092 61.4102 307.91V309.25L57.1582 309.51C53.7266 309.715 51.7852 311.232 51.7852 313.871C51.7852 316.564 53.9043 318.26 56.7617 318.26ZM68.2461 318H70.5977V297.41H68.2461V318ZM74.8223 307.295C74.8223 309.428 76.0801 310.617 78.8418 311.287L81.3711 311.902C82.9434 312.285 83.709 312.969 83.709 313.98C83.709 315.334 82.2871 316.277 80.3047 316.277C78.418 316.277 77.2422 315.484 76.8457 314.24H74.4258C74.6855 316.688 76.9414 318.26 80.2227 318.26C83.5723 318.26 86.1289 316.441 86.1289 313.803C86.1289 311.684 84.7891 310.48 82.0137 309.811L79.7441 309.264C78.0078 308.84 77.1875 308.211 77.1875 307.199C77.1875 305.887 78.5547 304.998 80.3047 304.998C82.082 304.998 83.2305 305.777 83.5449 306.953H85.8691C85.5547 304.533 83.4082 303.002 80.3184 303.002C77.1875 303.002 74.8223 304.848 74.8223 307.295ZM102.262 316.195C100.553 316.195 99.2812 315.32 99.2812 313.816C99.2812 312.34 100.266 311.561 102.508 311.41L106.473 311.15V312.504C106.473 314.609 104.682 316.195 102.262 316.195ZM101.824 318.26C103.793 318.26 105.406 317.398 106.363 315.826H106.582V318H108.824V307.91C108.824 304.848 106.814 303.002 103.219 303.002C100.074 303.002 97.75 304.561 97.4355 306.926H99.8145C100.143 305.764 101.373 305.094 103.137 305.094C105.338 305.094 106.473 306.092 106.473 307.91V309.25L102.221 309.51C98.7891 309.715 96.8477 311.232 96.8477 313.871C96.8477 316.564 98.9668 318.26 101.824 318.26ZM112.83 307.295C112.83 309.428 114.088 310.617 116.85 311.287L119.379 311.902C120.951 312.285 121.717 312.969 121.717 313.98C121.717 315.334 120.295 316.277 118.312 316.277C116.426 316.277 115.25 315.484 114.854 314.24H112.434C112.693 316.688 114.949 318.26 118.23 318.26C121.58 318.26 124.137 316.441 124.137 313.803C124.137 311.684 122.797 310.48 120.021 309.811L117.752 309.264C116.016 308.84 115.195 308.211 115.195 307.199C115.195 305.887 116.562 304.998 118.312 304.998C120.09 304.998 121.238 305.777 121.553 306.953H123.877C123.562 304.533 121.416 303.002 118.326 303.002C115.195 303.002 112.83 304.848 112.83 307.295ZM154.27 303.262H151.904L149.006 315.047H148.787L145.492 303.262H143.236L139.941 315.047H139.723L136.824 303.262H134.445L138.574 318H140.953L144.234 306.598H144.453L147.748 318H150.141L154.27 303.262ZM162.746 305.08C165.084 305.08 166.643 306.803 166.697 309.414H158.576C158.754 306.803 160.395 305.08 162.746 305.08ZM166.629 314.186C166.014 315.484 164.729 316.182 162.828 316.182C160.326 316.182 158.699 314.336 158.576 311.424V311.314H169.172V310.412C169.172 305.832 166.752 303.002 162.773 303.002C158.727 303.002 156.129 306.01 156.129 310.645C156.129 315.307 158.686 318.26 162.773 318.26C166 318.26 168.27 316.715 168.98 314.186H166.629ZM173 318H175.352V297.41H173V318ZM180.055 318H182.406V297.41H180.055V318ZM199.414 316.195C197.705 316.195 196.434 315.32 196.434 313.816C196.434 312.34 197.418 311.561 199.66 311.41L203.625 311.15V312.504C203.625 314.609 201.834 316.195 199.414 316.195ZM198.977 318.26C200.945 318.26 202.559 317.398 203.516 315.826H203.734V318H205.977V307.91C205.977 304.848 203.967 303.002 200.371 303.002C197.227 303.002 194.902 304.561 194.588 306.926H196.967C197.295 305.764 198.525 305.094 200.289 305.094C202.49 305.094 203.625 306.092 203.625 307.91V309.25L199.373 309.51C195.941 309.715 194 311.232 194 313.871C194 316.564 196.119 318.26 198.977 318.26ZM209.982 307.295C209.982 309.428 211.24 310.617 214.002 311.287L216.531 311.902C218.104 312.285 218.869 312.969 218.869 313.98C218.869 315.334 217.447 316.277 215.465 316.277C213.578 316.277 212.402 315.484 212.006 314.24H209.586C209.846 316.688 212.102 318.26 215.383 318.26C218.732 318.26 221.289 316.441 221.289 313.803C221.289 311.684 219.949 310.48 217.174 309.811L214.904 309.264C213.168 308.84 212.348 308.211 212.348 307.199C212.348 305.887 213.715 304.998 215.465 304.998C217.242 304.998 218.391 305.777 218.705 306.953H221.029C220.715 304.533 218.568 303.002 215.479 303.002C212.348 303.002 209.982 304.848 209.982 307.295ZM226.471 323.018L228.617 315.238H226.006L224.707 323.018H226.471ZM241.195 318H243.547V308.867C243.547 306.789 245.174 305.285 247.416 305.285C247.881 305.285 248.729 305.367 248.92 305.422V303.07C248.619 303.029 248.127 303.002 247.744 303.002C245.789 303.002 244.094 304.014 243.656 305.449H243.438V303.262H241.195V318ZM257.328 305.08C259.666 305.08 261.225 306.803 261.279 309.414H253.158C253.336 306.803 254.977 305.08 257.328 305.08ZM261.211 314.186C260.596 315.484 259.311 316.182 257.41 316.182C254.908 316.182 253.281 314.336 253.158 311.424V311.314H263.754V310.412C263.754 305.832 261.334 303.002 257.355 303.002C253.309 303.002 250.711 306.01 250.711 310.645C250.711 315.307 253.268 318.26 257.355 318.26C260.582 318.26 262.852 316.715 263.562 314.186H261.211ZM279.641 307.773C279.23 305.148 277.043 303.002 273.461 303.002C269.332 303.002 266.707 305.982 266.707 310.576C266.707 315.266 269.346 318.26 273.475 318.26C277.016 318.26 279.217 316.264 279.641 313.557H277.262C276.824 315.225 275.443 316.141 273.461 316.141C270.836 316.141 269.141 313.98 269.141 310.576C269.141 307.24 270.809 305.121 273.461 305.121C275.58 305.121 276.879 306.311 277.262 307.773H279.641ZM283.168 318H285.52V303.262H283.168V318ZM284.344 300.268C285.246 300.268 285.984 299.529 285.984 298.627C285.984 297.725 285.246 296.986 284.344 296.986C283.441 296.986 282.703 297.725 282.703 298.627C282.703 299.529 283.441 300.268 284.344 300.268ZM297.182 303.002C295.172 303.002 293.408 304.027 292.465 305.723H292.246V303.262H290.004V322.922H292.355V315.785H292.574C293.381 317.344 295.076 318.26 297.182 318.26C300.928 318.26 303.375 315.238 303.375 310.631C303.375 305.996 300.941 303.002 297.182 303.002ZM296.621 316.141C293.969 316.141 292.287 314.008 292.287 310.631C292.287 307.24 293.969 305.121 296.635 305.121C299.328 305.121 300.941 307.186 300.941 310.631C300.941 314.076 299.328 316.141 296.621 316.141ZM312.945 305.08C315.283 305.08 316.842 306.803 316.896 309.414H308.775C308.953 306.803 310.594 305.08 312.945 305.08ZM316.828 314.186C316.213 315.484 314.928 316.182 313.027 316.182C310.525 316.182 308.898 314.336 308.775 311.424V311.314H319.371V310.412C319.371 305.832 316.951 303.002 312.973 303.002C308.926 303.002 306.328 306.01 306.328 310.645C306.328 315.307 308.885 318.26 312.973 318.26C316.199 318.26 318.469 316.715 319.18 314.186H316.828ZM322.721 307.295C322.721 309.428 323.979 310.617 326.74 311.287L329.27 311.902C330.842 312.285 331.607 312.969 331.607 313.98C331.607 315.334 330.186 316.277 328.203 316.277C326.316 316.277 325.141 315.484 324.744 314.24H322.324C322.584 316.688 324.84 318.26 328.121 318.26C331.471 318.26 334.027 316.441 334.027 313.803C334.027 311.684 332.688 310.48 329.912 309.811L327.643 309.264C325.906 308.84 325.086 308.211 325.086 307.199C325.086 305.887 326.453 304.998 328.203 304.998C329.98 304.998 331.129 305.777 331.443 306.953H333.768C333.453 304.533 331.307 303.002 328.217 303.002C325.086 303.002 322.721 304.848 322.721 307.295ZM345.676 318H348.027V303.262H345.676V318ZM346.852 300.268C347.754 300.268 348.492 299.529 348.492 298.627C348.492 297.725 347.754 296.986 346.852 296.986C345.949 296.986 345.211 297.725 345.211 298.627C345.211 299.529 345.949 300.268 346.852 300.268ZM352.512 318H354.863V309.277C354.863 306.693 356.381 305.121 358.732 305.121C361.084 305.121 362.205 306.379 362.205 309.031V318H364.557V308.457C364.557 304.957 362.711 303.002 359.402 303.002C357.146 303.002 355.711 303.959 354.973 305.586H354.754V303.262H352.512V318ZM368.521 307.295C368.521 309.428 369.779 310.617 372.541 311.287L375.07 311.902C376.643 312.285 377.408 312.969 377.408 313.98C377.408 315.334 375.986 316.277 374.004 316.277C372.117 316.277 370.941 315.484 370.545 314.24H368.125C368.385 316.688 370.641 318.26 373.922 318.26C377.271 318.26 379.828 316.441 379.828 313.803C379.828 311.684 378.488 310.48 375.713 309.811L373.443 309.264C371.707 308.84 370.887 308.211 370.887 307.199C370.887 305.887 372.254 304.998 374.004 304.998C375.781 304.998 376.93 305.777 377.244 306.953H379.568C379.254 304.533 377.107 303.002 374.018 303.002C370.887 303.002 368.521 304.848 368.521 307.295ZM390.697 303.002C388.688 303.002 386.924 304.027 385.98 305.723H385.762V303.262H383.52V322.922H385.871V315.785H386.09C386.896 317.344 388.592 318.26 390.697 318.26C394.443 318.26 396.891 315.238 396.891 310.631C396.891 305.996 394.457 303.002 390.697 303.002ZM390.137 316.141C387.484 316.141 385.803 314.008 385.803 310.631C385.803 307.24 387.484 305.121 390.15 305.121C392.844 305.121 394.457 307.186 394.457 310.631C394.457 314.076 392.844 316.141 390.137 316.141ZM400.637 318H402.988V303.262H400.637V318ZM401.812 300.268C402.715 300.268 403.453 299.529 403.453 298.627C403.453 297.725 402.715 296.986 401.812 296.986C400.91 296.986 400.172 297.725 400.172 298.627C400.172 299.529 400.91 300.268 401.812 300.268ZM407.473 318H409.824V308.867C409.824 306.789 411.451 305.285 413.693 305.285C414.158 305.285 415.006 305.367 415.197 305.422V303.07C414.896 303.029 414.404 303.002 414.021 303.002C412.066 303.002 410.371 304.014 409.934 305.449H409.715V303.262H407.473V318ZM423.605 305.08C425.943 305.08 427.502 306.803 427.557 309.414H419.436C419.613 306.803 421.254 305.08 423.605 305.08ZM427.488 314.186C426.873 315.484 425.588 316.182 423.688 316.182C421.186 316.182 419.559 314.336 419.436 311.424V311.314H430.031V310.412C430.031 305.832 427.611 303.002 423.633 303.002C419.586 303.002 416.988 306.01 416.988 310.645C416.988 315.307 419.545 318.26 423.633 318.26C426.859 318.26 429.129 316.715 429.84 314.186H427.488ZM439.178 318.26C441.215 318.26 442.965 317.289 443.895 315.648H444.113V318H446.355V297.41H444.004V305.586H443.799C442.965 303.973 441.229 303.002 439.178 303.002C435.432 303.002 432.984 306.01 432.984 310.631C432.984 315.266 435.404 318.26 439.178 318.26ZM439.725 305.121C442.391 305.121 444.059 307.254 444.059 310.631C444.059 314.035 442.404 316.141 439.725 316.141C437.031 316.141 435.418 314.076 435.418 310.631C435.418 307.199 437.045 305.121 439.725 305.121ZM459.809 318H462.16V305.23H465.537V303.262H462.16V301.689C462.16 300.076 462.871 299.256 464.566 299.256C464.99 299.256 465.387 299.27 465.674 299.324V297.41C465.182 297.314 464.662 297.273 464.088 297.273C461.285 297.273 459.809 298.682 459.809 301.621V303.262H457.361V305.23H459.809V318ZM468.969 318H471.32V308.867C471.32 306.789 472.947 305.285 475.189 305.285C475.654 305.285 476.502 305.367 476.693 305.422V303.07C476.393 303.029 475.9 303.002 475.518 303.002C473.562 303.002 471.867 304.014 471.43 305.449H471.211V303.262H468.969V318ZM485.279 318.26C489.477 318.26 492.074 315.361 492.074 310.631C492.074 305.887 489.477 303.002 485.279 303.002C481.082 303.002 478.484 305.887 478.484 310.631C478.484 315.361 481.082 318.26 485.279 318.26ZM485.279 316.141C482.49 316.141 480.918 314.117 480.918 310.631C480.918 307.131 482.49 305.121 485.279 305.121C488.068 305.121 489.641 307.131 489.641 310.631C489.641 314.117 488.068 316.141 485.279 316.141ZM495.766 318H498.117V308.867C498.117 306.789 499.607 305.121 501.535 305.121C503.395 305.121 504.611 306.242 504.611 307.992V318H506.963V308.525C506.963 306.652 508.33 305.121 510.381 305.121C512.459 305.121 513.484 306.188 513.484 308.361V318H515.836V307.814C515.836 304.725 514.154 303.002 511.146 303.002C509.109 303.002 507.428 304.027 506.635 305.586H506.416C505.732 304.055 504.338 303.002 502.342 303.002C500.373 303.002 498.896 303.945 498.227 305.586H498.008V303.262H495.766V318ZM50.4727 351.26C52.5098 351.26 54.2598 350.289 55.1895 348.648H55.4082V351H57.6504V330.41H55.2988V338.586H55.0938C54.2598 336.973 52.5234 336.002 50.4727 336.002C46.7266 336.002 44.2793 339.01 44.2793 343.631C44.2793 348.266 46.6992 351.26 50.4727 351.26ZM51.0195 338.121C53.6855 338.121 55.3535 340.254 55.3535 343.631C55.3535 347.035 53.6992 349.141 51.0195 349.141C48.3262 349.141 46.7129 347.076 46.7129 343.631C46.7129 340.199 48.3398 338.121 51.0195 338.121ZM62.2715 351H64.623V336.262H62.2715V351ZM63.4473 333.268C64.3496 333.268 65.0879 332.529 65.0879 331.627C65.0879 330.725 64.3496 329.986 63.4473 329.986C62.5449 329.986 61.8066 330.725 61.8066 331.627C61.8066 332.529 62.5449 333.268 63.4473 333.268ZM70.0918 351H72.4434V338.23H75.8203V336.262H72.4434V334.689C72.4434 333.076 73.1543 332.256 74.8496 332.256C75.2734 332.256 75.6699 332.27 75.957 332.324V330.41C75.4648 330.314 74.9453 330.273 74.3711 330.273C71.5684 330.273 70.0918 331.682 70.0918 334.621V336.262H67.6445V338.23H70.0918V351ZM80.2363 351H82.5879V338.23H85.9648V336.262H82.5879V334.689C82.5879 333.076 83.2988 332.256 84.9941 332.256C85.418 332.256 85.8145 332.27 86.1016 332.324V330.41C85.6094 330.314 85.0898 330.273 84.5156 330.273C81.7129 330.273 80.2363 331.682 80.2363 334.621V336.262H77.7891V338.23H80.2363V351ZM94.6465 338.08C96.9844 338.08 98.543 339.803 98.5977 342.414H90.4766C90.6543 339.803 92.2949 338.08 94.6465 338.08ZM98.5293 347.186C97.9141 348.484 96.6289 349.182 94.7285 349.182C92.2266 349.182 90.5996 347.336 90.4766 344.424V344.314H101.072V343.412C101.072 338.832 98.6523 336.002 94.6738 336.002C90.627 336.002 88.0293 339.01 88.0293 343.645C88.0293 348.307 90.5859 351.26 94.6738 351.26C97.9004 351.26 100.17 349.715 100.881 347.186H98.5293ZM104.764 351H107.115V341.867C107.115 339.789 108.742 338.285 110.984 338.285C111.449 338.285 112.297 338.367 112.488 338.422V336.07C112.188 336.029 111.695 336.002 111.312 336.002C109.357 336.002 107.662 337.014 107.225 338.449H107.006V336.262H104.764V351ZM120.896 338.08C123.234 338.08 124.793 339.803 124.848 342.414H116.727C116.904 339.803 118.545 338.08 120.896 338.08ZM124.779 347.186C124.164 348.484 122.879 349.182 120.979 349.182C118.477 349.182 116.85 347.336 116.727 344.424V344.314H127.322V343.412C127.322 338.832 124.902 336.002 120.924 336.002C116.877 336.002 114.279 339.01 114.279 343.645C114.279 348.307 116.836 351.26 120.924 351.26C124.15 351.26 126.42 349.715 127.131 347.186H124.779ZM131.014 351H133.365V342.277C133.365 339.693 134.883 338.121 137.234 338.121C139.586 338.121 140.707 339.379 140.707 342.031V351H143.059V341.457C143.059 337.957 141.213 336.002 137.904 336.002C135.648 336.002 134.213 336.959 133.475 338.586H133.256V336.262H131.014V351ZM148.35 332.447V336.262H145.971V338.23H148.35V347.172C148.35 349.988 149.566 351.109 152.602 351.109C153.066 351.109 153.518 351.055 153.982 350.973V348.99C153.545 349.031 153.312 349.045 152.889 349.045C151.357 349.045 150.701 348.307 150.701 346.57V338.23H153.982V336.262H150.701V332.447H148.35ZM177.635 340.773C177.225 338.148 175.037 336.002 171.455 336.002C167.326 336.002 164.701 338.982 164.701 343.576C164.701 348.266 167.34 351.26 171.469 351.26C175.01 351.26 177.211 349.264 177.635 346.557H175.256C174.818 348.225 173.438 349.141 171.455 349.141C168.83 349.141 167.135 346.98 167.135 343.576C167.135 340.24 168.803 338.121 171.455 338.121C173.574 338.121 174.873 339.311 175.256 340.773H177.635ZM193.029 336.262H190.678V344.984C190.678 347.568 189.256 349.113 186.658 349.113C184.307 349.113 183.322 347.883 183.322 345.23V336.262H180.971V345.805C180.971 349.291 182.693 351.26 186.002 351.26C188.258 351.26 189.83 350.33 190.568 348.689H190.787V351H193.029V336.262ZM197.596 351H199.947V330.41H197.596V351ZM205.498 332.447V336.262H203.119V338.23H205.498V347.172C205.498 349.988 206.715 351.109 209.75 351.109C210.215 351.109 210.666 351.055 211.131 350.973V348.99C210.693 349.031 210.461 349.045 210.037 349.045C208.506 349.045 207.85 348.307 207.85 346.57V338.23H211.131V336.262H207.85V332.447H205.498ZM226.607 336.262H224.256V344.984C224.256 347.568 222.834 349.113 220.236 349.113C217.885 349.113 216.9 347.883 216.9 345.23V336.262H214.549V345.805C214.549 349.291 216.271 351.26 219.58 351.26C221.836 351.26 223.408 350.33 224.146 348.689H224.365V351H226.607V336.262ZM231.037 351H233.389V341.867C233.389 339.789 235.016 338.285 237.258 338.285C237.723 338.285 238.57 338.367 238.762 338.422V336.07C238.461 336.029 237.969 336.002 237.586 336.002C235.631 336.002 233.936 337.014 233.498 338.449H233.279V336.262H231.037V351ZM247.17 338.08C249.508 338.08 251.066 339.803 251.121 342.414H243C243.178 339.803 244.818 338.08 247.17 338.08ZM251.053 347.186C250.438 348.484 249.152 349.182 247.252 349.182C244.75 349.182 243.123 347.336 243 344.424V344.314H253.596V343.412C253.596 338.832 251.176 336.002 247.197 336.002C243.15 336.002 240.553 339.01 240.553 343.645C240.553 348.307 243.109 351.26 247.197 351.26C250.424 351.26 252.693 349.715 253.404 347.186H251.053ZM256.945 340.295C256.945 342.428 258.203 343.617 260.965 344.287L263.494 344.902C265.066 345.285 265.832 345.969 265.832 346.98C265.832 348.334 264.41 349.277 262.428 349.277C260.541 349.277 259.365 348.484 258.969 347.24H256.549C256.809 349.688 259.064 351.26 262.346 351.26C265.695 351.26 268.252 349.441 268.252 346.803C268.252 344.684 266.912 343.48 264.137 342.811L261.867 342.264C260.131 341.84 259.311 341.211 259.311 340.199C259.311 338.887 260.678 337.998 262.428 337.998C264.205 337.998 265.354 338.777 265.668 339.953H267.992C267.678 337.533 265.531 336.002 262.441 336.002C259.311 336.002 256.945 337.848 256.945 340.295ZM280.83 332.447V336.262H278.451V338.23H280.83V347.172C280.83 349.988 282.047 351.109 285.082 351.109C285.547 351.109 285.998 351.055 286.463 350.973V348.99C286.025 349.031 285.793 349.045 285.369 349.045C283.838 349.045 283.182 348.307 283.182 346.57V338.23H286.463V336.262H283.182V332.447H280.83ZM290.154 351H292.506V342.277C292.506 339.789 293.955 338.121 296.594 338.121C298.822 338.121 299.998 339.42 299.998 342.031V351H302.35V341.457C302.35 337.998 300.381 336.002 297.264 336.002C295.008 336.002 293.463 336.959 292.725 338.586H292.506V330.41H290.154V351ZM311.182 349.195C309.473 349.195 308.201 348.32 308.201 346.816C308.201 345.34 309.186 344.561 311.428 344.41L315.393 344.15V345.504C315.393 347.609 313.602 349.195 311.182 349.195ZM310.744 351.26C312.713 351.26 314.326 350.398 315.283 348.826H315.502V351H317.744V340.91C317.744 337.848 315.734 336.002 312.139 336.002C308.994 336.002 306.67 337.561 306.355 339.926H308.734C309.062 338.764 310.293 338.094 312.057 338.094C314.258 338.094 315.393 339.092 315.393 340.91V342.25L311.141 342.51C307.709 342.715 305.768 344.232 305.768 346.871C305.768 349.564 307.887 351.26 310.744 351.26ZM323.076 332.447V336.262H320.697V338.23H323.076V347.172C323.076 349.988 324.293 351.109 327.328 351.109C327.793 351.109 328.244 351.055 328.709 350.973V348.99C328.271 349.031 328.039 349.045 327.615 349.045C326.084 349.045 325.428 348.307 325.428 346.57V338.23H328.709V336.262H325.428V332.447H323.076ZM340.221 351H342.572V336.262H340.221V351ZM341.396 333.268C342.299 333.268 343.037 332.529 343.037 331.627C343.037 330.725 342.299 329.986 341.396 329.986C340.494 329.986 339.756 330.725 339.756 331.627C339.756 332.529 340.494 333.268 341.396 333.268ZM346.715 340.295C346.715 342.428 347.973 343.617 350.734 344.287L353.264 344.902C354.836 345.285 355.602 345.969 355.602 346.98C355.602 348.334 354.18 349.277 352.197 349.277C350.311 349.277 349.135 348.484 348.738 347.24H346.318C346.578 349.688 348.834 351.26 352.115 351.26C355.465 351.26 358.021 349.441 358.021 346.803C358.021 344.684 356.682 343.48 353.906 342.811L351.637 342.264C349.9 341.84 349.08 341.211 349.08 340.199C349.08 338.887 350.447 337.998 352.197 337.998C353.975 337.998 355.123 338.777 355.438 339.953H357.762C357.447 337.533 355.301 336.002 352.211 336.002C349.08 336.002 346.715 337.848 346.715 340.295ZM375.494 338.08C377.832 338.08 379.391 339.803 379.445 342.414H371.324C371.502 339.803 373.143 338.08 375.494 338.08ZM379.377 347.186C378.762 348.484 377.477 349.182 375.576 349.182C373.074 349.182 371.447 347.336 371.324 344.424V344.314H381.92V343.412C381.92 338.832 379.5 336.002 375.521 336.002C371.475 336.002 368.877 339.01 368.877 343.645C368.877 348.307 371.434 351.26 375.521 351.26C378.748 351.26 381.018 349.715 381.729 347.186H379.377ZM390.15 349.195C388.441 349.195 387.17 348.32 387.17 346.816C387.17 345.34 388.154 344.561 390.396 344.41L394.361 344.15V345.504C394.361 347.609 392.57 349.195 390.15 349.195ZM389.713 351.26C391.682 351.26 393.295 350.398 394.252 348.826H394.471V351H396.713V340.91C396.713 337.848 394.703 336.002 391.107 336.002C387.963 336.002 385.639 337.561 385.324 339.926H387.703C388.031 338.764 389.262 338.094 391.025 338.094C393.227 338.094 394.361 339.092 394.361 340.91V342.25L390.109 342.51C386.678 342.715 384.736 344.232 384.736 346.871C384.736 349.564 386.855 351.26 389.713 351.26ZM400.719 340.295C400.719 342.428 401.977 343.617 404.738 344.287L407.268 344.902C408.84 345.285 409.605 345.969 409.605 346.98C409.605 348.334 408.184 349.277 406.201 349.277C404.314 349.277 403.139 348.484 402.742 347.24H400.322C400.582 349.688 402.838 351.26 406.119 351.26C409.469 351.26 412.025 349.441 412.025 346.803C412.025 344.684 410.686 343.48 407.91 342.811L405.641 342.264C403.904 341.84 403.084 341.211 403.084 340.199C403.084 338.887 404.451 337.998 406.201 337.998C407.979 337.998 409.127 338.777 409.441 339.953H411.766C411.451 337.533 409.305 336.002 406.215 336.002C403.084 336.002 400.719 337.848 400.719 340.295ZM416.564 356.332C419.176 356.332 420.352 355.32 421.609 351.902L427.365 336.262H424.863L420.83 348.389H420.611L416.564 336.262H414.021L419.477 351.014L419.203 351.889C418.588 353.666 417.85 354.309 416.496 354.309C416.168 354.309 415.799 354.295 415.512 354.24V356.25C415.84 356.305 416.25 356.332 416.564 356.332ZM442.951 349.195C441.242 349.195 439.971 348.32 439.971 346.816C439.971 345.34 440.955 344.561 443.197 344.41L447.162 344.15V345.504C447.162 347.609 445.371 349.195 442.951 349.195ZM442.514 351.26C444.482 351.26 446.096 350.398 447.053 348.826H447.271V351H449.514V340.91C449.514 337.848 447.504 336.002 443.908 336.002C440.764 336.002 438.439 337.561 438.125 339.926H440.504C440.832 338.764 442.062 338.094 443.826 338.094C446.027 338.094 447.162 339.092 447.162 340.91V342.25L442.91 342.51C439.479 342.715 437.537 344.232 437.537 346.871C437.537 349.564 439.656 351.26 442.514 351.26ZM453.861 351H456.213V342.277C456.213 339.693 457.73 338.121 460.082 338.121C462.434 338.121 463.555 339.379 463.555 342.031V351H465.906V341.457C465.906 337.957 464.061 336.002 460.752 336.002C458.496 336.002 457.061 336.959 456.322 338.586H456.104V336.262H453.861V351ZM475.668 351.26C477.705 351.26 479.455 350.289 480.385 348.648H480.604V351H482.846V330.41H480.494V338.586H480.289C479.455 336.973 477.719 336.002 475.668 336.002C471.922 336.002 469.475 339.01 469.475 343.631C469.475 348.266 471.895 351.26 475.668 351.26ZM476.215 338.121C478.881 338.121 480.549 340.254 480.549 343.631C480.549 347.035 478.895 349.141 476.215 349.141C473.521 349.141 471.908 347.076 471.908 343.631C471.908 340.199 473.535 338.121 476.215 338.121ZM115.838 373.295C115.838 375.428 117.096 376.617 119.857 377.287L122.387 377.902C123.959 378.285 124.725 378.969 124.725 379.98C124.725 381.334 123.303 382.277 121.32 382.277C119.434 382.277 118.258 381.484 117.861 380.24H115.441C115.701 382.688 117.957 384.26 121.238 384.26C124.588 384.26 127.145 382.441 127.145 379.803C127.145 377.684 125.805 376.48 123.029 375.811L120.76 375.264C119.023 374.84 118.203 374.211 118.203 373.199C118.203 371.887 119.57 370.998 121.32 370.998C123.098 370.998 124.246 371.777 124.561 372.953H126.885C126.57 370.533 124.424 369.002 121.334 369.002C118.203 369.002 115.838 370.848 115.838 373.295ZM131.684 365.447V369.262H129.305V371.23H131.684V380.172C131.684 382.988 132.9 384.109 135.936 384.109C136.4 384.109 136.852 384.055 137.316 383.973V381.99C136.879 382.031 136.646 382.045 136.223 382.045C134.691 382.045 134.035 381.307 134.035 379.57V371.23H137.316V369.262H134.035V365.447H131.684ZM140.871 384H143.223V374.867C143.223 372.789 144.85 371.285 147.092 371.285C147.557 371.285 148.404 371.367 148.596 371.422V369.07C148.295 369.029 147.803 369.002 147.42 369.002C145.465 369.002 143.77 370.014 143.332 371.449H143.113V369.262H140.871V384ZM156.074 382.195C154.365 382.195 153.094 381.32 153.094 379.816C153.094 378.34 154.078 377.561 156.32 377.41L160.285 377.15V378.504C160.285 380.609 158.494 382.195 156.074 382.195ZM155.637 384.26C157.605 384.26 159.219 383.398 160.176 381.826H160.395V384H162.637V373.91C162.637 370.848 160.627 369.002 157.031 369.002C153.887 369.002 151.562 370.561 151.248 372.926H153.627C153.955 371.764 155.186 371.094 156.949 371.094C159.15 371.094 160.285 372.092 160.285 373.91V375.25L156.033 375.51C152.602 375.715 150.66 377.232 150.66 379.871C150.66 382.564 152.779 384.26 155.637 384.26ZM167.039 384H169.391V369.262H167.039V384ZM168.215 366.268C169.117 366.268 169.855 365.529 169.855 364.627C169.855 363.725 169.117 362.986 168.215 362.986C167.312 362.986 166.574 363.725 166.574 364.627C166.574 365.529 167.312 366.268 168.215 366.268ZM179.836 381.703C177.102 381.703 175.57 379.625 175.57 376.412C175.57 373.199 177.102 371.121 179.836 371.121C182.557 371.121 184.211 373.199 184.211 376.412C184.211 379.625 182.57 381.703 179.836 381.703ZM179.945 389.66C183.965 389.66 186.508 387.555 186.508 384.26V369.262H184.266V371.6H184.047C183.199 370.014 181.381 369.002 179.316 369.002C175.529 369.002 173.137 371.996 173.137 376.412C173.137 380.828 175.502 383.781 179.316 383.781C181.34 383.781 183.008 382.865 183.938 381.238H184.156V384.137C184.156 386.311 182.584 387.609 179.945 387.609C177.826 387.609 176.514 386.83 176.254 385.627H173.766C174.121 388.061 176.391 389.66 179.945 389.66ZM191.074 384H193.426V375.277C193.426 372.789 194.875 371.121 197.514 371.121C199.742 371.121 200.918 372.42 200.918 375.031V384H203.27V374.457C203.27 370.998 201.301 369.002 198.184 369.002C195.928 369.002 194.383 369.959 193.645 371.586H193.426V363.41H191.074V384ZM208.547 365.447V369.262H206.168V371.23H208.547V380.172C208.547 382.988 209.764 384.109 212.799 384.109C213.264 384.109 213.715 384.055 214.18 383.973V381.99C213.742 382.031 213.51 382.045 213.086 382.045C211.555 382.045 210.898 381.307 210.898 379.57V371.23H214.18V369.262H210.898V365.447H208.547ZM218.719 384H221.07V371.23H224.447V369.262H221.07V367.689C221.07 366.076 221.781 365.256 223.477 365.256C223.9 365.256 224.297 365.27 224.584 365.324V363.41C224.092 363.314 223.572 363.273 222.998 363.273C220.195 363.273 218.719 364.682 218.719 367.621V369.262H216.271V371.23H218.719V384ZM233.307 384.26C237.504 384.26 240.102 381.361 240.102 376.631C240.102 371.887 237.504 369.002 233.307 369.002C229.109 369.002 226.512 371.887 226.512 376.631C226.512 381.361 229.109 384.26 233.307 384.26ZM233.307 382.141C230.518 382.141 228.945 380.117 228.945 376.631C228.945 373.131 230.518 371.121 233.307 371.121C236.096 371.121 237.668 373.131 237.668 376.631C237.668 380.117 236.096 382.141 233.307 382.141ZM243.793 384H246.145V374.867C246.145 372.789 247.771 371.285 250.014 371.285C250.479 371.285 251.326 371.367 251.518 371.422V369.07C251.217 369.029 250.725 369.002 250.342 369.002C248.387 369.002 246.691 370.014 246.254 371.449H246.035V369.262H243.793V384ZM272.996 369.262H270.631L267.732 381.047H267.514L264.219 369.262H261.963L258.668 381.047H258.449L255.551 369.262H253.172L257.301 384H259.68L262.961 372.598H263.18L266.475 384H268.867L272.996 369.262ZM280.27 382.195C278.561 382.195 277.289 381.32 277.289 379.816C277.289 378.34 278.273 377.561 280.516 377.41L284.48 377.15V378.504C284.48 380.609 282.689 382.195 280.27 382.195ZM279.832 384.26C281.801 384.26 283.414 383.398 284.371 381.826H284.59V384H286.832V373.91C286.832 370.848 284.822 369.002 281.227 369.002C278.082 369.002 275.758 370.561 275.443 372.926H277.822C278.15 371.764 279.381 371.094 281.145 371.094C283.346 371.094 284.48 372.092 284.48 373.91V375.25L280.229 375.51C276.797 375.715 274.855 377.232 274.855 379.871C274.855 382.564 276.975 384.26 279.832 384.26ZM291.18 384H293.531V374.867C293.531 372.789 295.158 371.285 297.4 371.285C297.865 371.285 298.713 371.367 298.904 371.422V369.07C298.604 369.029 298.111 369.002 297.729 369.002C295.773 369.002 294.078 370.014 293.641 371.449H293.422V369.262H291.18V384ZM306.889 384.26C308.926 384.26 310.676 383.289 311.605 381.648H311.824V384H314.066V363.41H311.715V371.586H311.51C310.676 369.973 308.939 369.002 306.889 369.002C303.143 369.002 300.695 372.01 300.695 376.631C300.695 381.266 303.115 384.26 306.889 384.26ZM307.436 371.121C310.102 371.121 311.77 373.254 311.77 376.631C311.77 380.035 310.115 382.141 307.436 382.141C304.742 382.141 303.129 380.076 303.129 376.631C303.129 373.199 304.756 371.121 307.436 371.121ZM327.52 365.447V369.262H325.141V371.23H327.52V380.172C327.52 382.988 328.736 384.109 331.771 384.109C332.236 384.109 332.688 384.055 333.152 383.973V381.99C332.715 382.031 332.482 382.045 332.059 382.045C330.527 382.045 329.871 381.307 329.871 379.57V371.23H333.152V369.262H329.871V365.447H327.52ZM342.545 384.26C346.742 384.26 349.34 381.361 349.34 376.631C349.34 371.887 346.742 369.002 342.545 369.002C338.348 369.002 335.75 371.887 335.75 376.631C335.75 381.361 338.348 384.26 342.545 384.26ZM342.545 382.141C339.756 382.141 338.184 380.117 338.184 376.631C338.184 373.131 339.756 371.121 342.545 371.121C345.334 371.121 346.906 373.131 346.906 376.631C346.906 380.117 345.334 382.141 342.545 382.141ZM372.855 369.262H370.504V377.984C370.504 380.568 369.082 382.113 366.484 382.113C364.133 382.113 363.148 380.883 363.148 378.23V369.262H360.797V378.805C360.797 382.291 362.52 384.26 365.828 384.26C368.084 384.26 369.656 383.33 370.395 381.689H370.613V384H372.855V369.262ZM376.943 373.295C376.943 375.428 378.201 376.617 380.963 377.287L383.492 377.902C385.064 378.285 385.83 378.969 385.83 379.98C385.83 381.334 384.408 382.277 382.426 382.277C380.539 382.277 379.363 381.484 378.967 380.24H376.547C376.807 382.688 379.062 384.26 382.344 384.26C385.693 384.26 388.25 382.441 388.25 379.803C388.25 377.684 386.91 376.48 384.135 375.811L381.865 375.264C380.129 374.84 379.309 374.211 379.309 373.199C379.309 371.887 380.676 370.998 382.426 370.998C384.203 370.998 385.352 371.777 385.666 372.953H387.99C387.676 370.533 385.529 369.002 382.439 369.002C379.309 369.002 376.943 370.848 376.943 373.295ZM397.82 371.08C400.158 371.08 401.717 372.803 401.771 375.414H393.65C393.828 372.803 395.469 371.08 397.82 371.08ZM401.703 380.186C401.088 381.484 399.803 382.182 397.902 382.182C395.4 382.182 393.773 380.336 393.65 377.424V377.314H404.246V376.412C404.246 371.832 401.826 369.002 397.848 369.002C393.801 369.002 391.203 372.01 391.203 376.645C391.203 381.307 393.76 384.26 397.848 384.26C401.074 384.26 403.344 382.715 404.055 380.186H401.703ZM409.879 384.137C410.863 384.137 411.656 383.33 411.656 382.359C411.656 381.375 410.863 380.582 409.879 380.582C408.908 380.582 408.102 381.375 408.102 382.359C408.102 383.33 408.908 384.137 409.879 384.137Z" fill="#636F73"/>
<defs>
<filter id="filter0_d_141_7002" x="0" y="0" width="528" height="643" filterUnits="userSpaceOnUse" color-interpolation-filters="sRGB">
<feFlood flood-opacity="0" result="BackgroundImageFix"/>
<feColorMatrix in="SourceAlpha" type="matrix" values="0 0 0 0 0 0 0 0 0 0 0 0 0 0 0 0 0 0 127 0" result="hardAlpha"/>
<feOffset dy="4"/>
<feGaussianBlur stdDeviation="2"/>
<feComposite in2="hardAlpha" operator="out"/>
<feColorMatrix type="matrix" values="0 0 0 0 0 0 0 0 0 0 0 0 0 0 0 0 0 0 0.25 0"/>
<feBlend mode="normal" in2="BackgroundImageFix" result="effect1_dropShadow_141_7002"/>
<feBlend mode="normal" in="SourceGraphic" in2="effect1_dropShadow_141_7002" result="shape"/>
</filter>
</defs>
</svg>
