<svg width="528" height="643" viewBox="0 0 528 643" fill="none" xmlns="http://www.w3.org/2000/svg">
<g filter="url(#filter0_d_141_7006)">
<rect x="4" width="520" height="635" fill="white"/>
</g>
<path d="M58.1875 84V61.4531H53.4688V70.5469H43.3125V61.4531H38.5938V84H43.3125V74.5781H53.4688V84H58.1875ZM70.8438 84.375C76.1406 84.375 79.3281 81.0156 79.3281 75.375C79.3281 69.7812 76.0938 66.3906 70.8438 66.3906C65.5938 66.3906 62.3594 69.7969 62.3594 75.375C62.3594 81.0156 65.5469 84.375 70.8438 84.375ZM70.8438 80.6562C68.4062 80.6562 67.0312 78.7344 67.0312 75.375C67.0312 72.0625 68.4219 70.1094 70.8438 70.1094C73.25 70.1094 74.6562 72.0625 74.6562 75.375C74.6562 78.7188 73.2656 80.6562 70.8438 80.6562ZM106.203 66.7656H101.688L99.125 79.125H98.8438L95.8125 66.7656H91.4688L88.4531 79.125H88.1719L85.6094 66.7656H81L85.5938 84H90.375L93.4219 72.1094H93.7031L96.7812 84H101.625L106.203 66.7656ZM139.141 67.1562H136.438L133.125 80.625H132.875L129.109 67.1562H126.531L122.766 80.625H122.516L119.203 67.1562H116.484L121.203 84H123.922L127.672 70.9688H127.922L131.688 84H134.422L139.141 67.1562ZM142.797 84H145.484V67.1562H142.797V84ZM144.141 63.7344C145.172 63.7344 146.016 62.8906 146.016 61.8594C146.016 60.8281 145.172 59.9844 144.141 59.9844C143.109 59.9844 142.266 60.8281 142.266 61.8594C142.266 62.8906 143.109 63.7344 144.141 63.7344ZM150.766 84H153.453V60.4688H150.766V84ZM158.828 84H161.516V60.4688H158.828V84ZM177.203 90.0938C180.188 90.0938 181.531 88.9375 182.969 85.0312L189.547 67.1562H186.688L182.078 81.0156H181.828L177.203 67.1562H174.297L180.531 84.0156L180.219 85.0156C179.516 87.0469 178.672 87.7812 177.125 87.7812C176.75 87.7812 176.328 87.7656 176 87.7031V90C176.375 90.0625 176.844 90.0938 177.203 90.0938ZM199.438 84.2969C204.234 84.2969 207.203 80.9844 207.203 75.5781C207.203 70.1562 204.234 66.8594 199.438 66.8594C194.641 66.8594 191.672 70.1562 191.672 75.5781C191.672 80.9844 194.641 84.2969 199.438 84.2969ZM199.438 81.875C196.25 81.875 194.453 79.5625 194.453 75.5781C194.453 71.5781 196.25 69.2812 199.438 69.2812C202.625 69.2812 204.422 71.5781 204.422 75.5781C204.422 79.5625 202.625 81.875 199.438 81.875ZM225.047 67.1562H222.359V77.125C222.359 80.0781 220.734 81.8438 217.766 81.8438C215.078 81.8438 213.953 80.4375 213.953 77.4062V67.1562H211.266V78.0625C211.266 82.0469 213.234 84.2969 217.016 84.2969C219.594 84.2969 221.391 83.2344 222.234 81.3594H222.484V84H225.047V67.1562ZM230.109 84H232.797V73.5625C232.797 71.1875 234.656 69.4688 237.219 69.4688C237.75 69.4688 238.719 69.5625 238.938 69.625V66.9375C238.594 66.8906 238.031 66.8594 237.594 66.8594C235.359 66.8594 233.422 68.0156 232.922 69.6562H232.672V67.1562H230.109V84ZM264.953 67.1562H262.266V77.125C262.266 80.0781 260.641 81.8438 257.672 81.8438C254.984 81.8438 253.859 80.4375 253.859 77.4062V67.1562H251.172V78.0625C251.172 82.0469 253.141 84.2969 256.922 84.2969C259.5 84.2969 261.297 83.2344 262.141 81.3594H262.391V84H264.953V67.1562ZM269.625 71.7656C269.625 74.2031 271.062 75.5625 274.219 76.3281L277.109 77.0312C278.906 77.4688 279.781 78.25 279.781 79.4062C279.781 80.9531 278.156 82.0312 275.891 82.0312C273.734 82.0312 272.391 81.125 271.938 79.7031H269.172C269.469 82.5 272.047 84.2969 275.797 84.2969C279.625 84.2969 282.547 82.2188 282.547 79.2031C282.547 76.7812 281.016 75.4062 277.844 74.6406L275.25 74.0156C273.266 73.5312 272.328 72.8125 272.328 71.6562C272.328 70.1562 273.891 69.1406 275.891 69.1406C277.922 69.1406 279.234 70.0312 279.594 71.375H282.25C281.891 68.6094 279.438 66.8594 275.906 66.8594C272.328 66.8594 269.625 68.9688 269.625 71.7656ZM293.484 69.2344C296.156 69.2344 297.938 71.2031 298 74.1875H288.719C288.922 71.2031 290.797 69.2344 293.484 69.2344ZM297.922 79.6406C297.219 81.125 295.75 81.9219 293.578 81.9219C290.719 81.9219 288.859 79.8125 288.719 76.4844V76.3594H300.828V75.3281C300.828 70.0938 298.062 66.8594 293.516 66.8594C288.891 66.8594 285.922 70.2969 285.922 75.5938C285.922 80.9219 288.844 84.2969 293.516 84.2969C297.203 84.2969 299.797 82.5312 300.609 79.6406H297.922ZM305.047 84H307.734V73.5625C307.734 71.1875 309.594 69.4688 312.156 69.4688C312.688 69.4688 313.656 69.5625 313.875 69.625V66.9375C313.531 66.8906 312.969 66.8594 312.531 66.8594C310.297 66.8594 308.359 68.0156 307.859 69.6562H307.609V67.1562H305.047V84ZM331.453 81.9375C329.5 81.9375 328.047 80.9375 328.047 79.2188C328.047 77.5312 329.172 76.6406 331.734 76.4688L336.266 76.1719V77.7188C336.266 80.125 334.219 81.9375 331.453 81.9375ZM330.953 84.2969C333.203 84.2969 335.047 83.3125 336.141 81.5156H336.391V84H338.953V72.4688C338.953 68.9688 336.656 66.8594 332.547 66.8594C328.953 66.8594 326.297 68.6406 325.938 71.3438H328.656C329.031 70.0156 330.438 69.25 332.453 69.25C334.969 69.25 336.266 70.3906 336.266 72.4688V74L331.406 74.2969C327.484 74.5312 325.266 76.2656 325.266 79.2812C325.266 82.3594 327.688 84.2969 330.953 84.2969ZM357.859 72.3125C357.391 69.3125 354.891 66.8594 350.797 66.8594C346.078 66.8594 343.078 70.2656 343.078 75.5156C343.078 80.875 346.094 84.2969 350.812 84.2969C354.859 84.2969 357.375 82.0156 357.859 78.9219H355.141C354.641 80.8281 353.062 81.875 350.797 81.875C347.797 81.875 345.859 79.4062 345.859 75.5156C345.859 71.7031 347.766 69.2812 350.797 69.2812C353.219 69.2812 354.703 70.6406 355.141 72.3125H357.859ZM375.766 72.3125C375.297 69.3125 372.797 66.8594 368.703 66.8594C363.984 66.8594 360.984 70.2656 360.984 75.5156C360.984 80.875 364 84.2969 368.719 84.2969C372.766 84.2969 375.281 82.0156 375.766 78.9219H373.047C372.547 80.8281 370.969 81.875 368.703 81.875C365.703 81.875 363.766 79.4062 363.766 75.5156C363.766 71.7031 365.672 69.2812 368.703 69.2812C371.125 69.2812 372.609 70.6406 373.047 72.3125H375.766ZM386.656 84.2969C391.453 84.2969 394.422 80.9844 394.422 75.5781C394.422 70.1562 391.453 66.8594 386.656 66.8594C381.859 66.8594 378.891 70.1562 378.891 75.5781C378.891 80.9844 381.859 84.2969 386.656 84.2969ZM386.656 81.875C383.469 81.875 381.672 79.5625 381.672 75.5781C381.672 71.5781 383.469 69.2812 386.656 69.2812C389.844 69.2812 391.641 71.5781 391.641 75.5781C391.641 79.5625 389.844 81.875 386.656 81.875ZM398.641 84H401.328V73.5625C401.328 71.1875 403.031 69.2812 405.234 69.2812C407.359 69.2812 408.75 70.5625 408.75 72.5625V84H411.438V73.1719C411.438 71.0312 413 69.2812 415.344 69.2812C417.719 69.2812 418.891 70.5 418.891 72.9844V84H421.578V72.3594C421.578 68.8281 419.656 66.8594 416.219 66.8594C413.891 66.8594 411.969 68.0312 411.062 69.8125H410.812C410.031 68.0625 408.438 66.8594 406.156 66.8594C403.906 66.8594 402.219 67.9375 401.453 69.8125H401.203V67.1562H398.641V84ZM434.688 66.8594C432.391 66.8594 430.375 68.0312 429.297 69.9688H429.047V67.1562H426.484V89.625H429.172V81.4688H429.422C430.344 83.25 432.281 84.2969 434.688 84.2969C438.969 84.2969 441.766 80.8438 441.766 75.5781C441.766 70.2812 438.984 66.8594 434.688 66.8594ZM434.047 81.875C431.016 81.875 429.094 79.4375 429.094 75.5781C429.094 71.7031 431.016 69.2812 434.062 69.2812C437.141 69.2812 438.984 71.6406 438.984 75.5781C438.984 79.5156 437.141 81.875 434.047 81.875ZM446.141 84H448.828V60.4688H446.141V84ZM454.109 84H456.797V67.1562H454.109V84ZM455.453 63.7344C456.484 63.7344 457.328 62.8906 457.328 61.8594C457.328 60.8281 456.484 59.9844 455.453 59.9844C454.422 59.9844 453.578 60.8281 453.578 61.8594C453.578 62.8906 454.422 63.7344 455.453 63.7344ZM461.531 71.7656C461.531 74.2031 462.969 75.5625 466.125 76.3281L469.016 77.0312C470.812 77.4688 471.688 78.25 471.688 79.4062C471.688 80.9531 470.062 82.0312 467.797 82.0312C465.641 82.0312 464.297 81.125 463.844 79.7031H461.078C461.375 82.5 463.953 84.2969 467.703 84.2969C471.531 84.2969 474.453 82.2188 474.453 79.2031C474.453 76.7812 472.922 75.4062 469.75 74.6406L467.156 74.0156C465.172 73.5312 464.234 72.8125 464.234 71.6562C464.234 70.1562 465.797 69.1406 467.797 69.1406C469.828 69.1406 471.141 70.0312 471.5 71.375H474.156C473.797 68.6094 471.344 66.8594 467.812 66.8594C464.234 66.8594 461.531 68.9688 461.531 71.7656ZM478.828 84H481.516V74.0312C481.516 71.1875 483.172 69.2812 486.188 69.2812C488.734 69.2812 490.078 70.7656 490.078 73.75V84H492.766V73.0938C492.766 69.1406 490.516 66.8594 486.953 66.8594C484.375 66.8594 482.609 67.9531 481.766 69.8125H481.516V60.4688H478.828V84ZM181.516 100.797V105.156H178.797V107.406H181.516V117.625C181.516 120.844 182.906 122.125 186.375 122.125C186.906 122.125 187.422 122.062 187.953 121.969V119.703C187.453 119.75 187.188 119.766 186.703 119.766C184.953 119.766 184.203 118.922 184.203 116.938V107.406H187.953V105.156H184.203V100.797H181.516ZM192.172 122H194.859V112.031C194.859 109.188 196.516 107.281 199.531 107.281C202.078 107.281 203.422 108.766 203.422 111.75V122H206.109V111.094C206.109 107.141 203.859 104.859 200.297 104.859C197.719 104.859 195.953 105.953 195.109 107.812H194.859V98.4688H192.172V122ZM217.734 107.234C220.406 107.234 222.188 109.203 222.25 112.188H212.969C213.172 109.203 215.047 107.234 217.734 107.234ZM222.172 117.641C221.469 119.125 220 119.922 217.828 119.922C214.969 119.922 213.109 117.812 212.969 114.484V114.359H225.078V113.328C225.078 108.094 222.312 104.859 217.766 104.859C213.141 104.859 210.172 108.297 210.172 113.594C210.172 118.922 213.094 122.297 217.766 122.297C221.453 122.297 224.047 120.531 224.859 117.641H222.172ZM229.359 122H232.047V105.156H229.359V122ZM230.703 101.734C231.734 101.734 232.578 100.891 232.578 99.8594C232.578 98.8281 231.734 97.9844 230.703 97.9844C229.672 97.9844 228.828 98.8281 228.828 99.8594C228.828 100.891 229.672 101.734 230.703 101.734ZM237.172 122H239.859V111.562C239.859 109.188 241.719 107.469 244.281 107.469C244.812 107.469 245.781 107.562 246 107.625V104.938C245.656 104.891 245.094 104.859 244.656 104.859C242.422 104.859 240.484 106.016 239.984 107.656H239.734V105.156H237.172V122ZM265.203 119.375C262.078 119.375 260.328 117 260.328 113.328C260.328 109.656 262.078 107.281 265.203 107.281C268.312 107.281 270.203 109.656 270.203 113.328C270.203 117 268.328 119.375 265.203 119.375ZM265.328 128.469C269.922 128.469 272.828 126.062 272.828 122.297V105.156H270.266V107.828H270.016C269.047 106.016 266.969 104.859 264.609 104.859C260.281 104.859 257.547 108.281 257.547 113.328C257.547 118.375 260.25 121.75 264.609 121.75C266.922 121.75 268.828 120.703 269.891 118.844H270.141V122.156C270.141 124.641 268.344 126.125 265.328 126.125C262.906 126.125 261.406 125.234 261.109 123.859H258.266C258.672 126.641 261.266 128.469 265.328 128.469ZM284.812 122.297C289.609 122.297 292.578 118.984 292.578 113.578C292.578 108.156 289.609 104.859 284.812 104.859C280.016 104.859 277.047 108.156 277.047 113.578C277.047 118.984 280.016 122.297 284.812 122.297ZM284.812 119.875C281.625 119.875 279.828 117.562 279.828 113.578C279.828 109.578 281.625 107.281 284.812 107.281C288 107.281 289.797 109.578 289.797 113.578C289.797 117.562 288 119.875 284.812 119.875ZM301.984 119.938C300.031 119.938 298.578 118.938 298.578 117.219C298.578 115.531 299.703 114.641 302.266 114.469L306.797 114.172V115.719C306.797 118.125 304.75 119.938 301.984 119.938ZM301.484 122.297C303.734 122.297 305.578 121.312 306.672 119.516H306.922V122H309.484V110.469C309.484 106.969 307.188 104.859 303.078 104.859C299.484 104.859 296.828 106.641 296.469 109.344H299.188C299.562 108.016 300.969 107.25 302.984 107.25C305.5 107.25 306.797 108.391 306.797 110.469V112L301.938 112.297C298.016 112.531 295.797 114.266 295.797 117.281C295.797 120.359 298.219 122.297 301.484 122.297ZM314.609 122H317.297V98.4688H314.609V122ZM322.125 109.766C322.125 112.203 323.562 113.562 326.719 114.328L329.609 115.031C331.406 115.469 332.281 116.25 332.281 117.406C332.281 118.953 330.656 120.031 328.391 120.031C326.234 120.031 324.891 119.125 324.438 117.703H321.672C321.969 120.5 324.547 122.297 328.297 122.297C332.125 122.297 335.047 120.219 335.047 117.203C335.047 114.781 333.516 113.406 330.344 112.641L327.75 112.016C325.766 111.531 324.828 110.812 324.828 109.656C324.828 108.156 326.391 107.141 328.391 107.141C330.422 107.141 331.734 108.031 332.094 109.375H334.75C334.391 106.609 331.938 104.859 328.406 104.859C324.828 104.859 322.125 106.969 322.125 109.766ZM337.984 105.344H340.656C340.828 103.109 342.328 101.719 344.688 101.719C347.016 101.719 348.516 103.141 348.516 105.078C348.516 106.75 347.812 107.734 346 108.844C343.859 110.125 342.859 111.531 342.875 113.594V115.031H345.609V114.016C345.609 112.375 346.172 111.5 348.156 110.328C350.156 109.125 351.422 107.391 351.422 104.938C351.422 101.719 348.734 99.2812 344.797 99.2812C340.406 99.2812 338.156 101.969 337.984 105.344ZM344.453 122.281C345.719 122.281 346.609 121.375 346.609 120.109C346.609 118.828 345.719 117.922 344.453 117.922C343.188 117.922 342.281 118.828 342.281 120.109C342.281 121.375 343.188 122.281 344.453 122.281Z" fill="#58A8A0"/>
<path d="M76.377 188.271V208H78.8379V200.959H83.8008C87.5059 200.959 90.1445 198.348 90.1445 194.656C90.1445 190.896 87.5605 188.271 83.8281 188.271H76.377ZM78.8379 190.459H83.1855C86.043 190.459 87.6152 191.949 87.6152 194.656C87.6152 197.268 85.9883 198.771 83.1855 198.771H78.8379V190.459ZM94.0137 208H96.3652V187.41H94.0137V208ZM105.471 206.195C103.762 206.195 102.49 205.32 102.49 203.816C102.49 202.34 103.475 201.561 105.717 201.41L109.682 201.15V202.504C109.682 204.609 107.891 206.195 105.471 206.195ZM105.033 208.26C107.002 208.26 108.615 207.398 109.572 205.826H109.791V208H112.033V197.91C112.033 194.848 110.023 193.002 106.428 193.002C103.283 193.002 100.959 194.561 100.645 196.926H103.023C103.352 195.764 104.582 195.094 106.346 195.094C108.547 195.094 109.682 196.092 109.682 197.91V199.25L105.43 199.51C101.998 199.715 100.057 201.232 100.057 203.871C100.057 206.564 102.176 208.26 105.033 208.26ZM117.365 189.447V193.262H114.986V195.23H117.365V204.172C117.365 206.988 118.582 208.109 121.617 208.109C122.082 208.109 122.533 208.055 122.998 207.973V205.99C122.561 206.031 122.328 206.045 121.904 206.045C120.373 206.045 119.717 205.307 119.717 203.57V195.23H122.998V193.262H119.717V189.447H117.365ZM132.213 195.08C134.551 195.08 136.109 196.803 136.164 199.414H128.043C128.221 196.803 129.861 195.08 132.213 195.08ZM136.096 204.186C135.48 205.484 134.195 206.182 132.295 206.182C129.793 206.182 128.166 204.336 128.043 201.424V201.314H138.639V200.412C138.639 195.832 136.219 193.002 132.24 193.002C128.193 193.002 125.596 196.01 125.596 200.645C125.596 205.307 128.152 208.26 132.24 208.26C135.467 208.26 137.736 206.715 138.447 204.186H136.096ZM150.287 208H152.639V193.262H150.287V208ZM151.463 190.268C152.365 190.268 153.104 189.529 153.104 188.627C153.104 187.725 152.365 186.986 151.463 186.986C150.561 186.986 149.822 187.725 149.822 188.627C149.822 189.529 150.561 190.268 151.463 190.268ZM156.781 197.295C156.781 199.428 158.039 200.617 160.801 201.287L163.33 201.902C164.902 202.285 165.668 202.969 165.668 203.98C165.668 205.334 164.246 206.277 162.264 206.277C160.377 206.277 159.201 205.484 158.805 204.24H156.385C156.645 206.688 158.9 208.26 162.182 208.26C165.531 208.26 168.088 206.441 168.088 203.803C168.088 201.684 166.748 200.48 163.973 199.811L161.703 199.264C159.967 198.84 159.146 198.211 159.146 197.199C159.146 195.887 160.514 194.998 162.264 194.998C164.041 194.998 165.189 195.777 165.504 196.953H167.828C167.514 194.533 165.367 193.002 162.277 193.002C159.146 193.002 156.781 194.848 156.781 197.295ZM184.221 206.195C182.512 206.195 181.24 205.32 181.24 203.816C181.24 202.34 182.225 201.561 184.467 201.41L188.432 201.15V202.504C188.432 204.609 186.641 206.195 184.221 206.195ZM183.783 208.26C185.752 208.26 187.365 207.398 188.322 205.826H188.541V208H190.783V197.91C190.783 194.848 188.773 193.002 185.178 193.002C182.033 193.002 179.709 194.561 179.395 196.926H181.773C182.102 195.764 183.332 195.094 185.096 195.094C187.297 195.094 188.432 196.092 188.432 197.91V199.25L184.18 199.51C180.748 199.715 178.807 201.232 178.807 203.871C178.807 206.564 180.926 208.26 183.783 208.26ZM195.131 208H197.482V199.277C197.482 196.693 199 195.121 201.352 195.121C203.703 195.121 204.824 196.379 204.824 199.031V208H207.176V198.457C207.176 194.957 205.33 193.002 202.021 193.002C199.766 193.002 198.33 193.959 197.592 195.586H197.373V193.262H195.131V208ZM225.264 195.08C227.602 195.08 229.16 196.803 229.215 199.414H221.094C221.271 196.803 222.912 195.08 225.264 195.08ZM229.146 204.186C228.531 205.484 227.246 206.182 225.346 206.182C222.844 206.182 221.217 204.336 221.094 201.424V201.314H231.689V200.412C231.689 195.832 229.27 193.002 225.291 193.002C221.244 193.002 218.646 196.01 218.646 200.645C218.646 205.307 221.203 208.26 225.291 208.26C228.518 208.26 230.787 206.715 231.498 204.186H229.146ZM239.92 206.195C238.211 206.195 236.939 205.32 236.939 203.816C236.939 202.34 237.924 201.561 240.166 201.41L244.131 201.15V202.504C244.131 204.609 242.34 206.195 239.92 206.195ZM239.482 208.26C241.451 208.26 243.064 207.398 244.021 205.826H244.24V208H246.482V197.91C246.482 194.848 244.473 193.002 240.877 193.002C237.732 193.002 235.408 194.561 235.094 196.926H237.473C237.801 195.764 239.031 195.094 240.795 195.094C242.996 195.094 244.131 196.092 244.131 197.91V199.25L239.879 199.51C236.447 199.715 234.506 201.232 234.506 203.871C234.506 206.564 236.625 208.26 239.482 208.26ZM250.488 197.295C250.488 199.428 251.746 200.617 254.508 201.287L257.037 201.902C258.609 202.285 259.375 202.969 259.375 203.98C259.375 205.334 257.953 206.277 255.971 206.277C254.084 206.277 252.908 205.484 252.512 204.24H250.092C250.352 206.688 252.607 208.26 255.889 208.26C259.238 208.26 261.795 206.441 261.795 203.803C261.795 201.684 260.455 200.48 257.68 199.811L255.41 199.264C253.674 198.84 252.854 198.211 252.854 197.199C252.854 195.887 254.221 194.998 255.971 194.998C257.748 194.998 258.896 195.777 259.211 196.953H261.535C261.221 194.533 259.074 193.002 255.984 193.002C252.854 193.002 250.488 194.848 250.488 197.295ZM266.334 213.332C268.945 213.332 270.121 212.32 271.379 208.902L277.135 193.262H274.633L270.6 205.389H270.381L266.334 193.262H263.791L269.246 208.014L268.973 208.889C268.357 210.666 267.619 211.309 266.266 211.309C265.938 211.309 265.568 211.295 265.281 211.24V213.25C265.609 213.305 266.02 213.332 266.334 213.332ZM289.166 189.447V193.262H286.787V195.23H289.166V204.172C289.166 206.988 290.383 208.109 293.418 208.109C293.883 208.109 294.334 208.055 294.799 207.973V205.99C294.361 206.031 294.129 206.045 293.705 206.045C292.174 206.045 291.518 205.307 291.518 203.57V195.23H294.799V193.262H291.518V189.447H289.166ZM304.191 208.26C308.389 208.26 310.986 205.361 310.986 200.631C310.986 195.887 308.389 193.002 304.191 193.002C299.994 193.002 297.396 195.887 297.396 200.631C297.396 205.361 299.994 208.26 304.191 208.26ZM304.191 206.141C301.402 206.141 299.83 204.117 299.83 200.631C299.83 197.131 301.402 195.121 304.191 195.121C306.98 195.121 308.553 197.131 308.553 200.631C308.553 204.117 306.98 206.141 304.191 206.141ZM334.502 193.262H332.15V201.984C332.15 204.568 330.729 206.113 328.131 206.113C325.779 206.113 324.795 204.883 324.795 202.23V193.262H322.443V202.805C322.443 206.291 324.166 208.26 327.475 208.26C329.73 208.26 331.303 207.33 332.041 205.689H332.26V208H334.502V193.262ZM338.59 197.295C338.59 199.428 339.848 200.617 342.609 201.287L345.139 201.902C346.711 202.285 347.477 202.969 347.477 203.98C347.477 205.334 346.055 206.277 344.072 206.277C342.186 206.277 341.01 205.484 340.613 204.24H338.193C338.453 206.688 340.709 208.26 343.99 208.26C347.34 208.26 349.896 206.441 349.896 203.803C349.896 201.684 348.557 200.48 345.781 199.811L343.512 199.264C341.775 198.84 340.955 198.211 340.955 197.199C340.955 195.887 342.322 194.998 344.072 194.998C345.85 194.998 346.998 195.777 347.312 196.953H349.637C349.322 194.533 347.176 193.002 344.086 193.002C340.955 193.002 338.59 194.848 338.59 197.295ZM359.467 195.08C361.805 195.08 363.363 196.803 363.418 199.414H355.297C355.475 196.803 357.115 195.08 359.467 195.08ZM363.35 204.186C362.734 205.484 361.449 206.182 359.549 206.182C357.047 206.182 355.42 204.336 355.297 201.424V201.314H365.893V200.412C365.893 195.832 363.473 193.002 359.494 193.002C355.447 193.002 352.85 196.01 352.85 200.645C352.85 205.307 355.406 208.26 359.494 208.26C362.721 208.26 364.99 206.715 365.701 204.186H363.35ZM377.486 208H379.838V198.867C379.838 196.789 381.465 195.285 383.707 195.285C384.172 195.285 385.02 195.367 385.211 195.422V193.07C384.91 193.029 384.418 193.002 384.035 193.002C382.08 193.002 380.385 194.014 379.947 195.449H379.729V193.262H377.486V208ZM393.619 195.08C395.957 195.08 397.516 196.803 397.57 199.414H389.449C389.627 196.803 391.268 195.08 393.619 195.08ZM397.502 204.186C396.887 205.484 395.602 206.182 393.701 206.182C391.199 206.182 389.572 204.336 389.449 201.424V201.314H400.045V200.412C400.045 195.832 397.625 193.002 393.646 193.002C389.6 193.002 387.002 196.01 387.002 200.645C387.002 205.307 389.559 208.26 393.646 208.26C396.873 208.26 399.143 206.715 399.854 204.186H397.502ZM415.932 197.773C415.521 195.148 413.334 193.002 409.752 193.002C405.623 193.002 402.998 195.982 402.998 200.576C402.998 205.266 405.637 208.26 409.766 208.26C413.307 208.26 415.508 206.264 415.932 203.557H413.553C413.115 205.225 411.734 206.141 409.752 206.141C407.127 206.141 405.432 203.98 405.432 200.576C405.432 197.24 407.1 195.121 409.752 195.121C411.871 195.121 413.17 196.311 413.553 197.773H415.932ZM419.459 208H421.811V193.262H419.459V208ZM420.635 190.268C421.537 190.268 422.275 189.529 422.275 188.627C422.275 187.725 421.537 186.986 420.635 186.986C419.732 186.986 418.994 187.725 418.994 188.627C418.994 189.529 419.732 190.268 420.635 190.268ZM433.473 193.002C431.463 193.002 429.699 194.027 428.756 195.723H428.537V193.262H426.295V212.922H428.646V205.785H428.865C429.672 207.344 431.367 208.26 433.473 208.26C437.219 208.26 439.666 205.238 439.666 200.631C439.666 195.996 437.232 193.002 433.473 193.002ZM432.912 206.141C430.26 206.141 428.578 204.008 428.578 200.631C428.578 197.24 430.26 195.121 432.926 195.121C435.619 195.121 437.232 197.186 437.232 200.631C437.232 204.076 435.619 206.141 432.912 206.141ZM449.236 195.08C451.574 195.08 453.133 196.803 453.188 199.414H445.066C445.244 196.803 446.885 195.08 449.236 195.08ZM453.119 204.186C452.504 205.484 451.219 206.182 449.318 206.182C446.816 206.182 445.189 204.336 445.066 201.424V201.314H455.662V200.412C455.662 195.832 453.242 193.002 449.264 193.002C445.217 193.002 442.619 196.01 442.619 200.645C442.619 205.307 445.176 208.26 449.264 208.26C452.49 208.26 454.76 206.715 455.471 204.186H453.119ZM90.4863 226.262H88.1211L85.2227 238.047H85.0039L81.709 226.262H79.4531L76.1582 238.047H75.9395L73.041 226.262H70.6621L74.791 241H77.1699L80.4512 229.598H80.6699L83.9648 241H86.3574L90.4863 226.262ZM98.9629 228.08C101.301 228.08 102.859 229.803 102.914 232.414H94.793C94.9707 229.803 96.6113 228.08 98.9629 228.08ZM102.846 237.186C102.23 238.484 100.945 239.182 99.0449 239.182C96.543 239.182 94.916 237.336 94.793 234.424V234.314H105.389V233.412C105.389 228.832 102.969 226.002 98.9902 226.002C94.9434 226.002 92.3457 229.01 92.3457 233.645C92.3457 238.307 94.9023 241.26 98.9902 241.26C102.217 241.26 104.486 239.715 105.197 237.186H102.846ZM116.408 241.26C120.141 241.26 122.588 238.238 122.588 233.631C122.588 228.996 120.154 226.002 116.408 226.002C114.385 226.002 112.594 227 111.787 228.586H111.568V220.41H109.217V241H111.459V238.648H111.678C112.607 240.289 114.357 241.26 116.408 241.26ZM115.861 228.121C118.555 228.121 120.154 230.186 120.154 233.631C120.154 237.076 118.555 239.141 115.861 239.141C113.182 239.141 111.514 237.035 111.514 233.631C111.514 230.227 113.182 228.121 115.861 228.121ZM125.938 230.295C125.938 232.428 127.195 233.617 129.957 234.287L132.486 234.902C134.059 235.285 134.824 235.969 134.824 236.98C134.824 238.334 133.402 239.277 131.42 239.277C129.533 239.277 128.357 238.484 127.961 237.24H125.541C125.801 239.688 128.057 241.26 131.338 241.26C134.688 241.26 137.244 239.441 137.244 236.803C137.244 234.684 135.904 233.48 133.129 232.811L130.859 232.264C129.123 231.84 128.303 231.211 128.303 230.199C128.303 228.887 129.67 227.998 131.42 227.998C133.197 227.998 134.346 228.777 134.66 229.953H136.984C136.67 227.533 134.523 226.002 131.434 226.002C128.303 226.002 125.938 227.848 125.938 230.295ZM140.99 241H143.342V226.262H140.99V241ZM142.166 223.268C143.068 223.268 143.807 222.529 143.807 221.627C143.807 220.725 143.068 219.986 142.166 219.986C141.264 219.986 140.525 220.725 140.525 221.627C140.525 222.529 141.264 223.268 142.166 223.268ZM148.811 222.447V226.262H146.432V228.23H148.811V237.172C148.811 239.988 150.027 241.109 153.062 241.109C153.527 241.109 153.979 241.055 154.443 240.973V238.99C154.006 239.031 153.773 239.045 153.35 239.045C151.818 239.045 151.162 238.307 151.162 236.57V228.23H154.443V226.262H151.162V222.447H148.811ZM163.658 228.08C165.996 228.08 167.555 229.803 167.609 232.414H159.488C159.666 229.803 161.307 228.08 163.658 228.08ZM167.541 237.186C166.926 238.484 165.641 239.182 163.74 239.182C161.238 239.182 159.611 237.336 159.488 234.424V234.314H170.084V233.412C170.084 228.832 167.664 226.002 163.686 226.002C159.639 226.002 157.041 229.01 157.041 233.645C157.041 238.307 159.598 241.26 163.686 241.26C166.912 241.26 169.182 239.715 169.893 237.186H167.541ZM182.662 222.447V226.262H180.283V228.23H182.662V237.172C182.662 239.988 183.879 241.109 186.914 241.109C187.379 241.109 187.83 241.055 188.295 240.973V238.99C187.857 239.031 187.625 239.045 187.201 239.045C185.67 239.045 185.014 238.307 185.014 236.57V228.23H188.295V226.262H185.014V222.447H182.662ZM191.986 241H194.338V232.277C194.338 229.789 195.787 228.121 198.426 228.121C200.654 228.121 201.83 229.42 201.83 232.031V241H204.182V231.457C204.182 227.998 202.213 226.002 199.096 226.002C196.84 226.002 195.295 226.959 194.557 228.586H194.338V220.41H191.986V241ZM213.014 239.195C211.305 239.195 210.033 238.32 210.033 236.816C210.033 235.34 211.018 234.561 213.26 234.41L217.225 234.15V235.504C217.225 237.609 215.434 239.195 213.014 239.195ZM212.576 241.26C214.545 241.26 216.158 240.398 217.115 238.826H217.334V241H219.576V230.91C219.576 227.848 217.566 226.002 213.971 226.002C210.826 226.002 208.502 227.561 208.188 229.926H210.566C210.895 228.764 212.125 228.094 213.889 228.094C216.09 228.094 217.225 229.092 217.225 230.91V232.25L212.973 232.51C209.541 232.715 207.6 234.232 207.6 236.871C207.6 239.564 209.719 241.26 212.576 241.26ZM224.908 222.447V226.262H222.529V228.23H224.908V237.172C224.908 239.988 226.125 241.109 229.16 241.109C229.625 241.109 230.076 241.055 230.541 240.973V238.99C230.104 239.031 229.871 239.045 229.447 239.045C227.916 239.045 227.26 238.307 227.26 236.57V228.23H230.541V226.262H227.26V222.447H224.908ZM254.193 230.773C253.783 228.148 251.596 226.002 248.014 226.002C243.885 226.002 241.26 228.982 241.26 233.576C241.26 238.266 243.898 241.26 248.027 241.26C251.568 241.26 253.77 239.264 254.193 236.557H251.814C251.377 238.225 249.996 239.141 248.014 239.141C245.389 239.141 243.693 236.98 243.693 233.576C243.693 230.24 245.361 228.121 248.014 228.121C250.133 228.121 251.432 229.311 251.814 230.773H254.193ZM262.205 239.195C260.496 239.195 259.225 238.32 259.225 236.816C259.225 235.34 260.209 234.561 262.451 234.41L266.416 234.15V235.504C266.416 237.609 264.625 239.195 262.205 239.195ZM261.768 241.26C263.736 241.26 265.35 240.398 266.307 238.826H266.525V241H268.768V230.91C268.768 227.848 266.758 226.002 263.162 226.002C260.018 226.002 257.693 227.561 257.379 229.926H259.758C260.086 228.764 261.316 228.094 263.08 228.094C265.281 228.094 266.416 229.092 266.416 230.91V232.25L262.164 232.51C258.732 232.715 256.791 234.232 256.791 236.871C256.791 239.564 258.91 241.26 261.768 241.26ZM273.115 241H275.467V232.277C275.467 229.693 276.984 228.121 279.336 228.121C281.688 228.121 282.809 229.379 282.809 232.031V241H285.16V231.457C285.16 227.957 283.314 226.002 280.006 226.002C277.75 226.002 276.314 226.959 275.576 228.586H275.357V226.262H273.115V241ZM304.697 241.26C308.43 241.26 310.877 238.238 310.877 233.631C310.877 228.996 308.443 226.002 304.697 226.002C302.674 226.002 300.883 227 300.076 228.586H299.857V220.41H297.506V241H299.748V238.648H299.967C300.896 240.289 302.646 241.26 304.697 241.26ZM304.15 228.121C306.844 228.121 308.443 230.186 308.443 233.631C308.443 237.076 306.844 239.141 304.15 239.141C301.471 239.141 299.803 237.035 299.803 233.631C299.803 230.227 301.471 228.121 304.15 228.121ZM320.447 228.08C322.785 228.08 324.344 229.803 324.398 232.414H316.277C316.455 229.803 318.096 228.08 320.447 228.08ZM324.33 237.186C323.715 238.484 322.43 239.182 320.529 239.182C318.027 239.182 316.4 237.336 316.277 234.424V234.314H326.873V233.412C326.873 228.832 324.453 226.002 320.475 226.002C316.428 226.002 313.83 229.01 313.83 233.645C313.83 238.307 316.387 241.26 320.475 241.26C323.701 241.26 325.971 239.715 326.682 237.186H324.33ZM343.006 239.195C341.297 239.195 340.025 238.32 340.025 236.816C340.025 235.34 341.01 234.561 343.252 234.41L347.217 234.15V235.504C347.217 237.609 345.426 239.195 343.006 239.195ZM342.568 241.26C344.537 241.26 346.15 240.398 347.107 238.826H347.326V241H349.568V230.91C349.568 227.848 347.559 226.002 343.963 226.002C340.818 226.002 338.494 227.561 338.18 229.926H340.559C340.887 228.764 342.117 228.094 343.881 228.094C346.082 228.094 347.217 229.092 347.217 230.91V232.25L342.965 232.51C339.533 232.715 337.592 234.232 337.592 236.871C337.592 239.564 339.711 241.26 342.568 241.26ZM366.111 230.773C365.701 228.148 363.514 226.002 359.932 226.002C355.803 226.002 353.178 228.982 353.178 233.576C353.178 238.266 355.816 241.26 359.945 241.26C363.486 241.26 365.688 239.264 366.111 236.557H363.732C363.295 238.225 361.914 239.141 359.932 239.141C357.307 239.141 355.611 236.98 355.611 233.576C355.611 230.24 357.279 228.121 359.932 228.121C362.051 228.121 363.35 229.311 363.732 230.773H366.111ZM381.779 230.773C381.369 228.148 379.182 226.002 375.6 226.002C371.471 226.002 368.846 228.982 368.846 233.576C368.846 238.266 371.484 241.26 375.613 241.26C379.154 241.26 381.355 239.264 381.779 236.557H379.4C378.963 238.225 377.582 239.141 375.6 239.141C372.975 239.141 371.279 236.98 371.279 233.576C371.279 230.24 372.947 228.121 375.6 228.121C377.719 228.121 379.018 229.311 379.4 230.773H381.779ZM391.131 228.08C393.469 228.08 395.027 229.803 395.082 232.414H386.961C387.139 229.803 388.779 228.08 391.131 228.08ZM395.014 237.186C394.398 238.484 393.113 239.182 391.213 239.182C388.711 239.182 387.084 237.336 386.961 234.424V234.314H397.557V233.412C397.557 228.832 395.137 226.002 391.158 226.002C387.111 226.002 384.514 229.01 384.514 233.645C384.514 238.307 387.07 241.26 391.158 241.26C394.385 241.26 396.654 239.715 397.365 237.186H395.014ZM400.906 230.295C400.906 232.428 402.164 233.617 404.926 234.287L407.455 234.902C409.027 235.285 409.793 235.969 409.793 236.98C409.793 238.334 408.371 239.277 406.389 239.277C404.502 239.277 403.326 238.484 402.93 237.24H400.51C400.77 239.688 403.025 241.26 406.307 241.26C409.656 241.26 412.213 239.441 412.213 236.803C412.213 234.684 410.873 233.48 408.098 232.811L405.828 232.264C404.092 231.84 403.271 231.211 403.271 230.199C403.271 228.887 404.639 227.998 406.389 227.998C408.166 227.998 409.314 228.777 409.629 229.953H411.953C411.639 227.533 409.492 226.002 406.402 226.002C403.271 226.002 400.906 227.848 400.906 230.295ZM415.289 230.295C415.289 232.428 416.547 233.617 419.309 234.287L421.838 234.902C423.41 235.285 424.176 235.969 424.176 236.98C424.176 238.334 422.754 239.277 420.771 239.277C418.885 239.277 417.709 238.484 417.312 237.24H414.893C415.152 239.688 417.408 241.26 420.689 241.26C424.039 241.26 426.596 239.441 426.596 236.803C426.596 234.684 425.256 233.48 422.48 232.811L420.211 232.264C418.475 231.84 417.654 231.211 417.654 230.199C417.654 228.887 419.021 227.998 420.771 227.998C422.549 227.998 423.697 228.777 424.012 229.953H426.336C426.021 227.533 423.875 226.002 420.785 226.002C417.654 226.002 415.289 227.848 415.289 230.295ZM436.166 228.08C438.504 228.08 440.062 229.803 440.117 232.414H431.996C432.174 229.803 433.814 228.08 436.166 228.08ZM440.049 237.186C439.434 238.484 438.148 239.182 436.248 239.182C433.746 239.182 432.119 237.336 431.996 234.424V234.314H442.592V233.412C442.592 228.832 440.172 226.002 436.193 226.002C432.146 226.002 429.549 229.01 429.549 233.645C429.549 238.307 432.105 241.26 436.193 241.26C439.42 241.26 441.689 239.715 442.4 237.186H440.049ZM451.738 241.26C453.775 241.26 455.525 240.289 456.455 238.648H456.674V241H458.916V220.41H456.564V228.586H456.359C455.525 226.973 453.789 226.002 451.738 226.002C447.992 226.002 445.545 229.01 445.545 233.631C445.545 238.266 447.965 241.26 451.738 241.26ZM452.285 228.121C454.951 228.121 456.619 230.254 456.619 233.631C456.619 237.035 454.965 239.141 452.285 239.141C449.592 239.141 447.979 237.076 447.979 233.631C447.979 230.199 449.605 228.121 452.285 228.121ZM47.3652 272.195C45.6562 272.195 44.3848 271.32 44.3848 269.816C44.3848 268.34 45.3691 267.561 47.6113 267.41L51.5762 267.15V268.504C51.5762 270.609 49.7852 272.195 47.3652 272.195ZM46.9277 274.26C48.8965 274.26 50.5098 273.398 51.4668 271.826H51.6855V274H53.9277V263.91C53.9277 260.848 51.918 259.002 48.3223 259.002C45.1777 259.002 42.8535 260.561 42.5391 262.926H44.918C45.2461 261.764 46.4766 261.094 48.2402 261.094C50.4414 261.094 51.5762 262.092 51.5762 263.91V265.25L47.3242 265.51C43.8926 265.715 41.9512 267.232 41.9512 269.871C41.9512 272.564 44.0703 274.26 46.9277 274.26ZM58.2754 274H60.627V265.277C60.627 262.693 62.1445 261.121 64.4961 261.121C66.8477 261.121 67.9688 262.379 67.9688 265.031V274H70.3203V264.457C70.3203 260.957 68.4746 259.002 65.166 259.002C62.9102 259.002 61.4746 259.959 60.7363 261.586H60.5176V259.262H58.2754V274ZM75.3379 279.332C77.9492 279.332 79.125 278.32 80.3828 274.902L86.1387 259.262H83.6367L79.6035 271.389H79.3848L75.3379 259.262H72.7949L78.25 274.014L77.9766 274.889C77.3613 276.666 76.623 277.309 75.2695 277.309C74.9414 277.309 74.5723 277.295 74.2852 277.24V279.25C74.6133 279.305 75.0234 279.332 75.3379 279.332ZM107.822 259.262H105.457L102.559 271.047H102.34L99.0449 259.262H96.7891L93.4941 271.047H93.2754L90.377 259.262H87.998L92.127 274H94.5059L97.7871 262.598H98.0059L101.301 274H103.693L107.822 259.262ZM111.104 274H113.455V265.277C113.455 262.789 114.904 261.121 117.543 261.121C119.771 261.121 120.947 262.42 120.947 265.031V274H123.299V264.457C123.299 260.998 121.33 259.002 118.213 259.002C115.957 259.002 114.412 259.959 113.674 261.586H113.455V253.41H111.104V274ZM133.471 261.08C135.809 261.08 137.367 262.803 137.422 265.414H129.301C129.479 262.803 131.119 261.08 133.471 261.08ZM137.354 270.186C136.738 271.484 135.453 272.182 133.553 272.182C131.051 272.182 129.424 270.336 129.301 267.424V267.314H139.896V266.412C139.896 261.832 137.477 259.002 133.498 259.002C129.451 259.002 126.854 262.01 126.854 266.645C126.854 271.307 129.41 274.26 133.498 274.26C136.725 274.26 138.994 272.715 139.705 270.186H137.354ZM143.588 274H145.939V264.867C145.939 262.789 147.566 261.285 149.809 261.285C150.273 261.285 151.121 261.367 151.312 261.422V259.07C151.012 259.029 150.52 259.002 150.137 259.002C148.182 259.002 146.486 260.014 146.049 261.449H145.83V259.262H143.588V274ZM159.721 261.08C162.059 261.08 163.617 262.803 163.672 265.414H155.551C155.729 262.803 157.369 261.08 159.721 261.08ZM163.604 270.186C162.988 271.484 161.703 272.182 159.803 272.182C157.301 272.182 155.674 270.336 155.551 267.424V267.314H166.146V266.412C166.146 261.832 163.727 259.002 159.748 259.002C155.701 259.002 153.104 262.01 153.104 266.645C153.104 271.307 155.66 274.26 159.748 274.26C162.975 274.26 165.244 272.715 165.955 270.186H163.604ZM171.779 274.137C172.764 274.137 173.557 273.33 173.557 272.359C173.557 271.375 172.764 270.582 171.779 270.582C170.809 270.582 170.002 271.375 170.002 272.359C170.002 273.33 170.809 274.137 171.779 274.137ZM188.814 274V254.271H186.354V274H188.814ZM194.529 255.447V259.262H192.15V261.23H194.529V270.172C194.529 272.988 195.746 274.109 198.781 274.109C199.246 274.109 199.697 274.055 200.162 273.973V271.99C199.725 272.031 199.492 272.045 199.068 272.045C197.537 272.045 196.881 271.307 196.881 269.57V261.23H200.162V259.262H196.881V255.447H194.529ZM216.158 272.195C214.449 272.195 213.178 271.32 213.178 269.816C213.178 268.34 214.162 267.561 216.404 267.41L220.369 267.15V268.504C220.369 270.609 218.578 272.195 216.158 272.195ZM215.721 274.26C217.689 274.26 219.303 273.398 220.26 271.826H220.479V274H222.721V263.91C222.721 260.848 220.711 259.002 217.115 259.002C213.971 259.002 211.646 260.561 211.332 262.926H213.711C214.039 261.764 215.27 261.094 217.033 261.094C219.234 261.094 220.369 262.092 220.369 263.91V265.25L216.117 265.51C212.686 265.715 210.744 267.232 210.744 269.871C210.744 272.564 212.863 274.26 215.721 274.26ZM227.205 274H229.557V253.41H227.205V274ZM234.26 274H236.611V253.41H234.26V274ZM247.234 274.26C251.432 274.26 254.029 271.361 254.029 266.631C254.029 261.887 251.432 259.002 247.234 259.002C243.037 259.002 240.439 261.887 240.439 266.631C240.439 271.361 243.037 274.26 247.234 274.26ZM247.234 272.141C244.445 272.141 242.873 270.117 242.873 266.631C242.873 263.131 244.445 261.121 247.234 261.121C250.023 261.121 251.596 263.131 251.596 266.631C251.596 270.117 250.023 272.141 247.234 272.141ZM275.713 259.262H273.348L270.449 271.047H270.23L266.936 259.262H264.68L261.385 271.047H261.166L258.268 259.262H255.889L260.018 274H262.396L265.678 262.598H265.896L269.191 274H271.584L275.713 259.262ZM278.105 263.295C278.105 265.428 279.363 266.617 282.125 267.287L284.654 267.902C286.227 268.285 286.992 268.969 286.992 269.98C286.992 271.334 285.57 272.277 283.588 272.277C281.701 272.277 280.525 271.484 280.129 270.24H277.709C277.969 272.688 280.225 274.26 283.506 274.26C286.855 274.26 289.412 272.441 289.412 269.803C289.412 267.684 288.072 266.48 285.297 265.811L283.027 265.264C281.291 264.84 280.471 264.211 280.471 263.199C280.471 261.887 281.838 260.998 283.588 260.998C285.365 260.998 286.514 261.777 286.828 262.953H289.152C288.838 260.533 286.691 259.002 283.602 259.002C280.471 259.002 278.105 260.848 278.105 263.295ZM305.545 272.195C303.836 272.195 302.564 271.32 302.564 269.816C302.564 268.34 303.549 267.561 305.791 267.41L309.756 267.15V268.504C309.756 270.609 307.965 272.195 305.545 272.195ZM305.107 274.26C307.076 274.26 308.689 273.398 309.646 271.826H309.865V274H312.107V263.91C312.107 260.848 310.098 259.002 306.502 259.002C303.357 259.002 301.033 260.561 300.719 262.926H303.098C303.426 261.764 304.656 261.094 306.42 261.094C308.621 261.094 309.756 262.092 309.756 263.91V265.25L305.504 265.51C302.072 265.715 300.131 267.232 300.131 269.871C300.131 272.564 302.25 274.26 305.107 274.26ZM331.535 259.002C329.525 259.002 327.762 260.027 326.818 261.723H326.6V259.262H324.357V278.922H326.709V271.785H326.928C327.734 273.344 329.43 274.26 331.535 274.26C335.281 274.26 337.729 271.238 337.729 266.631C337.729 261.996 335.295 259.002 331.535 259.002ZM330.975 272.141C328.322 272.141 326.641 270.008 326.641 266.631C326.641 263.24 328.322 261.121 330.988 261.121C333.682 261.121 335.295 263.186 335.295 266.631C335.295 270.076 333.682 272.141 330.975 272.141ZM347.299 261.08C349.637 261.08 351.195 262.803 351.25 265.414H343.129C343.307 262.803 344.947 261.08 347.299 261.08ZM351.182 270.186C350.566 271.484 349.281 272.182 347.381 272.182C344.879 272.182 343.252 270.336 343.129 267.424V267.314H353.725V266.412C353.725 261.832 351.305 259.002 347.326 259.002C343.279 259.002 340.682 262.01 340.682 266.645C340.682 271.307 343.238 274.26 347.326 274.26C350.553 274.26 352.822 272.715 353.533 270.186H351.182ZM357.416 274H359.768V264.867C359.768 262.789 361.395 261.285 363.637 261.285C364.102 261.285 364.949 261.367 365.141 261.422V259.07C364.84 259.029 364.348 259.002 363.965 259.002C362.01 259.002 360.314 260.014 359.877 261.449H359.658V259.262H357.416V274ZM367.465 263.295C367.465 265.428 368.723 266.617 371.484 267.287L374.014 267.902C375.586 268.285 376.352 268.969 376.352 269.98C376.352 271.334 374.93 272.277 372.947 272.277C371.061 272.277 369.885 271.484 369.488 270.24H367.068C367.328 272.688 369.584 274.26 372.865 274.26C376.215 274.26 378.771 272.441 378.771 269.803C378.771 267.684 377.432 266.48 374.656 265.811L372.387 265.264C370.65 264.84 369.83 264.211 369.83 263.199C369.83 261.887 371.197 260.998 372.947 260.998C374.725 260.998 375.873 261.777 376.188 262.953H378.512C378.197 260.533 376.051 259.002 372.961 259.002C369.83 259.002 367.465 260.848 367.465 263.295ZM388.52 274.26C392.717 274.26 395.314 271.361 395.314 266.631C395.314 261.887 392.717 259.002 388.52 259.002C384.322 259.002 381.725 261.887 381.725 266.631C381.725 271.361 384.322 274.26 388.52 274.26ZM388.52 272.141C385.73 272.141 384.158 270.117 384.158 266.631C384.158 263.131 385.73 261.121 388.52 261.121C391.309 261.121 392.881 263.131 392.881 266.631C392.881 270.117 391.309 272.141 388.52 272.141ZM399.006 274H401.357V265.277C401.357 262.693 402.875 261.121 405.227 261.121C407.578 261.121 408.699 262.379 408.699 265.031V274H411.051V264.457C411.051 260.957 409.205 259.002 405.896 259.002C403.641 259.002 402.205 259.959 401.467 261.586H401.248V259.262H399.006V274ZM419.896 272.195C418.188 272.195 416.916 271.32 416.916 269.816C416.916 268.34 417.9 267.561 420.143 267.41L424.107 267.15V268.504C424.107 270.609 422.316 272.195 419.896 272.195ZM419.459 274.26C421.428 274.26 423.041 273.398 423.998 271.826H424.217V274H426.459V263.91C426.459 260.848 424.449 259.002 420.854 259.002C417.709 259.002 415.385 260.561 415.07 262.926H417.449C417.777 261.764 419.008 261.094 420.771 261.094C422.973 261.094 424.107 262.092 424.107 263.91V265.25L419.855 265.51C416.424 265.715 414.482 267.232 414.482 269.871C414.482 272.564 416.602 274.26 419.459 274.26ZM430.943 274H433.295V253.41H430.943V274ZM437.916 274H440.268V259.262H437.916V274ZM439.092 256.268C439.994 256.268 440.732 255.529 440.732 254.627C440.732 253.725 439.994 252.986 439.092 252.986C438.189 252.986 437.451 253.725 437.451 254.627C437.451 255.529 438.189 256.268 439.092 256.268ZM444.41 263.295C444.41 265.428 445.668 266.617 448.43 267.287L450.959 267.902C452.531 268.285 453.297 268.969 453.297 269.98C453.297 271.334 451.875 272.277 449.893 272.277C448.006 272.277 446.83 271.484 446.434 270.24H444.014C444.273 272.688 446.529 274.26 449.811 274.26C453.16 274.26 455.717 272.441 455.717 269.803C455.717 267.684 454.377 266.48 451.602 265.811L449.332 265.264C447.596 264.84 446.775 264.211 446.775 263.199C446.775 261.887 448.143 260.998 449.893 260.998C451.67 260.998 452.818 261.777 453.133 262.953H455.457C455.143 260.533 452.996 259.002 449.906 259.002C446.775 259.002 444.41 260.848 444.41 263.295ZM465.287 261.08C467.625 261.08 469.184 262.803 469.238 265.414H461.117C461.295 262.803 462.936 261.08 465.287 261.08ZM469.17 270.186C468.555 271.484 467.27 272.182 465.369 272.182C462.867 272.182 461.24 270.336 461.117 267.424V267.314H471.713V266.412C471.713 261.832 469.293 259.002 465.314 259.002C461.268 259.002 458.67 262.01 458.67 266.645C458.67 271.307 461.227 274.26 465.314 274.26C468.541 274.26 470.811 272.715 471.521 270.186H469.17ZM480.859 274.26C482.896 274.26 484.646 273.289 485.576 271.648H485.795V274H488.037V253.41H485.686V261.586H485.48C484.646 259.973 482.91 259.002 480.859 259.002C477.113 259.002 474.666 262.01 474.666 266.631C474.666 271.266 477.086 274.26 480.859 274.26ZM481.406 261.121C484.072 261.121 485.74 263.254 485.74 266.631C485.74 270.035 484.086 272.141 481.406 272.141C478.713 272.141 477.1 270.076 477.1 266.631C477.1 263.199 478.727 261.121 481.406 261.121ZM79.8359 294.08C82.1738 294.08 83.7324 295.803 83.7871 298.414H75.666C75.8438 295.803 77.4844 294.08 79.8359 294.08ZM83.7188 303.186C83.1035 304.484 81.8184 305.182 79.918 305.182C77.416 305.182 75.7891 303.336 75.666 300.424V300.314H86.2617V299.412C86.2617 294.832 83.8418 292.002 79.8633 292.002C75.8164 292.002 73.2188 295.01 73.2188 299.645C73.2188 304.307 75.7754 307.26 79.8633 307.26C83.0898 307.26 85.3594 305.715 86.0703 303.186H83.7188ZM94.6289 301.436L98.1152 307H100.904L95.832 299.535L100.836 292.262H98.1699L94.7109 297.744H94.4922L90.9922 292.262H88.1895L93.2891 299.631L88.2441 307H90.9102L94.4102 301.436H94.6289ZM111.295 292.002C109.285 292.002 107.521 293.027 106.578 294.723H106.359V292.262H104.117V311.922H106.469V304.785H106.688C107.494 306.344 109.189 307.26 111.295 307.26C115.041 307.26 117.488 304.238 117.488 299.631C117.488 294.996 115.055 292.002 111.295 292.002ZM110.734 305.141C108.082 305.141 106.4 303.008 106.4 299.631C106.4 296.24 108.082 294.121 110.748 294.121C113.441 294.121 115.055 296.186 115.055 299.631C115.055 303.076 113.441 305.141 110.734 305.141ZM127.059 294.08C129.396 294.08 130.955 295.803 131.01 298.414H122.889C123.066 295.803 124.707 294.08 127.059 294.08ZM130.941 303.186C130.326 304.484 129.041 305.182 127.141 305.182C124.639 305.182 123.012 303.336 122.889 300.424V300.314H133.484V299.412C133.484 294.832 131.064 292.002 127.086 292.002C123.039 292.002 120.441 295.01 120.441 299.645C120.441 304.307 122.998 307.26 127.086 307.26C130.312 307.26 132.582 305.715 133.293 303.186H130.941ZM137.176 307H139.527V297.867C139.527 295.789 141.154 294.285 143.396 294.285C143.861 294.285 144.709 294.367 144.9 294.422V292.07C144.6 292.029 144.107 292.002 143.725 292.002C141.77 292.002 140.074 293.014 139.637 294.449H139.418V292.262H137.176V307ZM147.895 307H150.246V292.262H147.895V307ZM149.07 289.268C149.973 289.268 150.711 288.529 150.711 287.627C150.711 286.725 149.973 285.986 149.07 285.986C148.168 285.986 147.43 286.725 147.43 287.627C147.43 288.529 148.168 289.268 149.07 289.268ZM160.609 294.08C162.947 294.08 164.506 295.803 164.561 298.414H156.439C156.617 295.803 158.258 294.08 160.609 294.08ZM164.492 303.186C163.877 304.484 162.592 305.182 160.691 305.182C158.189 305.182 156.562 303.336 156.439 300.424V300.314H167.035V299.412C167.035 294.832 164.615 292.002 160.637 292.002C156.59 292.002 153.992 295.01 153.992 299.645C153.992 304.307 156.549 307.26 160.637 307.26C163.863 307.26 166.133 305.715 166.844 303.186H164.492ZM170.727 307H173.078V298.277C173.078 295.693 174.596 294.121 176.947 294.121C179.299 294.121 180.42 295.379 180.42 298.031V307H182.771V297.457C182.771 293.957 180.926 292.002 177.617 292.002C175.361 292.002 173.926 292.959 173.188 294.586H172.969V292.262H170.727V307ZM199.273 296.773C198.863 294.148 196.676 292.002 193.094 292.002C188.965 292.002 186.34 294.982 186.34 299.576C186.34 304.266 188.979 307.26 193.107 307.26C196.648 307.26 198.85 305.264 199.273 302.557H196.895C196.457 304.225 195.076 305.141 193.094 305.141C190.469 305.141 188.773 302.98 188.773 299.576C188.773 296.24 190.441 294.121 193.094 294.121C195.213 294.121 196.512 295.311 196.895 296.773H199.273ZM208.625 294.08C210.963 294.08 212.521 295.803 212.576 298.414H204.455C204.633 295.803 206.273 294.08 208.625 294.08ZM212.508 303.186C211.893 304.484 210.607 305.182 208.707 305.182C206.205 305.182 204.578 303.336 204.455 300.424V300.314H215.051V299.412C215.051 294.832 212.631 292.002 208.652 292.002C204.605 292.002 202.008 295.01 202.008 299.645C202.008 304.307 204.564 307.26 208.652 307.26C211.879 307.26 214.148 305.715 214.859 303.186H212.508ZM231.184 305.195C229.475 305.195 228.203 304.32 228.203 302.816C228.203 301.34 229.188 300.561 231.43 300.41L235.395 300.15V301.504C235.395 303.609 233.604 305.195 231.184 305.195ZM230.746 307.26C232.715 307.26 234.328 306.398 235.285 304.826H235.504V307H237.746V296.91C237.746 293.848 235.736 292.002 232.141 292.002C228.996 292.002 226.672 293.561 226.357 295.926H228.736C229.064 294.764 230.295 294.094 232.059 294.094C234.26 294.094 235.395 295.092 235.395 296.91V298.25L231.143 298.51C227.711 298.715 225.77 300.232 225.77 302.871C225.77 305.564 227.889 307.26 230.746 307.26ZM241.752 296.295C241.752 298.428 243.01 299.617 245.771 300.287L248.301 300.902C249.873 301.285 250.639 301.969 250.639 302.98C250.639 304.334 249.217 305.277 247.234 305.277C245.348 305.277 244.172 304.484 243.775 303.24H241.355C241.615 305.688 243.871 307.26 247.152 307.26C250.502 307.26 253.059 305.441 253.059 302.803C253.059 300.684 251.719 299.48 248.943 298.811L246.674 298.264C244.938 297.84 244.117 297.211 244.117 296.199C244.117 294.887 245.484 293.998 247.234 293.998C249.012 293.998 250.16 294.777 250.475 295.953H252.799C252.484 293.533 250.338 292.002 247.248 292.002C244.117 292.002 241.752 293.848 241.752 296.295ZM265.637 288.447V292.262H263.258V294.23H265.637V303.172C265.637 305.988 266.854 307.109 269.889 307.109C270.354 307.109 270.805 307.055 271.27 306.973V304.99C270.832 305.031 270.6 305.045 270.176 305.045C268.645 305.045 267.988 304.307 267.988 302.57V294.23H271.27V292.262H267.988V288.447H265.637ZM274.961 307H277.312V298.277C277.312 295.789 278.762 294.121 281.4 294.121C283.629 294.121 284.805 295.42 284.805 298.031V307H287.156V297.457C287.156 293.998 285.188 292.002 282.07 292.002C279.814 292.002 278.27 292.959 277.531 294.586H277.312V286.41H274.961V307ZM297.328 294.08C299.666 294.08 301.225 295.803 301.279 298.414H293.158C293.336 295.803 294.977 294.08 297.328 294.08ZM301.211 303.186C300.596 304.484 299.311 305.182 297.41 305.182C294.908 305.182 293.281 303.336 293.158 300.424V300.314H303.754V299.412C303.754 294.832 301.334 292.002 297.355 292.002C293.309 292.002 290.711 295.01 290.711 299.645C290.711 304.307 293.268 307.26 297.355 307.26C300.582 307.26 302.852 305.715 303.562 303.186H301.211ZM315.348 307H317.699V297.867C317.699 295.789 319.326 294.285 321.568 294.285C322.033 294.285 322.881 294.367 323.072 294.422V292.07C322.771 292.029 322.279 292.002 321.896 292.002C319.941 292.002 318.246 293.014 317.809 294.449H317.59V292.262H315.348V307ZM331.48 294.08C333.818 294.08 335.377 295.803 335.432 298.414H327.311C327.488 295.803 329.129 294.08 331.48 294.08ZM335.363 303.186C334.748 304.484 333.463 305.182 331.562 305.182C329.061 305.182 327.434 303.336 327.311 300.424V300.314H337.906V299.412C337.906 294.832 335.486 292.002 331.508 292.002C327.461 292.002 324.863 295.01 324.863 299.645C324.863 304.307 327.42 307.26 331.508 307.26C334.734 307.26 337.004 305.715 337.715 303.186H335.363ZM353.793 296.773C353.383 294.148 351.195 292.002 347.613 292.002C343.484 292.002 340.859 294.982 340.859 299.576C340.859 304.266 343.498 307.26 347.627 307.26C351.168 307.26 353.369 305.264 353.793 302.557H351.414C350.977 304.225 349.596 305.141 347.613 305.141C344.988 305.141 343.293 302.98 343.293 299.576C343.293 296.24 344.961 294.121 347.613 294.121C349.732 294.121 351.031 295.311 351.414 296.773H353.793ZM357.32 307H359.672V292.262H357.32V307ZM358.496 289.268C359.398 289.268 360.137 288.529 360.137 287.627C360.137 286.725 359.398 285.986 358.496 285.986C357.594 285.986 356.855 286.725 356.855 287.627C356.855 288.529 357.594 289.268 358.496 289.268ZM371.334 292.002C369.324 292.002 367.561 293.027 366.617 294.723H366.398V292.262H364.156V311.922H366.508V304.785H366.727C367.533 306.344 369.229 307.26 371.334 307.26C375.08 307.26 377.527 304.238 377.527 299.631C377.527 294.996 375.094 292.002 371.334 292.002ZM370.773 305.141C368.121 305.141 366.439 303.008 366.439 299.631C366.439 296.24 368.121 294.121 370.787 294.121C373.48 294.121 375.094 296.186 375.094 299.631C375.094 303.076 373.48 305.141 370.773 305.141ZM387.098 294.08C389.436 294.08 390.994 295.803 391.049 298.414H382.928C383.105 295.803 384.746 294.08 387.098 294.08ZM390.98 303.186C390.365 304.484 389.08 305.182 387.18 305.182C384.678 305.182 383.051 303.336 382.928 300.424V300.314H393.523V299.412C393.523 294.832 391.104 292.002 387.125 292.002C383.078 292.002 380.48 295.01 380.48 299.645C380.48 304.307 383.037 307.26 387.125 307.26C390.352 307.26 392.621 305.715 393.332 303.186H390.98ZM396.873 296.295C396.873 298.428 398.131 299.617 400.893 300.287L403.422 300.902C404.994 301.285 405.76 301.969 405.76 302.98C405.76 304.334 404.338 305.277 402.355 305.277C400.469 305.277 399.293 304.484 398.896 303.24H396.477C396.736 305.688 398.992 307.26 402.273 307.26C405.623 307.26 408.18 305.441 408.18 302.803C408.18 300.684 406.84 299.48 404.064 298.811L401.795 298.264C400.059 297.84 399.238 297.211 399.238 296.199C399.238 294.887 400.605 293.998 402.355 293.998C404.133 293.998 405.281 294.777 405.596 295.953H407.92C407.605 293.533 405.459 292.002 402.369 292.002C399.238 292.002 396.873 293.848 396.873 296.295ZM424.312 305.195C422.604 305.195 421.332 304.32 421.332 302.816C421.332 301.34 422.316 300.561 424.559 300.41L428.523 300.15V301.504C428.523 303.609 426.732 305.195 424.312 305.195ZM423.875 307.26C425.844 307.26 427.457 306.398 428.414 304.826H428.633V307H430.875V296.91C430.875 293.848 428.865 292.002 425.27 292.002C422.125 292.002 419.801 293.561 419.486 295.926H421.865C422.193 294.764 423.424 294.094 425.188 294.094C427.389 294.094 428.523 295.092 428.523 296.91V298.25L424.271 298.51C420.84 298.715 418.898 300.232 418.898 302.871C418.898 305.564 421.018 307.26 423.875 307.26ZM435.223 307H437.574V297.867C437.574 295.789 439.201 294.285 441.443 294.285C441.908 294.285 442.756 294.367 442.947 294.422V292.07C442.646 292.029 442.154 292.002 441.771 292.002C439.816 292.002 438.121 293.014 437.684 294.449H437.465V292.262H435.223V307ZM451.355 294.08C453.693 294.08 455.252 295.803 455.307 298.414H447.186C447.363 295.803 449.004 294.08 451.355 294.08ZM455.238 303.186C454.623 304.484 453.338 305.182 451.438 305.182C448.936 305.182 447.309 303.336 447.186 300.424V300.314H457.781V299.412C457.781 294.832 455.361 292.002 451.383 292.002C447.336 292.002 444.738 295.01 444.738 299.645C444.738 304.307 447.295 307.26 451.383 307.26C454.609 307.26 456.879 305.715 457.59 303.186H455.238ZM56.6621 321.447V325.262H54.2832V327.23H56.6621V336.172C56.6621 338.988 57.8789 340.109 60.9141 340.109C61.3789 340.109 61.8301 340.055 62.2949 339.973V337.99C61.8574 338.031 61.625 338.045 61.2012 338.045C59.6699 338.045 59.0137 337.307 59.0137 335.57V327.23H62.2949V325.262H59.0137V321.447H56.6621ZM70.3887 338.195C68.6797 338.195 67.4082 337.32 67.4082 335.816C67.4082 334.34 68.3926 333.561 70.6348 333.41L74.5996 333.15V334.504C74.5996 336.609 72.8086 338.195 70.3887 338.195ZM69.9512 340.26C71.9199 340.26 73.5332 339.398 74.4902 337.826H74.709V340H76.9512V329.91C76.9512 326.848 74.9414 325.002 71.3457 325.002C68.2012 325.002 65.877 326.561 65.5625 328.926H67.9414C68.2695 327.764 69.5 327.094 71.2637 327.094C73.4648 327.094 74.5996 328.092 74.5996 329.91V331.25L70.3477 331.51C66.916 331.715 64.9746 333.232 64.9746 335.871C64.9746 338.564 67.0938 340.26 69.9512 340.26ZM81.3535 340H83.7051V325.262H81.3535V340ZM82.5293 322.268C83.4316 322.268 84.1699 321.529 84.1699 320.627C84.1699 319.725 83.4316 318.986 82.5293 318.986C81.627 318.986 80.8887 319.725 80.8887 320.627C80.8887 321.529 81.627 322.268 82.5293 322.268ZM88.3262 340H90.6777V319.41H88.3262V340ZM101.301 340.26C105.498 340.26 108.096 337.361 108.096 332.631C108.096 327.887 105.498 325.002 101.301 325.002C97.1035 325.002 94.5059 327.887 94.5059 332.631C94.5059 337.361 97.1035 340.26 101.301 340.26ZM101.301 338.141C98.5117 338.141 96.9395 336.117 96.9395 332.631C96.9395 329.131 98.5117 327.121 101.301 327.121C104.09 327.121 105.662 329.131 105.662 332.631C105.662 336.117 104.09 338.141 101.301 338.141ZM111.787 340H114.139V330.867C114.139 328.789 115.766 327.285 118.008 327.285C118.473 327.285 119.32 327.367 119.512 327.422V325.07C119.211 325.029 118.719 325.002 118.336 325.002C116.381 325.002 114.686 326.014 114.248 327.449H114.029V325.262H111.787V340ZM127.92 327.08C130.258 327.08 131.816 328.803 131.871 331.414H123.75C123.928 328.803 125.568 327.08 127.92 327.08ZM131.803 336.186C131.188 337.484 129.902 338.182 128.002 338.182C125.5 338.182 123.873 336.336 123.75 333.424V333.314H134.346V332.412C134.346 327.832 131.926 325.002 127.947 325.002C123.9 325.002 121.303 328.01 121.303 332.645C121.303 337.307 123.859 340.26 127.947 340.26C131.174 340.26 133.443 338.715 134.154 336.186H131.803ZM143.492 340.26C145.529 340.26 147.279 339.289 148.209 337.648H148.428V340H150.67V319.41H148.318V327.586H148.113C147.279 325.973 145.543 325.002 143.492 325.002C139.746 325.002 137.299 328.01 137.299 332.631C137.299 337.266 139.719 340.26 143.492 340.26ZM144.039 327.121C146.705 327.121 148.373 329.254 148.373 332.631C148.373 336.035 146.719 338.141 144.039 338.141C141.346 338.141 139.732 336.076 139.732 332.631C139.732 329.199 141.359 327.121 144.039 327.121ZM164.123 321.447V325.262H161.744V327.23H164.123V336.172C164.123 338.988 165.34 340.109 168.375 340.109C168.84 340.109 169.291 340.055 169.756 339.973V337.99C169.318 338.031 169.086 338.045 168.662 338.045C167.131 338.045 166.475 337.307 166.475 335.57V327.23H169.756V325.262H166.475V321.447H164.123ZM179.148 340.26C183.346 340.26 185.943 337.361 185.943 332.631C185.943 327.887 183.346 325.002 179.148 325.002C174.951 325.002 172.354 327.887 172.354 332.631C172.354 337.361 174.951 340.26 179.148 340.26ZM179.148 338.141C176.359 338.141 174.787 336.117 174.787 332.631C174.787 329.131 176.359 327.121 179.148 327.121C181.938 327.121 183.51 329.131 183.51 332.631C183.51 336.117 181.938 338.141 179.148 338.141ZM198.521 321.447V325.262H196.143V327.23H198.521V336.172C198.521 338.988 199.738 340.109 202.773 340.109C203.238 340.109 203.689 340.055 204.154 339.973V337.99C203.717 338.031 203.484 338.045 203.061 338.045C201.529 338.045 200.873 337.307 200.873 335.57V327.23H204.154V325.262H200.873V321.447H198.521ZM207.846 340H210.197V331.277C210.197 328.789 211.646 327.121 214.285 327.121C216.514 327.121 217.689 328.42 217.689 331.031V340H220.041V330.457C220.041 326.998 218.072 325.002 214.955 325.002C212.699 325.002 211.154 325.959 210.416 327.586H210.197V319.41H207.846V340ZM230.213 327.08C232.551 327.08 234.109 328.803 234.164 331.414H226.043C226.221 328.803 227.861 327.08 230.213 327.08ZM234.096 336.186C233.48 337.484 232.195 338.182 230.295 338.182C227.793 338.182 226.166 336.336 226.043 333.424V333.314H236.639V332.412C236.639 327.832 234.219 325.002 230.24 325.002C226.193 325.002 223.596 328.01 223.596 332.645C223.596 337.307 226.152 340.26 230.24 340.26C233.467 340.26 235.736 338.715 236.447 336.186H234.096ZM260.154 325.262H257.803V333.984C257.803 336.568 256.381 338.113 253.783 338.113C251.432 338.113 250.447 336.883 250.447 334.23V325.262H248.096V334.805C248.096 338.291 249.818 340.26 253.127 340.26C255.383 340.26 256.955 339.33 257.693 337.689H257.912V340H260.154V325.262ZM264.242 329.295C264.242 331.428 265.5 332.617 268.262 333.287L270.791 333.902C272.363 334.285 273.129 334.969 273.129 335.98C273.129 337.334 271.707 338.277 269.725 338.277C267.838 338.277 266.662 337.484 266.266 336.24H263.846C264.105 338.688 266.361 340.26 269.643 340.26C272.992 340.26 275.549 338.441 275.549 335.803C275.549 333.684 274.209 332.48 271.434 331.811L269.164 331.264C267.428 330.84 266.607 330.211 266.607 329.199C266.607 327.887 267.975 326.998 269.725 326.998C271.502 326.998 272.65 327.777 272.965 328.953H275.289C274.975 326.533 272.828 325.002 269.738 325.002C266.607 325.002 264.242 326.848 264.242 329.295ZM285.119 327.08C287.457 327.08 289.016 328.803 289.07 331.414H280.949C281.127 328.803 282.768 327.08 285.119 327.08ZM289.002 336.186C288.387 337.484 287.102 338.182 285.201 338.182C282.699 338.182 281.072 336.336 280.949 333.424V333.314H291.545V332.412C291.545 327.832 289.125 325.002 285.146 325.002C281.1 325.002 278.502 328.01 278.502 332.645C278.502 337.307 281.059 340.26 285.146 340.26C288.373 340.26 290.643 338.715 291.354 336.186H289.002ZM295.236 340H297.588V330.867C297.588 328.789 299.215 327.285 301.457 327.285C301.922 327.285 302.77 327.367 302.961 327.422V325.07C302.66 325.029 302.168 325.002 301.785 325.002C299.83 325.002 298.135 326.014 297.697 327.449H297.479V325.262H295.236V340ZM305.285 329.295C305.285 331.428 306.543 332.617 309.305 333.287L311.834 333.902C313.406 334.285 314.172 334.969 314.172 335.98C314.172 337.334 312.75 338.277 310.768 338.277C308.881 338.277 307.705 337.484 307.309 336.24H304.889C305.148 338.688 307.404 340.26 310.686 340.26C314.035 340.26 316.592 338.441 316.592 335.803C316.592 333.684 315.252 332.48 312.477 331.811L310.207 331.264C308.471 330.84 307.65 330.211 307.65 329.199C307.65 327.887 309.018 326.998 310.768 326.998C312.545 326.998 313.693 327.777 314.008 328.953H316.332C316.018 326.533 313.871 325.002 310.781 325.002C307.65 325.002 305.285 326.848 305.285 329.295ZM346.725 325.262H344.359L341.461 337.047H341.242L337.947 325.262H335.691L332.396 337.047H332.178L329.279 325.262H326.9L331.029 340H333.408L336.689 328.598H336.908L340.203 340H342.596L346.725 325.262ZM353.998 338.195C352.289 338.195 351.018 337.32 351.018 335.816C351.018 334.34 352.002 333.561 354.244 333.41L358.209 333.15V334.504C358.209 336.609 356.418 338.195 353.998 338.195ZM353.561 340.26C355.529 340.26 357.143 339.398 358.1 337.826H358.318V340H360.561V329.91C360.561 326.848 358.551 325.002 354.955 325.002C351.811 325.002 349.486 326.561 349.172 328.926H351.551C351.879 327.764 353.109 327.094 354.873 327.094C357.074 327.094 358.209 328.092 358.209 329.91V331.25L353.957 331.51C350.525 331.715 348.584 333.232 348.584 335.871C348.584 338.564 350.703 340.26 353.561 340.26ZM364.908 340H367.26V331.277C367.26 328.693 368.777 327.121 371.129 327.121C373.48 327.121 374.602 328.379 374.602 331.031V340H376.953V330.457C376.953 326.957 375.107 325.002 371.799 325.002C369.543 325.002 368.107 325.959 367.369 327.586H367.15V325.262H364.908V340ZM382.244 321.447V325.262H379.865V327.23H382.244V336.172C382.244 338.988 383.461 340.109 386.496 340.109C386.961 340.109 387.412 340.055 387.877 339.973V337.99C387.439 338.031 387.207 338.045 386.783 338.045C385.252 338.045 384.596 337.307 384.596 335.57V327.23H387.877V325.262H384.596V321.447H382.244ZM390.816 329.295C390.816 331.428 392.074 332.617 394.836 333.287L397.365 333.902C398.938 334.285 399.703 334.969 399.703 335.98C399.703 337.334 398.281 338.277 396.299 338.277C394.412 338.277 393.236 337.484 392.84 336.24H390.42C390.68 338.688 392.936 340.26 396.217 340.26C399.566 340.26 402.123 338.441 402.123 335.803C402.123 333.684 400.783 332.48 398.008 331.811L395.738 331.264C394.002 330.84 393.182 330.211 393.182 329.199C393.182 327.887 394.549 326.998 396.299 326.998C398.076 326.998 399.225 327.777 399.539 328.953H401.863C401.549 326.533 399.402 325.002 396.312 325.002C393.182 325.002 390.816 326.848 390.816 329.295ZM407.305 345.018L409.451 337.238H406.84L405.541 345.018H407.305ZM423.014 321.447V325.262H420.635V327.23H423.014V336.172C423.014 338.988 424.23 340.109 427.266 340.109C427.73 340.109 428.182 340.055 428.646 339.973V337.99C428.209 338.031 427.977 338.045 427.553 338.045C426.021 338.045 425.365 337.307 425.365 335.57V327.23H428.646V325.262H425.365V321.447H423.014ZM432.338 340H434.689V331.277C434.689 328.789 436.139 327.121 438.777 327.121C441.006 327.121 442.182 328.42 442.182 331.031V340H444.533V330.457C444.533 326.998 442.564 325.002 439.447 325.002C437.191 325.002 435.646 325.959 434.908 327.586H434.689V319.41H432.338V340ZM454.705 327.08C457.043 327.08 458.602 328.803 458.656 331.414H450.535C450.713 328.803 452.354 327.08 454.705 327.08ZM458.588 336.186C457.973 337.484 456.688 338.182 454.787 338.182C452.285 338.182 450.658 336.336 450.535 333.424V333.314H461.131V332.412C461.131 327.832 458.711 325.002 454.732 325.002C450.686 325.002 448.088 328.01 448.088 332.645C448.088 337.307 450.645 340.26 454.732 340.26C457.959 340.26 460.229 338.715 460.939 336.186H458.588ZM465.807 345.332C468.418 345.332 469.594 344.32 470.852 340.902L476.607 325.262H474.105L470.072 337.389H469.854L465.807 325.262H463.264L468.719 340.014L468.445 340.889C467.83 342.666 467.092 343.309 465.738 343.309C465.41 343.309 465.041 343.295 464.754 343.24V345.25C465.082 345.305 465.492 345.332 465.807 345.332ZM93.8633 362.773C93.4531 360.148 91.2656 358.002 87.6836 358.002C83.5547 358.002 80.9297 360.982 80.9297 365.576C80.9297 370.266 83.5684 373.26 87.6973 373.26C91.2383 373.26 93.4395 371.264 93.8633 368.557H91.4844C91.0469 370.225 89.666 371.141 87.6836 371.141C85.0586 371.141 83.3633 368.98 83.3633 365.576C83.3633 362.24 85.0312 360.121 87.6836 360.121C89.8027 360.121 91.1016 361.311 91.4844 362.773H93.8633ZM101.875 371.195C100.166 371.195 98.8945 370.32 98.8945 368.816C98.8945 367.34 99.8789 366.561 102.121 366.41L106.086 366.15V367.504C106.086 369.609 104.295 371.195 101.875 371.195ZM101.438 373.26C103.406 373.26 105.02 372.398 105.977 370.826H106.195V373H108.438V362.91C108.438 359.848 106.428 358.002 102.832 358.002C99.6875 358.002 97.3633 359.561 97.0488 361.926H99.4277C99.7559 360.764 100.986 360.094 102.75 360.094C104.951 360.094 106.086 361.092 106.086 362.91V364.25L101.834 364.51C98.4023 364.715 96.4609 366.232 96.4609 368.871C96.4609 371.564 98.5801 373.26 101.438 373.26ZM112.785 373H115.137V364.277C115.137 361.693 116.654 360.121 119.006 360.121C121.357 360.121 122.479 361.379 122.479 364.031V373H124.83V363.457C124.83 359.957 122.984 358.002 119.676 358.002C117.42 358.002 115.984 358.959 115.246 360.586H115.027V358.262H112.785V373ZM138.023 373H140.375V360.23H143.752V358.262H140.375V356.689C140.375 355.076 141.086 354.256 142.781 354.256C143.205 354.256 143.602 354.27 143.889 354.324V352.41C143.396 352.314 142.877 352.273 142.303 352.273C139.5 352.273 138.023 353.682 138.023 356.621V358.262H135.576V360.23H138.023V373ZM151.312 371.195C149.604 371.195 148.332 370.32 148.332 368.816C148.332 367.34 149.316 366.561 151.559 366.41L155.523 366.15V367.504C155.523 369.609 153.732 371.195 151.312 371.195ZM150.875 373.26C152.844 373.26 154.457 372.398 155.414 370.826H155.633V373H157.875V362.91C157.875 359.848 155.865 358.002 152.27 358.002C149.125 358.002 146.801 359.561 146.486 361.926H148.865C149.193 360.764 150.424 360.094 152.188 360.094C154.389 360.094 155.523 361.092 155.523 362.91V364.25L151.271 364.51C147.84 364.715 145.898 366.232 145.898 368.871C145.898 371.564 148.018 373.26 150.875 373.26ZM173.707 358.262H171.191L167.158 370.402H166.939L162.906 358.262H160.391L165.846 373H168.252L173.707 358.262ZM182.361 373.26C186.559 373.26 189.156 370.361 189.156 365.631C189.156 360.887 186.559 358.002 182.361 358.002C178.164 358.002 175.566 360.887 175.566 365.631C175.566 370.361 178.164 373.26 182.361 373.26ZM182.361 371.141C179.572 371.141 178 369.117 178 365.631C178 362.131 179.572 360.121 182.361 360.121C185.15 360.121 186.723 362.131 186.723 365.631C186.723 369.117 185.15 371.141 182.361 371.141ZM204.77 358.262H202.418V366.984C202.418 369.568 200.996 371.113 198.398 371.113C196.047 371.113 195.062 369.883 195.062 367.23V358.262H192.711V367.805C192.711 371.291 194.434 373.26 197.742 373.26C199.998 373.26 201.57 372.33 202.309 370.689H202.527V373H204.77V358.262ZM209.199 373H211.551V363.867C211.551 361.789 213.178 360.285 215.42 360.285C215.885 360.285 216.732 360.367 216.924 360.422V358.07C216.623 358.029 216.131 358.002 215.748 358.002C213.793 358.002 212.098 359.014 211.66 360.449H211.441V358.262H209.199V373ZM219.918 373H222.27V358.262H219.918V373ZM221.094 355.268C221.996 355.268 222.734 354.529 222.734 353.627C222.734 352.725 221.996 351.986 221.094 351.986C220.191 351.986 219.453 352.725 219.453 353.627C219.453 354.529 220.191 355.268 221.094 355.268ZM227.738 354.447V358.262H225.359V360.23H227.738V369.172C227.738 371.988 228.955 373.109 231.99 373.109C232.455 373.109 232.906 373.055 233.371 372.973V370.99C232.934 371.031 232.701 371.045 232.277 371.045C230.746 371.045 230.09 370.307 230.09 368.57V360.23H233.371V358.262H230.09V354.447H227.738ZM242.586 360.08C244.924 360.08 246.482 361.803 246.537 364.414H238.416C238.594 361.803 240.234 360.08 242.586 360.08ZM246.469 369.186C245.854 370.484 244.568 371.182 242.668 371.182C240.166 371.182 238.539 369.336 238.416 366.424V366.314H249.012V365.412C249.012 360.832 246.592 358.002 242.613 358.002C238.566 358.002 235.969 361.01 235.969 365.645C235.969 370.307 238.525 373.26 242.613 373.26C245.84 373.26 248.109 371.715 248.82 369.186H246.469ZM265.145 371.195C263.436 371.195 262.164 370.32 262.164 368.816C262.164 367.34 263.148 366.561 265.391 366.41L269.355 366.15V367.504C269.355 369.609 267.564 371.195 265.145 371.195ZM264.707 373.26C266.676 373.26 268.289 372.398 269.246 370.826H269.465V373H271.707V362.91C271.707 359.848 269.697 358.002 266.102 358.002C262.957 358.002 260.633 359.561 260.318 361.926H262.697C263.025 360.764 264.256 360.094 266.02 360.094C268.221 360.094 269.355 361.092 269.355 362.91V364.25L265.104 364.51C261.672 364.715 259.73 366.232 259.73 368.871C259.73 371.564 261.85 373.26 264.707 373.26ZM276.055 373H278.406V364.277C278.406 361.693 279.924 360.121 282.275 360.121C284.627 360.121 285.748 361.379 285.748 364.031V373H288.1V363.457C288.1 359.957 286.254 358.002 282.945 358.002C280.689 358.002 279.254 358.959 278.516 360.586H278.297V358.262H276.055V373ZM297.861 373.26C299.898 373.26 301.648 372.289 302.578 370.648H302.797V373H305.039V352.41H302.688V360.586H302.482C301.648 358.973 299.912 358.002 297.861 358.002C294.115 358.002 291.668 361.01 291.668 365.631C291.668 370.266 294.088 373.26 297.861 373.26ZM298.408 360.121C301.074 360.121 302.742 362.254 302.742 365.631C302.742 369.035 301.088 371.141 298.408 371.141C295.715 371.141 294.102 369.076 294.102 365.631C294.102 362.199 295.729 360.121 298.408 360.121ZM317.166 362.295C317.166 364.428 318.424 365.617 321.186 366.287L323.715 366.902C325.287 367.285 326.053 367.969 326.053 368.98C326.053 370.334 324.631 371.277 322.648 371.277C320.762 371.277 319.586 370.484 319.189 369.24H316.77C317.029 371.688 319.285 373.26 322.566 373.26C325.916 373.26 328.473 371.441 328.473 368.803C328.473 366.684 327.133 365.48 324.357 364.811L322.088 364.264C320.352 363.84 319.531 363.211 319.531 362.199C319.531 360.887 320.898 359.998 322.648 359.998C324.426 359.998 325.574 360.777 325.889 361.953H328.213C327.898 359.533 325.752 358.002 322.662 358.002C319.531 358.002 317.166 359.848 317.166 362.295ZM332.301 373H334.652V364.277C334.652 361.789 336.102 360.121 338.74 360.121C340.969 360.121 342.145 361.42 342.145 364.031V373H344.496V363.457C344.496 359.998 342.527 358.002 339.41 358.002C337.154 358.002 335.609 358.959 334.871 360.586H334.652V352.41H332.301V373ZM353.328 371.195C351.619 371.195 350.348 370.32 350.348 368.816C350.348 367.34 351.332 366.561 353.574 366.41L357.539 366.15V367.504C357.539 369.609 355.748 371.195 353.328 371.195ZM352.891 373.26C354.859 373.26 356.473 372.398 357.43 370.826H357.648V373H359.891V362.91C359.891 359.848 357.881 358.002 354.285 358.002C351.141 358.002 348.816 359.561 348.502 361.926H350.881C351.209 360.764 352.439 360.094 354.203 360.094C356.404 360.094 357.539 361.092 357.539 362.91V364.25L353.287 364.51C349.855 364.715 347.914 366.232 347.914 368.871C347.914 371.564 350.033 373.26 352.891 373.26ZM364.238 373H366.59V363.867C366.59 361.789 368.217 360.285 370.459 360.285C370.924 360.285 371.771 360.367 371.963 360.422V358.07C371.662 358.029 371.17 358.002 370.787 358.002C368.832 358.002 367.137 359.014 366.699 360.449H366.48V358.262H364.238V373ZM380.371 360.08C382.709 360.08 384.268 361.803 384.322 364.414H376.201C376.379 361.803 378.02 360.08 380.371 360.08ZM384.254 369.186C383.639 370.484 382.354 371.182 380.453 371.182C377.951 371.182 376.324 369.336 376.201 366.424V366.314H386.797V365.412C386.797 360.832 384.377 358.002 380.398 358.002C376.352 358.002 373.754 361.01 373.754 365.645C373.754 370.307 376.311 373.26 380.398 373.26C383.625 373.26 385.895 371.715 386.605 369.186H384.254ZM416.93 358.262H414.564L411.666 370.047H411.447L408.152 358.262H405.896L402.602 370.047H402.383L399.484 358.262H397.105L401.234 373H403.613L406.895 361.598H407.113L410.408 373H412.801L416.93 358.262ZM420.129 373H422.48V358.262H420.129V373ZM421.305 355.268C422.207 355.268 422.945 354.529 422.945 353.627C422.945 352.725 422.207 351.986 421.305 351.986C420.402 351.986 419.664 352.725 419.664 353.627C419.664 354.529 420.402 355.268 421.305 355.268ZM427.949 354.447V358.262H425.57V360.23H427.949V369.172C427.949 371.988 429.166 373.109 432.201 373.109C432.666 373.109 433.117 373.055 433.582 372.973V370.99C433.145 371.031 432.912 371.045 432.488 371.045C430.957 371.045 430.301 370.307 430.301 368.57V360.23H433.582V358.262H430.301V354.447H427.949ZM437.273 373H439.625V364.277C439.625 361.789 441.074 360.121 443.713 360.121C445.941 360.121 447.117 361.42 447.117 364.031V373H449.469V363.457C449.469 359.998 447.5 358.002 444.383 358.002C442.127 358.002 440.582 358.959 439.844 360.586H439.625V352.41H437.273V373ZM78.291 406H80.6426V393.23H84.0195V391.262H80.6426V389.689C80.6426 388.076 81.3535 387.256 83.0488 387.256C83.4727 387.256 83.8691 387.27 84.1562 387.324V385.41C83.6641 385.314 83.1445 385.273 82.5703 385.273C79.7676 385.273 78.291 386.682 78.291 389.621V391.262H75.8438V393.23H78.291V406ZM87.4512 406H89.8027V396.867C89.8027 394.789 91.4297 393.285 93.6719 393.285C94.1367 393.285 94.9844 393.367 95.1758 393.422V391.07C94.875 391.029 94.3828 391.002 94 391.002C92.0449 391.002 90.3496 392.014 89.9121 393.449H89.6934V391.262H87.4512V406ZM98.1699 406H100.521V391.262H98.1699V406ZM99.3457 388.268C100.248 388.268 100.986 387.529 100.986 386.627C100.986 385.725 100.248 384.986 99.3457 384.986C98.4434 384.986 97.7051 385.725 97.7051 386.627C97.7051 387.529 98.4434 388.268 99.3457 388.268ZM110.885 393.08C113.223 393.08 114.781 394.803 114.836 397.414H106.715C106.893 394.803 108.533 393.08 110.885 393.08ZM114.768 402.186C114.152 403.484 112.867 404.182 110.967 404.182C108.465 404.182 106.838 402.336 106.715 399.424V399.314H117.311V398.412C117.311 393.832 114.891 391.002 110.912 391.002C106.865 391.002 104.268 394.01 104.268 398.645C104.268 403.307 106.824 406.26 110.912 406.26C114.139 406.26 116.408 404.715 117.119 402.186H114.768ZM121.002 406H123.354V397.277C123.354 394.693 124.871 393.121 127.223 393.121C129.574 393.121 130.695 394.379 130.695 397.031V406H133.047V396.457C133.047 392.957 131.201 391.002 127.893 391.002C125.637 391.002 124.201 391.959 123.463 393.586H123.244V391.262H121.002V406ZM142.809 406.26C144.846 406.26 146.596 405.289 147.525 403.648H147.744V406H149.986V385.41H147.635V393.586H147.43C146.596 391.973 144.859 391.002 142.809 391.002C139.062 391.002 136.615 394.01 136.615 398.631C136.615 403.266 139.035 406.26 142.809 406.26ZM143.355 393.121C146.021 393.121 147.689 395.254 147.689 398.631C147.689 402.035 146.035 404.141 143.355 404.141C140.662 404.141 139.049 402.076 139.049 398.631C139.049 395.199 140.676 393.121 143.355 393.121ZM154.211 395.295C154.211 397.428 155.469 398.617 158.23 399.287L160.76 399.902C162.332 400.285 163.098 400.969 163.098 401.98C163.098 403.334 161.676 404.277 159.693 404.277C157.807 404.277 156.631 403.484 156.234 402.24H153.814C154.074 404.688 156.33 406.26 159.611 406.26C162.961 406.26 165.518 404.441 165.518 401.803C165.518 399.684 164.178 398.48 161.402 397.811L159.133 397.264C157.396 396.84 156.576 396.211 156.576 395.199C156.576 393.887 157.943 392.998 159.693 392.998C161.471 392.998 162.619 393.777 162.934 394.953H165.258C164.943 392.533 162.797 391.002 159.707 391.002C156.576 391.002 154.211 392.848 154.211 395.295ZM181.65 404.195C179.941 404.195 178.67 403.32 178.67 401.816C178.67 400.34 179.654 399.561 181.896 399.41L185.861 399.15V400.504C185.861 402.609 184.07 404.195 181.65 404.195ZM181.213 406.26C183.182 406.26 184.795 405.398 185.752 403.826H185.971V406H188.213V395.91C188.213 392.848 186.203 391.002 182.607 391.002C179.463 391.002 177.139 392.561 176.824 394.926H179.203C179.531 393.764 180.762 393.094 182.525 393.094C184.727 393.094 185.861 394.092 185.861 395.91V397.25L181.609 397.51C178.178 397.715 176.236 399.232 176.236 401.871C176.236 404.564 178.355 406.26 181.213 406.26ZM192.561 406H194.912V397.277C194.912 394.693 196.43 393.121 198.781 393.121C201.133 393.121 202.254 394.379 202.254 397.031V406H204.605V396.457C204.605 392.957 202.76 391.002 199.451 391.002C197.195 391.002 195.76 391.959 195.021 393.586H194.803V391.262H192.561V406ZM214.367 406.26C216.404 406.26 218.154 405.289 219.084 403.648H219.303V406H221.545V385.41H219.193V393.586H218.988C218.154 391.973 216.418 391.002 214.367 391.002C210.621 391.002 208.174 394.01 208.174 398.631C208.174 403.266 210.594 406.26 214.367 406.26ZM214.914 393.121C217.58 393.121 219.248 395.254 219.248 398.631C219.248 402.035 217.594 404.141 214.914 404.141C212.221 404.141 210.607 402.076 210.607 398.631C210.607 395.199 212.234 393.121 214.914 393.121ZM246.209 395.773C245.799 393.148 243.611 391.002 240.029 391.002C235.9 391.002 233.275 393.982 233.275 398.576C233.275 403.266 235.914 406.26 240.043 406.26C243.584 406.26 245.785 404.264 246.209 401.557H243.83C243.393 403.225 242.012 404.141 240.029 404.141C237.404 404.141 235.709 401.98 235.709 398.576C235.709 395.24 237.377 393.121 240.029 393.121C242.148 393.121 243.447 394.311 243.83 395.773H246.209ZM254.221 404.195C252.512 404.195 251.24 403.32 251.24 401.816C251.24 400.34 252.225 399.561 254.467 399.41L258.432 399.15V400.504C258.432 402.609 256.641 404.195 254.221 404.195ZM253.783 406.26C255.752 406.26 257.365 405.398 258.322 403.826H258.541V406H260.783V395.91C260.783 392.848 258.773 391.002 255.178 391.002C252.033 391.002 249.709 392.561 249.395 394.926H251.773C252.102 393.764 253.332 393.094 255.096 393.094C257.297 393.094 258.432 394.092 258.432 395.91V397.25L254.18 397.51C250.748 397.715 248.807 399.232 248.807 401.871C248.807 404.564 250.926 406.26 253.783 406.26ZM265.131 406H267.482V397.277C267.482 394.693 269 393.121 271.352 393.121C273.703 393.121 274.824 394.379 274.824 397.031V406H277.176V396.457C277.176 392.957 275.33 391.002 272.021 391.002C269.766 391.002 268.33 391.959 267.592 393.586H267.373V391.262H265.131V406ZM301.58 395.773C301.17 393.148 298.982 391.002 295.4 391.002C291.271 391.002 288.646 393.982 288.646 398.576C288.646 403.266 291.285 406.26 295.414 406.26C298.955 406.26 301.156 404.264 301.58 401.557H299.201C298.764 403.225 297.383 404.141 295.4 404.141C292.775 404.141 291.08 401.98 291.08 398.576C291.08 395.24 292.748 393.121 295.4 393.121C297.52 393.121 298.818 394.311 299.201 395.773H301.58ZM305.053 406H307.404V396.867C307.404 394.789 309.031 393.285 311.273 393.285C311.738 393.285 312.586 393.367 312.777 393.422V391.07C312.477 391.029 311.984 391.002 311.602 391.002C309.646 391.002 307.951 392.014 307.514 393.449H307.295V391.262H305.053V406ZM321.186 393.08C323.523 393.08 325.082 394.803 325.137 397.414H317.016C317.193 394.803 318.834 393.08 321.186 393.08ZM325.068 402.186C324.453 403.484 323.168 404.182 321.268 404.182C318.766 404.182 317.139 402.336 317.016 399.424V399.314H327.611V398.412C327.611 393.832 325.191 391.002 321.213 391.002C317.166 391.002 314.568 394.01 314.568 398.645C314.568 403.307 317.125 406.26 321.213 406.26C324.439 406.26 326.709 404.715 327.42 402.186H325.068ZM335.842 404.195C334.133 404.195 332.861 403.32 332.861 401.816C332.861 400.34 333.846 399.561 336.088 399.41L340.053 399.15V400.504C340.053 402.609 338.262 404.195 335.842 404.195ZM335.404 406.26C337.373 406.26 338.986 405.398 339.943 403.826H340.162V406H342.404V395.91C342.404 392.848 340.395 391.002 336.799 391.002C333.654 391.002 331.33 392.561 331.016 394.926H333.395C333.723 393.764 334.953 393.094 336.717 393.094C338.918 393.094 340.053 394.092 340.053 395.91V397.25L335.801 397.51C332.369 397.715 330.428 399.232 330.428 401.871C330.428 404.564 332.547 406.26 335.404 406.26ZM347.736 387.447V391.262H345.357V393.23H347.736V402.172C347.736 404.988 348.953 406.109 351.988 406.109C352.453 406.109 352.904 406.055 353.369 405.973V403.99C352.932 404.031 352.699 404.045 352.275 404.045C350.744 404.045 350.088 403.307 350.088 401.57V393.23H353.369V391.262H350.088V387.447H347.736ZM362.584 393.08C364.922 393.08 366.48 394.803 366.535 397.414H358.414C358.592 394.803 360.232 393.08 362.584 393.08ZM366.467 402.186C365.852 403.484 364.566 404.182 362.666 404.182C360.164 404.182 358.537 402.336 358.414 399.424V399.314H369.01V398.412C369.01 393.832 366.59 391.002 362.611 391.002C358.564 391.002 355.967 394.01 355.967 398.645C355.967 403.307 358.523 406.26 362.611 406.26C365.838 406.26 368.107 404.715 368.818 402.186H366.467ZM380.604 406H382.955V396.867C382.955 394.789 384.445 393.121 386.373 393.121C388.232 393.121 389.449 394.242 389.449 395.992V406H391.801V396.525C391.801 394.652 393.168 393.121 395.219 393.121C397.297 393.121 398.322 394.188 398.322 396.361V406H400.674V395.814C400.674 392.725 398.992 391.002 395.984 391.002C393.947 391.002 392.266 392.027 391.473 393.586H391.254C390.57 392.055 389.176 391.002 387.18 391.002C385.211 391.002 383.734 391.945 383.064 393.586H382.846V391.262H380.604V406ZM410.846 393.08C413.184 393.08 414.742 394.803 414.797 397.414H406.676C406.854 394.803 408.494 393.08 410.846 393.08ZM414.729 402.186C414.113 403.484 412.828 404.182 410.928 404.182C408.426 404.182 406.799 402.336 406.676 399.424V399.314H417.271V398.412C417.271 393.832 414.852 391.002 410.873 391.002C406.826 391.002 404.229 394.01 404.229 398.645C404.229 403.307 406.785 406.26 410.873 406.26C414.1 406.26 416.369 404.715 417.08 402.186H414.729ZM425.502 404.195C423.793 404.195 422.521 403.32 422.521 401.816C422.521 400.34 423.506 399.561 425.748 399.41L429.713 399.15V400.504C429.713 402.609 427.922 404.195 425.502 404.195ZM425.064 406.26C427.033 406.26 428.646 405.398 429.604 403.826H429.822V406H432.064V395.91C432.064 392.848 430.055 391.002 426.459 391.002C423.314 391.002 420.99 392.561 420.676 394.926H423.055C423.383 393.764 424.613 393.094 426.377 393.094C428.578 393.094 429.713 394.092 429.713 395.91V397.25L425.461 397.51C422.029 397.715 420.088 399.232 420.088 401.871C420.088 404.564 422.207 406.26 425.064 406.26ZM436.549 406H438.9V385.41H436.549V406ZM443.125 395.295C443.125 397.428 444.383 398.617 447.145 399.287L449.674 399.902C451.246 400.285 452.012 400.969 452.012 401.98C452.012 403.334 450.59 404.277 448.607 404.277C446.721 404.277 445.545 403.484 445.148 402.24H442.729C442.988 404.688 445.244 406.26 448.525 406.26C451.875 406.26 454.432 404.441 454.432 401.803C454.432 399.684 453.092 398.48 450.316 397.811L448.047 397.264C446.311 396.84 445.49 396.211 445.49 395.199C445.49 393.887 446.857 392.998 448.607 392.998C450.385 392.998 451.533 393.777 451.848 394.953H454.172C453.857 392.533 451.711 391.002 448.621 391.002C445.49 391.002 443.125 392.848 443.125 395.295ZM59.8203 424.262H57.4551L54.5566 436.047H54.3379L51.043 424.262H48.7871L45.4922 436.047H45.2734L42.375 424.262H39.9961L44.125 439H46.5039L49.7852 427.598H50.0039L53.2988 439H55.6914L59.8203 424.262ZM63.1016 439H65.4531V430.277C65.4531 427.789 66.9023 426.121 69.541 426.121C71.7695 426.121 72.9453 427.42 72.9453 430.031V439H75.2969V429.457C75.2969 425.998 73.3281 424.002 70.2109 424.002C67.9551 424.002 66.4102 424.959 65.6719 426.586H65.4531V418.41H63.1016V439ZM85.4688 426.08C87.8066 426.08 89.3652 427.803 89.4199 430.414H81.2988C81.4766 427.803 83.1172 426.08 85.4688 426.08ZM89.3516 435.186C88.7363 436.484 87.4512 437.182 85.5508 437.182C83.0488 437.182 81.4219 435.336 81.2988 432.424V432.314H91.8945V431.412C91.8945 426.832 89.4746 424.002 85.4961 424.002C81.4492 424.002 78.8516 427.01 78.8516 431.645C78.8516 436.307 81.4082 439.26 85.4961 439.26C88.7227 439.26 90.9922 437.715 91.7031 435.186H89.3516ZM96.5703 420.447V424.262H94.1914V426.23H96.5703V435.172C96.5703 437.988 97.7871 439.109 100.822 439.109C101.287 439.109 101.738 439.055 102.203 438.973V436.99C101.766 437.031 101.533 437.045 101.109 437.045C99.5781 437.045 98.9219 436.307 98.9219 434.57V426.23H102.203V424.262H98.9219V420.447H96.5703ZM105.895 439H108.246V430.277C108.246 427.789 109.695 426.121 112.334 426.121C114.562 426.121 115.738 427.42 115.738 430.031V439H118.09V429.457C118.09 425.998 116.121 424.002 113.004 424.002C110.748 424.002 109.203 424.959 108.465 426.586H108.246V418.41H105.895V439ZM128.262 426.08C130.6 426.08 132.158 427.803 132.213 430.414H124.092C124.27 427.803 125.91 426.08 128.262 426.08ZM132.145 435.186C131.529 436.484 130.244 437.182 128.344 437.182C125.842 437.182 124.215 435.336 124.092 432.424V432.314H134.688V431.412C134.688 426.832 132.268 424.002 128.289 424.002C124.242 424.002 121.645 427.01 121.645 431.645C121.645 436.307 124.201 439.26 128.289 439.26C131.516 439.26 133.785 437.715 134.496 435.186H132.145ZM138.379 439H140.73V429.867C140.73 427.789 142.357 426.285 144.6 426.285C145.064 426.285 145.912 426.367 146.104 426.422V424.07C145.803 424.029 145.311 424.002 144.928 424.002C142.973 424.002 141.277 425.014 140.84 426.449H140.621V424.262H138.379V439ZM157 439H159.352V424.262H157V439ZM158.176 421.268C159.078 421.268 159.816 420.529 159.816 419.627C159.816 418.725 159.078 417.986 158.176 417.986C157.273 417.986 156.535 418.725 156.535 419.627C156.535 420.529 157.273 421.268 158.176 421.268ZM164.82 420.447V424.262H162.441V426.23H164.82V435.172C164.82 437.988 166.037 439.109 169.072 439.109C169.537 439.109 169.988 439.055 170.453 438.973V436.99C170.016 437.031 169.783 437.045 169.359 437.045C167.828 437.045 167.172 436.307 167.172 434.57V426.23H170.453V424.262H167.172V420.447H164.82ZM173.393 428.295C173.393 430.428 174.65 431.617 177.412 432.287L179.941 432.902C181.514 433.285 182.279 433.969 182.279 434.98C182.279 436.334 180.857 437.277 178.875 437.277C176.988 437.277 175.812 436.484 175.416 435.24H172.996C173.256 437.688 175.512 439.26 178.793 439.26C182.143 439.26 184.699 437.441 184.699 434.803C184.699 432.684 183.359 431.48 180.584 430.811L178.314 430.264C176.578 429.84 175.758 429.211 175.758 428.199C175.758 426.887 177.125 425.998 178.875 425.998C180.652 425.998 181.801 426.777 182.115 427.953H184.439C184.125 425.533 181.979 424.002 178.889 424.002C175.758 424.002 173.393 425.848 173.393 428.295ZM197.277 439H199.629V426.23H203.006V424.262H199.629V422.689C199.629 421.076 200.34 420.256 202.035 420.256C202.459 420.256 202.855 420.27 203.143 420.324V418.41C202.65 418.314 202.131 418.273 201.557 418.273C198.754 418.273 197.277 419.682 197.277 422.621V424.262H194.83V426.23H197.277V439ZM211.865 439.26C216.062 439.26 218.66 436.361 218.66 431.631C218.66 426.887 216.062 424.002 211.865 424.002C207.668 424.002 205.07 426.887 205.07 431.631C205.07 436.361 207.668 439.26 211.865 439.26ZM211.865 437.141C209.076 437.141 207.504 435.117 207.504 431.631C207.504 428.131 209.076 426.121 211.865 426.121C214.654 426.121 216.227 428.131 216.227 431.631C216.227 435.117 214.654 437.141 211.865 437.141ZM222.352 439H224.703V429.867C224.703 427.789 226.33 426.285 228.572 426.285C229.037 426.285 229.885 426.367 230.076 426.422V424.07C229.775 424.029 229.283 424.002 228.9 424.002C226.945 424.002 225.25 425.014 224.812 426.449H224.594V424.262H222.352V439ZM241.902 420.447V424.262H239.523V426.23H241.902V435.172C241.902 437.988 243.119 439.109 246.154 439.109C246.619 439.109 247.07 439.055 247.535 438.973V436.99C247.098 437.031 246.865 437.045 246.441 437.045C244.91 437.045 244.254 436.307 244.254 434.57V426.23H247.535V424.262H244.254V420.447H241.902ZM251.227 439H253.578V430.277C253.578 427.789 255.027 426.121 257.666 426.121C259.895 426.121 261.07 427.42 261.07 430.031V439H263.422V429.457C263.422 425.998 261.453 424.002 258.336 424.002C256.08 424.002 254.535 424.959 253.797 426.586H253.578V418.41H251.227V439ZM273.594 426.08C275.932 426.08 277.49 427.803 277.545 430.414H269.424C269.602 427.803 271.242 426.08 273.594 426.08ZM277.477 435.186C276.861 436.484 275.576 437.182 273.676 437.182C271.174 437.182 269.547 435.336 269.424 432.424V432.314H280.02V431.412C280.02 426.832 277.6 424.002 273.621 424.002C269.574 424.002 266.977 427.01 266.977 431.645C266.977 436.307 269.533 439.26 273.621 439.26C276.848 439.26 279.117 437.715 279.828 435.186H277.477ZM283.711 439H286.062V429.867C286.062 427.789 287.553 426.121 289.48 426.121C291.34 426.121 292.557 427.242 292.557 428.992V439H294.908V429.525C294.908 427.652 296.275 426.121 298.326 426.121C300.404 426.121 301.43 427.188 301.43 429.361V439H303.781V428.814C303.781 425.725 302.1 424.002 299.092 424.002C297.055 424.002 295.373 425.027 294.58 426.586H294.361C293.678 425.055 292.283 424.002 290.287 424.002C288.318 424.002 286.842 424.945 286.172 426.586H285.953V424.262H283.711V439ZM307.732 428.295C307.732 430.428 308.99 431.617 311.752 432.287L314.281 432.902C315.854 433.285 316.619 433.969 316.619 434.98C316.619 436.334 315.197 437.277 313.215 437.277C311.328 437.277 310.152 436.484 309.756 435.24H307.336C307.596 437.688 309.852 439.26 313.133 439.26C316.482 439.26 319.039 437.441 319.039 434.803C319.039 432.684 317.699 431.48 314.924 430.811L312.654 430.264C310.918 429.84 310.098 429.211 310.098 428.199C310.098 426.887 311.465 425.998 313.215 425.998C314.992 425.998 316.141 426.777 316.455 427.953H318.779C318.465 425.533 316.318 424.002 313.229 424.002C310.098 424.002 307.732 425.848 307.732 428.295ZM328.609 426.08C330.947 426.08 332.506 427.803 332.561 430.414H324.439C324.617 427.803 326.258 426.08 328.609 426.08ZM332.492 435.186C331.877 436.484 330.592 437.182 328.691 437.182C326.189 437.182 324.562 435.336 324.439 432.424V432.314H335.035V431.412C335.035 426.832 332.615 424.002 328.637 424.002C324.59 424.002 321.992 427.01 321.992 431.645C321.992 436.307 324.549 439.26 328.637 439.26C331.863 439.26 334.133 437.715 334.844 435.186H332.492ZM338.863 439H341.215V418.41H338.863V439ZM357.812 424.262H355.297L351.264 436.402H351.045L347.012 424.262H344.496L349.951 439H352.357L357.812 424.262ZM366.289 426.08C368.627 426.08 370.186 427.803 370.24 430.414H362.119C362.297 427.803 363.938 426.08 366.289 426.08ZM370.172 435.186C369.557 436.484 368.271 437.182 366.371 437.182C363.869 437.182 362.242 435.336 362.119 432.424V432.314H372.715V431.412C372.715 426.832 370.295 424.002 366.316 424.002C362.27 424.002 359.672 427.01 359.672 431.645C359.672 436.307 362.229 439.26 366.316 439.26C369.543 439.26 371.812 437.715 372.523 435.186H370.172ZM376.064 428.295C376.064 430.428 377.322 431.617 380.084 432.287L382.613 432.902C384.186 433.285 384.951 433.969 384.951 434.98C384.951 436.334 383.529 437.277 381.547 437.277C379.66 437.277 378.484 436.484 378.088 435.24H375.668C375.928 437.688 378.184 439.26 381.465 439.26C384.814 439.26 387.371 437.441 387.371 434.803C387.371 432.684 386.031 431.48 383.256 430.811L380.986 430.264C379.25 429.84 378.43 429.211 378.43 428.199C378.43 426.887 379.797 425.998 381.547 425.998C383.324 425.998 384.473 426.777 384.787 427.953H387.111C386.797 425.533 384.65 424.002 381.561 424.002C378.43 424.002 376.064 425.848 376.064 428.295ZM405.021 439.26C409.219 439.26 411.816 436.361 411.816 431.631C411.816 426.887 409.219 424.002 405.021 424.002C400.824 424.002 398.227 426.887 398.227 431.631C398.227 436.361 400.824 439.26 405.021 439.26ZM405.021 437.141C402.232 437.141 400.66 435.117 400.66 431.631C400.66 428.131 402.232 426.121 405.021 426.121C407.811 426.121 409.383 428.131 409.383 431.631C409.383 435.117 407.811 437.141 405.021 437.141ZM415.508 439H417.859V429.867C417.859 427.789 419.486 426.285 421.729 426.285C422.193 426.285 423.041 426.367 423.232 426.422V424.07C422.932 424.029 422.439 424.002 422.057 424.002C420.102 424.002 418.406 425.014 417.969 426.449H417.75V424.262H415.508V439ZM435.059 439H437.41V426.23H440.787V424.262H437.41V422.689C437.41 421.076 438.121 420.256 439.816 420.256C440.24 420.256 440.637 420.27 440.924 420.324V418.41C440.432 418.314 439.912 418.273 439.338 418.273C436.535 418.273 435.059 419.682 435.059 422.621V424.262H432.611V426.23H435.059V439ZM449.646 439.26C453.844 439.26 456.441 436.361 456.441 431.631C456.441 426.887 453.844 424.002 449.646 424.002C445.449 424.002 442.852 426.887 442.852 431.631C442.852 436.361 445.449 439.26 449.646 439.26ZM449.646 437.141C446.857 437.141 445.285 435.117 445.285 431.631C445.285 428.131 446.857 426.121 449.646 426.121C452.436 426.121 454.008 428.131 454.008 431.631C454.008 435.117 452.436 437.141 449.646 437.141ZM460.133 439H462.484V429.867C462.484 427.789 464.111 426.285 466.354 426.285C466.818 426.285 467.666 426.367 467.857 426.422V424.07C467.557 424.029 467.064 424.002 466.682 424.002C464.727 424.002 463.031 425.014 462.594 426.449H462.375V424.262H460.133V439ZM483.238 437.195C481.529 437.195 480.258 436.32 480.258 434.816C480.258 433.34 481.242 432.561 483.484 432.41L487.449 432.15V433.504C487.449 435.609 485.658 437.195 483.238 437.195ZM482.801 439.26C484.77 439.26 486.383 438.398 487.34 436.826H487.559V439H489.801V428.91C489.801 425.848 487.791 424.002 484.195 424.002C481.051 424.002 478.727 425.561 478.412 427.926H480.791C481.119 426.764 482.35 426.094 484.113 426.094C486.314 426.094 487.449 427.092 487.449 428.91V430.25L483.197 430.51C479.766 430.715 477.824 432.232 477.824 434.871C477.824 437.564 479.943 439.26 482.801 439.26ZM200.012 457.002C198.002 457.002 196.238 458.027 195.295 459.723H195.076V457.262H192.834V476.922H195.186V469.785H195.404C196.211 471.344 197.906 472.26 200.012 472.26C203.758 472.26 206.205 469.238 206.205 464.631C206.205 459.996 203.771 457.002 200.012 457.002ZM199.451 470.141C196.799 470.141 195.117 468.008 195.117 464.631C195.117 461.24 196.799 459.121 199.465 459.121C202.158 459.121 203.771 461.186 203.771 464.631C203.771 468.076 202.158 470.141 199.451 470.141ZM214.436 470.195C212.727 470.195 211.455 469.32 211.455 467.816C211.455 466.34 212.439 465.561 214.682 465.41L218.646 465.15V466.504C218.646 468.609 216.855 470.195 214.436 470.195ZM213.998 472.26C215.967 472.26 217.58 471.398 218.537 469.826H218.756V472H220.998V461.91C220.998 458.848 218.988 457.002 215.393 457.002C212.248 457.002 209.924 458.561 209.609 460.926H211.988C212.316 459.764 213.547 459.094 215.311 459.094C217.512 459.094 218.646 460.092 218.646 461.91V463.25L214.395 463.51C210.963 463.715 209.021 465.232 209.021 467.871C209.021 470.564 211.141 472.26 213.998 472.26ZM225.346 472H227.697V462.867C227.697 460.789 229.324 459.285 231.566 459.285C232.031 459.285 232.879 459.367 233.07 459.422V457.07C232.77 457.029 232.277 457.002 231.895 457.002C229.939 457.002 228.244 458.014 227.807 459.449H227.588V457.262H225.346V472ZM237.814 453.447V457.262H235.436V459.23H237.814V468.172C237.814 470.988 239.031 472.109 242.066 472.109C242.531 472.109 242.982 472.055 243.447 471.973V469.99C243.01 470.031 242.777 470.045 242.354 470.045C240.822 470.045 240.166 469.307 240.166 467.57V459.23H243.447V457.262H240.166V453.447H237.814ZM248.26 477.332C250.871 477.332 252.047 476.32 253.305 472.902L259.061 457.262H256.559L252.525 469.389H252.307L248.26 457.262H245.717L251.172 472.014L250.898 472.889C250.283 474.666 249.545 475.309 248.191 475.309C247.863 475.309 247.494 475.295 247.207 475.24V477.25C247.535 477.305 247.945 477.332 248.26 477.332ZM276.164 472.26C280.361 472.26 282.959 469.361 282.959 464.631C282.959 459.887 280.361 457.002 276.164 457.002C271.967 457.002 269.369 459.887 269.369 464.631C269.369 469.361 271.967 472.26 276.164 472.26ZM276.164 470.141C273.375 470.141 271.803 468.117 271.803 464.631C271.803 461.131 273.375 459.121 276.164 459.121C278.953 459.121 280.525 461.131 280.525 464.631C280.525 468.117 278.953 470.141 276.164 470.141ZM287.635 472H289.986V459.23H293.363V457.262H289.986V455.689C289.986 454.076 290.697 453.256 292.393 453.256C292.816 453.256 293.213 453.27 293.5 453.324V451.41C293.008 451.314 292.488 451.273 291.914 451.273C289.111 451.273 287.635 452.682 287.635 455.621V457.262H285.188V459.23H287.635V472ZM309.4 472H311.861V452.271H309.414L304.164 456.045V458.643L309.182 455.006H309.4V472ZM317.631 457.822V457.836H320.01V457.822C320.01 455.498 321.568 453.953 323.879 453.953C326.053 453.953 327.734 455.471 327.734 457.439C327.734 459.025 327.119 460.092 324.576 462.854L317.754 470.305V472H330.523V469.785H321.281V469.566L326.025 464.467C329.266 460.994 330.195 459.395 330.195 457.344C330.195 454.213 327.488 451.807 323.947 451.807C320.283 451.807 317.631 454.322 317.631 457.822ZM336.225 472.137C337.209 472.137 338.002 471.33 338.002 470.359C338.002 469.375 337.209 468.582 336.225 468.582C335.254 468.582 334.447 469.375 334.447 470.359C334.447 471.33 335.254 472.137 336.225 472.137Z" fill="#636F73"/>
<defs>
<filter id="filter0_d_141_7006" x="0" y="0" width="528" height="643" filterUnits="userSpaceOnUse" color-interpolation-filters="sRGB">
<feFlood flood-opacity="0" result="BackgroundImageFix"/>
<feColorMatrix in="SourceAlpha" type="matrix" values="0 0 0 0 0 0 0 0 0 0 0 0 0 0 0 0 0 0 127 0" result="hardAlpha"/>
<feOffset dy="4"/>
<feGaussianBlur stdDeviation="2"/>
<feComposite in2="hardAlpha" operator="out"/>
<feColorMatrix type="matrix" values="0 0 0 0 0 0 0 0 0 0 0 0 0 0 0 0 0 0 0.25 0"/>
<feBlend mode="normal" in2="BackgroundImageFix" result="effect1_dropShadow_141_7006"/>
<feBlend mode="normal" in="SourceGraphic" in2="effect1_dropShadow_141_7006" result="shape"/>
</filter>
</defs>
</svg>
