<svg width="260" height="260" viewBox="0 0 260 260" fill="none" xmlns="http://www.w3.org/2000/svg">
<path d="M0 26C0 11.6406 11.6406 0 26 0H234C248.359 0 260 11.6406 260 26V234C260 248.359 248.359 260 234 260H26C11.6406 260 0 248.359 0 234V26Z" fill="white"/>
<path d="M25 159.16V157.36L29.68 155.74C32.176 154.78 34.1104 153.64 35.4832 152.32C36.856 150.88 37.9792 148.9 38.8528 146.38L77.416 40H93.328L131.33 147.1C132.328 149.74 133.451 151.78 134.699 153.22C135.947 154.54 137.882 155.68 140.502 156.64L142.749 157.36V159.16H95.2V157.36L98.008 156.46C100.629 155.5 102.189 154.18 102.688 152.5C103.312 150.7 103.25 148.6 102.501 146.2L93.7024 120.28H52.144L43.1584 145.66C42.2848 148.3 41.9728 150.4 42.2224 151.96C42.5968 153.52 44.0944 154.78 46.7152 155.74L50.8336 157.36V159.16H25ZM53.4544 116.68H92.5792L73.672 60.7L53.4544 116.68Z" fill="#E3BE5E"/>
<path d="M130.581 219.16V217.36L133.95 216.1C136.446 215.14 138.131 213.94 139.005 212.5C140.003 211.06 140.502 209.14 140.502 206.74V112.78C140.502 110.26 140.003 108.28 139.005 106.84C138.131 105.4 136.446 104.26 133.95 103.42L130.581 102.16V100.36H184.307C199.533 100.36 210.515 103.06 217.254 108.46C223.994 113.74 227.363 120.46 227.363 128.62C227.363 134.74 224.867 140.32 219.875 145.36C215.008 150.28 206.584 153.76 194.603 155.8C208.331 157.24 218.378 160.72 224.742 166.24C231.107 171.64 234.29 178.24 234.29 186.04C234.29 189.88 233.416 193.78 231.669 197.74C229.922 201.58 226.926 205.12 222.683 208.36C218.565 211.6 212.886 214.24 205.648 216.28C198.41 218.2 189.237 219.16 178.13 219.16H130.581ZM168.208 155.62H176.258C184.619 155.62 190.61 153.76 194.229 150.04C197.973 146.32 199.845 139.84 199.845 130.6C199.845 121 198.16 114.16 194.79 110.08C191.421 106 185.93 103.96 178.317 103.96H168.208V155.62ZM168.208 215.56H177.568C186.928 215.56 193.854 213.16 198.347 208.36C202.965 203.56 205.274 196.06 205.274 185.86C205.274 176.26 203.09 169.42 198.722 165.34C194.354 161.26 187.178 159.22 177.194 159.22H168.208V215.56Z" fill="#E3BE5E"/>
</svg>
