<svg width="200" height="200" viewBox="0 0 200 200" fill="none" xmlns="http://www.w3.org/2000/svg">
<path d="M0 20C0 8.95431 8.95431 0 20 0H180C191.046 0 200 8.95431 200 20V180C200 191.046 191.046 200 180 200H20C8.95431 200 0 191.046 0 180V20Z" fill="white"/>
<path d="M34.2441 119C31.9199 119 29.7324 119.16 27.6816 119.479C25.6764 119.843 23.4889 120.025 21.1191 120.025C18.7949 120.025 17.6328 119.273 17.6328 117.77C17.6328 116.22 18.7038 115.445 20.8457 115.445C23.0788 115.445 24.6738 115.035 25.6309 114.215C27.1803 112.802 28.707 110.501 30.2109 107.311C31.7148 104.12 33.1048 101.135 34.3809 98.3555C35.7025 95.5755 37.2064 92.3398 38.8926 88.6484C40.5788 84.9115 42.4245 80.7643 44.4297 76.207C46.4805 71.6042 48.6224 66.7279 50.8555 61.5781C56.6888 48.043 60.5397 38.9512 62.4082 34.3027C64.2767 29.6087 65.3021 27.0111 65.4844 26.5098C65.7122 26.0085 65.9401 25.5527 66.168 25.1426C66.7604 24.1855 67.2617 23.707 67.6719 23.707C68.082 23.707 68.4238 23.7754 68.6973 23.9121C68.9707 24.0033 69.2669 24.2083 69.5859 24.5273C70.2695 25.3932 70.9531 26.6921 71.6367 28.4238C72.3203 30.11 73.2318 32.4115 74.3711 35.3281C75.556 38.2448 76.9004 41.5488 78.4043 45.2402C79.9082 48.9316 81.5033 52.8965 83.1895 57.1348C84.8757 61.373 86.5618 65.6113 88.248 69.8496C89.9798 74.0423 91.6432 78.1211 93.2383 82.0859C94.8789 86.0508 96.3372 89.6283 97.6133 92.8184C101.533 102.343 104.039 108.04 105.133 109.908C106.227 111.777 107.138 113.076 107.867 113.805C109.007 114.898 110.693 115.445 112.926 115.445C115.159 115.445 116.275 116.22 116.275 117.77C116.275 119.273 114.84 120.025 111.969 120.025C110.738 120.025 109.667 119.957 108.756 119.82C107.89 119.729 107.001 119.638 106.09 119.547C103.447 119.182 101.1 119 99.0488 119L85.8555 120.025C82.8932 120.025 81.4121 119.182 81.4121 117.496C81.4121 116.129 82.2324 115.445 83.873 115.445L87.9746 115.924C89.7064 115.924 90.8457 115.559 91.3926 114.83C91.9395 114.055 92.2129 113.098 92.2129 111.959C92.2129 109.817 91.3014 106.49 89.4785 101.979L83.8047 87.7598H45.8652C44.7715 90.4941 43.7461 93.0007 42.7891 95.2793C41.8776 97.5579 41.0345 99.7682 40.2598 101.91C39.0293 105.374 38.4141 108.108 38.4141 110.113C38.4141 112.073 38.7559 113.531 39.4395 114.488C40.1686 115.4 41.513 115.855 43.4727 115.855L47.5742 115.514C49.2148 115.514 50.0352 116.174 50.0352 117.496C50.0352 119.182 48.554 120.025 45.5918 120.025L34.2441 119ZM81.4805 81.9492L65.2109 41.207C62.0664 49.1823 56.4382 62.763 48.3262 81.9492H81.4805Z" fill="black"/>
<path d="M104.887 169.805C101.924 169.805 100.443 168.962 100.443 167.276C100.443 165.954 101.264 165.294 102.904 165.294L106.254 165.635C108.715 165.635 110.424 164.45 111.381 162.081C112.429 159.437 112.953 154.447 112.953 147.11V98.8483C112.953 91.192 112.566 86.4069 111.791 84.4928C111.016 82.5787 110.173 81.3938 109.262 80.9381C108.35 80.4824 107.211 80.2545 105.844 80.2545L102.904 80.5963C101.264 80.5963 100.443 79.9355 100.443 78.6139C100.443 76.9277 101.697 76.0846 104.203 76.0846C106.71 76.0846 108.897 76.2669 110.766 76.6315C112.634 76.996 114.411 77.1783 116.098 77.1783C117.829 77.1783 119.402 77.0872 120.814 76.9049C122.227 76.7226 123.708 76.5403 125.258 76.358C129.633 75.7656 133.461 75.4694 136.742 75.4694C140.023 75.4694 143.305 75.9479 146.586 76.9049C149.913 77.8619 152.761 79.2291 155.131 81.0065C160.144 84.6979 162.65 89.483 162.65 95.3619C162.65 103.155 159.346 109.763 152.738 115.186C158.435 116.781 163.22 119.971 167.094 124.756C171.15 129.724 173.178 135.261 173.178 141.368C173.178 150.027 170.307 157.045 164.564 162.422C158.822 167.8 151.303 170.489 142.006 170.489C139.089 170.489 135.694 170.284 131.82 169.874C124.301 169.144 119.242 168.78 116.645 168.78L104.887 169.805ZM123.686 113.887C128.79 114.389 132.937 114.639 136.127 114.639C140.73 114.639 143.555 114.571 144.604 114.434C145.652 114.297 146.609 113.842 147.475 113.067C148.34 112.292 149.138 111.29 149.867 110.059C151.553 107.234 152.396 104.226 152.396 101.036C152.396 97.8457 151.85 95.0429 150.756 92.6276C149.662 90.1666 148.181 88.0703 146.312 86.3385C142.484 82.875 137.676 81.1432 131.889 81.1432C129.109 81.1432 126.488 81.6217 124.027 82.5787C123.891 84.8574 123.799 86.5891 123.754 87.774C123.754 88.9134 123.731 89.9388 123.686 90.8502C123.686 91.7617 123.686 92.582 123.686 93.3112V113.887ZM155.541 127.833C153.673 125.463 151.348 123.572 148.568 122.159C145.834 120.7 143.236 119.971 140.775 119.971H133.324C130.772 119.971 127.559 120.085 123.686 120.313V137.266C123.686 147.475 123.845 155.336 124.164 160.85C128.22 163.402 133.438 164.678 139.818 164.678C149.981 164.678 156.658 161.033 159.848 153.741C160.896 151.28 161.42 148.432 161.42 145.196C161.42 141.915 160.919 138.793 159.916 135.831C158.913 132.823 157.455 130.157 155.541 127.833Z" fill="black"/>
</svg>
