<svg width="240" height="220" viewBox="0 0 240 220" fill="none" xmlns="http://www.w3.org/2000/svg">
<path d="M0 22C0 9.84974 10.7452 0 24 0H216C229.255 0 240 9.84974 240 22V198C240 210.15 229.255 220 216 220H24C10.7452 220 0 210.15 0 198V22Z" fill="#E3BE5E"/>
<path d="M51.3659 136.6C48.6563 136.6 46.106 136.77 43.7152 137.11C41.3775 137.499 38.8272 137.694 36.0644 137.694C33.3548 137.694 32 136.892 32 135.288C32 133.636 33.2486 132.81 35.7457 132.81C38.349 132.81 40.2086 132.373 41.3243 131.498C43.1307 129.992 44.9106 127.538 46.6639 124.137C48.4172 120.736 50.0377 117.553 51.5253 114.589C53.0661 111.625 54.8194 108.176 56.7852 104.24C58.751 100.255 60.9027 95.8339 63.2405 90.9749C65.6313 86.0674 68.1284 80.8683 70.7318 75.3777C77.5325 60.9467 82.0219 51.2531 84.2003 46.297C86.3786 41.2923 87.574 38.5227 87.7866 37.9882C88.0522 37.4538 88.3179 36.9679 88.5835 36.5306C89.2742 35.5102 89.8586 35 90.3368 35C90.815 35 91.2134 35.0729 91.5322 35.2187C91.851 35.3158 92.1963 35.5345 92.5683 35.8746C93.3652 36.7978 94.1622 38.1826 94.9591 40.029C95.7561 41.8268 96.8187 44.2806 98.1469 47.3903C99.5283 50.5 101.096 54.0227 102.849 57.9585C104.602 61.8942 106.462 66.1215 108.428 70.6403C110.393 75.1591 112.359 79.6779 114.325 84.1967C116.344 88.6669 118.283 93.0157 120.143 97.2429C122.055 101.47 123.756 105.284 125.243 108.686C129.812 118.841 132.735 124.915 134.01 126.907C135.285 128.899 136.347 130.284 137.198 131.061C138.526 132.227 140.492 132.81 143.095 132.81C145.698 132.81 147 133.636 147 135.288C147 136.892 145.326 137.694 141.979 137.694C140.545 137.694 139.296 137.621 138.234 137.475C137.224 137.378 136.188 137.281 135.125 137.183C132.044 136.795 129.308 136.6 126.917 136.6L111.536 137.694C108.082 137.694 106.356 136.795 106.356 134.997C106.356 133.539 107.312 132.81 109.225 132.81L114.006 133.321C116.025 133.321 117.353 132.932 117.991 132.154C118.629 131.328 118.947 130.308 118.947 129.093C118.947 126.81 117.885 123.263 115.76 118.452L109.145 103.292H64.9141C63.6389 106.208 62.4435 108.88 61.3278 111.31C60.2652 113.739 59.2823 116.096 58.3791 118.379C56.9446 122.072 56.2273 124.987 56.2273 127.125C56.2273 129.215 56.6258 130.77 57.4227 131.79C58.2728 132.762 59.8401 133.248 62.1247 133.248L66.9064 132.883C68.8191 132.883 69.7755 133.588 69.7755 134.997C69.7755 136.795 68.0487 137.694 64.5953 137.694L51.3659 136.6ZM106.435 97.0972L87.4678 53.6583C83.8018 62.1614 77.2402 76.6411 67.7831 97.0972H106.435Z" fill="white"/>
<path d="M127.699 184.323C124.237 184.323 122.506 183.489 122.506 181.82C122.506 180.512 123.465 179.858 125.382 179.858L129.297 180.196C132.173 180.196 134.17 179.023 135.288 176.678C136.513 174.062 137.126 169.123 137.126 161.861V114.094C137.126 106.516 136.673 101.78 135.768 99.8853C134.862 97.9908 133.877 96.8181 132.812 96.367C131.747 95.9159 130.415 95.6904 128.817 95.6904L125.382 96.0287C123.465 96.0287 122.506 95.3747 122.506 94.0666C122.506 92.3977 123.971 91.5632 126.9 91.5632C129.829 91.5632 132.386 91.7436 134.569 92.1045C136.753 92.4653 138.83 92.6458 140.8 92.6458C142.824 92.6458 144.662 92.5556 146.313 92.3751C147.964 92.1947 149.695 92.0143 151.505 91.8339C156.618 91.2475 161.092 90.9543 164.926 90.9543C168.761 90.9543 172.596 91.4279 176.43 92.3751C180.318 93.3224 183.647 94.6755 186.416 96.4347C192.274 100.088 195.204 104.824 195.204 110.643C195.204 118.356 191.342 124.896 183.62 130.264C190.277 131.843 195.869 135 200.396 139.736C205.136 144.653 207.506 150.133 207.506 156.177C207.506 164.747 204.151 171.694 197.44 177.016C190.73 182.339 181.942 185 171.078 185C167.669 185 163.701 184.797 159.175 184.391C150.387 183.669 144.475 183.309 141.44 183.309L127.699 184.323ZM149.668 128.979C155.633 129.475 160.479 129.723 164.207 129.723C169.586 129.723 172.888 129.655 174.113 129.52C175.338 129.384 176.457 128.933 177.469 128.167C178.481 127.4 179.413 126.407 180.265 125.19C182.235 122.393 183.221 119.416 183.221 116.259C183.221 113.101 182.581 110.327 181.303 107.937C180.025 105.501 178.294 103.426 176.111 101.712C171.637 98.284 166.018 96.57 159.254 96.57C156.006 96.57 152.943 97.0436 150.067 97.9908C149.908 100.246 149.801 101.96 149.748 103.133C149.748 104.261 149.721 105.275 149.668 106.178C149.668 107.08 149.668 107.892 149.668 108.613V128.979ZM186.895 142.781C184.712 140.435 181.996 138.564 178.747 137.165C175.551 135.722 172.516 135 169.64 135H160.932C157.95 135 154.195 135.113 149.668 135.338V152.118C149.668 162.222 149.854 170.002 150.227 175.46C154.967 177.986 161.065 179.249 168.521 179.249C180.398 179.249 188.2 175.641 191.928 168.424C193.153 165.988 193.766 163.169 193.766 159.966C193.766 156.719 193.18 153.629 192.008 150.697C190.836 147.72 189.132 145.081 186.895 142.781Z" fill="white"/>
</svg>
