<svg width="111" height="146" viewBox="0 0 111 146" fill="none" xmlns="http://www.w3.org/2000/svg">
<path d="M11.4531 83C9.85938 83 8.35938 83.1094 6.95312 83.3281C5.57812 83.5781 4.07812 83.7031 2.45312 83.7031C0.859375 83.7031 0.0625 83.1875 0.0625 82.1562C0.0625 81.0938 0.796875 80.5625 2.26562 80.5625C3.79688 80.5625 4.89062 80.2812 5.54688 79.7188C6.60938 78.75 7.65625 77.1719 8.6875 74.9844C9.71875 72.7969 10.6719 70.75 11.5469 68.8438C12.4531 66.9375 13.4844 64.7188 14.6406 62.1875C15.7969 59.625 17.0625 56.7812 18.4375 53.6562C19.8438 50.5 21.3125 47.1562 22.8438 43.625C26.8438 34.3438 29.4844 28.1094 30.7656 24.9219C32.0469 21.7031 32.75 19.9219 32.875 19.5781C33.0312 19.2344 33.1875 18.9219 33.3438 18.6406C33.75 17.9844 34.0938 17.6562 34.375 17.6562C34.6562 17.6562 34.8906 17.7031 35.0781 17.7969C35.2656 17.8594 35.4688 18 35.6875 18.2188C36.1562 18.8125 36.625 19.7031 37.0938 20.8906C37.5625 22.0469 38.1875 23.625 38.9688 25.625C39.7812 27.625 40.7031 29.8906 41.7344 32.4219C42.7656 34.9531 43.8594 37.6719 45.0156 40.5781C46.1719 43.4844 47.3281 46.3906 48.4844 49.2969C49.6719 52.1719 50.8125 54.9688 51.9062 57.6875C53.0312 60.4062 54.0312 62.8594 54.9062 65.0469C57.5938 71.5781 59.3125 75.4844 60.0625 76.7656C60.8125 78.0469 61.4375 78.9375 61.9375 79.4375C62.7188 80.1875 63.875 80.5625 65.4062 80.5625C66.9375 80.5625 67.7031 81.0938 67.7031 82.1562C67.7031 83.1875 66.7188 83.7031 64.75 83.7031C63.9062 83.7031 63.1719 83.6562 62.5469 83.5625C61.9531 83.5 61.3438 83.4375 60.7188 83.375C58.9062 83.125 57.2969 83 55.8906 83L46.8438 83.7031C44.8125 83.7031 43.7969 83.125 43.7969 81.9688C43.7969 81.0312 44.3594 80.5625 45.4844 80.5625L48.2969 80.8906C49.4844 80.8906 50.2656 80.6406 50.6406 80.1406C51.0156 79.6094 51.2031 78.9531 51.2031 78.1719C51.2031 76.7031 50.5781 74.4219 49.3281 71.3281L45.4375 61.5781H19.4219C18.6719 63.4531 17.9688 65.1719 17.3125 66.7344C16.6875 68.2969 16.1094 69.8125 15.5781 71.2812C14.7344 73.6562 14.3125 75.5312 14.3125 76.9062C14.3125 78.25 14.5469 79.25 15.0156 79.9062C15.5156 80.5312 16.4375 80.8438 17.7812 80.8438L20.5938 80.6094C21.7188 80.6094 22.2812 81.0625 22.2812 81.9688C22.2812 83.125 21.2656 83.7031 19.2344 83.7031L11.4531 83ZM43.8438 57.5938L32.6875 29.6562C30.5312 35.125 26.6719 44.4375 21.1094 57.5938H43.8438Z" fill="black"/>
<path d="M59.0938 117.703C57.0625 117.703 56.0469 117.125 56.0469 115.969C56.0469 115.062 56.6094 114.609 57.7344 114.609L60.0312 114.844C61.7188 114.844 62.8906 114.031 63.5469 112.406C64.2656 110.594 64.625 107.172 64.625 102.141V69.0469C64.625 63.7969 64.3594 60.5156 63.8281 59.2031C63.2969 57.8906 62.7188 57.0781 62.0938 56.7656C61.4688 56.4531 60.6875 56.2969 59.75 56.2969L57.7344 56.5312C56.6094 56.5312 56.0469 56.0781 56.0469 55.1719C56.0469 54.0156 56.9062 53.4375 58.625 53.4375C60.3438 53.4375 61.8438 53.5625 63.125 53.8125C64.4062 54.0625 65.625 54.1875 66.7812 54.1875C67.9688 54.1875 69.0469 54.125 70.0156 54C70.9844 53.875 72 53.75 73.0625 53.625C76.0625 53.2188 78.6875 53.0156 80.9375 53.0156C83.1875 53.0156 85.4375 53.3438 87.6875 54C89.9688 54.6562 91.9219 55.5938 93.5469 56.8125C96.9844 59.3438 98.7031 62.625 98.7031 66.6562C98.7031 72 96.4375 76.5312 91.9062 80.25C95.8125 81.3438 99.0938 83.5312 101.75 86.8125C104.531 90.2188 105.922 94.0156 105.922 98.2031C105.922 104.141 103.953 108.953 100.016 112.641C96.0781 116.328 90.9219 118.172 84.5469 118.172C82.5469 118.172 80.2188 118.031 77.5625 117.75C72.4062 117.25 68.9375 117 67.1562 117L59.0938 117.703ZM71.9844 79.3594C75.4844 79.7031 78.3281 79.875 80.5156 79.875C83.6719 79.875 85.6094 79.8281 86.3281 79.7344C87.0469 79.6406 87.7031 79.3281 88.2969 78.7969C88.8906 78.2656 89.4375 77.5781 89.9375 76.7344C91.0938 74.7969 91.6719 72.7344 91.6719 70.5469C91.6719 68.3594 91.2969 66.4375 90.5469 64.7812C89.7969 63.0938 88.7812 61.6562 87.5 60.4688C84.875 58.0938 81.5781 56.9062 77.6094 56.9062C75.7031 56.9062 73.9062 57.2344 72.2188 57.8906C72.125 59.4531 72.0625 60.6406 72.0312 61.4531C72.0312 62.2344 72.0156 62.9375 71.9844 63.5625C71.9844 64.1875 71.9844 64.75 71.9844 65.25V79.3594ZM93.8281 88.9219C92.5469 87.2969 90.9531 86 89.0469 85.0312C87.1719 84.0312 85.3906 83.5312 83.7031 83.5312H78.5938C76.8438 83.5312 74.6406 83.6094 71.9844 83.7656V95.3906C71.9844 102.391 72.0938 107.781 72.3125 111.562C75.0938 113.312 78.6719 114.188 83.0469 114.188C90.0156 114.188 94.5938 111.688 96.7812 106.688C97.5 105 97.8594 103.047 97.8594 100.828C97.8594 98.5781 97.5156 96.4375 96.8281 94.4062C96.1406 92.3438 95.1406 90.5156 93.8281 88.9219Z" fill="black"/>
<path d="M20.2188 126C21.4062 126 22.3594 126.258 23.0781 126.773C23.8125 127.289 24.3438 128.102 24.6719 129.211C25.0156 130.305 25.1875 131.758 25.1875 133.57C25.1875 135.383 25.0234 136.828 24.6953 137.906C24.3672 138.984 23.8359 139.773 23.1016 140.273C22.3828 140.758 21.4297 141 20.2422 141H17.4531V126H20.2188ZM20.0781 139.617C21.0938 139.617 21.8438 139.414 22.3281 139.008C22.8281 138.586 23.1484 137.969 23.2891 137.156C23.4453 136.328 23.5234 135.133 23.5234 133.57C23.5234 131.977 23.4453 130.758 23.2891 129.914C23.1328 129.07 22.8047 128.438 22.3047 128.016C21.8203 127.594 21.0781 127.383 20.0781 127.383H18.9766V139.617H20.0781ZM27.7188 135.75C27.7188 134.078 28.0391 132.734 28.6797 131.719C29.3203 130.703 30.3438 130.195 31.75 130.195C32.6719 130.195 33.4453 130.438 34.0703 130.922C34.6953 131.406 35.1484 132.102 35.4297 133.008C35.7109 133.898 35.8125 134.969 35.7344 136.219H28.6094V134.883H35.0547L34.1172 135.75C34.1797 134.344 34.0156 133.297 33.625 132.609C33.2344 131.922 32.6094 131.578 31.75 131.578C30.9062 131.578 30.2891 131.898 29.8984 132.539C29.5234 133.18 29.3359 134.25 29.3359 135.75C29.3359 136.766 29.4297 137.578 29.6172 138.188C29.8047 138.781 30.1094 139.227 30.5312 139.523C30.9531 139.805 31.5391 139.945 32.2891 139.945C32.7266 139.945 33.1562 139.898 33.5781 139.805C34.0156 139.711 34.4844 139.586 34.9844 139.43L35.2656 140.672C34.2812 141.094 33.25 141.305 32.1719 141.305C30.5781 141.305 29.4375 140.805 28.75 139.805C28.0625 138.789 27.7188 137.438 27.7188 135.75ZM41.9688 141.188C41.3594 141.188 40.7578 141.133 40.1641 141.023C39.5703 140.93 39.0078 140.789 38.4766 140.602L38.8047 139.336C39.9297 139.648 40.9688 139.805 41.9219 139.805C42.75 139.805 43.3438 139.68 43.7031 139.43C44.0781 139.164 44.2656 138.812 44.2656 138.375C44.2656 137.922 44.0781 137.57 43.7031 137.32C43.3281 137.055 42.75 136.781 41.9688 136.5C41.2812 136.25 40.7188 136.008 40.2812 135.773C39.8438 135.539 39.4688 135.219 39.1562 134.812C38.8594 134.391 38.7109 133.859 38.7109 133.219C38.7109 132.656 38.8594 132.156 39.1562 131.719C39.4688 131.281 39.9141 130.938 40.4922 130.688C41.0703 130.438 41.7656 130.312 42.5781 130.312C43.5469 130.312 44.5 130.438 45.4375 130.688L45.1797 132C44.3359 131.797 43.4922 131.695 42.6484 131.695C41.7734 131.695 41.1562 131.828 40.7969 132.094C40.4531 132.359 40.2812 132.711 40.2812 133.148C40.2812 133.617 40.4688 133.984 40.8438 134.25C41.2188 134.5 41.8125 134.766 42.625 135.047C43.3125 135.281 43.8672 135.508 44.2891 135.727C44.7109 135.945 45.0703 136.258 45.3672 136.664C45.6797 137.07 45.8359 137.594 45.8359 138.234C45.8359 138.875 45.6641 139.422 45.3203 139.875C44.9766 140.312 44.5078 140.641 43.9141 140.859C43.3359 141.078 42.6875 141.188 41.9688 141.188ZM52.1875 131.93L49.2812 131.742V130.5H53.7344V141H52.1875V131.93ZM51.5312 127.148C51.5312 126.727 51.6562 126.398 51.9062 126.164C52.1719 125.914 52.4922 125.789 52.8672 125.789C53.2422 125.789 53.5547 125.914 53.8047 126.164C54.0703 126.398 54.2031 126.727 54.2031 127.148C54.2031 127.57 54.0703 127.898 53.8047 128.133C53.5547 128.367 53.2422 128.484 52.8672 128.484C52.4922 128.484 52.1719 128.367 51.9062 128.133C51.6562 127.898 51.5312 127.57 51.5312 127.148ZM63.25 145.594C62.7812 145.594 62.3125 145.562 61.8438 145.5C61.3906 145.438 60.9375 145.352 60.4844 145.242L60.6719 144C61.4062 144.156 62.2422 144.234 63.1797 144.234C64.0859 144.234 64.7031 144.07 65.0312 143.742C65.3594 143.414 65.5234 142.875 65.5234 142.125V132.352L65.5938 131.93L65.7812 130.5H67.0938L67.0469 132V141.914C67.0469 143.195 66.7109 144.125 66.0391 144.703C65.3672 145.297 64.4375 145.594 63.25 145.594ZM63.0625 141.188C61.7188 141.188 60.7266 140.68 60.0859 139.664C59.4453 138.648 59.125 137.344 59.125 135.75C59.125 134.719 59.2578 133.797 59.5234 132.984C59.8047 132.172 60.2344 131.523 60.8125 131.039C61.4062 130.555 62.1641 130.312 63.0859 130.312C64.0078 130.312 64.75 130.555 65.3125 131.039C65.875 131.523 66.2891 132.234 66.5547 133.172L65.9219 133.547C65.6719 132.891 65.3203 132.414 64.8672 132.117C64.4141 131.82 63.8672 131.672 63.2266 131.672C62.6328 131.672 62.1562 131.805 61.7969 132.07C61.4531 132.336 61.2031 132.766 61.0469 133.359C60.8906 133.953 60.8125 134.75 60.8125 135.75C60.8125 136.75 60.8906 137.547 61.0469 138.141C61.2031 138.734 61.4531 139.164 61.7969 139.43C62.1562 139.695 62.6328 139.828 63.2266 139.828C63.8672 139.828 64.4141 139.68 64.8672 139.383C65.3203 139.086 65.6719 138.617 65.9219 137.977L66.5312 138.352C66.2656 139.273 65.8516 139.977 65.2891 140.461C64.7422 140.945 64 141.188 63.0625 141.188ZM69.9531 132.094L69.9062 130.5H71.3125L71.4766 132.141V141H69.9531V132.094ZM76.0234 134.133C76.0234 133.289 75.8984 132.688 75.6484 132.328C75.3984 131.969 74.9531 131.789 74.3125 131.789C73.7656 131.789 73.2266 131.953 72.6953 132.281C72.1641 132.594 71.6484 133.016 71.1484 133.547L70.4219 132.914C70.875 132.227 71.4844 131.641 72.25 131.156C73.0156 130.656 73.8047 130.406 74.6172 130.406C75.4922 130.406 76.1953 130.68 76.7266 131.227C77.2734 131.758 77.5469 132.672 77.5469 133.969V141H76.0234V134.133ZM83.9688 141.188C83.3594 141.188 82.7578 141.133 82.1641 141.023C81.5703 140.93 81.0078 140.789 80.4766 140.602L80.8047 139.336C81.9297 139.648 82.9688 139.805 83.9219 139.805C84.75 139.805 85.3438 139.68 85.7031 139.43C86.0781 139.164 86.2656 138.812 86.2656 138.375C86.2656 137.922 86.0781 137.57 85.7031 137.32C85.3281 137.055 84.75 136.781 83.9688 136.5C83.2812 136.25 82.7188 136.008 82.2812 135.773C81.8438 135.539 81.4688 135.219 81.1562 134.812C80.8594 134.391 80.7109 133.859 80.7109 133.219C80.7109 132.656 80.8594 132.156 81.1562 131.719C81.4688 131.281 81.9141 130.938 82.4922 130.688C83.0703 130.438 83.7656 130.312 84.5781 130.312C85.5469 130.312 86.5 130.438 87.4375 130.688L87.1797 132C86.3359 131.797 85.4922 131.695 84.6484 131.695C83.7734 131.695 83.1562 131.828 82.7969 132.094C82.4531 132.359 82.2812 132.711 82.2812 133.148C82.2812 133.617 82.4688 133.984 82.8438 134.25C83.2188 134.5 83.8125 134.766 84.625 135.047C85.3125 135.281 85.8672 135.508 86.2891 135.727C86.7109 135.945 87.0703 136.258 87.3672 136.664C87.6797 137.07 87.8359 137.594 87.8359 138.234C87.8359 138.875 87.6641 139.422 87.3203 139.875C86.9766 140.312 86.5078 140.641 85.9141 140.859C85.3359 141.078 84.6875 141.188 83.9688 141.188Z" fill="#636F73"/>
</svg>
