<svg width="281" height="250" viewBox="0 0 281 250" fill="none" xmlns="http://www.w3.org/2000/svg">
<path d="M0 166.276V163.764L6.26926 161.504C9.61286 160.164 12.2042 158.573 14.0431 156.731C15.8821 154.722 17.3867 151.959 18.557 148.443L70.2157 0H91.5311L142.438 149.447C143.775 153.131 145.28 155.978 146.951 157.987C148.623 159.829 151.214 161.42 154.725 162.76L157.734 163.764V166.276H94.0388V163.764L97.8004 162.508C101.311 161.169 103.401 159.327 104.07 156.983C104.906 154.471 104.822 151.541 103.819 148.192L92.0327 112.023H36.3617L24.3247 147.438C23.1545 151.122 22.7365 154.052 23.0709 156.229C23.5724 158.406 25.5786 160.164 29.0894 161.504L34.6063 163.764V166.276H0ZM38.1171 106.999H90.5281L65.2003 28.8848L38.1171 106.999Z" fill="#E3BE5E"/>
<path d="M141.434 250V247.488L145.948 245.73C149.292 244.39 151.549 242.716 152.719 240.707C154.057 238.697 154.725 236.018 154.725 232.669V101.557C154.725 98.0409 154.057 95.278 152.719 93.2686C151.549 91.2592 149.292 89.6685 145.948 88.4963L141.434 86.7381V84.2264H213.406C233.801 84.2264 248.513 87.994 257.541 95.5291C266.569 102.897 271.083 112.274 271.083 123.66C271.083 132.2 267.739 139.987 261.052 147.019C254.532 153.885 243.247 158.741 227.198 161.587C245.588 163.597 259.046 168.453 267.572 176.155C276.098 183.691 280.361 192.9 280.361 203.784C280.361 209.143 279.191 214.585 276.85 220.111C274.51 225.469 270.498 230.409 264.813 234.93C259.296 239.451 251.69 243.135 241.993 245.981C232.297 248.66 220.009 250 205.13 250H141.434ZM191.839 161.336H202.622C213.823 161.336 221.848 158.741 226.696 153.55C231.712 148.359 234.219 139.317 234.219 126.423C234.219 113.027 231.963 103.483 227.449 97.7897C222.935 92.0965 215.579 89.2498 205.381 89.2498H191.839V161.336ZM191.839 244.977H204.378C216.916 244.977 226.195 241.628 232.213 234.93C238.399 228.232 241.492 217.766 241.492 203.533C241.492 190.137 238.566 180.593 232.715 174.9C226.864 169.206 217.251 166.36 203.876 166.36H191.839V244.977Z" fill="#E3BE5E"/>
</svg>
